<?xml version="1.0" encoding="utf-8" standalone="no"?>
<!DOCTYPE svg PUBLIC "-//W3C//DTD SVG 1.1//EN"
  "http://www.w3.org/Graphics/SVG/1.1/DTD/svg11.dtd">
<svg xmlns:xlink="http://www.w3.org/1999/xlink" width="539.503125pt" height="323.39625pt" viewBox="0 0 539.503125 323.39625" xmlns="http://www.w3.org/2000/svg" version="1.1">
 
 <defs>
  <style type="text/css">*{stroke-linejoin: round; stroke-linecap: butt}</style>
 </defs>
 <g id="figure_1">
  <g id="patch_1">
   <path d="M 0 323.39625 
L 539.503125 323.39625 
L 539.503125 0 
L 0 0 
z
" style="fill: #b2b2b2"/>
  </g>
  <g id="axes_1">
   <g id="patch_2">
    <path d="M 30.103125 299.518125 
L 532.303125 299.518125 
L 532.303125 22.318125 
L 30.103125 22.318125 
z
" style="fill: #e6e6e6"/>
   </g>
   <g id="matplotlib.axis_1">
    <g id="xtick_1">
     <g id="line2d_1">
      <defs>
       <path id="ma78f911f2e" d="M 0 0 
L 0 3.5 
" style="stroke: #000000; stroke-width: 0.8"/>
      </defs>
      <g>
       <use xlink:href="#ma78f911f2e" x="70.010172" y="299.518125" style="stroke: #000000; stroke-width: 0.8"/>
      </g>
     </g>
     <g id="text_1">
      <!-- 2019 -->
      <g transform="translate(57.285172 314.116563) scale(0.1 -0.1)">
       <defs>
        <path id="DejaVuSans-32" d="M 1228 531 
L 3431 531 
L 3431 0 
L 469 0 
L 469 531 
Q 828 903 1448 1529 
Q 2069 2156 2228 2338 
Q 2531 2678 2651 2914 
Q 2772 3150 2772 3378 
Q 2772 3750 2511 3984 
Q 2250 4219 1831 4219 
Q 1534 4219 1204 4116 
Q 875 4013 500 3803 
L 500 4441 
Q 881 4594 1212 4672 
Q 1544 4750 1819 4750 
Q 2544 4750 2975 4387 
Q 3406 4025 3406 3419 
Q 3406 3131 3298 2873 
Q 3191 2616 2906 2266 
Q 2828 2175 2409 1742 
Q 1991 1309 1228 531 
z
" transform="scale(0.015625)"/>
        <path id="DejaVuSans-30" d="M 2034 4250 
Q 1547 4250 1301 3770 
Q 1056 3291 1056 2328 
Q 1056 1369 1301 889 
Q 1547 409 2034 409 
Q 2525 409 2770 889 
Q 3016 1369 3016 2328 
Q 3016 3291 2770 3770 
Q 2525 4250 2034 4250 
z
M 2034 4750 
Q 2819 4750 3233 4129 
Q 3647 3509 3647 2328 
Q 3647 1150 3233 529 
Q 2819 -91 2034 -91 
Q 1250 -91 836 529 
Q 422 1150 422 2328 
Q 422 3509 836 4129 
Q 1250 4750 2034 4750 
z
" transform="scale(0.015625)"/>
        <path id="DejaVuSans-31" d="M 794 531 
L 1825 531 
L 1825 4091 
L 703 3866 
L 703 4441 
L 1819 4666 
L 2450 4666 
L 2450 531 
L 3481 531 
L 3481 0 
L 794 0 
L 794 531 
z
" transform="scale(0.015625)"/>
        <path id="DejaVuSans-39" d="M 703 97 
L 703 672 
Q 941 559 1184 500 
Q 1428 441 1663 441 
Q 2288 441 2617 861 
Q 2947 1281 2994 2138 
Q 2813 1869 2534 1725 
Q 2256 1581 1919 1581 
Q 1219 1581 811 2004 
Q 403 2428 403 3163 
Q 403 3881 828 4315 
Q 1253 4750 1959 4750 
Q 2769 4750 3195 4129 
Q 3622 3509 3622 2328 
Q 3622 1225 3098 567 
Q 2575 -91 1691 -91 
Q 1453 -91 1209 -44 
Q 966 3 703 97 
z
M 1959 2075 
Q 2384 2075 2632 2365 
Q 2881 2656 2881 3163 
Q 2881 3666 2632 3958 
Q 2384 4250 1959 4250 
Q 1534 4250 1286 3958 
Q 1038 3666 1038 3163 
Q 1038 2656 1286 2365 
Q 1534 2075 1959 2075 
z
" transform="scale(0.015625)"/>
       </defs>
       <use xlink:href="#DejaVuSans-32"/>
       <use xlink:href="#DejaVuSans-30" transform="translate(63.623047 0)"/>
       <use xlink:href="#DejaVuSans-31" transform="translate(127.246094 0)"/>
       <use xlink:href="#DejaVuSans-39" transform="translate(190.869141 0)"/>
      </g>
     </g>
    </g>
    <g id="xtick_2">
     <g id="line2d_2">
      <g>
       <use xlink:href="#ma78f911f2e" x="131.212155" y="299.518125" style="stroke: #000000; stroke-width: 0.8"/>
      </g>
     </g>
     <g id="text_2">
      <!-- 2020 -->
      <g transform="translate(118.487155 314.116563) scale(0.1 -0.1)">
       <use xlink:href="#DejaVuSans-32"/>
       <use xlink:href="#DejaVuSans-30" transform="translate(63.623047 0)"/>
       <use xlink:href="#DejaVuSans-32" transform="translate(127.246094 0)"/>
       <use xlink:href="#DejaVuSans-30" transform="translate(190.869141 0)"/>
      </g>
     </g>
    </g>
    <g id="xtick_3">
     <g id="line2d_3">
      <g>
       <use xlink:href="#ma78f911f2e" x="192.581815" y="299.518125" style="stroke: #000000; stroke-width: 0.8"/>
      </g>
     </g>
     <g id="text_3">
      <!-- 2021 -->
      <g transform="translate(179.856815 314.116563) scale(0.1 -0.1)">
       <use xlink:href="#DejaVuSans-32"/>
       <use xlink:href="#DejaVuSans-30" transform="translate(63.623047 0)"/>
       <use xlink:href="#DejaVuSans-32" transform="translate(127.246094 0)"/>
       <use xlink:href="#DejaVuSans-31" transform="translate(190.869141 0)"/>
      </g>
     </g>
    </g>
    <g id="xtick_4">
     <g id="line2d_4">
      <g>
       <use xlink:href="#ma78f911f2e" x="253.783798" y="299.518125" style="stroke: #000000; stroke-width: 0.8"/>
      </g>
     </g>
     <g id="text_4">
      <!-- 2022 -->
      <g transform="translate(241.058798 314.116563) scale(0.1 -0.1)">
       <use xlink:href="#DejaVuSans-32"/>
       <use xlink:href="#DejaVuSans-30" transform="translate(63.623047 0)"/>
       <use xlink:href="#DejaVuSans-32" transform="translate(127.246094 0)"/>
       <use xlink:href="#DejaVuSans-32" transform="translate(190.869141 0)"/>
      </g>
     </g>
    </g>
    <g id="xtick_5">
     <g id="line2d_5">
      <g>
       <use xlink:href="#ma78f911f2e" x="314.985781" y="299.518125" style="stroke: #000000; stroke-width: 0.8"/>
      </g>
     </g>
     <g id="text_5">
      <!-- 2023 -->
      <g transform="translate(302.260781 314.116563) scale(0.1 -0.1)">
       <defs>
        <path id="DejaVuSans-33" d="M 2597 2516 
Q 3050 2419 3304 2112 
Q 3559 1806 3559 1356 
Q 3559 666 3084 287 
Q 2609 -91 1734 -91 
Q 1441 -91 1130 -33 
Q 819 25 488 141 
L 488 750 
Q 750 597 1062 519 
Q 1375 441 1716 441 
Q 2309 441 2620 675 
Q 2931 909 2931 1356 
Q 2931 1769 2642 2001 
Q 2353 2234 1838 2234 
L 1294 2234 
L 1294 2753 
L 1863 2753 
Q 2328 2753 2575 2939 
Q 2822 3125 2822 3475 
Q 2822 3834 2567 4026 
Q 2313 4219 1838 4219 
Q 1578 4219 1281 4162 
Q 984 4106 628 3988 
L 628 4550 
Q 988 4650 1302 4700 
Q 1616 4750 1894 4750 
Q 2613 4750 3031 4423 
Q 3450 4097 3450 3541 
Q 3450 3153 3228 2886 
Q 3006 2619 2597 2516 
z
" transform="scale(0.015625)"/>
       </defs>
       <use xlink:href="#DejaVuSans-32"/>
       <use xlink:href="#DejaVuSans-30" transform="translate(63.623047 0)"/>
       <use xlink:href="#DejaVuSans-32" transform="translate(127.246094 0)"/>
       <use xlink:href="#DejaVuSans-33" transform="translate(190.869141 0)"/>
      </g>
     </g>
    </g>
    <g id="xtick_6">
     <g id="line2d_6">
      <g>
       <use xlink:href="#ma78f911f2e" x="376.187765" y="299.518125" style="stroke: #000000; stroke-width: 0.8"/>
      </g>
     </g>
     <g id="text_6">
      <!-- 2024 -->
      <g transform="translate(363.462765 314.116563) scale(0.1 -0.1)">
       <defs>
        <path id="DejaVuSans-34" d="M 2419 4116 
L 825 1625 
L 2419 1625 
L 2419 4116 
z
M 2253 4666 
L 3047 4666 
L 3047 1625 
L 3713 1625 
L 3713 1100 
L 3047 1100 
L 3047 0 
L 2419 0 
L 2419 1100 
L 313 1100 
L 313 1709 
L 2253 4666 
z
" transform="scale(0.015625)"/>
       </defs>
       <use xlink:href="#DejaVuSans-32"/>
       <use xlink:href="#DejaVuSans-30" transform="translate(63.623047 0)"/>
       <use xlink:href="#DejaVuSans-32" transform="translate(127.246094 0)"/>
       <use xlink:href="#DejaVuSans-34" transform="translate(190.869141 0)"/>
      </g>
     </g>
    </g>
    <g id="xtick_7">
     <g id="line2d_7">
      <g>
       <use xlink:href="#ma78f911f2e" x="437.557425" y="299.518125" style="stroke: #000000; stroke-width: 0.8"/>
      </g>
     </g>
     <g id="text_7">
      <!-- 2025 -->
      <g transform="translate(424.832425 314.116563) scale(0.1 -0.1)">
       <defs>
        <path id="DejaVuSans-35" d="M 691 4666 
L 3169 4666 
L 3169 4134 
L 1269 4134 
L 1269 2991 
Q 1406 3038 1543 3061 
Q 1681 3084 1819 3084 
Q 2600 3084 3056 2656 
Q 3513 2228 3513 1497 
Q 3513 744 3044 326 
Q 2575 -91 1722 -91 
Q 1428 -91 1123 -41 
Q 819 9 494 109 
L 494 744 
Q 775 591 1075 516 
Q 1375 441 1709 441 
Q 2250 441 2565 725 
Q 2881 1009 2881 1497 
Q 2881 1984 2565 2268 
Q 2250 2553 1709 2553 
Q 1456 2553 1204 2497 
Q 953 2441 691 2322 
L 691 4666 
z
" transform="scale(0.015625)"/>
       </defs>
       <use xlink:href="#DejaVuSans-32"/>
       <use xlink:href="#DejaVuSans-30" transform="translate(63.623047 0)"/>
       <use xlink:href="#DejaVuSans-32" transform="translate(127.246094 0)"/>
       <use xlink:href="#DejaVuSans-35" transform="translate(190.869141 0)"/>
      </g>
     </g>
    </g>
    <g id="xtick_8">
     <g id="line2d_8">
      <g>
       <use xlink:href="#ma78f911f2e" x="498.759408" y="299.518125" style="stroke: #000000; stroke-width: 0.8"/>
      </g>
     </g>
     <g id="text_8">
      <!-- 2026 -->
      <g transform="translate(486.034408 314.116563) scale(0.1 -0.1)">
       <defs>
        <path id="DejaVuSans-36" d="M 2113 2584 
Q 1688 2584 1439 2293 
Q 1191 2003 1191 1497 
Q 1191 994 1439 701 
Q 1688 409 2113 409 
Q 2538 409 2786 701 
Q 3034 994 3034 1497 
Q 3034 2003 2786 2293 
Q 2538 2584 2113 2584 
z
M 3366 4563 
L 3366 3988 
Q 3128 4100 2886 4159 
Q 2644 4219 2406 4219 
Q 1781 4219 1451 3797 
Q 1122 3375 1075 2522 
Q 1259 2794 1537 2939 
Q 1816 3084 2150 3084 
Q 2853 3084 3261 2657 
Q 3669 2231 3669 1497 
Q 3669 778 3244 343 
Q 2819 -91 2113 -91 
Q 1303 -91 875 529 
Q 447 1150 447 2328 
Q 447 3434 972 4092 
Q 1497 4750 2381 4750 
Q 2619 4750 2861 4703 
Q 3103 4656 3366 4563 
z
" transform="scale(0.015625)"/>
       </defs>
       <use xlink:href="#DejaVuSans-32"/>
       <use xlink:href="#DejaVuSans-30" transform="translate(63.623047 0)"/>
       <use xlink:href="#DejaVuSans-32" transform="translate(127.246094 0)"/>
       <use xlink:href="#DejaVuSans-36" transform="translate(190.869141 0)"/>
      </g>
     </g>
    </g>
   </g>
   <g id="matplotlib.axis_2">
    <g id="ytick_1">
     <g id="line2d_9">
      <defs>
       <path id="ma562af20d9" d="M 0 0 
L -3.5 0 
" style="stroke: #000000; stroke-width: 0.8"/>
      </defs>
      <g>
       <use xlink:href="#ma562af20d9" x="30.103125" y="299.518125" style="stroke: #000000; stroke-width: 0.8"/>
      </g>
     </g>
     <g id="text_9">
      <!-- 0.0 -->
      <g transform="translate(7.2 303.317344) scale(0.1 -0.1)">
       <defs>
        <path id="DejaVuSans-2e" d="M 684 794 
L 1344 794 
L 1344 0 
L 684 0 
L 684 794 
z
" transform="scale(0.015625)"/>
       </defs>
       <use xlink:href="#DejaVuSans-30"/>
       <use xlink:href="#DejaVuSans-2e" transform="translate(63.623047 0)"/>
       <use xlink:href="#DejaVuSans-30" transform="translate(95.410156 0)"/>
      </g>
     </g>
    </g>
    <g id="ytick_2">
     <g id="line2d_10">
      <g>
       <use xlink:href="#ma562af20d9" x="30.103125" y="253.669167" style="stroke: #000000; stroke-width: 0.8"/>
      </g>
     </g>
     <g id="text_10">
      <!-- 0.5 -->
      <g transform="translate(7.2 257.468385) scale(0.1 -0.1)">
       <use xlink:href="#DejaVuSans-30"/>
       <use xlink:href="#DejaVuSans-2e" transform="translate(63.623047 0)"/>
       <use xlink:href="#DejaVuSans-35" transform="translate(95.410156 0)"/>
      </g>
     </g>
    </g>
    <g id="ytick_3">
     <g id="line2d_11">
      <g>
       <use xlink:href="#ma562af20d9" x="30.103125" y="207.820208" style="stroke: #000000; stroke-width: 0.8"/>
      </g>
     </g>
     <g id="text_11">
      <!-- 1.0 -->
      <g transform="translate(7.2 211.619427) scale(0.1 -0.1)">
       <use xlink:href="#DejaVuSans-31"/>
       <use xlink:href="#DejaVuSans-2e" transform="translate(63.623047 0)"/>
       <use xlink:href="#DejaVuSans-30" transform="translate(95.410156 0)"/>
      </g>
     </g>
    </g>
    <g id="ytick_4">
     <g id="line2d_12">
      <g>
       <use xlink:href="#ma562af20d9" x="30.103125" y="161.97125" style="stroke: #000000; stroke-width: 0.8"/>
      </g>
     </g>
     <g id="text_12">
      <!-- 1.5 -->
      <g transform="translate(7.2 165.770468) scale(0.1 -0.1)">
       <use xlink:href="#DejaVuSans-31"/>
       <use xlink:href="#DejaVuSans-2e" transform="translate(63.623047 0)"/>
       <use xlink:href="#DejaVuSans-35" transform="translate(95.410156 0)"/>
      </g>
     </g>
    </g>
    <g id="ytick_5">
     <g id="line2d_13">
      <g>
       <use xlink:href="#ma562af20d9" x="30.103125" y="116.122291" style="stroke: #000000; stroke-width: 0.8"/>
      </g>
     </g>
     <g id="text_13">
      <!-- 2.0 -->
      <g transform="translate(7.2 119.92151) scale(0.1 -0.1)">
       <use xlink:href="#DejaVuSans-32"/>
       <use xlink:href="#DejaVuSans-2e" transform="translate(63.623047 0)"/>
       <use xlink:href="#DejaVuSans-30" transform="translate(95.410156 0)"/>
      </g>
     </g>
    </g>
    <g id="ytick_6">
     <g id="line2d_14">
      <g>
       <use xlink:href="#ma562af20d9" x="30.103125" y="70.273333" style="stroke: #000000; stroke-width: 0.8"/>
      </g>
     </g>
     <g id="text_14">
      <!-- 2.5 -->
      <g transform="translate(7.2 74.072552) scale(0.1 -0.1)">
       <use xlink:href="#DejaVuSans-32"/>
       <use xlink:href="#DejaVuSans-2e" transform="translate(63.623047 0)"/>
       <use xlink:href="#DejaVuSans-35" transform="translate(95.410156 0)"/>
      </g>
     </g>
    </g>
    <g id="ytick_7">
     <g id="line2d_15">
      <g>
       <use xlink:href="#ma562af20d9" x="30.103125" y="24.424374" style="stroke: #000000; stroke-width: 0.8"/>
      </g>
     </g>
     <g id="text_15">
      <!-- 3.0 -->
      <g transform="translate(7.2 28.223593) scale(0.1 -0.1)">
       <use xlink:href="#DejaVuSans-33"/>
       <use xlink:href="#DejaVuSans-2e" transform="translate(63.623047 0)"/>
       <use xlink:href="#DejaVuSans-30" transform="translate(95.410156 0)"/>
      </g>
     </g>
    </g>
   </g>
   <g id="line2d_16">
    <path d="M 8.808188 299.518125 
L 8.808188 22.318125 
" clip-path="url(#p6d14471b0e)" style="fill: none; stroke: #cccccc; stroke-linecap: square"/>
   </g>
   <g id="line2d_17">
    <path d="M 70.010172 299.518125 
L 70.010172 22.318125 
" clip-path="url(#p6d14471b0e)" style="fill: none; stroke: #cccccc; stroke-linecap: square"/>
   </g>
   <g id="line2d_18">
    <path d="M 131.212155 299.518125 
L 131.212155 22.318125 
" clip-path="url(#p6d14471b0e)" style="fill: none; stroke: #cccccc; stroke-linecap: square"/>
   </g>
   <g id="line2d_19">
    <path d="M 192.581815 299.518125 
L 192.581815 22.318125 
" clip-path="url(#p6d14471b0e)" style="fill: none; stroke: #cccccc; stroke-linecap: square"/>
   </g>
   <g id="line2d_20">
    <path d="M 253.783798 299.518125 
L 253.783798 22.318125 
" clip-path="url(#p6d14471b0e)" style="fill: none; stroke: #cccccc; stroke-linecap: square"/>
   </g>
   <g id="line2d_21">
    <path d="M 314.985781 299.518125 
L 314.985781 22.318125 
" clip-path="url(#p6d14471b0e)" style="fill: none; stroke: #cccccc; stroke-linecap: square"/>
   </g>
   <g id="line2d_22">
    <path d="M 376.187765 299.518125 
L 376.187765 22.318125 
" clip-path="url(#p6d14471b0e)" style="fill: none; stroke: #cccccc; stroke-linecap: square"/>
   </g>
   <g id="line2d_23">
    <path d="M 437.557425 299.518125 
L 437.557425 22.318125 
" clip-path="url(#p6d14471b0e)" style="fill: none; stroke: #cccccc; stroke-linecap: square"/>
   </g>
   <g id="line2d_24">
    <path d="M 498.759408 299.518125 
L 498.759408 22.318125 
" clip-path="url(#p6d14471b0e)" style="fill: none; stroke: #cccccc; stroke-linecap: square"/>
   </g>
   <g id="line2d_25">
    <path d="M 30.103125 299.518125 
L 532.303125 299.518125 
" clip-path="url(#p6d14471b0e)" style="fill: none; stroke: #cccccc; stroke-linecap: square"/>
   </g>
   <g id="line2d_26">
    <path d="M 30.103125 276.593646 
L 532.303125 276.593646 
" clip-path="url(#p6d14471b0e)" style="fill: none; stroke: #cccccc; stroke-linecap: square"/>
   </g>
   <g id="line2d_27">
    <path d="M 30.103125 253.669167 
L 532.303125 253.669167 
" clip-path="url(#p6d14471b0e)" style="fill: none; stroke: #cccccc; stroke-linecap: square"/>
   </g>
   <g id="line2d_28">
    <path d="M 30.103125 230.744687 
L 532.303125 230.744687 
" clip-path="url(#p6d14471b0e)" style="fill: none; stroke: #cccccc; stroke-linecap: square"/>
   </g>
   <g id="line2d_29">
    <path d="M 30.103125 207.820208 
L 532.303125 207.820208 
" clip-path="url(#p6d14471b0e)" style="fill: none; stroke: #cccccc; stroke-linecap: square"/>
   </g>
   <g id="line2d_30">
    <path d="M 30.103125 184.895729 
L 532.303125 184.895729 
" clip-path="url(#p6d14471b0e)" style="fill: none; stroke: #cccccc; stroke-linecap: square"/>
   </g>
   <g id="line2d_31">
    <path d="M 30.103125 161.97125 
L 532.303125 161.97125 
" clip-path="url(#p6d14471b0e)" style="fill: none; stroke: #cccccc; stroke-linecap: square"/>
   </g>
   <g id="line2d_32">
    <path d="M 30.103125 139.04677 
L 532.303125 139.04677 
" clip-path="url(#p6d14471b0e)" style="fill: none; stroke: #cccccc; stroke-linecap: square"/>
   </g>
   <g id="line2d_33">
    <path d="M 30.103125 116.122291 
L 532.303125 116.122291 
" clip-path="url(#p6d14471b0e)" style="fill: none; stroke: #cccccc; stroke-linecap: square"/>
   </g>
   <g id="line2d_34">
    <path d="M 30.103125 93.197812 
L 532.303125 93.197812 
" clip-path="url(#p6d14471b0e)" style="fill: none; stroke: #cccccc; stroke-linecap: square"/>
   </g>
   <g id="line2d_35">
    <path d="M 30.103125 70.273333 
L 532.303125 70.273333 
" clip-path="url(#p6d14471b0e)" style="fill: none; stroke: #cccccc; stroke-linecap: square"/>
   </g>
   <g id="line2d_36">
    <path d="M 30.103125 218.830324 
L 30.438478 218.749164 
L 35.133425 218.745954 
L 35.301102 218.563344 
L 38.319282 218.563344 
L 38.486958 217.914063 
L 40.499078 217.912161 
L 40.666755 216.612965 
L 44.187965 216.614867 
L 44.355642 215.638251 
L 47.709175 215.624935 
L 47.876852 211.727981 
L 54.751595 211.725752 
L 54.919272 211.401112 
L 55.757655 211.375115 
L 58.608158 211.373852 
L 58.775835 210.07529 
L 59.614218 210.07529 
L 59.781895 209.263689 
L 61.458662 209.214866 
L 61.626338 209.864147 
L 64.979872 209.858381 
L 65.147548 209.37142 
L 66.656638 209.370786 
L 66.991992 208.394329 
L 67.495022 208.394329 
L 67.662698 202.87544 
L 70.177848 202.872904 
L 70.345525 202.221087 
L 74.872795 202.21538 
L 75.040472 202.05306 
L 81.747538 201.996143 
L 81.915215 201.346228 
L 84.430365 201.338936 
L 84.598042 201.176616 
L 85.436425 201.17091 
L 85.604102 201.008589 
L 87.448545 200.999712 
L 87.783898 200.350431 
L 87.951575 200.008037 
L 88.622282 200.007403 
L 88.789958 199.682763 
L 88.957635 199.682683 
L 89.125312 199.331046 
L 91.137432 199.329144 
L 91.305108 197.373692 
L 92.478845 197.370522 
L 92.646522 197.045094 
L 93.484905 197.042399 
L 93.652582 196.067209 
L 105.054595 195.969479 
L 105.222272 192.730678 
L 105.389948 192.730505 
L 105.557625 184.939134 
L 110.084895 184.89144 
L 110.252572 184.89144 
L 110.420248 183.430558 
L 120.145495 183.427385 
L 120.313172 181.611435 
L 120.480848 181.286794 
L 122.660645 181.281722 
L 122.828322 180.632441 
L 125.175795 180.623574 
L 125.343472 179.325012 
L 126.517208 179.324378 
L 126.684885 178.675097 
L 132.385892 178.643547 
L 132.553568 177.655043 
L 135.907102 177.627109 
L 136.074778 177.465423 
L 144.123258 177.445772 
L 146.303055 177.402641 
L 146.470732 176.925815 
L 148.650528 176.914224 
L 148.818205 176.752537 
L 149.488912 176.751903 
L 149.656588 176.401029 
L 150.998002 176.392734 
L 151.165678 173.794342 
L 154.686888 173.789898 
L 154.854565 173.505838 
L 157.202038 173.50456 
L 157.369715 173.34224 
L 159.381835 173.380549 
L 159.549512 173.038154 
L 160.890925 173.018585 
L 165.418195 172.926096 
L 165.585872 172.759337 
L 166.424255 172.757477 
L 166.759608 172.56978 
L 167.597992 172.56978 
L 167.765668 171.920499 
L 168.436375 171.920434 
L 168.604052 161.531305 
L 168.771728 171.919721 
L 173.466675 171.907478 
L 173.634352 171.193483 
L 174.808088 171.193315 
L 174.975765 171.03039 
L 176.484855 171.021469 
L 176.652532 167.932311 
L 180.509095 167.920775 
L 180.676772 164.025029 
L 185.036365 163.932464 
L 185.204042 163.582381 
L 187.719192 163.576164 
L 187.886868 163.245976 
L 189.898988 163.243994 
L 190.066665 162.902826 
L 196.270702 162.887859 
L 196.438378 162.540392 
L 196.606055 162.540392 
L 196.773732 162.187216 
L 197.109085 162.102797 
L 197.779791 162.095337 
L 197.947468 161.851851 
L 201.301001 161.824535 
L 201.468678 162.174141 
L 201.804031 162.173121 
L 201.971708 161.499745 
L 202.474738 161.499721 
L 202.642415 160.201159 
L 202.977768 160.199888 
L 203.145445 160.035497 
L 208.343421 159.930409 
L 208.511098 159.275421 
L 212.367661 159.203666 
L 212.535338 159.040882 
L 212.870691 159.04001 
L 213.038368 158.061016 
L 214.044428 158.056258 
L 214.212105 157.706169 
L 215.385841 157.674815 
L 215.721195 157.578103 
L 218.907051 157.557052 
L 219.074728 157.199282 
L 220.080788 157.236105 
L 220.248465 155.774717 
L 224.272705 155.603763 
L 228.296945 155.579862 
L 228.464621 154.603404 
L 228.632298 154.441081 
L 228.799975 151.843953 
L 229.806035 151.843475 
L 229.973711 138.207896 
L 239.195928 138.125549 
L 239.531281 137.949914 
L 249.256528 137.907873 
L 249.424205 137.583217 
L 256.969655 137.475322 
L 257.137331 135.527326 
L 260.323188 135.466181 
L 260.490865 135.11808 
L 272.731261 135.086389 
L 272.898938 134.436633 
L 274.408028 134.43592 
L 274.575705 134.76056 
L 283.462568 134.681636 
L 283.630245 134.518682 
L 287.486808 134.47357 
L 287.654485 134.269084 
L 293.187815 134.224445 
L 293.355491 135.525691 
L 293.858521 135.525057 
L 294.026198 134.226495 
L 294.193875 134.226476 
L 294.361551 119.779974 
L 294.529228 115.381457 
L 295.535288 115.334504 
L 295.870641 114.019374 
L 296.876701 114.00276 
L 297.044378 113.832831 
L 299.224175 113.819791 
L 299.391851 126.155965 
L 301.068618 126.157352 
L 301.236295 119.339585 
L 301.571648 119.339585 
L 301.739325 123.877577 
L 310.961541 123.824873 
L 311.129218 123.175592 
L 317.333255 123.145375 
L 318.506991 123.141452 
L 318.674668 123.303772 
L 333.765568 123.257812 
L 334.100921 123.18648 
L 335.442335 123.185509 
L 335.610011 122.982332 
L 336.783748 122.980548 
L 336.951425 119.734143 
L 348.521115 119.731746 
L 348.688791 119.422573 
L 350.365558 119.410684 
L 350.533235 119.89495 
L 350.868588 119.88961 
L 351.036265 119.72729 
L 351.371618 119.72729 
L 351.539295 119.56497 
L 353.048385 119.555932 
L 353.216061 119.174781 
L 358.749391 119.162298 
L 358.917068 119.319387 
L 366.965548 119.246554 
L 367.133225 118.597273 
L 368.977668 118.597114 
L 369.145345 117.280164 
L 373.001908 117.23473 
L 373.337261 117.0927 
L 378.702915 117.105039 
L 378.870591 115.947715 
L 379.708975 115.94611 
L 379.876651 104.258419 
L 384.571598 104.249594 
L 384.739275 104.571614 
L 387.757455 104.536082 
L 387.925131 103.886597 
L 388.092808 104.535601 
L 397.482701 104.522885 
L 397.650378 104.685205 
L 398.991791 104.686156 
L 399.159468 104.107569 
L 403.016031 104.053965 
L 403.351385 103.641032 
L 403.686738 103.640715 
L 403.854415 104.777432 
L 406.872595 104.668214 
L 410.393805 104.624358 
L 410.729158 104.777511 
L 413.915015 104.774341 
L 414.250368 104.652601 
L 414.418045 104.977241 
L 414.753398 104.977241 
L 414.921075 105.464202 
L 415.927135 105.46331 
L 416.094811 105.13867 
L 419.448345 105.043818 
L 420.286728 104.922078 
L 421.292788 104.901787 
L 421.460465 103.601957 
L 421.795818 103.601957 
L 421.963495 101.567127 
L 423.640261 101.457317 
L 423.807938 101.700163 
L 425.317028 101.724892 
L 425.484705 101.390106 
L 427.832178 101.46668 
L 427.999855 101.142039 
L 429.005915 101.144365 
L 429.173591 100.981388 
L 433.868538 100.941521 
L 434.036215 96.396555 
L 435.377628 96.397189 
L 435.545305 95.747908 
L 445.941258 95.659117 
L 446.108935 95.171522 
L 446.444288 95.171522 
L 446.611965 95.008568 
L 446.947318 94.521607 
L 447.114995 94.521607 
L 447.282671 94.196095 
L 448.791761 94.196095 
L 448.959438 72.770457 
L 450.300851 72.704515 
L 451.306911 72.797088 
L 451.474588 72.459132 
L 452.312971 72.456437 
L 452.480648 72.131797 
L 454.157415 72.084559 
L 454.325091 68.513514 
L 454.828121 68.514148 
L 454.995798 65.558778 
L 457.678625 65.541659 
L 457.846301 65.375534 
L 460.026098 65.377436 
L 460.193775 64.71801 
L 462.876601 64.692014 
L 463.044278 64.194274 
L 464.553368 64.171408 
L 469.248315 64.141587 
L 469.415991 63.978633 
L 471.260435 63.957709 
L 471.428111 64.260791 
L 472.434171 64.199921 
L 472.769525 64.145986 
L 472.937201 63.820791 
L 473.607908 63.799867 
L 473.775585 63.475226 
L 473.943261 63.468886 
L 474.110938 62.941345 
L 476.961441 62.856816 
L 477.632148 62.795946 
L 485.177598 62.680111 
L 485.345275 62.195008 
L 485.680628 62.173405 
L 486.015981 62.316698 
L 486.686688 62.317293 
L 486.854365 62.966564 
L 490.543251 62.835129 
L 490.710928 63.142531 
L 498.424055 63.078639 
L 502.112941 62.975346 
L 502.280618 59.714992 
L 502.448295 51.273706 
L 502.615971 50.624425 
L 502.783648 50.624425 
L 502.951325 48.350673 
L 503.454355 48.338547 
L 503.622031 48.637825 
L 506.304858 48.633976 
L 506.472535 48.429129 
L 512.676571 48.303347 
L 513.514955 48.244379 
L 515.862428 48.14412 
L 519.215961 48.008941 
L 520.054345 47.950151 
L 520.054345 47.950151 
" clip-path="url(#p6d14471b0e)" style="fill: none; stroke: #1f77b4; stroke-width: 2; stroke-linecap: square"/>
   </g>
   <g id="patch_3">
    <path d="M 30.103125 299.518125 
L 30.103125 22.318125 
" style="fill: none; stroke: #000000; stroke-width: 0.8; stroke-linejoin: miter; stroke-linecap: square"/>
   </g>
   <g id="patch_4">
    <path d="M 532.303125 299.518125 
L 532.303125 22.318125 
" style="fill: none; stroke: #000000; stroke-width: 0.8; stroke-linejoin: miter; stroke-linecap: square"/>
   </g>
   <g id="patch_5">
    <path d="M 30.103125 299.518125 
L 532.303125 299.518125 
" style="fill: none; stroke: #000000; stroke-width: 0.8; stroke-linejoin: miter; stroke-linecap: square"/>
   </g>
   <g id="patch_6">
    <path d="M 30.103125 22.318125 
L 532.303125 22.318125 
" style="fill: none; stroke: #000000; stroke-width: 0.8; stroke-linejoin: miter; stroke-linecap: square"/>
   </g>
   <g id="patch_7">
    <path d="M 91.825025 181.239771 
Q 97.724075 182.828889 103.623125 184.418007 
" style="fill: none; stroke: #000000; stroke-linecap: round"/>
   </g>
   <g id="text_16">
    <g id="patch_8">
     <path d="M 38.486958 184.585617 
L 86.897274 184.585617 
Q 89.396274 184.585617 89.396274 182.086617 
L 89.396274 164.696961 
Q 89.396274 162.197961 86.897274 162.197961 
L 38.486958 162.197961 
Q 35.987958 162.197961 35.987958 164.696961 
L 35.987958 182.086617 
Q 35.987958 184.585617 38.486958 184.585617 
z
" style="fill: #cccccc; stroke: #000000; stroke-linejoin: miter"/>
    </g>
    <!-- 2019-08-01 -->
    <g transform="translate(38.486958 171.02646) scale(0.0833 -0.0833)">
     <defs>
      <path id="DejaVuSans-2d" d="M 313 2009 
L 1997 2009 
L 1997 1497 
L 313 1497 
L 313 2009 
z
" transform="scale(0.015625)"/>
      <path id="DejaVuSans-38" d="M 2034 2216 
Q 1584 2216 1326 1975 
Q 1069 1734 1069 1313 
Q 1069 891 1326 650 
Q 1584 409 2034 409 
Q 2484 409 2743 651 
Q 3003 894 3003 1313 
Q 3003 1734 2745 1975 
Q 2488 2216 2034 2216 
z
M 1403 2484 
Q 997 2584 770 2862 
Q 544 3141 544 3541 
Q 544 4100 942 4425 
Q 1341 4750 2034 4750 
Q 2731 4750 3128 4425 
Q 3525 4100 3525 3541 
Q 3525 3141 3298 2862 
Q 3072 2584 2669 2484 
Q 3125 2378 3379 2068 
Q 3634 1759 3634 1313 
Q 3634 634 3220 271 
Q 2806 -91 2034 -91 
Q 1263 -91 848 271 
Q 434 634 434 1313 
Q 434 1759 690 2068 
Q 947 2378 1403 2484 
z
M 1172 3481 
Q 1172 3119 1398 2916 
Q 1625 2713 2034 2713 
Q 2441 2713 2670 2916 
Q 2900 3119 2900 3481 
Q 2900 3844 2670 4047 
Q 2441 4250 2034 4250 
Q 1625 4250 1398 4047 
Q 1172 3844 1172 3481 
z
" transform="scale(0.015625)"/>
     </defs>
     <use xlink:href="#DejaVuSans-32"/>
     <use xlink:href="#DejaVuSans-30" transform="translate(63.623047 0)"/>
     <use xlink:href="#DejaVuSans-31" transform="translate(127.246094 0)"/>
     <use xlink:href="#DejaVuSans-39" transform="translate(190.869141 0)"/>
     <use xlink:href="#DejaVuSans-2d" transform="translate(254.492188 0)"/>
     <use xlink:href="#DejaVuSans-30" transform="translate(290.576172 0)"/>
     <use xlink:href="#DejaVuSans-38" transform="translate(354.199219 0)"/>
     <use xlink:href="#DejaVuSans-2d" transform="translate(417.822266 0)"/>
     <use xlink:href="#DejaVuSans-30" transform="translate(453.90625 0)"/>
     <use xlink:href="#DejaVuSans-31" transform="translate(517.529297 0)"/>
    </g>
    <!--  +3.15m  -->
    <g transform="translate(38.486958 180.354238) scale(0.0833 -0.0833)">
     <defs>
      <path id="DejaVuSans-20" transform="scale(0.015625)"/>
      <path id="DejaVuSans-2b" d="M 2944 4013 
L 2944 2272 
L 4684 2272 
L 4684 1741 
L 2944 1741 
L 2944 0 
L 2419 0 
L 2419 1741 
L 678 1741 
L 678 2272 
L 2419 2272 
L 2419 4013 
L 2944 4013 
z
" transform="scale(0.015625)"/>
      <path id="DejaVuSans-6d" d="M 3328 2828 
Q 3544 3216 3844 3400 
Q 4144 3584 4550 3584 
Q 5097 3584 5394 3201 
Q 5691 2819 5691 2113 
L 5691 0 
L 5113 0 
L 5113 2094 
Q 5113 2597 4934 2840 
Q 4756 3084 4391 3084 
Q 3944 3084 3684 2787 
Q 3425 2491 3425 1978 
L 3425 0 
L 2847 0 
L 2847 2094 
Q 2847 2600 2669 2842 
Q 2491 3084 2119 3084 
Q 1678 3084 1418 2786 
Q 1159 2488 1159 1978 
L 1159 0 
L 581 0 
L 581 3500 
L 1159 3500 
L 1159 2956 
Q 1356 3278 1631 3431 
Q 1906 3584 2284 3584 
Q 2666 3584 2933 3390 
Q 3200 3197 3328 2828 
z
" transform="scale(0.015625)"/>
     </defs>
     <use xlink:href="#DejaVuSans-20"/>
     <use xlink:href="#DejaVuSans-2b" transform="translate(31.787109 0)"/>
     <use xlink:href="#DejaVuSans-33" transform="translate(115.576172 0)"/>
     <use xlink:href="#DejaVuSans-2e" transform="translate(179.199219 0)"/>
     <use xlink:href="#DejaVuSans-31" transform="translate(210.986328 0)"/>
     <use xlink:href="#DejaVuSans-35" transform="translate(274.609375 0)"/>
     <use xlink:href="#DejaVuSans-6d" transform="translate(338.232422 0)"/>
     <use xlink:href="#DejaVuSans-20" transform="translate(435.644531 0)"/>
    </g>
   </g>
   <g id="patch_9">
    <path d="M 154.871452 157.831942 
Q 160.770502 159.421061 166.669552 161.010179 
" style="fill: none; stroke: #000000; stroke-linecap: round"/>
   </g>
   <g id="text_17">
    <g id="patch_10">
     <path d="M 101.533385 161.177789 
L 149.943701 161.177789 
Q 152.442701 161.177789 152.442701 158.678789 
L 152.442701 141.289133 
Q 152.442701 138.790133 149.943701 138.790133 
L 101.533385 138.790133 
Q 99.034385 138.790133 99.034385 141.289133 
L 99.034385 158.678789 
Q 99.034385 161.177789 101.533385 161.177789 
z
" style="fill: #cccccc; stroke: #000000; stroke-linejoin: miter"/>
    </g>
    <!-- 2020-08-11 -->
    <g transform="translate(101.533385 147.618631) scale(0.0833 -0.0833)">
     <use xlink:href="#DejaVuSans-32"/>
     <use xlink:href="#DejaVuSans-30" transform="translate(63.623047 0)"/>
     <use xlink:href="#DejaVuSans-32" transform="translate(127.246094 0)"/>
     <use xlink:href="#DejaVuSans-30" transform="translate(190.869141 0)"/>
     <use xlink:href="#DejaVuSans-2d" transform="translate(254.492188 0)"/>
     <use xlink:href="#DejaVuSans-30" transform="translate(290.576172 0)"/>
     <use xlink:href="#DejaVuSans-38" transform="translate(354.199219 0)"/>
     <use xlink:href="#DejaVuSans-2d" transform="translate(417.822266 0)"/>
     <use xlink:href="#DejaVuSans-31" transform="translate(453.90625 0)"/>
     <use xlink:href="#DejaVuSans-31" transform="translate(517.529297 0)"/>
    </g>
    <!--  +4.19m  -->
    <g transform="translate(101.533385 156.946409) scale(0.0833 -0.0833)">
     <use xlink:href="#DejaVuSans-20"/>
     <use xlink:href="#DejaVuSans-2b" transform="translate(31.787109 0)"/>
     <use xlink:href="#DejaVuSans-34" transform="translate(115.576172 0)"/>
     <use xlink:href="#DejaVuSans-2e" transform="translate(179.199219 0)"/>
     <use xlink:href="#DejaVuSans-31" transform="translate(210.986328 0)"/>
     <use xlink:href="#DejaVuSans-39" transform="translate(274.609375 0)"/>
     <use xlink:href="#DejaVuSans-6d" transform="translate(338.232422 0)"/>
     <use xlink:href="#DejaVuSans-20" transform="translate(435.644531 0)"/>
    </g>
   </g>
   <g id="patch_11">
    <path d="M 181.120875 179.705694 
Q 175.791989 176.345902 170.463103 172.98611 
" style="fill: none; stroke: #000000; stroke-linecap: round"/>
   </g>
   <g id="text_18">
    <g id="patch_12">
     <path d="M 177.155562 203.660476 
L 225.565877 203.660476 
Q 228.064877 203.660476 228.064877 201.161476 
L 228.064877 183.77182 
Q 228.064877 181.27282 225.565877 181.27282 
L 177.155562 181.27282 
Q 174.656562 181.27282 174.656562 183.77182 
L 174.656562 201.161476 
Q 174.656562 203.660476 177.155562 203.660476 
z
" style="fill: #cccccc; stroke: #000000; stroke-linejoin: miter"/>
    </g>
    <!-- 2020-08-12 -->
    <g transform="translate(177.155562 190.101318) scale(0.0833 -0.0833)">
     <use xlink:href="#DejaVuSans-32"/>
     <use xlink:href="#DejaVuSans-30" transform="translate(63.623047 0)"/>
     <use xlink:href="#DejaVuSans-32" transform="translate(127.246094 0)"/>
     <use xlink:href="#DejaVuSans-30" transform="translate(190.869141 0)"/>
     <use xlink:href="#DejaVuSans-2d" transform="translate(254.492188 0)"/>
     <use xlink:href="#DejaVuSans-30" transform="translate(290.576172 0)"/>
     <use xlink:href="#DejaVuSans-38" transform="translate(354.199219 0)"/>
     <use xlink:href="#DejaVuSans-2d" transform="translate(417.822266 0)"/>
     <use xlink:href="#DejaVuSans-31" transform="translate(453.90625 0)"/>
     <use xlink:href="#DejaVuSans-32" transform="translate(517.529297 0)"/>
    </g>
    <!--  -4.19m  -->
    <g transform="translate(177.155562 199.429096) scale(0.0833 -0.0833)">
     <use xlink:href="#DejaVuSans-20"/>
     <use xlink:href="#DejaVuSans-2d" transform="translate(31.787109 0)"/>
     <use xlink:href="#DejaVuSans-34" transform="translate(67.871094 0)"/>
     <use xlink:href="#DejaVuSans-2e" transform="translate(131.494141 0)"/>
     <use xlink:href="#DejaVuSans-31" transform="translate(163.28125 0)"/>
     <use xlink:href="#DejaVuSans-39" transform="translate(226.904297 0)"/>
     <use xlink:href="#DejaVuSans-6d" transform="translate(290.527344 0)"/>
     <use xlink:href="#DejaVuSans-20" transform="translate(387.939453 0)"/>
    </g>
   </g>
   <g id="patch_13">
    <path d="M 216.241112 134.508534 
Q 222.140162 136.097652 228.039212 137.68677 
" style="fill: none; stroke: #000000; stroke-linecap: round"/>
   </g>
   <g id="text_19">
    <g id="patch_14">
     <path d="M 162.903045 137.85438 
L 211.31336 137.85438 
Q 213.81236 137.85438 213.81236 135.35538 
L 213.81236 117.965724 
Q 213.81236 115.466724 211.31336 115.466724 
L 162.903045 115.466724 
Q 160.404045 115.466724 160.404045 117.965724 
L 160.404045 135.35538 
Q 160.404045 137.85438 162.903045 137.85438 
z
" style="fill: #cccccc; stroke: #000000; stroke-linejoin: miter"/>
    </g>
    <!-- 2021-08-12 -->
    <g transform="translate(162.903045 124.295222) scale(0.0833 -0.0833)">
     <use xlink:href="#DejaVuSans-32"/>
     <use xlink:href="#DejaVuSans-30" transform="translate(63.623047 0)"/>
     <use xlink:href="#DejaVuSans-32" transform="translate(127.246094 0)"/>
     <use xlink:href="#DejaVuSans-31" transform="translate(190.869141 0)"/>
     <use xlink:href="#DejaVuSans-2d" transform="translate(254.492188 0)"/>
     <use xlink:href="#DejaVuSans-30" transform="translate(290.576172 0)"/>
     <use xlink:href="#DejaVuSans-38" transform="translate(354.199219 0)"/>
     <use xlink:href="#DejaVuSans-2d" transform="translate(417.822266 0)"/>
     <use xlink:href="#DejaVuSans-31" transform="translate(453.90625 0)"/>
     <use xlink:href="#DejaVuSans-32" transform="translate(517.529297 0)"/>
    </g>
    <!--  +5.51m  -->
    <g transform="translate(162.903045 133.623) scale(0.0833 -0.0833)">
     <use xlink:href="#DejaVuSans-20"/>
     <use xlink:href="#DejaVuSans-2b" transform="translate(31.787109 0)"/>
     <use xlink:href="#DejaVuSans-35" transform="translate(115.576172 0)"/>
     <use xlink:href="#DejaVuSans-2e" transform="translate(179.199219 0)"/>
     <use xlink:href="#DejaVuSans-35" transform="translate(210.986328 0)"/>
     <use xlink:href="#DejaVuSans-31" transform="translate(274.609375 0)"/>
     <use xlink:href="#DejaVuSans-6d" transform="translate(338.232422 0)"/>
     <use xlink:href="#DejaVuSans-20" transform="translate(435.644531 0)"/>
    </g>
   </g>
   <g id="patch_15">
    <path d="M 280.796628 111.682094 
Q 286.695678 113.271212 292.594729 114.860331 
" style="fill: none; stroke: #000000; stroke-linecap: round"/>
   </g>
   <g id="text_20">
    <g id="patch_16">
     <path d="M 227.458561 115.02794 
L 275.868877 115.02794 
Q 278.367877 115.02794 278.367877 112.52894 
L 278.367877 95.139284 
Q 278.367877 92.640284 275.868877 92.640284 
L 227.458561 92.640284 
Q 224.959561 92.640284 224.959561 95.139284 
L 224.959561 112.52894 
Q 224.959561 115.02794 227.458561 115.02794 
z
" style="fill: #cccccc; stroke: #000000; stroke-linejoin: miter"/>
    </g>
    <!-- 2022-09-01 -->
    <g transform="translate(227.458561 101.468783) scale(0.0833 -0.0833)">
     <use xlink:href="#DejaVuSans-32"/>
     <use xlink:href="#DejaVuSans-30" transform="translate(63.623047 0)"/>
     <use xlink:href="#DejaVuSans-32" transform="translate(127.246094 0)"/>
     <use xlink:href="#DejaVuSans-32" transform="translate(190.869141 0)"/>
     <use xlink:href="#DejaVuSans-2d" transform="translate(254.492188 0)"/>
     <use xlink:href="#DejaVuSans-30" transform="translate(290.576172 0)"/>
     <use xlink:href="#DejaVuSans-39" transform="translate(354.199219 0)"/>
     <use xlink:href="#DejaVuSans-2d" transform="translate(417.822266 0)"/>
     <use xlink:href="#DejaVuSans-30" transform="translate(453.90625 0)"/>
     <use xlink:href="#DejaVuSans-31" transform="translate(517.529297 0)"/>
    </g>
    <!--  +7.61m  -->
    <g transform="translate(227.458561 110.796561) scale(0.0833 -0.0833)">
     <defs>
      <path id="DejaVuSans-37" d="M 525 4666 
L 3525 4666 
L 3525 4397 
L 1831 0 
L 1172 0 
L 2766 4134 
L 525 4134 
L 525 4666 
z
" transform="scale(0.015625)"/>
     </defs>
     <use xlink:href="#DejaVuSans-20"/>
     <use xlink:href="#DejaVuSans-2b" transform="translate(31.787109 0)"/>
     <use xlink:href="#DejaVuSans-37" transform="translate(115.576172 0)"/>
     <use xlink:href="#DejaVuSans-2e" transform="translate(179.199219 0)"/>
     <use xlink:href="#DejaVuSans-36" transform="translate(210.986328 0)"/>
     <use xlink:href="#DejaVuSans-31" transform="translate(274.609375 0)"/>
     <use xlink:href="#DejaVuSans-6d" transform="translate(338.232422 0)"/>
     <use xlink:href="#DejaVuSans-20" transform="translate(435.644531 0)"/>
    </g>
   </g>
   <g id="patch_17">
    <path d="M 311.740998 133.941938 
Q 306.412112 130.582146 301.083226 127.222355 
" style="fill: none; stroke: #000000; stroke-linecap: round"/>
   </g>
   <g id="text_21">
    <g id="patch_18">
     <path d="M 307.775685 157.89672 
L 356.186 157.89672 
Q 358.685 157.89672 358.685 155.39772 
L 358.685 138.008064 
Q 358.685 135.509064 356.186 135.509064 
L 307.775685 135.509064 
Q 305.276685 135.509064 305.276685 138.008064 
L 305.276685 155.39772 
Q 305.276685 157.89672 307.775685 157.89672 
z
" style="fill: #cccccc; stroke: #000000; stroke-linejoin: miter"/>
    </g>
    <!-- 2022-09-30 -->
    <g transform="translate(307.775685 144.337562) scale(0.0833 -0.0833)">
     <use xlink:href="#DejaVuSans-32"/>
     <use xlink:href="#DejaVuSans-30" transform="translate(63.623047 0)"/>
     <use xlink:href="#DejaVuSans-32" transform="translate(127.246094 0)"/>
     <use xlink:href="#DejaVuSans-32" transform="translate(190.869141 0)"/>
     <use xlink:href="#DejaVuSans-2d" transform="translate(254.492188 0)"/>
     <use xlink:href="#DejaVuSans-30" transform="translate(290.576172 0)"/>
     <use xlink:href="#DejaVuSans-39" transform="translate(354.199219 0)"/>
     <use xlink:href="#DejaVuSans-2d" transform="translate(417.822266 0)"/>
     <use xlink:href="#DejaVuSans-33" transform="translate(453.90625 0)"/>
     <use xlink:href="#DejaVuSans-30" transform="translate(517.529297 0)"/>
    </g>
    <!--  -4.98m  -->
    <g transform="translate(307.775685 153.66534) scale(0.0833 -0.0833)">
     <use xlink:href="#DejaVuSans-20"/>
     <use xlink:href="#DejaVuSans-2d" transform="translate(31.787109 0)"/>
     <use xlink:href="#DejaVuSans-34" transform="translate(67.871094 0)"/>
     <use xlink:href="#DejaVuSans-2e" transform="translate(131.494141 0)"/>
     <use xlink:href="#DejaVuSans-39" transform="translate(163.28125 0)"/>
     <use xlink:href="#DejaVuSans-38" transform="translate(226.904297 0)"/>
     <use xlink:href="#DejaVuSans-6d" transform="translate(290.527344 0)"/>
     <use xlink:href="#DejaVuSans-20" transform="translate(387.939453 0)"/>
    </g>
   </g>
   <g id="patch_19">
    <path d="M 366.144052 100.559056 
Q 372.043102 102.148174 377.942152 103.737293 
" style="fill: none; stroke: #000000; stroke-linecap: round"/>
   </g>
   <g id="text_22">
    <g id="patch_20">
     <path d="M 312.805985 103.904903 
L 361.2163 103.904903 
Q 363.7153 103.904903 363.7153 101.405903 
L 363.7153 84.016247 
Q 363.7153 81.517247 361.2163 81.517247 
L 312.805985 81.517247 
Q 310.306985 81.517247 310.306985 84.016247 
L 310.306985 101.405903 
Q 310.306985 103.904903 312.805985 103.904903 
z
" style="fill: #cccccc; stroke: #000000; stroke-linejoin: miter"/>
    </g>
    <!-- 2024-01-23 -->
    <g transform="translate(312.805985 90.345745) scale(0.0833 -0.0833)">
     <use xlink:href="#DejaVuSans-32"/>
     <use xlink:href="#DejaVuSans-30" transform="translate(63.623047 0)"/>
     <use xlink:href="#DejaVuSans-32" transform="translate(127.246094 0)"/>
     <use xlink:href="#DejaVuSans-34" transform="translate(190.869141 0)"/>
     <use xlink:href="#DejaVuSans-2d" transform="translate(254.492188 0)"/>
     <use xlink:href="#DejaVuSans-30" transform="translate(290.576172 0)"/>
     <use xlink:href="#DejaVuSans-31" transform="translate(354.199219 0)"/>
     <use xlink:href="#DejaVuSans-2d" transform="translate(417.822266 0)"/>
     <use xlink:href="#DejaVuSans-32" transform="translate(453.90625 0)"/>
     <use xlink:href="#DejaVuSans-33" transform="translate(517.529297 0)"/>
    </g>
    <!--  +4.72m  -->
    <g transform="translate(312.805985 99.673523) scale(0.0833 -0.0833)">
     <use xlink:href="#DejaVuSans-20"/>
     <use xlink:href="#DejaVuSans-2b" transform="translate(31.787109 0)"/>
     <use xlink:href="#DejaVuSans-34" transform="translate(115.576172 0)"/>
     <use xlink:href="#DejaVuSans-2e" transform="translate(179.199219 0)"/>
     <use xlink:href="#DejaVuSans-37" transform="translate(210.986328 0)"/>
     <use xlink:href="#DejaVuSans-32" transform="translate(274.609375 0)"/>
     <use xlink:href="#DejaVuSans-6d" transform="translate(338.232422 0)"/>
     <use xlink:href="#DejaVuSans-20" transform="translate(435.644531 0)"/>
    </g>
   </g>
   <g id="patch_21">
    <path d="M 435.226838 69.071095 
Q 441.125888 70.660213 447.024938 72.249331 
" style="fill: none; stroke: #000000; stroke-linecap: round"/>
   </g>
   <g id="text_23">
    <g id="patch_22">
     <path d="M 381.888771 72.416941 
L 430.299087 72.416941 
Q 432.798087 72.416941 432.798087 69.917941 
L 432.798087 52.528285 
Q 432.798087 50.029285 430.299087 50.029285 
L 381.888771 50.029285 
Q 379.389771 50.029285 379.389771 52.528285 
L 379.389771 69.917941 
Q 379.389771 72.416941 381.888771 72.416941 
z
" style="fill: #cccccc; stroke: #000000; stroke-linejoin: miter"/>
    </g>
    <!-- 2025-03-10 -->
    <g transform="translate(381.888771 58.857784) scale(0.0833 -0.0833)">
     <use xlink:href="#DejaVuSans-32"/>
     <use xlink:href="#DejaVuSans-30" transform="translate(63.623047 0)"/>
     <use xlink:href="#DejaVuSans-32" transform="translate(127.246094 0)"/>
     <use xlink:href="#DejaVuSans-35" transform="translate(190.869141 0)"/>
     <use xlink:href="#DejaVuSans-2d" transform="translate(254.492188 0)"/>
     <use xlink:href="#DejaVuSans-30" transform="translate(290.576172 0)"/>
     <use xlink:href="#DejaVuSans-33" transform="translate(354.199219 0)"/>
     <use xlink:href="#DejaVuSans-2d" transform="translate(417.822266 0)"/>
     <use xlink:href="#DejaVuSans-31" transform="translate(453.90625 0)"/>
     <use xlink:href="#DejaVuSans-30" transform="translate(517.529297 0)"/>
    </g>
    <!--  +8.65m  -->
    <g transform="translate(381.888771 68.185561) scale(0.0833 -0.0833)">
     <use xlink:href="#DejaVuSans-20"/>
     <use xlink:href="#DejaVuSans-2b" transform="translate(31.787109 0)"/>
     <use xlink:href="#DejaVuSans-38" transform="translate(115.576172 0)"/>
     <use xlink:href="#DejaVuSans-2e" transform="translate(179.199219 0)"/>
     <use xlink:href="#DejaVuSans-36" transform="translate(210.986328 0)"/>
     <use xlink:href="#DejaVuSans-35" transform="translate(274.609375 0)"/>
     <use xlink:href="#DejaVuSans-6d" transform="translate(338.232422 0)"/>
     <use xlink:href="#DejaVuSans-20" transform="translate(435.644531 0)"/>
    </g>
   </g>
   <g id="patch_23">
    <path d="M 488.883372 46.925062 
Q 494.782422 48.514181 500.681472 50.103299 
" style="fill: none; stroke: #000000; stroke-linecap: round"/>
   </g>
   <g id="text_24">
    <g id="patch_24">
     <path d="M 435.545305 50.270909 
L 483.95562 50.270909 
Q 486.45462 50.270909 486.45462 47.771909 
L 486.45462 30.382253 
Q 486.45462 27.883253 483.95562 27.883253 
L 435.545305 27.883253 
Q 433.046305 27.883253 433.046305 30.382253 
L 433.046305 47.771909 
Q 433.046305 50.270909 435.545305 50.270909 
z
" style="fill: #cccccc; stroke: #000000; stroke-linejoin: miter"/>
    </g>
    <!-- 2026-01-24 -->
    <g transform="translate(435.545305 36.711751) scale(0.0833 -0.0833)">
     <use xlink:href="#DejaVuSans-32"/>
     <use xlink:href="#DejaVuSans-30" transform="translate(63.623047 0)"/>
     <use xlink:href="#DejaVuSans-32" transform="translate(127.246094 0)"/>
     <use xlink:href="#DejaVuSans-36" transform="translate(190.869141 0)"/>
     <use xlink:href="#DejaVuSans-2d" transform="translate(254.492188 0)"/>
     <use xlink:href="#DejaVuSans-30" transform="translate(290.576172 0)"/>
     <use xlink:href="#DejaVuSans-31" transform="translate(354.199219 0)"/>
     <use xlink:href="#DejaVuSans-2d" transform="translate(417.822266 0)"/>
     <use xlink:href="#DejaVuSans-32" transform="translate(453.90625 0)"/>
     <use xlink:href="#DejaVuSans-34" transform="translate(517.529297 0)"/>
    </g>
    <!--  +4.99m  -->
    <g transform="translate(435.545305 46.039529) scale(0.0833 -0.0833)">
     <use xlink:href="#DejaVuSans-20"/>
     <use xlink:href="#DejaVuSans-2b" transform="translate(31.787109 0)"/>
     <use xlink:href="#DejaVuSans-34" transform="translate(115.576172 0)"/>
     <use xlink:href="#DejaVuSans-2e" transform="translate(179.199219 0)"/>
     <use xlink:href="#DejaVuSans-39" transform="translate(210.986328 0)"/>
     <use xlink:href="#DejaVuSans-39" transform="translate(274.609375 0)"/>
     <use xlink:href="#DejaVuSans-6d" transform="translate(338.232422 0)"/>
     <use xlink:href="#DejaVuSans-20" transform="translate(435.644531 0)"/>
    </g>
   </g>
   <g id="text_25">
    <!-- History of percentage of AWS ownership of IPv4 space -->
    <g transform="translate(118.277813 16.318125) scale(0.12 -0.12)">
     <defs>
      <path id="DejaVuSans-48" d="M 628 4666 
L 1259 4666 
L 1259 2753 
L 3553 2753 
L 3553 4666 
L 4184 4666 
L 4184 0 
L 3553 0 
L 3553 2222 
L 1259 2222 
L 1259 0 
L 628 0 
L 628 4666 
z
" transform="scale(0.015625)"/>
      <path id="DejaVuSans-69" d="M 603 3500 
L 1178 3500 
L 1178 0 
L 603 0 
L 603 3500 
z
M 603 4863 
L 1178 4863 
L 1178 4134 
L 603 4134 
L 603 4863 
z
" transform="scale(0.015625)"/>
      <path id="DejaVuSans-73" d="M 2834 3397 
L 2834 2853 
Q 2591 2978 2328 3040 
Q 2066 3103 1784 3103 
Q 1356 3103 1142 2972 
Q 928 2841 928 2578 
Q 928 2378 1081 2264 
Q 1234 2150 1697 2047 
L 1894 2003 
Q 2506 1872 2764 1633 
Q 3022 1394 3022 966 
Q 3022 478 2636 193 
Q 2250 -91 1575 -91 
Q 1294 -91 989 -36 
Q 684 19 347 128 
L 347 722 
Q 666 556 975 473 
Q 1284 391 1588 391 
Q 1994 391 2212 530 
Q 2431 669 2431 922 
Q 2431 1156 2273 1281 
Q 2116 1406 1581 1522 
L 1381 1569 
Q 847 1681 609 1914 
Q 372 2147 372 2553 
Q 372 3047 722 3315 
Q 1072 3584 1716 3584 
Q 2034 3584 2315 3537 
Q 2597 3491 2834 3397 
z
" transform="scale(0.015625)"/>
      <path id="DejaVuSans-74" d="M 1172 4494 
L 1172 3500 
L 2356 3500 
L 2356 3053 
L 1172 3053 
L 1172 1153 
Q 1172 725 1289 603 
Q 1406 481 1766 481 
L 2356 481 
L 2356 0 
L 1766 0 
Q 1100 0 847 248 
Q 594 497 594 1153 
L 594 3053 
L 172 3053 
L 172 3500 
L 594 3500 
L 594 4494 
L 1172 4494 
z
" transform="scale(0.015625)"/>
      <path id="DejaVuSans-6f" d="M 1959 3097 
Q 1497 3097 1228 2736 
Q 959 2375 959 1747 
Q 959 1119 1226 758 
Q 1494 397 1959 397 
Q 2419 397 2687 759 
Q 2956 1122 2956 1747 
Q 2956 2369 2687 2733 
Q 2419 3097 1959 3097 
z
M 1959 3584 
Q 2709 3584 3137 3096 
Q 3566 2609 3566 1747 
Q 3566 888 3137 398 
Q 2709 -91 1959 -91 
Q 1206 -91 779 398 
Q 353 888 353 1747 
Q 353 2609 779 3096 
Q 1206 3584 1959 3584 
z
" transform="scale(0.015625)"/>
      <path id="DejaVuSans-72" d="M 2631 2963 
Q 2534 3019 2420 3045 
Q 2306 3072 2169 3072 
Q 1681 3072 1420 2755 
Q 1159 2438 1159 1844 
L 1159 0 
L 581 0 
L 581 3500 
L 1159 3500 
L 1159 2956 
Q 1341 3275 1631 3429 
Q 1922 3584 2338 3584 
Q 2397 3584 2469 3576 
Q 2541 3569 2628 3553 
L 2631 2963 
z
" transform="scale(0.015625)"/>
      <path id="DejaVuSans-79" d="M 2059 -325 
Q 1816 -950 1584 -1140 
Q 1353 -1331 966 -1331 
L 506 -1331 
L 506 -850 
L 844 -850 
Q 1081 -850 1212 -737 
Q 1344 -625 1503 -206 
L 1606 56 
L 191 3500 
L 800 3500 
L 1894 763 
L 2988 3500 
L 3597 3500 
L 2059 -325 
z
" transform="scale(0.015625)"/>
      <path id="DejaVuSans-66" d="M 2375 4863 
L 2375 4384 
L 1825 4384 
Q 1516 4384 1395 4259 
Q 1275 4134 1275 3809 
L 1275 3500 
L 2222 3500 
L 2222 3053 
L 1275 3053 
L 1275 0 
L 697 0 
L 697 3053 
L 147 3053 
L 147 3500 
L 697 3500 
L 697 3744 
Q 697 4328 969 4595 
Q 1241 4863 1831 4863 
L 2375 4863 
z
" transform="scale(0.015625)"/>
      <path id="DejaVuSans-70" d="M 1159 525 
L 1159 -1331 
L 581 -1331 
L 581 3500 
L 1159 3500 
L 1159 2969 
Q 1341 3281 1617 3432 
Q 1894 3584 2278 3584 
Q 2916 3584 3314 3078 
Q 3713 2572 3713 1747 
Q 3713 922 3314 415 
Q 2916 -91 2278 -91 
Q 1894 -91 1617 61 
Q 1341 213 1159 525 
z
M 3116 1747 
Q 3116 2381 2855 2742 
Q 2594 3103 2138 3103 
Q 1681 3103 1420 2742 
Q 1159 2381 1159 1747 
Q 1159 1113 1420 752 
Q 1681 391 2138 391 
Q 2594 391 2855 752 
Q 3116 1113 3116 1747 
z
" transform="scale(0.015625)"/>
      <path id="DejaVuSans-65" d="M 3597 1894 
L 3597 1613 
L 953 1613 
Q 991 1019 1311 708 
Q 1631 397 2203 397 
Q 2534 397 2845 478 
Q 3156 559 3463 722 
L 3463 178 
Q 3153 47 2828 -22 
Q 2503 -91 2169 -91 
Q 1331 -91 842 396 
Q 353 884 353 1716 
Q 353 2575 817 3079 
Q 1281 3584 2069 3584 
Q 2775 3584 3186 3129 
Q 3597 2675 3597 1894 
z
M 3022 2063 
Q 3016 2534 2758 2815 
Q 2500 3097 2075 3097 
Q 1594 3097 1305 2825 
Q 1016 2553 972 2059 
L 3022 2063 
z
" transform="scale(0.015625)"/>
      <path id="DejaVuSans-63" d="M 3122 3366 
L 3122 2828 
Q 2878 2963 2633 3030 
Q 2388 3097 2138 3097 
Q 1578 3097 1268 2742 
Q 959 2388 959 1747 
Q 959 1106 1268 751 
Q 1578 397 2138 397 
Q 2388 397 2633 464 
Q 2878 531 3122 666 
L 3122 134 
Q 2881 22 2623 -34 
Q 2366 -91 2075 -91 
Q 1284 -91 818 406 
Q 353 903 353 1747 
Q 353 2603 823 3093 
Q 1294 3584 2113 3584 
Q 2378 3584 2631 3529 
Q 2884 3475 3122 3366 
z
" transform="scale(0.015625)"/>
      <path id="DejaVuSans-6e" d="M 3513 2113 
L 3513 0 
L 2938 0 
L 2938 2094 
Q 2938 2591 2744 2837 
Q 2550 3084 2163 3084 
Q 1697 3084 1428 2787 
Q 1159 2491 1159 1978 
L 1159 0 
L 581 0 
L 581 3500 
L 1159 3500 
L 1159 2956 
Q 1366 3272 1645 3428 
Q 1925 3584 2291 3584 
Q 2894 3584 3203 3211 
Q 3513 2838 3513 2113 
z
" transform="scale(0.015625)"/>
      <path id="DejaVuSans-61" d="M 2194 1759 
Q 1497 1759 1228 1600 
Q 959 1441 959 1056 
Q 959 750 1161 570 
Q 1363 391 1709 391 
Q 2188 391 2477 730 
Q 2766 1069 2766 1631 
L 2766 1759 
L 2194 1759 
z
M 3341 1997 
L 3341 0 
L 2766 0 
L 2766 531 
Q 2569 213 2275 61 
Q 1981 -91 1556 -91 
Q 1019 -91 701 211 
Q 384 513 384 1019 
Q 384 1609 779 1909 
Q 1175 2209 1959 2209 
L 2766 2209 
L 2766 2266 
Q 2766 2663 2505 2880 
Q 2244 3097 1772 3097 
Q 1472 3097 1187 3025 
Q 903 2953 641 2809 
L 641 3341 
Q 956 3463 1253 3523 
Q 1550 3584 1831 3584 
Q 2591 3584 2966 3190 
Q 3341 2797 3341 1997 
z
" transform="scale(0.015625)"/>
      <path id="DejaVuSans-67" d="M 2906 1791 
Q 2906 2416 2648 2759 
Q 2391 3103 1925 3103 
Q 1463 3103 1205 2759 
Q 947 2416 947 1791 
Q 947 1169 1205 825 
Q 1463 481 1925 481 
Q 2391 481 2648 825 
Q 2906 1169 2906 1791 
z
M 3481 434 
Q 3481 -459 3084 -895 
Q 2688 -1331 1869 -1331 
Q 1566 -1331 1297 -1286 
Q 1028 -1241 775 -1147 
L 775 -588 
Q 1028 -725 1275 -790 
Q 1522 -856 1778 -856 
Q 2344 -856 2625 -561 
Q 2906 -266 2906 331 
L 2906 616 
Q 2728 306 2450 153 
Q 2172 0 1784 0 
Q 1141 0 747 490 
Q 353 981 353 1791 
Q 353 2603 747 3093 
Q 1141 3584 1784 3584 
Q 2172 3584 2450 3431 
Q 2728 3278 2906 2969 
L 2906 3500 
L 3481 3500 
L 3481 434 
z
" transform="scale(0.015625)"/>
      <path id="DejaVuSans-41" d="M 2188 4044 
L 1331 1722 
L 3047 1722 
L 2188 4044 
z
M 1831 4666 
L 2547 4666 
L 4325 0 
L 3669 0 
L 3244 1197 
L 1141 1197 
L 716 0 
L 50 0 
L 1831 4666 
z
" transform="scale(0.015625)"/>
      <path id="DejaVuSans-57" d="M 213 4666 
L 850 4666 
L 1831 722 
L 2809 4666 
L 3519 4666 
L 4500 722 
L 5478 4666 
L 6119 4666 
L 4947 0 
L 4153 0 
L 3169 4050 
L 2175 0 
L 1381 0 
L 213 4666 
z
" transform="scale(0.015625)"/>
      <path id="DejaVuSans-53" d="M 3425 4513 
L 3425 3897 
Q 3066 4069 2747 4153 
Q 2428 4238 2131 4238 
Q 1616 4238 1336 4038 
Q 1056 3838 1056 3469 
Q 1056 3159 1242 3001 
Q 1428 2844 1947 2747 
L 2328 2669 
Q 3034 2534 3370 2195 
Q 3706 1856 3706 1288 
Q 3706 609 3251 259 
Q 2797 -91 1919 -91 
Q 1588 -91 1214 -16 
Q 841 59 441 206 
L 441 856 
Q 825 641 1194 531 
Q 1563 422 1919 422 
Q 2459 422 2753 634 
Q 3047 847 3047 1241 
Q 3047 1584 2836 1778 
Q 2625 1972 2144 2069 
L 1759 2144 
Q 1053 2284 737 2584 
Q 422 2884 422 3419 
Q 422 4038 858 4394 
Q 1294 4750 2059 4750 
Q 2388 4750 2728 4690 
Q 3069 4631 3425 4513 
z
" transform="scale(0.015625)"/>
      <path id="DejaVuSans-77" d="M 269 3500 
L 844 3500 
L 1563 769 
L 2278 3500 
L 2956 3500 
L 3675 769 
L 4391 3500 
L 4966 3500 
L 4050 0 
L 3372 0 
L 2619 2869 
L 1863 0 
L 1184 0 
L 269 3500 
z
" transform="scale(0.015625)"/>
      <path id="DejaVuSans-68" d="M 3513 2113 
L 3513 0 
L 2938 0 
L 2938 2094 
Q 2938 2591 2744 2837 
Q 2550 3084 2163 3084 
Q 1697 3084 1428 2787 
Q 1159 2491 1159 1978 
L 1159 0 
L 581 0 
L 581 4863 
L 1159 4863 
L 1159 2956 
Q 1366 3272 1645 3428 
Q 1925 3584 2291 3584 
Q 2894 3584 3203 3211 
Q 3513 2838 3513 2113 
z
" transform="scale(0.015625)"/>
      <path id="DejaVuSans-49" d="M 628 4666 
L 1259 4666 
L 1259 0 
L 628 0 
L 628 4666 
z
" transform="scale(0.015625)"/>
      <path id="DejaVuSans-50" d="M 1259 4147 
L 1259 2394 
L 2053 2394 
Q 2494 2394 2734 2622 
Q 2975 2850 2975 3272 
Q 2975 3691 2734 3919 
Q 2494 4147 2053 4147 
L 1259 4147 
z
M 628 4666 
L 2053 4666 
Q 2838 4666 3239 4311 
Q 3641 3956 3641 3272 
Q 3641 2581 3239 2228 
Q 2838 1875 2053 1875 
L 1259 1875 
L 1259 0 
L 628 0 
L 628 4666 
z
" transform="scale(0.015625)"/>
      <path id="DejaVuSans-76" d="M 191 3500 
L 800 3500 
L 1894 563 
L 2988 3500 
L 3597 3500 
L 2284 0 
L 1503 0 
L 191 3500 
z
" transform="scale(0.015625)"/>
     </defs>
     <use xlink:href="#DejaVuSans-48"/>
     <use xlink:href="#DejaVuSans-69" transform="translate(75.195312 0)"/>
     <use xlink:href="#DejaVuSans-73" transform="translate(102.978516 0)"/>
     <use xlink:href="#DejaVuSans-74" transform="translate(155.078125 0)"/>
     <use xlink:href="#DejaVuSans-6f" transform="translate(194.287109 0)"/>
     <use xlink:href="#DejaVuSans-72" transform="translate(255.46875 0)"/>
     <use xlink:href="#DejaVuSans-79" transform="translate(296.582031 0)"/>
     <use xlink:href="#DejaVuSans-20" transform="translate(355.761719 0)"/>
     <use xlink:href="#DejaVuSans-6f" transform="translate(387.548828 0)"/>
     <use xlink:href="#DejaVuSans-66" transform="translate(448.730469 0)"/>
     <use xlink:href="#DejaVuSans-20" transform="translate(483.935547 0)"/>
     <use xlink:href="#DejaVuSans-70" transform="translate(515.722656 0)"/>
     <use xlink:href="#DejaVuSans-65" transform="translate(579.199219 0)"/>
     <use xlink:href="#DejaVuSans-72" transform="translate(640.722656 0)"/>
     <use xlink:href="#DejaVuSans-63" transform="translate(679.585938 0)"/>
     <use xlink:href="#DejaVuSans-65" transform="translate(734.566406 0)"/>
     <use xlink:href="#DejaVuSans-6e" transform="translate(796.089844 0)"/>
     <use xlink:href="#DejaVuSans-74" transform="translate(859.46875 0)"/>
     <use xlink:href="#DejaVuSans-61" transform="translate(898.677734 0)"/>
     <use xlink:href="#DejaVuSans-67" transform="translate(959.957031 0)"/>
     <use xlink:href="#DejaVuSans-65" transform="translate(1023.433594 0)"/>
     <use xlink:href="#DejaVuSans-20" transform="translate(1084.957031 0)"/>
     <use xlink:href="#DejaVuSans-6f" transform="translate(1116.744141 0)"/>
     <use xlink:href="#DejaVuSans-66" transform="translate(1177.925781 0)"/>
     <use xlink:href="#DejaVuSans-20" transform="translate(1213.130859 0)"/>
     <use xlink:href="#DejaVuSans-41" transform="translate(1244.917969 0)"/>
     <use xlink:href="#DejaVuSans-57" transform="translate(1307.826172 0)"/>
     <use xlink:href="#DejaVuSans-53" transform="translate(1406.703125 0)"/>
     <use xlink:href="#DejaVuSans-20" transform="translate(1470.179688 0)"/>
     <use xlink:href="#DejaVuSans-6f" transform="translate(1501.966797 0)"/>
     <use xlink:href="#DejaVuSans-77" transform="translate(1563.148438 0)"/>
     <use xlink:href="#DejaVuSans-6e" transform="translate(1644.935547 0)"/>
     <use xlink:href="#DejaVuSans-65" transform="translate(1708.314453 0)"/>
     <use xlink:href="#DejaVuSans-72" transform="translate(1769.837891 0)"/>
     <use xlink:href="#DejaVuSans-73" transform="translate(1810.951172 0)"/>
     <use xlink:href="#DejaVuSans-68" transform="translate(1863.050781 0)"/>
     <use xlink:href="#DejaVuSans-69" transform="translate(1926.429688 0)"/>
     <use xlink:href="#DejaVuSans-70" transform="translate(1954.212891 0)"/>
     <use xlink:href="#DejaVuSans-20" transform="translate(2017.689453 0)"/>
     <use xlink:href="#DejaVuSans-6f" transform="translate(2049.476562 0)"/>
     <use xlink:href="#DejaVuSans-66" transform="translate(2110.658203 0)"/>
     <use xlink:href="#DejaVuSans-20" transform="translate(2145.863281 0)"/>
     <use xlink:href="#DejaVuSans-49" transform="translate(2177.650391 0)"/>
     <use xlink:href="#DejaVuSans-50" transform="translate(2207.142578 0)"/>
     <use xlink:href="#DejaVuSans-76" transform="translate(2267.445312 0)"/>
     <use xlink:href="#DejaVuSans-34" transform="translate(2326.625 0)"/>
     <use xlink:href="#DejaVuSans-20" transform="translate(2390.248047 0)"/>
     <use xlink:href="#DejaVuSans-73" transform="translate(2422.035156 0)"/>
     <use xlink:href="#DejaVuSans-70" transform="translate(2474.134766 0)"/>
     <use xlink:href="#DejaVuSans-61" transform="translate(2537.611328 0)"/>
     <use xlink:href="#DejaVuSans-63" transform="translate(2598.890625 0)"/>
     <use xlink:href="#DejaVuSans-65" transform="translate(2653.871094 0)"/>
    </g>
   </g>
  </g>
 </g>
 <defs>
  <clipPath id="p6d14471b0e">
   <rect x="30.103125" y="22.318125" width="502.2" height="277.2"/>
  </clipPath>
 </defs>
</svg>
