<?xml version="1.0" encoding="utf-8" standalone="no"?>
<!DOCTYPE svg PUBLIC "-//W3C//DTD SVG 1.1//EN"
  "http://www.w3.org/Graphics/SVG/1.1/DTD/svg11.dtd">
<svg xmlns:xlink="http://www.w3.org/1999/xlink" width="539.503125pt" height="323.39625pt" viewBox="0 0 539.503125 323.39625" xmlns="http://www.w3.org/2000/svg" version="1.1">
 
 <defs>
  <style type="text/css">*{stroke-linejoin: round; stroke-linecap: butt}</style>
 </defs>
 <g id="figure_1">
  <g id="patch_1">
   <path d="M 0 323.39625 
L 539.503125 323.39625 
L 539.503125 0 
L 0 0 
z
" style="fill: #b2b2b2"/>
  </g>
  <g id="axes_1">
   <g id="patch_2">
    <path d="M 30.103125 299.518125 
L 532.303125 299.518125 
L 532.303125 22.318125 
L 30.103125 22.318125 
z
" style="fill: #e6e6e6"/>
   </g>
   <g id="matplotlib.axis_1">
    <g id="xtick_1">
     <g id="line2d_1">
      <defs>
       <path id="ma78f911f2e" d="M 0 0 
L 0 3.5 
" style="stroke: #000000; stroke-width: 0.8"/>
      </defs>
      <g>
       <use xlink:href="#ma78f911f2e" x="45.026348" y="299.518125" style="stroke: #000000; stroke-width: 0.8"/>
      </g>
     </g>
     <g id="text_1">
      <!-- 2017 -->
      <g transform="translate(32.301348 314.116563) scale(0.1 -0.1)">
       <defs>
        <path id="DejaVuSans-32" d="M 1228 531 
L 3431 531 
L 3431 0 
L 469 0 
L 469 531 
Q 828 903 1448 1529 
Q 2069 2156 2228 2338 
Q 2531 2678 2651 2914 
Q 2772 3150 2772 3378 
Q 2772 3750 2511 3984 
Q 2250 4219 1831 4219 
Q 1534 4219 1204 4116 
Q 875 4013 500 3803 
L 500 4441 
Q 881 4594 1212 4672 
Q 1544 4750 1819 4750 
Q 2544 4750 2975 4387 
Q 3406 4025 3406 3419 
Q 3406 3131 3298 2873 
Q 3191 2616 2906 2266 
Q 2828 2175 2409 1742 
Q 1991 1309 1228 531 
z
" transform="scale(0.015625)"/>
        <path id="DejaVuSans-30" d="M 2034 4250 
Q 1547 4250 1301 3770 
Q 1056 3291 1056 2328 
Q 1056 1369 1301 889 
Q 1547 409 2034 409 
Q 2525 409 2770 889 
Q 3016 1369 3016 2328 
Q 3016 3291 2770 3770 
Q 2525 4250 2034 4250 
z
M 2034 4750 
Q 2819 4750 3233 4129 
Q 3647 3509 3647 2328 
Q 3647 1150 3233 529 
Q 2819 -91 2034 -91 
Q 1250 -91 836 529 
Q 422 1150 422 2328 
Q 422 3509 836 4129 
Q 1250 4750 2034 4750 
z
" transform="scale(0.015625)"/>
        <path id="DejaVuSans-31" d="M 794 531 
L 1825 531 
L 1825 4091 
L 703 3866 
L 703 4441 
L 1819 4666 
L 2450 4666 
L 2450 531 
L 3481 531 
L 3481 0 
L 794 0 
L 794 531 
z
" transform="scale(0.015625)"/>
        <path id="DejaVuSans-37" d="M 525 4666 
L 3525 4666 
L 3525 4397 
L 1831 0 
L 1172 0 
L 2766 4134 
L 525 4134 
L 525 4666 
z
" transform="scale(0.015625)"/>
       </defs>
       <use xlink:href="#DejaVuSans-32"/>
       <use xlink:href="#DejaVuSans-30" x="63.623047"/>
       <use xlink:href="#DejaVuSans-31" x="127.246094"/>
       <use xlink:href="#DejaVuSans-37" x="190.869141"/>
      </g>
     </g>
    </g>
    <g id="xtick_2">
     <g id="line2d_2">
      <g>
       <use xlink:href="#ma78f911f2e" x="106.228332" y="299.518125" style="stroke: #000000; stroke-width: 0.8"/>
      </g>
     </g>
     <g id="text_2">
      <!-- 2018 -->
      <g transform="translate(93.503332 314.116563) scale(0.1 -0.1)">
       <defs>
        <path id="DejaVuSans-38" d="M 2034 2216 
Q 1584 2216 1326 1975 
Q 1069 1734 1069 1313 
Q 1069 891 1326 650 
Q 1584 409 2034 409 
Q 2484 409 2743 651 
Q 3003 894 3003 1313 
Q 3003 1734 2745 1975 
Q 2488 2216 2034 2216 
z
M 1403 2484 
Q 997 2584 770 2862 
Q 544 3141 544 3541 
Q 544 4100 942 4425 
Q 1341 4750 2034 4750 
Q 2731 4750 3128 4425 
Q 3525 4100 3525 3541 
Q 3525 3141 3298 2862 
Q 3072 2584 2669 2484 
Q 3125 2378 3379 2068 
Q 3634 1759 3634 1313 
Q 3634 634 3220 271 
Q 2806 -91 2034 -91 
Q 1263 -91 848 271 
Q 434 634 434 1313 
Q 434 1759 690 2068 
Q 947 2378 1403 2484 
z
M 1172 3481 
Q 1172 3119 1398 2916 
Q 1625 2713 2034 2713 
Q 2441 2713 2670 2916 
Q 2900 3119 2900 3481 
Q 2900 3844 2670 4047 
Q 2441 4250 2034 4250 
Q 1625 4250 1398 4047 
Q 1172 3844 1172 3481 
z
" transform="scale(0.015625)"/>
       </defs>
       <use xlink:href="#DejaVuSans-32"/>
       <use xlink:href="#DejaVuSans-30" x="63.623047"/>
       <use xlink:href="#DejaVuSans-31" x="127.246094"/>
       <use xlink:href="#DejaVuSans-38" x="190.869141"/>
      </g>
     </g>
    </g>
    <g id="xtick_3">
     <g id="line2d_3">
      <g>
       <use xlink:href="#ma78f911f2e" x="167.430315" y="299.518125" style="stroke: #000000; stroke-width: 0.8"/>
      </g>
     </g>
     <g id="text_3">
      <!-- 2019 -->
      <g transform="translate(154.705315 314.116563) scale(0.1 -0.1)">
       <defs>
        <path id="DejaVuSans-39" d="M 703 97 
L 703 672 
Q 941 559 1184 500 
Q 1428 441 1663 441 
Q 2288 441 2617 861 
Q 2947 1281 2994 2138 
Q 2813 1869 2534 1725 
Q 2256 1581 1919 1581 
Q 1219 1581 811 2004 
Q 403 2428 403 3163 
Q 403 3881 828 4315 
Q 1253 4750 1959 4750 
Q 2769 4750 3195 4129 
Q 3622 3509 3622 2328 
Q 3622 1225 3098 567 
Q 2575 -91 1691 -91 
Q 1453 -91 1209 -44 
Q 966 3 703 97 
z
M 1959 2075 
Q 2384 2075 2632 2365 
Q 2881 2656 2881 3163 
Q 2881 3666 2632 3958 
Q 2384 4250 1959 4250 
Q 1534 4250 1286 3958 
Q 1038 3666 1038 3163 
Q 1038 2656 1286 2365 
Q 1534 2075 1959 2075 
z
" transform="scale(0.015625)"/>
       </defs>
       <use xlink:href="#DejaVuSans-32"/>
       <use xlink:href="#DejaVuSans-30" x="63.623047"/>
       <use xlink:href="#DejaVuSans-31" x="127.246094"/>
       <use xlink:href="#DejaVuSans-39" x="190.869141"/>
      </g>
     </g>
    </g>
    <g id="xtick_4">
     <g id="line2d_4">
      <g>
       <use xlink:href="#ma78f911f2e" x="228.632298" y="299.518125" style="stroke: #000000; stroke-width: 0.8"/>
      </g>
     </g>
     <g id="text_4">
      <!-- 2020 -->
      <g transform="translate(215.907298 314.116563) scale(0.1 -0.1)">
       <use xlink:href="#DejaVuSans-32"/>
       <use xlink:href="#DejaVuSans-30" x="63.623047"/>
       <use xlink:href="#DejaVuSans-32" x="127.246094"/>
       <use xlink:href="#DejaVuSans-30" x="190.869141"/>
      </g>
     </g>
    </g>
    <g id="xtick_5">
     <g id="line2d_5">
      <g>
       <use xlink:href="#ma78f911f2e" x="290.001958" y="299.518125" style="stroke: #000000; stroke-width: 0.8"/>
      </g>
     </g>
     <g id="text_5">
      <!-- 2021 -->
      <g transform="translate(277.276958 314.116563) scale(0.1 -0.1)">
       <use xlink:href="#DejaVuSans-32"/>
       <use xlink:href="#DejaVuSans-30" x="63.623047"/>
       <use xlink:href="#DejaVuSans-32" x="127.246094"/>
       <use xlink:href="#DejaVuSans-31" x="190.869141"/>
      </g>
     </g>
    </g>
    <g id="xtick_6">
     <g id="line2d_6">
      <g>
       <use xlink:href="#ma78f911f2e" x="351.203941" y="299.518125" style="stroke: #000000; stroke-width: 0.8"/>
      </g>
     </g>
     <g id="text_6">
      <!-- 2022 -->
      <g transform="translate(338.478941 314.116563) scale(0.1 -0.1)">
       <use xlink:href="#DejaVuSans-32"/>
       <use xlink:href="#DejaVuSans-30" x="63.623047"/>
       <use xlink:href="#DejaVuSans-32" x="127.246094"/>
       <use xlink:href="#DejaVuSans-32" x="190.869141"/>
      </g>
     </g>
    </g>
    <g id="xtick_7">
     <g id="line2d_7">
      <g>
       <use xlink:href="#ma78f911f2e" x="412.405925" y="299.518125" style="stroke: #000000; stroke-width: 0.8"/>
      </g>
     </g>
     <g id="text_7">
      <!-- 2023 -->
      <g transform="translate(399.680925 314.116563) scale(0.1 -0.1)">
       <defs>
        <path id="DejaVuSans-33" d="M 2597 2516 
Q 3050 2419 3304 2112 
Q 3559 1806 3559 1356 
Q 3559 666 3084 287 
Q 2609 -91 1734 -91 
Q 1441 -91 1130 -33 
Q 819 25 488 141 
L 488 750 
Q 750 597 1062 519 
Q 1375 441 1716 441 
Q 2309 441 2620 675 
Q 2931 909 2931 1356 
Q 2931 1769 2642 2001 
Q 2353 2234 1838 2234 
L 1294 2234 
L 1294 2753 
L 1863 2753 
Q 2328 2753 2575 2939 
Q 2822 3125 2822 3475 
Q 2822 3834 2567 4026 
Q 2313 4219 1838 4219 
Q 1578 4219 1281 4162 
Q 984 4106 628 3988 
L 628 4550 
Q 988 4650 1302 4700 
Q 1616 4750 1894 4750 
Q 2613 4750 3031 4423 
Q 3450 4097 3450 3541 
Q 3450 3153 3228 2886 
Q 3006 2619 2597 2516 
z
" transform="scale(0.015625)"/>
       </defs>
       <use xlink:href="#DejaVuSans-32"/>
       <use xlink:href="#DejaVuSans-30" x="63.623047"/>
       <use xlink:href="#DejaVuSans-32" x="127.246094"/>
       <use xlink:href="#DejaVuSans-33" x="190.869141"/>
      </g>
     </g>
    </g>
    <g id="xtick_8">
     <g id="line2d_8">
      <g>
       <use xlink:href="#ma78f911f2e" x="473.607908" y="299.518125" style="stroke: #000000; stroke-width: 0.8"/>
      </g>
     </g>
     <g id="text_8">
      <!-- 2024 -->
      <g transform="translate(460.882908 314.116563) scale(0.1 -0.1)">
       <defs>
        <path id="DejaVuSans-34" d="M 2419 4116 
L 825 1625 
L 2419 1625 
L 2419 4116 
z
M 2253 4666 
L 3047 4666 
L 3047 1625 
L 3713 1625 
L 3713 1100 
L 3047 1100 
L 3047 0 
L 2419 0 
L 2419 1100 
L 313 1100 
L 313 1709 
L 2253 4666 
z
" transform="scale(0.015625)"/>
       </defs>
       <use xlink:href="#DejaVuSans-32"/>
       <use xlink:href="#DejaVuSans-30" x="63.623047"/>
       <use xlink:href="#DejaVuSans-32" x="127.246094"/>
       <use xlink:href="#DejaVuSans-34" x="190.869141"/>
      </g>
     </g>
    </g>
   </g>
   <g id="matplotlib.axis_2">
    <g id="ytick_1">
     <g id="line2d_9">
      <defs>
       <path id="ma562af20d9" d="M 0 0 
L -3.5 0 
" style="stroke: #000000; stroke-width: 0.8"/>
      </defs>
      <g>
       <use xlink:href="#ma562af20d9" x="30.103125" y="299.518125" style="stroke: #000000; stroke-width: 0.8"/>
      </g>
     </g>
     <g id="text_9">
      <!-- 0.0 -->
      <g transform="translate(7.2 303.317344) scale(0.1 -0.1)">
       <defs>
        <path id="DejaVuSans-2e" d="M 684 794 
L 1344 794 
L 1344 0 
L 684 0 
L 684 794 
z
" transform="scale(0.015625)"/>
       </defs>
       <use xlink:href="#DejaVuSans-30"/>
       <use xlink:href="#DejaVuSans-2e" x="63.623047"/>
       <use xlink:href="#DejaVuSans-30" x="95.410156"/>
      </g>
     </g>
    </g>
    <g id="ytick_2">
     <g id="line2d_10">
      <g>
       <use xlink:href="#ma562af20d9" x="30.103125" y="241.81021" style="stroke: #000000; stroke-width: 0.8"/>
      </g>
     </g>
     <g id="text_10">
      <!-- 0.5 -->
      <g transform="translate(7.2 245.609429) scale(0.1 -0.1)">
       <defs>
        <path id="DejaVuSans-35" d="M 691 4666 
L 3169 4666 
L 3169 4134 
L 1269 4134 
L 1269 2991 
Q 1406 3038 1543 3061 
Q 1681 3084 1819 3084 
Q 2600 3084 3056 2656 
Q 3513 2228 3513 1497 
Q 3513 744 3044 326 
Q 2575 -91 1722 -91 
Q 1428 -91 1123 -41 
Q 819 9 494 109 
L 494 744 
Q 775 591 1075 516 
Q 1375 441 1709 441 
Q 2250 441 2565 725 
Q 2881 1009 2881 1497 
Q 2881 1984 2565 2268 
Q 2250 2553 1709 2553 
Q 1456 2553 1204 2497 
Q 953 2441 691 2322 
L 691 4666 
z
" transform="scale(0.015625)"/>
       </defs>
       <use xlink:href="#DejaVuSans-30"/>
       <use xlink:href="#DejaVuSans-2e" x="63.623047"/>
       <use xlink:href="#DejaVuSans-35" x="95.410156"/>
      </g>
     </g>
    </g>
    <g id="ytick_3">
     <g id="line2d_11">
      <g>
       <use xlink:href="#ma562af20d9" x="30.103125" y="184.102295" style="stroke: #000000; stroke-width: 0.8"/>
      </g>
     </g>
     <g id="text_11">
      <!-- 1.0 -->
      <g transform="translate(7.2 187.901514) scale(0.1 -0.1)">
       <use xlink:href="#DejaVuSans-31"/>
       <use xlink:href="#DejaVuSans-2e" x="63.623047"/>
       <use xlink:href="#DejaVuSans-30" x="95.410156"/>
      </g>
     </g>
    </g>
    <g id="ytick_4">
     <g id="line2d_12">
      <g>
       <use xlink:href="#ma562af20d9" x="30.103125" y="126.39438" style="stroke: #000000; stroke-width: 0.8"/>
      </g>
     </g>
     <g id="text_12">
      <!-- 1.5 -->
      <g transform="translate(7.2 130.193599) scale(0.1 -0.1)">
       <use xlink:href="#DejaVuSans-31"/>
       <use xlink:href="#DejaVuSans-2e" x="63.623047"/>
       <use xlink:href="#DejaVuSans-35" x="95.410156"/>
      </g>
     </g>
    </g>
    <g id="ytick_5">
     <g id="line2d_13">
      <g>
       <use xlink:href="#ma562af20d9" x="30.103125" y="68.686465" style="stroke: #000000; stroke-width: 0.8"/>
      </g>
     </g>
     <g id="text_13">
      <!-- 2.0 -->
      <g transform="translate(7.2 72.485684) scale(0.1 -0.1)">
       <use xlink:href="#DejaVuSans-32"/>
       <use xlink:href="#DejaVuSans-2e" x="63.623047"/>
       <use xlink:href="#DejaVuSans-30" x="95.410156"/>
      </g>
     </g>
    </g>
   </g>
   <g id="line2d_14">
    <path clip-path="url(#p906e395f3e)" style="fill: none; stroke: #cccccc; stroke-linecap: square"/>
   </g>
   <g id="line2d_15">
    <path d="M 45.026348 299.518125 
L 45.026348 22.318125 
" clip-path="url(#p906e395f3e)" style="fill: none; stroke: #cccccc; stroke-linecap: square"/>
   </g>
   <g id="line2d_16">
    <path d="M 106.228332 299.518125 
L 106.228332 22.318125 
" clip-path="url(#p906e395f3e)" style="fill: none; stroke: #cccccc; stroke-linecap: square"/>
   </g>
   <g id="line2d_17">
    <path d="M 167.430315 299.518125 
L 167.430315 22.318125 
" clip-path="url(#p906e395f3e)" style="fill: none; stroke: #cccccc; stroke-linecap: square"/>
   </g>
   <g id="line2d_18">
    <path d="M 228.632298 299.518125 
L 228.632298 22.318125 
" clip-path="url(#p906e395f3e)" style="fill: none; stroke: #cccccc; stroke-linecap: square"/>
   </g>
   <g id="line2d_19">
    <path d="M 290.001958 299.518125 
L 290.001958 22.318125 
" clip-path="url(#p906e395f3e)" style="fill: none; stroke: #cccccc; stroke-linecap: square"/>
   </g>
   <g id="line2d_20">
    <path d="M 351.203941 299.518125 
L 351.203941 22.318125 
" clip-path="url(#p906e395f3e)" style="fill: none; stroke: #cccccc; stroke-linecap: square"/>
   </g>
   <g id="line2d_21">
    <path d="M 412.405925 299.518125 
L 412.405925 22.318125 
" clip-path="url(#p906e395f3e)" style="fill: none; stroke: #cccccc; stroke-linecap: square"/>
   </g>
   <g id="line2d_22">
    <path d="M 473.607908 299.518125 
L 473.607908 22.318125 
" clip-path="url(#p906e395f3e)" style="fill: none; stroke: #cccccc; stroke-linecap: square"/>
   </g>
   <g id="line2d_23">
    <path d="M 30.103125 299.518125 
L 532.303125 299.518125 
" clip-path="url(#p906e395f3e)" style="fill: none; stroke: #cccccc; stroke-linecap: square"/>
   </g>
   <g id="line2d_24">
    <path d="M 30.103125 270.664168 
L 532.303125 270.664168 
" clip-path="url(#p906e395f3e)" style="fill: none; stroke: #cccccc; stroke-linecap: square"/>
   </g>
   <g id="line2d_25">
    <path d="M 30.103125 241.81021 
L 532.303125 241.81021 
" clip-path="url(#p906e395f3e)" style="fill: none; stroke: #cccccc; stroke-linecap: square"/>
   </g>
   <g id="line2d_26">
    <path d="M 30.103125 212.956253 
L 532.303125 212.956253 
" clip-path="url(#p906e395f3e)" style="fill: none; stroke: #cccccc; stroke-linecap: square"/>
   </g>
   <g id="line2d_27">
    <path d="M 30.103125 184.102295 
L 532.303125 184.102295 
" clip-path="url(#p906e395f3e)" style="fill: none; stroke: #cccccc; stroke-linecap: square"/>
   </g>
   <g id="line2d_28">
    <path d="M 30.103125 155.248338 
L 532.303125 155.248338 
" clip-path="url(#p906e395f3e)" style="fill: none; stroke: #cccccc; stroke-linecap: square"/>
   </g>
   <g id="line2d_29">
    <path d="M 30.103125 126.39438 
L 532.303125 126.39438 
" clip-path="url(#p906e395f3e)" style="fill: none; stroke: #cccccc; stroke-linecap: square"/>
   </g>
   <g id="line2d_30">
    <path d="M 30.103125 97.540423 
L 532.303125 97.540423 
" clip-path="url(#p906e395f3e)" style="fill: none; stroke: #cccccc; stroke-linecap: square"/>
   </g>
   <g id="line2d_31">
    <path d="M 30.103125 68.686465 
L 532.303125 68.686465 
" clip-path="url(#p906e395f3e)" style="fill: none; stroke: #cccccc; stroke-linecap: square"/>
   </g>
   <g id="line2d_32">
    <path d="M 30.103125 236.333922 
L 30.773832 236.294018 
L 31.109185 236.294018 
L 31.276862 236.04976 
L 34.462718 236.04976 
L 34.798072 235.605188 
L 36.810192 235.589227 
L 39.157665 235.588429 
L 39.325342 233.95399 
L 39.493018 233.95399 
L 39.660695 233.136771 
L 42.678875 233.130386 
L 60.955632 233.130386 
L 61.123308 223.699645 
L 74.872795 223.699645 
L 75.040472 213.00766 
L 78.394005 213.00766 
L 78.561682 213.61818 
L 80.741478 213.62257 
L 80.909155 213.009655 
L 84.933395 212.979329 
L 85.101072 212.775024 
L 86.274808 212.770635 
L 86.442485 212.56633 
L 86.610162 212.56633 
L 86.777838 212.362025 
L 86.945515 211.953415 
L 87.783898 211.927877 
L 87.951575 211.519268 
L 93.820258 211.492931 
L 93.987935 211.263089 
L 104.216212 211.244035 
L 104.383888 205.5235 
L 106.731362 205.5235 
L 106.899038 205.727805 
L 107.402068 205.727805 
L 107.737422 205.472424 
L 111.258632 205.44928 
L 111.426308 205.203476 
L 113.606105 205.204062 
L 113.773782 204.591148 
L 114.276812 204.589551 
L 114.444488 204.384648 
L 114.779842 204.383651 
L 114.947518 203.975041 
L 115.953578 203.974243 
L 116.121255 203.740304 
L 120.480848 203.633855 
L 120.816202 203.531703 
L 121.486908 203.530905 
L 121.654585 203.122295 
L 124.002058 203.119103 
L 124.169735 202.710493 
L 124.337412 202.710294 
L 124.505088 202.301684 
L 125.008118 202.301684 
L 125.175795 202.097379 
L 125.343472 198.777426 
L 126.349532 198.777426 
L 126.517208 197.960207 
L 128.864682 197.857257 
L 130.206095 197.856409 
L 132.553568 197.854015 
L 132.721245 197.624172 
L 135.739425 197.624172 
L 135.907102 196.806952 
L 137.919222 196.804558 
L 138.086898 195.169322 
L 141.608108 195.171716 
L 141.775785 193.942495 
L 145.129318 193.925736 
L 145.296995 189.020825 
L 152.171738 189.018019 
L 152.339415 188.609409 
L 153.010122 188.577487 
L 156.028302 188.575099 
L 156.195978 186.94066 
L 157.034362 186.94066 
L 157.202038 185.919136 
L 158.878805 185.857685 
L 159.046482 186.674904 
L 162.400015 186.667647 
L 162.567692 186.054733 
L 164.076782 186.053935 
L 164.412135 184.824913 
L 164.915165 184.824913 
L 165.082842 177.87855 
L 167.597992 177.875358 
L 167.765668 177.054946 
L 172.292938 177.047764 
L 172.460615 176.843459 
L 179.167682 176.77182 
L 179.335358 175.953803 
L 181.850508 175.944625 
L 182.018185 175.74032 
L 182.856568 175.733138 
L 183.024245 175.528833 
L 184.868688 175.51766 
L 185.204042 174.700441 
L 185.371718 174.269485 
L 186.042425 174.268687 
L 186.210102 173.860078 
L 186.377778 173.859978 
L 186.545455 173.417388 
L 188.557575 173.414994 
L 188.725252 170.95376 
L 189.898988 170.949769 
L 190.066665 170.540168 
L 190.905048 170.536776 
L 191.072725 169.309351 
L 202.474738 169.186343 
L 202.642415 165.109818 
L 202.810091 165.1096 
L 202.977768 155.302969 
L 206.498978 155.262464 
L 207.672715 155.24294 
L 207.840391 153.404196 
L 217.565638 153.400203 
L 217.733315 151.114552 
L 217.900991 150.705943 
L 220.080788 150.699558 
L 220.248465 149.882339 
L 222.595938 149.871178 
L 222.763615 148.23674 
L 223.937351 148.235942 
L 224.105028 147.418723 
L 229.806035 147.379013 
L 229.973711 146.134828 
L 233.327245 146.09967 
L 233.494921 145.896163 
L 239.866635 145.878603 
L 243.723198 145.817142 
L 243.890875 145.216984 
L 246.070671 145.202395 
L 246.238348 144.998888 
L 246.909055 144.99809 
L 247.076731 144.55646 
L 248.418145 144.54602 
L 248.585821 141.275547 
L 252.107031 141.269954 
L 252.274708 140.912421 
L 254.622181 140.910812 
L 254.789858 140.706508 
L 256.801978 140.754725 
L 256.969655 140.32377 
L 257.975715 140.299937 
L 261.329248 140.288558 
L 261.664601 140.185427 
L 262.838338 140.182727 
L 263.006015 139.972836 
L 263.844398 139.970495 
L 264.179751 139.734248 
L 265.018135 139.734248 
L 265.185811 138.917029 
L 265.856518 138.916948 
L 266.024195 125.840643 
L 266.191871 138.91605 
L 270.886818 138.900641 
L 271.054495 138.001969 
L 272.228231 138.001757 
L 272.395908 137.796692 
L 273.904998 137.785463 
L 274.072675 133.897287 
L 277.929238 133.882766 
L 278.096915 128.979376 
L 281.115095 128.89171 
L 281.953478 128.864464 
L 282.456508 128.862867 
L 282.624185 128.422235 
L 285.139335 128.414411 
L 285.307011 127.998818 
L 287.319131 127.996324 
L 287.486808 127.566912 
L 293.690845 127.548073 
L 293.858521 127.110733 
L 294.026198 127.110733 
L 294.193875 126.666207 
L 294.529228 126.559952 
L 295.199935 126.550563 
L 295.367611 126.244099 
L 298.721145 126.209717 
L 298.888821 126.64975 
L 299.224175 126.648466 
L 299.391851 125.80092 
L 299.894881 125.800889 
L 300.062558 124.166451 
L 300.397911 124.164851 
L 300.565588 123.95794 
L 305.092858 123.907672 
L 305.428211 123.826069 
L 305.763565 123.82567 
L 305.931241 123.001269 
L 309.787805 122.910953 
L 309.955481 122.706065 
L 310.290835 122.704968 
L 310.458511 121.472755 
L 311.464571 121.466766 
L 311.632248 121.026125 
L 312.805985 120.986661 
L 313.141338 120.864934 
L 316.327195 120.838439 
L 316.494871 120.38813 
L 317.500931 120.434477 
L 317.668608 118.595098 
L 319.848405 118.518397 
L 320.183758 118.417834 
L 321.022141 118.3907 
L 325.717088 118.349843 
L 325.884765 117.120822 
L 326.052441 116.916514 
L 326.220118 113.647631 
L 327.226178 113.647029 
L 327.393855 96.484571 
L 336.616071 96.380926 
L 336.783748 96.176621 
L 337.957485 96.156616 
L 346.676671 96.106946 
L 346.844348 95.698318 
L 352.210001 95.592867 
L 353.048385 95.56673 
L 354.389798 95.562516 
L 354.557475 93.110665 
L 357.743331 93.033704 
L 357.911008 92.595566 
L 370.151405 92.555679 
L 370.319081 91.737861 
L 371.828171 91.736963 
L 371.995848 92.145573 
L 380.882711 92.046235 
L 381.050388 91.841132 
L 384.739275 91.836232 
L 384.906951 91.784351 
L 385.074628 91.526975 
L 390.607958 91.470789 
L 390.775635 93.108607 
L 391.278665 93.107809 
L 391.446341 91.473371 
L 391.614018 91.473346 
L 391.781695 73.290218 
L 391.949371 67.754012 
L 392.955431 67.694914 
L 393.290785 66.039623 
L 394.296845 66.018712 
L 394.464521 65.80483 
L 396.644318 65.788417 
L 396.811995 81.315376 
L 398.488761 81.317122 
L 398.656438 72.735921 
L 398.991791 72.735921 
L 399.159468 78.447677 
L 408.381685 78.381341 
L 408.549361 77.564121 
L 413.747338 77.525316 
L 415.927135 77.521151 
L 416.094811 77.725455 
L 431.185711 77.667608 
L 431.521065 77.577826 
L 432.862478 77.576604 
L 433.030155 77.320874 
L 434.203891 77.318629 
L 434.371568 73.232533 
L 445.941258 73.229515 
L 446.108935 72.840374 
L 447.785701 72.82541 
L 447.953378 73.434933 
L 448.288731 73.428212 
L 448.456408 73.223907 
L 448.791761 73.223907 
L 448.959438 73.019602 
L 450.468528 73.008227 
L 450.636205 72.528489 
L 456.169535 72.512777 
L 456.337211 72.710498 
L 464.385691 72.618827 
L 464.553368 71.801607 
L 466.397811 71.801408 
L 466.565488 70.143826 
L 470.422051 70.086639 
L 470.589728 69.907873 
L 476.123058 69.923404 
L 476.290735 68.466734 
L 477.129118 68.464714 
L 477.296795 53.75397 
L 481.991741 53.742863 
L 482.159418 54.148174 
L 485.177598 54.103451 
L 485.345275 53.285976 
L 485.512951 54.102847 
L 494.902845 54.086842 
L 495.070521 54.291146 
L 496.411935 54.292343 
L 496.579611 53.564102 
L 500.436175 53.496635 
L 500.771528 52.976894 
L 501.106881 52.976495 
L 501.274558 54.407228 
L 502.783648 54.381091 
L 503.119001 54.276345 
L 507.813948 54.21456 
L 508.149301 54.407327 
L 511.335158 54.403337 
L 511.502835 54.250108 
L 511.670511 54.250108 
L 511.838188 54.658718 
L 512.173541 54.658718 
L 512.341218 55.271632 
L 513.347278 55.27051 
L 513.514955 54.861901 
L 516.197781 54.759274 
L 518.712931 54.563748 
L 518.880608 52.927714 
L 519.215961 52.927714 
L 519.383638 50.366568 
L 519.551315 50.366568 
L 519.886668 50.233229 
L 520.054345 50.233229 
L 520.054345 50.233229 
" clip-path="url(#p906e395f3e)" style="fill: none; stroke: #1f77b4; stroke-width: 2; stroke-linecap: square"/>
   </g>
   <g id="patch_3">
    <path d="M 30.103125 299.518125 
L 30.103125 22.318125 
" style="fill: none; stroke: #000000; stroke-width: 0.8; stroke-linejoin: miter; stroke-linecap: square"/>
   </g>
   <g id="patch_4">
    <path d="M 532.303125 299.518125 
L 532.303125 22.318125 
" style="fill: none; stroke: #000000; stroke-width: 0.8; stroke-linejoin: miter; stroke-linecap: square"/>
   </g>
   <g id="patch_5">
    <path d="M 30.103125 299.518125 
L 532.303125 299.518125 
" style="fill: none; stroke: #000000; stroke-width: 0.8; stroke-linejoin: miter; stroke-linecap: square"/>
   </g>
   <g id="patch_6">
    <path d="M 30.103125 22.318125 
L 532.303125 22.318125 
" style="fill: none; stroke: #000000; stroke-width: 0.8; stroke-linejoin: miter; stroke-linecap: square"/>
   </g>
   <g id="patch_7">
    <path d="M 61.292575 208.923834 
Q 67.208266 210.681096 73.123956 212.438357 
" style="fill: none; stroke: #000000; stroke-linecap: round"/>
   </g>
   <g id="text_14">
    <g id="patch_8">
     <path d="M 7.969805 211.468248 
L 56.380121 211.468248 
Q 58.879121 211.468248 58.879121 208.969248 
L 58.879121 191.579592 
Q 58.879121 189.080592 56.380121 189.080592 
L 7.969805 189.080592 
Q 5.470805 189.080592 5.470805 191.579592 
L 5.470805 208.969248 
Q 5.470805 211.468248 7.969805 211.468248 
z
" style="fill: #cccccc; stroke: #000000; stroke-linejoin: miter"/>
    </g>
    <!-- 2017-06-29 -->
    <g transform="translate(7.969805 197.909091) scale(0.0833 -0.0833)">
     <defs>
      <path id="DejaVuSans-2d" d="M 313 2009 
L 1997 2009 
L 1997 1497 
L 313 1497 
L 313 2009 
z
" transform="scale(0.015625)"/>
      <path id="DejaVuSans-36" d="M 2113 2584 
Q 1688 2584 1439 2293 
Q 1191 2003 1191 1497 
Q 1191 994 1439 701 
Q 1688 409 2113 409 
Q 2538 409 2786 701 
Q 3034 994 3034 1497 
Q 3034 2003 2786 2293 
Q 2538 2584 2113 2584 
z
M 3366 4563 
L 3366 3988 
Q 3128 4100 2886 4159 
Q 2644 4219 2406 4219 
Q 1781 4219 1451 3797 
Q 1122 3375 1075 2522 
Q 1259 2794 1537 2939 
Q 1816 3084 2150 3084 
Q 2853 3084 3261 2657 
Q 3669 2231 3669 1497 
Q 3669 778 3244 343 
Q 2819 -91 2113 -91 
Q 1303 -91 875 529 
Q 447 1150 447 2328 
Q 447 3434 972 4092 
Q 1497 4750 2381 4750 
Q 2619 4750 2861 4703 
Q 3103 4656 3366 4563 
z
" transform="scale(0.015625)"/>
     </defs>
     <use xlink:href="#DejaVuSans-32"/>
     <use xlink:href="#DejaVuSans-30" x="63.623047"/>
     <use xlink:href="#DejaVuSans-31" x="127.246094"/>
     <use xlink:href="#DejaVuSans-37" x="190.869141"/>
     <use xlink:href="#DejaVuSans-2d" x="254.492188"/>
     <use xlink:href="#DejaVuSans-30" x="290.576172"/>
     <use xlink:href="#DejaVuSans-36" x="354.199219"/>
     <use xlink:href="#DejaVuSans-2d" x="417.822266"/>
     <use xlink:href="#DejaVuSans-32" x="453.90625"/>
     <use xlink:href="#DejaVuSans-39" x="517.529297"/>
    </g>
    <!--  +3.43m  -->
    <g transform="translate(7.969805 207.236869) scale(0.0833 -0.0833)">
     <defs>
      <path id="DejaVuSans-20" transform="scale(0.015625)"/>
      <path id="DejaVuSans-2b" d="M 2944 4013 
L 2944 2272 
L 4684 2272 
L 4684 1741 
L 2944 1741 
L 2944 0 
L 2419 0 
L 2419 1741 
L 678 1741 
L 678 2272 
L 2419 2272 
L 2419 4013 
L 2944 4013 
z
" transform="scale(0.015625)"/>
      <path id="DejaVuSans-6d" d="M 3328 2828 
Q 3544 3216 3844 3400 
Q 4144 3584 4550 3584 
Q 5097 3584 5394 3201 
Q 5691 2819 5691 2113 
L 5691 0 
L 5113 0 
L 5113 2094 
Q 5113 2597 4934 2840 
Q 4756 3084 4391 3084 
Q 3944 3084 3684 2787 
Q 3425 2491 3425 1978 
L 3425 0 
L 2847 0 
L 2847 2094 
Q 2847 2600 2669 2842 
Q 2491 3084 2119 3084 
Q 1678 3084 1418 2786 
Q 1159 2488 1159 1978 
L 1159 0 
L 581 0 
L 581 3500 
L 1159 3500 
L 1159 2956 
Q 1356 3278 1631 3431 
Q 1906 3584 2284 3584 
Q 2666 3584 2933 3390 
Q 3200 3197 3328 2828 
z
" transform="scale(0.015625)"/>
     </defs>
     <use xlink:href="#DejaVuSans-20"/>
     <use xlink:href="#DejaVuSans-2b" x="31.787109"/>
     <use xlink:href="#DejaVuSans-33" x="115.576172"/>
     <use xlink:href="#DejaVuSans-2e" x="179.199219"/>
     <use xlink:href="#DejaVuSans-34" x="210.986328"/>
     <use xlink:href="#DejaVuSans-33" x="274.609375"/>
     <use xlink:href="#DejaVuSans-6d" x="338.232422"/>
     <use xlink:href="#DejaVuSans-20" x="435.644531"/>
    </g>
   </g>
   <g id="patch_9">
    <path d="M 131.549099 184.936999 
Q 137.464789 186.69426 143.380479 188.451522 
" style="fill: none; stroke: #000000; stroke-linecap: round"/>
   </g>
   <g id="text_15">
    <g id="patch_10">
     <path d="M 78.226328 187.481413 
L 126.636644 187.481413 
Q 129.135644 187.481413 129.135644 184.982413 
L 129.135644 167.592757 
Q 129.135644 165.093757 126.636644 165.093757 
L 78.226328 165.093757 
Q 75.727328 165.093757 75.727328 167.592757 
L 75.727328 184.982413 
Q 75.727328 187.481413 78.226328 187.481413 
z
" style="fill: #cccccc; stroke: #000000; stroke-linejoin: miter"/>
    </g>
    <!-- 2018-08-22 -->
    <g transform="translate(78.226328 173.922255) scale(0.0833 -0.0833)">
     <use xlink:href="#DejaVuSans-32"/>
     <use xlink:href="#DejaVuSans-30" x="63.623047"/>
     <use xlink:href="#DejaVuSans-31" x="127.246094"/>
     <use xlink:href="#DejaVuSans-38" x="190.869141"/>
     <use xlink:href="#DejaVuSans-2d" x="254.492188"/>
     <use xlink:href="#DejaVuSans-30" x="290.576172"/>
     <use xlink:href="#DejaVuSans-38" x="354.199219"/>
     <use xlink:href="#DejaVuSans-2d" x="417.822266"/>
     <use xlink:href="#DejaVuSans-32" x="453.90625"/>
     <use xlink:href="#DejaVuSans-32" x="517.529297"/>
    </g>
    <!--  +1.57m  -->
    <g transform="translate(78.226328 183.250033) scale(0.0833 -0.0833)">
     <use xlink:href="#DejaVuSans-20"/>
     <use xlink:href="#DejaVuSans-2b" x="31.787109"/>
     <use xlink:href="#DejaVuSans-31" x="115.576172"/>
     <use xlink:href="#DejaVuSans-2e" x="179.199219"/>
     <use xlink:href="#DejaVuSans-35" x="210.986328"/>
     <use xlink:href="#DejaVuSans-37" x="274.609375"/>
     <use xlink:href="#DejaVuSans-6d" x="338.232422"/>
     <use xlink:href="#DejaVuSans-20" x="435.644531"/>
    </g>
   </g>
   <g id="patch_11">
    <path d="M 189.229872 151.219144 
Q 195.145562 152.976405 201.061252 154.733666 
" style="fill: none; stroke: #000000; stroke-linecap: round"/>
   </g>
   <g id="text_16">
    <g id="patch_12">
     <path d="M 135.907102 153.763557 
L 184.317417 153.763557 
Q 186.816417 153.763557 186.816417 151.264557 
L 186.816417 133.874901 
Q 186.816417 131.375901 184.317417 131.375901 
L 135.907102 131.375901 
Q 133.408102 131.375901 133.408102 133.874901 
L 133.408102 151.264557 
Q 133.408102 153.763557 135.907102 153.763557 
z
" style="fill: #cccccc; stroke: #000000; stroke-linejoin: miter"/>
    </g>
    <!-- 2019-08-01 -->
    <g transform="translate(135.907102 140.2044) scale(0.0833 -0.0833)">
     <use xlink:href="#DejaVuSans-32"/>
     <use xlink:href="#DejaVuSans-30" x="63.623047"/>
     <use xlink:href="#DejaVuSans-31" x="127.246094"/>
     <use xlink:href="#DejaVuSans-39" x="190.869141"/>
     <use xlink:href="#DejaVuSans-2d" x="254.492188"/>
     <use xlink:href="#DejaVuSans-30" x="290.576172"/>
     <use xlink:href="#DejaVuSans-38" x="354.199219"/>
     <use xlink:href="#DejaVuSans-2d" x="417.822266"/>
     <use xlink:href="#DejaVuSans-30" x="453.90625"/>
     <use xlink:href="#DejaVuSans-31" x="517.529297"/>
    </g>
    <!--  +3.15m  -->
    <g transform="translate(135.907102 149.532178) scale(0.0833 -0.0833)">
     <use xlink:href="#DejaVuSans-20"/>
     <use xlink:href="#DejaVuSans-2b" x="31.787109"/>
     <use xlink:href="#DejaVuSans-33" x="115.576172"/>
     <use xlink:href="#DejaVuSans-2e" x="179.199219"/>
     <use xlink:href="#DejaVuSans-31" x="210.986328"/>
     <use xlink:href="#DejaVuSans-35" x="274.609375"/>
     <use xlink:href="#DejaVuSans-6d" x="338.232422"/>
     <use xlink:href="#DejaVuSans-20" x="435.644531"/>
    </g>
   </g>
   <g id="patch_13">
    <path d="M 252.276298 121.756817 
Q 258.191989 123.514078 264.107679 125.27134 
" style="fill: none; stroke: #000000; stroke-linecap: round"/>
   </g>
   <g id="text_17">
    <g id="patch_14">
     <path d="M 198.953528 124.301231 
L 247.363844 124.301231 
Q 249.862844 124.301231 249.862844 121.802231 
L 249.862844 104.412575 
Q 249.862844 101.913575 247.363844 101.913575 
L 198.953528 101.913575 
Q 196.454528 101.913575 196.454528 104.412575 
L 196.454528 121.802231 
Q 196.454528 124.301231 198.953528 124.301231 
z
" style="fill: #cccccc; stroke: #000000; stroke-linejoin: miter"/>
    </g>
    <!-- 2020-08-11 -->
    <g transform="translate(198.953528 110.742073) scale(0.0833 -0.0833)">
     <use xlink:href="#DejaVuSans-32"/>
     <use xlink:href="#DejaVuSans-30" x="63.623047"/>
     <use xlink:href="#DejaVuSans-32" x="127.246094"/>
     <use xlink:href="#DejaVuSans-30" x="190.869141"/>
     <use xlink:href="#DejaVuSans-2d" x="254.492188"/>
     <use xlink:href="#DejaVuSans-30" x="290.576172"/>
     <use xlink:href="#DejaVuSans-38" x="354.199219"/>
     <use xlink:href="#DejaVuSans-2d" x="417.822266"/>
     <use xlink:href="#DejaVuSans-31" x="453.90625"/>
     <use xlink:href="#DejaVuSans-31" x="517.529297"/>
    </g>
    <!--  +4.19m  -->
    <g transform="translate(198.953528 120.069851) scale(0.0833 -0.0833)">
     <use xlink:href="#DejaVuSans-20"/>
     <use xlink:href="#DejaVuSans-2b" x="31.787109"/>
     <use xlink:href="#DejaVuSans-34" x="115.576172"/>
     <use xlink:href="#DejaVuSans-2e" x="179.199219"/>
     <use xlink:href="#DejaVuSans-31" x="210.986328"/>
     <use xlink:href="#DejaVuSans-39" x="274.609375"/>
     <use xlink:href="#DejaVuSans-6d" x="338.232422"/>
     <use xlink:href="#DejaVuSans-20" x="435.644531"/>
    </g>
   </g>
   <g id="patch_15">
    <path d="M 283.475556 153.586848 
Q 275.596416 146.898848 267.717275 140.210849 
" style="fill: none; stroke: #000000; stroke-linecap: round"/>
   </g>
   <g id="text_18">
    <g id="patch_16">
     <path d="M 274.575705 177.772179 
L 322.98602 177.772179 
Q 325.48502 177.772179 325.48502 175.273179 
L 325.48502 157.883523 
Q 325.48502 155.384523 322.98602 155.384523 
L 274.575705 155.384523 
Q 272.076705 155.384523 272.076705 157.883523 
L 272.076705 175.273179 
Q 272.076705 177.772179 274.575705 177.772179 
z
" style="fill: #cccccc; stroke: #000000; stroke-linejoin: miter"/>
    </g>
    <!-- 2020-08-12 -->
    <g transform="translate(274.575705 164.213021) scale(0.0833 -0.0833)">
     <use xlink:href="#DejaVuSans-32"/>
     <use xlink:href="#DejaVuSans-30" x="63.623047"/>
     <use xlink:href="#DejaVuSans-32" x="127.246094"/>
     <use xlink:href="#DejaVuSans-30" x="190.869141"/>
     <use xlink:href="#DejaVuSans-2d" x="254.492188"/>
     <use xlink:href="#DejaVuSans-30" x="290.576172"/>
     <use xlink:href="#DejaVuSans-38" x="354.199219"/>
     <use xlink:href="#DejaVuSans-2d" x="417.822266"/>
     <use xlink:href="#DejaVuSans-31" x="453.90625"/>
     <use xlink:href="#DejaVuSans-32" x="517.529297"/>
    </g>
    <!--  -4.19m  -->
    <g transform="translate(274.575705 173.540799) scale(0.0833 -0.0833)">
     <use xlink:href="#DejaVuSans-20"/>
     <use xlink:href="#DejaVuSans-2d" x="31.787109"/>
     <use xlink:href="#DejaVuSans-34" x="67.871094"/>
     <use xlink:href="#DejaVuSans-2e" x="131.494141"/>
     <use xlink:href="#DejaVuSans-31" x="163.28125"/>
     <use xlink:href="#DejaVuSans-39" x="226.904297"/>
     <use xlink:href="#DejaVuSans-6d" x="290.527344"/>
     <use xlink:href="#DejaVuSans-20" x="387.939453"/>
    </g>
   </g>
   <g id="patch_17">
    <path d="M 313.645958 92.400746 
Q 319.561649 94.158007 325.477339 95.915268 
" style="fill: none; stroke: #000000; stroke-linecap: round"/>
   </g>
   <g id="text_19">
    <g id="patch_18">
     <path d="M 260.323188 94.945159 
L 308.733504 94.945159 
Q 311.232504 94.945159 311.232504 92.446159 
L 311.232504 75.056504 
Q 311.232504 72.557504 308.733504 72.557504 
L 260.323188 72.557504 
Q 257.824188 72.557504 257.824188 75.056504 
L 257.824188 92.446159 
Q 257.824188 94.945159 260.323188 94.945159 
z
" style="fill: #cccccc; stroke: #000000; stroke-linejoin: miter"/>
    </g>
    <!-- 2021-08-12 -->
    <g transform="translate(260.323188 81.386002) scale(0.0833 -0.0833)">
     <use xlink:href="#DejaVuSans-32"/>
     <use xlink:href="#DejaVuSans-30" x="63.623047"/>
     <use xlink:href="#DejaVuSans-32" x="127.246094"/>
     <use xlink:href="#DejaVuSans-31" x="190.869141"/>
     <use xlink:href="#DejaVuSans-2d" x="254.492188"/>
     <use xlink:href="#DejaVuSans-30" x="290.576172"/>
     <use xlink:href="#DejaVuSans-38" x="354.199219"/>
     <use xlink:href="#DejaVuSans-2d" x="417.822266"/>
     <use xlink:href="#DejaVuSans-31" x="453.90625"/>
     <use xlink:href="#DejaVuSans-32" x="517.529297"/>
    </g>
    <!--  +5.51m  -->
    <g transform="translate(260.323188 90.71378) scale(0.0833 -0.0833)">
     <use xlink:href="#DejaVuSans-20"/>
     <use xlink:href="#DejaVuSans-2b" x="31.787109"/>
     <use xlink:href="#DejaVuSans-35" x="115.576172"/>
     <use xlink:href="#DejaVuSans-2e" x="179.199219"/>
     <use xlink:href="#DejaVuSans-35" x="210.986328"/>
     <use xlink:href="#DejaVuSans-31" x="274.609375"/>
     <use xlink:href="#DejaVuSans-6d" x="338.232422"/>
     <use xlink:href="#DejaVuSans-20" x="435.644531"/>
    </g>
   </g>
   <g id="patch_19">
    <path d="M 378.201475 63.670186 
Q 384.117165 65.427448 390.032855 67.184709 
" style="fill: none; stroke: #000000; stroke-linecap: round"/>
   </g>
   <g id="text_20">
    <g id="patch_20">
     <path d="M 324.878705 66.2146 
L 373.28902 66.2146 
Q 375.78802 66.2146 375.78802 63.7156 
L 375.78802 46.325944 
Q 375.78802 43.826944 373.28902 43.826944 
L 324.878705 43.826944 
Q 322.379705 43.826944 322.379705 46.325944 
L 322.379705 63.7156 
Q 322.379705 66.2146 324.878705 66.2146 
z
" style="fill: #cccccc; stroke: #000000; stroke-linejoin: miter"/>
    </g>
    <!-- 2022-09-01 -->
    <g transform="translate(324.878705 52.655443) scale(0.0833 -0.0833)">
     <use xlink:href="#DejaVuSans-32"/>
     <use xlink:href="#DejaVuSans-30" x="63.623047"/>
     <use xlink:href="#DejaVuSans-32" x="127.246094"/>
     <use xlink:href="#DejaVuSans-32" x="190.869141"/>
     <use xlink:href="#DejaVuSans-2d" x="254.492188"/>
     <use xlink:href="#DejaVuSans-30" x="290.576172"/>
     <use xlink:href="#DejaVuSans-39" x="354.199219"/>
     <use xlink:href="#DejaVuSans-2d" x="417.822266"/>
     <use xlink:href="#DejaVuSans-30" x="453.90625"/>
     <use xlink:href="#DejaVuSans-31" x="517.529297"/>
    </g>
    <!--  +7.61m  -->
    <g transform="translate(324.878705 61.98322) scale(0.0833 -0.0833)">
     <use xlink:href="#DejaVuSans-20"/>
     <use xlink:href="#DejaVuSans-2b" x="31.787109"/>
     <use xlink:href="#DejaVuSans-37" x="115.576172"/>
     <use xlink:href="#DejaVuSans-2e" x="179.199219"/>
     <use xlink:href="#DejaVuSans-36" x="210.986328"/>
     <use xlink:href="#DejaVuSans-31" x="274.609375"/>
     <use xlink:href="#DejaVuSans-6d" x="338.232422"/>
     <use xlink:href="#DejaVuSans-20" x="435.644531"/>
    </g>
   </g>
   <g id="patch_21">
    <path d="M 414.095679 95.986173 
Q 406.216539 89.298174 398.337398 82.610174 
" style="fill: none; stroke: #000000; stroke-linecap: round"/>
   </g>
   <g id="text_21">
    <g id="patch_22">
     <path d="M 405.195828 120.171505 
L 453.606144 120.171505 
Q 456.105144 120.171505 456.105144 117.672505 
L 456.105144 100.282849 
Q 456.105144 97.783849 453.606144 97.783849 
L 405.195828 97.783849 
Q 402.696828 97.783849 402.696828 100.282849 
L 402.696828 117.672505 
Q 402.696828 120.171505 405.195828 120.171505 
z
" style="fill: #cccccc; stroke: #000000; stroke-linejoin: miter"/>
    </g>
    <!-- 2022-09-30 -->
    <g transform="translate(405.195828 106.612347) scale(0.0833 -0.0833)">
     <use xlink:href="#DejaVuSans-32"/>
     <use xlink:href="#DejaVuSans-30" x="63.623047"/>
     <use xlink:href="#DejaVuSans-32" x="127.246094"/>
     <use xlink:href="#DejaVuSans-32" x="190.869141"/>
     <use xlink:href="#DejaVuSans-2d" x="254.492188"/>
     <use xlink:href="#DejaVuSans-30" x="290.576172"/>
     <use xlink:href="#DejaVuSans-39" x="354.199219"/>
     <use xlink:href="#DejaVuSans-2d" x="417.822266"/>
     <use xlink:href="#DejaVuSans-33" x="453.90625"/>
     <use xlink:href="#DejaVuSans-30" x="517.529297"/>
    </g>
    <!--  -4.98m  -->
    <g transform="translate(405.195828 115.940125) scale(0.0833 -0.0833)">
     <use xlink:href="#DejaVuSans-20"/>
     <use xlink:href="#DejaVuSans-2d" x="31.787109"/>
     <use xlink:href="#DejaVuSans-34" x="67.871094"/>
     <use xlink:href="#DejaVuSans-2e" x="131.494141"/>
     <use xlink:href="#DejaVuSans-39" x="163.28125"/>
     <use xlink:href="#DejaVuSans-38" x="226.904297"/>
     <use xlink:href="#DejaVuSans-6d" x="290.527344"/>
     <use xlink:href="#DejaVuSans-20" x="387.939453"/>
    </g>
   </g>
   <g id="patch_23">
    <path d="M 463.548898 49.670145 
Q 469.464588 51.427406 475.380279 53.184667 
" style="fill: none; stroke: #000000; stroke-linecap: round"/>
   </g>
   <g id="text_22">
    <g id="patch_24">
     <path d="M 410.226128 52.214558 
L 458.636444 52.214558 
Q 461.135444 52.214558 461.135444 49.715558 
L 461.135444 32.325903 
Q 461.135444 29.826903 458.636444 29.826903 
L 410.226128 29.826903 
Q 407.727128 29.826903 407.727128 32.325903 
L 407.727128 49.715558 
Q 407.727128 52.214558 410.226128 52.214558 
z
" style="fill: #cccccc; stroke: #000000; stroke-linejoin: miter"/>
    </g>
    <!-- 2024-01-23 -->
    <g transform="translate(410.226128 38.655401) scale(0.0833 -0.0833)">
     <use xlink:href="#DejaVuSans-32"/>
     <use xlink:href="#DejaVuSans-30" x="63.623047"/>
     <use xlink:href="#DejaVuSans-32" x="127.246094"/>
     <use xlink:href="#DejaVuSans-34" x="190.869141"/>
     <use xlink:href="#DejaVuSans-2d" x="254.492188"/>
     <use xlink:href="#DejaVuSans-30" x="290.576172"/>
     <use xlink:href="#DejaVuSans-31" x="354.199219"/>
     <use xlink:href="#DejaVuSans-2d" x="417.822266"/>
     <use xlink:href="#DejaVuSans-32" x="453.90625"/>
     <use xlink:href="#DejaVuSans-33" x="517.529297"/>
    </g>
    <!--  +4.72m  -->
    <g transform="translate(410.226128 47.983179) scale(0.0833 -0.0833)">
     <use xlink:href="#DejaVuSans-20"/>
     <use xlink:href="#DejaVuSans-2b" x="31.787109"/>
     <use xlink:href="#DejaVuSans-34" x="115.576172"/>
     <use xlink:href="#DejaVuSans-2e" x="179.199219"/>
     <use xlink:href="#DejaVuSans-37" x="210.986328"/>
     <use xlink:href="#DejaVuSans-32" x="274.609375"/>
     <use xlink:href="#DejaVuSans-6d" x="338.232422"/>
     <use xlink:href="#DejaVuSans-20" x="435.644531"/>
    </g>
   </g>
   <g id="text_23">
    <!-- History of percentage of AWS ownership of IPv4 space -->
    <g transform="translate(118.277813 16.318125) scale(0.12 -0.12)">
     <defs>
      <path id="DejaVuSans-48" d="M 628 4666 
L 1259 4666 
L 1259 2753 
L 3553 2753 
L 3553 4666 
L 4184 4666 
L 4184 0 
L 3553 0 
L 3553 2222 
L 1259 2222 
L 1259 0 
L 628 0 
L 628 4666 
z
" transform="scale(0.015625)"/>
      <path id="DejaVuSans-69" d="M 603 3500 
L 1178 3500 
L 1178 0 
L 603 0 
L 603 3500 
z
M 603 4863 
L 1178 4863 
L 1178 4134 
L 603 4134 
L 603 4863 
z
" transform="scale(0.015625)"/>
      <path id="DejaVuSans-73" d="M 2834 3397 
L 2834 2853 
Q 2591 2978 2328 3040 
Q 2066 3103 1784 3103 
Q 1356 3103 1142 2972 
Q 928 2841 928 2578 
Q 928 2378 1081 2264 
Q 1234 2150 1697 2047 
L 1894 2003 
Q 2506 1872 2764 1633 
Q 3022 1394 3022 966 
Q 3022 478 2636 193 
Q 2250 -91 1575 -91 
Q 1294 -91 989 -36 
Q 684 19 347 128 
L 347 722 
Q 666 556 975 473 
Q 1284 391 1588 391 
Q 1994 391 2212 530 
Q 2431 669 2431 922 
Q 2431 1156 2273 1281 
Q 2116 1406 1581 1522 
L 1381 1569 
Q 847 1681 609 1914 
Q 372 2147 372 2553 
Q 372 3047 722 3315 
Q 1072 3584 1716 3584 
Q 2034 3584 2315 3537 
Q 2597 3491 2834 3397 
z
" transform="scale(0.015625)"/>
      <path id="DejaVuSans-74" d="M 1172 4494 
L 1172 3500 
L 2356 3500 
L 2356 3053 
L 1172 3053 
L 1172 1153 
Q 1172 725 1289 603 
Q 1406 481 1766 481 
L 2356 481 
L 2356 0 
L 1766 0 
Q 1100 0 847 248 
Q 594 497 594 1153 
L 594 3053 
L 172 3053 
L 172 3500 
L 594 3500 
L 594 4494 
L 1172 4494 
z
" transform="scale(0.015625)"/>
      <path id="DejaVuSans-6f" d="M 1959 3097 
Q 1497 3097 1228 2736 
Q 959 2375 959 1747 
Q 959 1119 1226 758 
Q 1494 397 1959 397 
Q 2419 397 2687 759 
Q 2956 1122 2956 1747 
Q 2956 2369 2687 2733 
Q 2419 3097 1959 3097 
z
M 1959 3584 
Q 2709 3584 3137 3096 
Q 3566 2609 3566 1747 
Q 3566 888 3137 398 
Q 2709 -91 1959 -91 
Q 1206 -91 779 398 
Q 353 888 353 1747 
Q 353 2609 779 3096 
Q 1206 3584 1959 3584 
z
" transform="scale(0.015625)"/>
      <path id="DejaVuSans-72" d="M 2631 2963 
Q 2534 3019 2420 3045 
Q 2306 3072 2169 3072 
Q 1681 3072 1420 2755 
Q 1159 2438 1159 1844 
L 1159 0 
L 581 0 
L 581 3500 
L 1159 3500 
L 1159 2956 
Q 1341 3275 1631 3429 
Q 1922 3584 2338 3584 
Q 2397 3584 2469 3576 
Q 2541 3569 2628 3553 
L 2631 2963 
z
" transform="scale(0.015625)"/>
      <path id="DejaVuSans-79" d="M 2059 -325 
Q 1816 -950 1584 -1140 
Q 1353 -1331 966 -1331 
L 506 -1331 
L 506 -850 
L 844 -850 
Q 1081 -850 1212 -737 
Q 1344 -625 1503 -206 
L 1606 56 
L 191 3500 
L 800 3500 
L 1894 763 
L 2988 3500 
L 3597 3500 
L 2059 -325 
z
" transform="scale(0.015625)"/>
      <path id="DejaVuSans-66" d="M 2375 4863 
L 2375 4384 
L 1825 4384 
Q 1516 4384 1395 4259 
Q 1275 4134 1275 3809 
L 1275 3500 
L 2222 3500 
L 2222 3053 
L 1275 3053 
L 1275 0 
L 697 0 
L 697 3053 
L 147 3053 
L 147 3500 
L 697 3500 
L 697 3744 
Q 697 4328 969 4595 
Q 1241 4863 1831 4863 
L 2375 4863 
z
" transform="scale(0.015625)"/>
      <path id="DejaVuSans-70" d="M 1159 525 
L 1159 -1331 
L 581 -1331 
L 581 3500 
L 1159 3500 
L 1159 2969 
Q 1341 3281 1617 3432 
Q 1894 3584 2278 3584 
Q 2916 3584 3314 3078 
Q 3713 2572 3713 1747 
Q 3713 922 3314 415 
Q 2916 -91 2278 -91 
Q 1894 -91 1617 61 
Q 1341 213 1159 525 
z
M 3116 1747 
Q 3116 2381 2855 2742 
Q 2594 3103 2138 3103 
Q 1681 3103 1420 2742 
Q 1159 2381 1159 1747 
Q 1159 1113 1420 752 
Q 1681 391 2138 391 
Q 2594 391 2855 752 
Q 3116 1113 3116 1747 
z
" transform="scale(0.015625)"/>
      <path id="DejaVuSans-65" d="M 3597 1894 
L 3597 1613 
L 953 1613 
Q 991 1019 1311 708 
Q 1631 397 2203 397 
Q 2534 397 2845 478 
Q 3156 559 3463 722 
L 3463 178 
Q 3153 47 2828 -22 
Q 2503 -91 2169 -91 
Q 1331 -91 842 396 
Q 353 884 353 1716 
Q 353 2575 817 3079 
Q 1281 3584 2069 3584 
Q 2775 3584 3186 3129 
Q 3597 2675 3597 1894 
z
M 3022 2063 
Q 3016 2534 2758 2815 
Q 2500 3097 2075 3097 
Q 1594 3097 1305 2825 
Q 1016 2553 972 2059 
L 3022 2063 
z
" transform="scale(0.015625)"/>
      <path id="DejaVuSans-63" d="M 3122 3366 
L 3122 2828 
Q 2878 2963 2633 3030 
Q 2388 3097 2138 3097 
Q 1578 3097 1268 2742 
Q 959 2388 959 1747 
Q 959 1106 1268 751 
Q 1578 397 2138 397 
Q 2388 397 2633 464 
Q 2878 531 3122 666 
L 3122 134 
Q 2881 22 2623 -34 
Q 2366 -91 2075 -91 
Q 1284 -91 818 406 
Q 353 903 353 1747 
Q 353 2603 823 3093 
Q 1294 3584 2113 3584 
Q 2378 3584 2631 3529 
Q 2884 3475 3122 3366 
z
" transform="scale(0.015625)"/>
      <path id="DejaVuSans-6e" d="M 3513 2113 
L 3513 0 
L 2938 0 
L 2938 2094 
Q 2938 2591 2744 2837 
Q 2550 3084 2163 3084 
Q 1697 3084 1428 2787 
Q 1159 2491 1159 1978 
L 1159 0 
L 581 0 
L 581 3500 
L 1159 3500 
L 1159 2956 
Q 1366 3272 1645 3428 
Q 1925 3584 2291 3584 
Q 2894 3584 3203 3211 
Q 3513 2838 3513 2113 
z
" transform="scale(0.015625)"/>
      <path id="DejaVuSans-61" d="M 2194 1759 
Q 1497 1759 1228 1600 
Q 959 1441 959 1056 
Q 959 750 1161 570 
Q 1363 391 1709 391 
Q 2188 391 2477 730 
Q 2766 1069 2766 1631 
L 2766 1759 
L 2194 1759 
z
M 3341 1997 
L 3341 0 
L 2766 0 
L 2766 531 
Q 2569 213 2275 61 
Q 1981 -91 1556 -91 
Q 1019 -91 701 211 
Q 384 513 384 1019 
Q 384 1609 779 1909 
Q 1175 2209 1959 2209 
L 2766 2209 
L 2766 2266 
Q 2766 2663 2505 2880 
Q 2244 3097 1772 3097 
Q 1472 3097 1187 3025 
Q 903 2953 641 2809 
L 641 3341 
Q 956 3463 1253 3523 
Q 1550 3584 1831 3584 
Q 2591 3584 2966 3190 
Q 3341 2797 3341 1997 
z
" transform="scale(0.015625)"/>
      <path id="DejaVuSans-67" d="M 2906 1791 
Q 2906 2416 2648 2759 
Q 2391 3103 1925 3103 
Q 1463 3103 1205 2759 
Q 947 2416 947 1791 
Q 947 1169 1205 825 
Q 1463 481 1925 481 
Q 2391 481 2648 825 
Q 2906 1169 2906 1791 
z
M 3481 434 
Q 3481 -459 3084 -895 
Q 2688 -1331 1869 -1331 
Q 1566 -1331 1297 -1286 
Q 1028 -1241 775 -1147 
L 775 -588 
Q 1028 -725 1275 -790 
Q 1522 -856 1778 -856 
Q 2344 -856 2625 -561 
Q 2906 -266 2906 331 
L 2906 616 
Q 2728 306 2450 153 
Q 2172 0 1784 0 
Q 1141 0 747 490 
Q 353 981 353 1791 
Q 353 2603 747 3093 
Q 1141 3584 1784 3584 
Q 2172 3584 2450 3431 
Q 2728 3278 2906 2969 
L 2906 3500 
L 3481 3500 
L 3481 434 
z
" transform="scale(0.015625)"/>
      <path id="DejaVuSans-41" d="M 2188 4044 
L 1331 1722 
L 3047 1722 
L 2188 4044 
z
M 1831 4666 
L 2547 4666 
L 4325 0 
L 3669 0 
L 3244 1197 
L 1141 1197 
L 716 0 
L 50 0 
L 1831 4666 
z
" transform="scale(0.015625)"/>
      <path id="DejaVuSans-57" d="M 213 4666 
L 850 4666 
L 1831 722 
L 2809 4666 
L 3519 4666 
L 4500 722 
L 5478 4666 
L 6119 4666 
L 4947 0 
L 4153 0 
L 3169 4050 
L 2175 0 
L 1381 0 
L 213 4666 
z
" transform="scale(0.015625)"/>
      <path id="DejaVuSans-53" d="M 3425 4513 
L 3425 3897 
Q 3066 4069 2747 4153 
Q 2428 4238 2131 4238 
Q 1616 4238 1336 4038 
Q 1056 3838 1056 3469 
Q 1056 3159 1242 3001 
Q 1428 2844 1947 2747 
L 2328 2669 
Q 3034 2534 3370 2195 
Q 3706 1856 3706 1288 
Q 3706 609 3251 259 
Q 2797 -91 1919 -91 
Q 1588 -91 1214 -16 
Q 841 59 441 206 
L 441 856 
Q 825 641 1194 531 
Q 1563 422 1919 422 
Q 2459 422 2753 634 
Q 3047 847 3047 1241 
Q 3047 1584 2836 1778 
Q 2625 1972 2144 2069 
L 1759 2144 
Q 1053 2284 737 2584 
Q 422 2884 422 3419 
Q 422 4038 858 4394 
Q 1294 4750 2059 4750 
Q 2388 4750 2728 4690 
Q 3069 4631 3425 4513 
z
" transform="scale(0.015625)"/>
      <path id="DejaVuSans-77" d="M 269 3500 
L 844 3500 
L 1563 769 
L 2278 3500 
L 2956 3500 
L 3675 769 
L 4391 3500 
L 4966 3500 
L 4050 0 
L 3372 0 
L 2619 2869 
L 1863 0 
L 1184 0 
L 269 3500 
z
" transform="scale(0.015625)"/>
      <path id="DejaVuSans-68" d="M 3513 2113 
L 3513 0 
L 2938 0 
L 2938 2094 
Q 2938 2591 2744 2837 
Q 2550 3084 2163 3084 
Q 1697 3084 1428 2787 
Q 1159 2491 1159 1978 
L 1159 0 
L 581 0 
L 581 4863 
L 1159 4863 
L 1159 2956 
Q 1366 3272 1645 3428 
Q 1925 3584 2291 3584 
Q 2894 3584 3203 3211 
Q 3513 2838 3513 2113 
z
" transform="scale(0.015625)"/>
      <path id="DejaVuSans-49" d="M 628 4666 
L 1259 4666 
L 1259 0 
L 628 0 
L 628 4666 
z
" transform="scale(0.015625)"/>
      <path id="DejaVuSans-50" d="M 1259 4147 
L 1259 2394 
L 2053 2394 
Q 2494 2394 2734 2622 
Q 2975 2850 2975 3272 
Q 2975 3691 2734 3919 
Q 2494 4147 2053 4147 
L 1259 4147 
z
M 628 4666 
L 2053 4666 
Q 2838 4666 3239 4311 
Q 3641 3956 3641 3272 
Q 3641 2581 3239 2228 
Q 2838 1875 2053 1875 
L 1259 1875 
L 1259 0 
L 628 0 
L 628 4666 
z
" transform="scale(0.015625)"/>
      <path id="DejaVuSans-76" d="M 191 3500 
L 800 3500 
L 1894 563 
L 2988 3500 
L 3597 3500 
L 2284 0 
L 1503 0 
L 191 3500 
z
" transform="scale(0.015625)"/>
     </defs>
     <use xlink:href="#DejaVuSans-48"/>
     <use xlink:href="#DejaVuSans-69" x="75.195312"/>
     <use xlink:href="#DejaVuSans-73" x="102.978516"/>
     <use xlink:href="#DejaVuSans-74" x="155.078125"/>
     <use xlink:href="#DejaVuSans-6f" x="194.287109"/>
     <use xlink:href="#DejaVuSans-72" x="255.46875"/>
     <use xlink:href="#DejaVuSans-79" x="296.582031"/>
     <use xlink:href="#DejaVuSans-20" x="355.761719"/>
     <use xlink:href="#DejaVuSans-6f" x="387.548828"/>
     <use xlink:href="#DejaVuSans-66" x="448.730469"/>
     <use xlink:href="#DejaVuSans-20" x="483.935547"/>
     <use xlink:href="#DejaVuSans-70" x="515.722656"/>
     <use xlink:href="#DejaVuSans-65" x="579.199219"/>
     <use xlink:href="#DejaVuSans-72" x="640.722656"/>
     <use xlink:href="#DejaVuSans-63" x="679.585938"/>
     <use xlink:href="#DejaVuSans-65" x="734.566406"/>
     <use xlink:href="#DejaVuSans-6e" x="796.089844"/>
     <use xlink:href="#DejaVuSans-74" x="859.46875"/>
     <use xlink:href="#DejaVuSans-61" x="898.677734"/>
     <use xlink:href="#DejaVuSans-67" x="959.957031"/>
     <use xlink:href="#DejaVuSans-65" x="1023.433594"/>
     <use xlink:href="#DejaVuSans-20" x="1084.957031"/>
     <use xlink:href="#DejaVuSans-6f" x="1116.744141"/>
     <use xlink:href="#DejaVuSans-66" x="1177.925781"/>
     <use xlink:href="#DejaVuSans-20" x="1213.130859"/>
     <use xlink:href="#DejaVuSans-41" x="1244.917969"/>
     <use xlink:href="#DejaVuSans-57" x="1307.826172"/>
     <use xlink:href="#DejaVuSans-53" x="1406.703125"/>
     <use xlink:href="#DejaVuSans-20" x="1470.179688"/>
     <use xlink:href="#DejaVuSans-6f" x="1501.966797"/>
     <use xlink:href="#DejaVuSans-77" x="1563.148438"/>
     <use xlink:href="#DejaVuSans-6e" x="1644.935547"/>
     <use xlink:href="#DejaVuSans-65" x="1708.314453"/>
     <use xlink:href="#DejaVuSans-72" x="1769.837891"/>
     <use xlink:href="#DejaVuSans-73" x="1810.951172"/>
     <use xlink:href="#DejaVuSans-68" x="1863.050781"/>
     <use xlink:href="#DejaVuSans-69" x="1926.429688"/>
     <use xlink:href="#DejaVuSans-70" x="1954.212891"/>
     <use xlink:href="#DejaVuSans-20" x="2017.689453"/>
     <use xlink:href="#DejaVuSans-6f" x="2049.476562"/>
     <use xlink:href="#DejaVuSans-66" x="2110.658203"/>
     <use xlink:href="#DejaVuSans-20" x="2145.863281"/>
     <use xlink:href="#DejaVuSans-49" x="2177.650391"/>
     <use xlink:href="#DejaVuSans-50" x="2207.142578"/>
     <use xlink:href="#DejaVuSans-76" x="2267.445312"/>
     <use xlink:href="#DejaVuSans-34" x="2326.625"/>
     <use xlink:href="#DejaVuSans-20" x="2390.248047"/>
     <use xlink:href="#DejaVuSans-73" x="2422.035156"/>
     <use xlink:href="#DejaVuSans-70" x="2474.134766"/>
     <use xlink:href="#DejaVuSans-61" x="2537.611328"/>
     <use xlink:href="#DejaVuSans-63" x="2598.890625"/>
     <use xlink:href="#DejaVuSans-65" x="2653.871094"/>
    </g>
   </g>
  </g>
 </g>
 <defs>
  <clipPath id="p906e395f3e">
   <rect x="30.103125" y="22.318125" width="502.2" height="277.2"/>
  </clipPath>
 </defs>
</svg>
