<?xml version="1.0" encoding="utf-8" standalone="no"?>
<!DOCTYPE svg PUBLIC "-//W3C//DTD SVG 1.1//EN"
  "http://www.w3.org/Graphics/SVG/1.1/DTD/svg11.dtd">
<svg xmlns:xlink="http://www.w3.org/1999/xlink" width="539.503125pt" height="323.39625pt" viewBox="0 0 539.503125 323.39625" xmlns="http://www.w3.org/2000/svg" version="1.1">
 
 <defs>
  <style type="text/css">*{stroke-linejoin: round; stroke-linecap: butt}</style>
 </defs>
 <g id="figure_1">
  <g id="patch_1">
   <path d="M 0 323.39625 
L 539.503125 323.39625 
L 539.503125 0 
L 0 0 
z
" style="fill: #b2b2b2"/>
  </g>
  <g id="axes_1">
   <g id="patch_2">
    <path d="M 30.103125 299.518125 
L 532.303125 299.518125 
L 532.303125 22.318125 
L 30.103125 22.318125 
z
" style="fill: #e6e6e6"/>
   </g>
   <g id="matplotlib.axis_1">
    <g id="xtick_1">
     <g id="line2d_1">
      <defs>
       <path id="ma78f911f2e" d="M 0 0 
L 0 3.5 
" style="stroke: #000000; stroke-width: 0.8"/>
      </defs>
      <g>
       <use xlink:href="#ma78f911f2e" x="75.878855" y="299.518125" style="stroke: #000000; stroke-width: 0.8"/>
      </g>
     </g>
     <g id="text_1">
      <!-- 2019 -->
      <g transform="translate(63.153855 314.116563) scale(0.1 -0.1)">
       <defs>
        <path id="DejaVuSans-32" d="M 1228 531 
L 3431 531 
L 3431 0 
L 469 0 
L 469 531 
Q 828 903 1448 1529 
Q 2069 2156 2228 2338 
Q 2531 2678 2651 2914 
Q 2772 3150 2772 3378 
Q 2772 3750 2511 3984 
Q 2250 4219 1831 4219 
Q 1534 4219 1204 4116 
Q 875 4013 500 3803 
L 500 4441 
Q 881 4594 1212 4672 
Q 1544 4750 1819 4750 
Q 2544 4750 2975 4387 
Q 3406 4025 3406 3419 
Q 3406 3131 3298 2873 
Q 3191 2616 2906 2266 
Q 2828 2175 2409 1742 
Q 1991 1309 1228 531 
z
" transform="scale(0.015625)"/>
        <path id="DejaVuSans-30" d="M 2034 4250 
Q 1547 4250 1301 3770 
Q 1056 3291 1056 2328 
Q 1056 1369 1301 889 
Q 1547 409 2034 409 
Q 2525 409 2770 889 
Q 3016 1369 3016 2328 
Q 3016 3291 2770 3770 
Q 2525 4250 2034 4250 
z
M 2034 4750 
Q 2819 4750 3233 4129 
Q 3647 3509 3647 2328 
Q 3647 1150 3233 529 
Q 2819 -91 2034 -91 
Q 1250 -91 836 529 
Q 422 1150 422 2328 
Q 422 3509 836 4129 
Q 1250 4750 2034 4750 
z
" transform="scale(0.015625)"/>
        <path id="DejaVuSans-31" d="M 794 531 
L 1825 531 
L 1825 4091 
L 703 3866 
L 703 4441 
L 1819 4666 
L 2450 4666 
L 2450 531 
L 3481 531 
L 3481 0 
L 794 0 
L 794 531 
z
" transform="scale(0.015625)"/>
        <path id="DejaVuSans-39" d="M 703 97 
L 703 672 
Q 941 559 1184 500 
Q 1428 441 1663 441 
Q 2288 441 2617 861 
Q 2947 1281 2994 2138 
Q 2813 1869 2534 1725 
Q 2256 1581 1919 1581 
Q 1219 1581 811 2004 
Q 403 2428 403 3163 
Q 403 3881 828 4315 
Q 1253 4750 1959 4750 
Q 2769 4750 3195 4129 
Q 3622 3509 3622 2328 
Q 3622 1225 3098 567 
Q 2575 -91 1691 -91 
Q 1453 -91 1209 -44 
Q 966 3 703 97 
z
M 1959 2075 
Q 2384 2075 2632 2365 
Q 2881 2656 2881 3163 
Q 2881 3666 2632 3958 
Q 2384 4250 1959 4250 
Q 1534 4250 1286 3958 
Q 1038 3666 1038 3163 
Q 1038 2656 1286 2365 
Q 1534 2075 1959 2075 
z
" transform="scale(0.015625)"/>
       </defs>
       <use xlink:href="#DejaVuSans-32"/>
       <use xlink:href="#DejaVuSans-30" transform="translate(63.623047 0)"/>
       <use xlink:href="#DejaVuSans-31" transform="translate(127.246094 0)"/>
       <use xlink:href="#DejaVuSans-39" transform="translate(190.869141 0)"/>
      </g>
     </g>
    </g>
    <g id="xtick_2">
     <g id="line2d_2">
      <g>
       <use xlink:href="#ma78f911f2e" x="137.080838" y="299.518125" style="stroke: #000000; stroke-width: 0.8"/>
      </g>
     </g>
     <g id="text_2">
      <!-- 2020 -->
      <g transform="translate(124.355838 314.116563) scale(0.1 -0.1)">
       <use xlink:href="#DejaVuSans-32"/>
       <use xlink:href="#DejaVuSans-30" transform="translate(63.623047 0)"/>
       <use xlink:href="#DejaVuSans-32" transform="translate(127.246094 0)"/>
       <use xlink:href="#DejaVuSans-30" transform="translate(190.869141 0)"/>
      </g>
     </g>
    </g>
    <g id="xtick_3">
     <g id="line2d_3">
      <g>
       <use xlink:href="#ma78f911f2e" x="198.450498" y="299.518125" style="stroke: #000000; stroke-width: 0.8"/>
      </g>
     </g>
     <g id="text_3">
      <!-- 2021 -->
      <g transform="translate(185.725498 314.116563) scale(0.1 -0.1)">
       <use xlink:href="#DejaVuSans-32"/>
       <use xlink:href="#DejaVuSans-30" transform="translate(63.623047 0)"/>
       <use xlink:href="#DejaVuSans-32" transform="translate(127.246094 0)"/>
       <use xlink:href="#DejaVuSans-31" transform="translate(190.869141 0)"/>
      </g>
     </g>
    </g>
    <g id="xtick_4">
     <g id="line2d_4">
      <g>
       <use xlink:href="#ma78f911f2e" x="259.652481" y="299.518125" style="stroke: #000000; stroke-width: 0.8"/>
      </g>
     </g>
     <g id="text_4">
      <!-- 2022 -->
      <g transform="translate(246.927481 314.116563) scale(0.1 -0.1)">
       <use xlink:href="#DejaVuSans-32"/>
       <use xlink:href="#DejaVuSans-30" transform="translate(63.623047 0)"/>
       <use xlink:href="#DejaVuSans-32" transform="translate(127.246094 0)"/>
       <use xlink:href="#DejaVuSans-32" transform="translate(190.869141 0)"/>
      </g>
     </g>
    </g>
    <g id="xtick_5">
     <g id="line2d_5">
      <g>
       <use xlink:href="#ma78f911f2e" x="320.854465" y="299.518125" style="stroke: #000000; stroke-width: 0.8"/>
      </g>
     </g>
     <g id="text_5">
      <!-- 2023 -->
      <g transform="translate(308.129465 314.116563) scale(0.1 -0.1)">
       <defs>
        <path id="DejaVuSans-33" d="M 2597 2516 
Q 3050 2419 3304 2112 
Q 3559 1806 3559 1356 
Q 3559 666 3084 287 
Q 2609 -91 1734 -91 
Q 1441 -91 1130 -33 
Q 819 25 488 141 
L 488 750 
Q 750 597 1062 519 
Q 1375 441 1716 441 
Q 2309 441 2620 675 
Q 2931 909 2931 1356 
Q 2931 1769 2642 2001 
Q 2353 2234 1838 2234 
L 1294 2234 
L 1294 2753 
L 1863 2753 
Q 2328 2753 2575 2939 
Q 2822 3125 2822 3475 
Q 2822 3834 2567 4026 
Q 2313 4219 1838 4219 
Q 1578 4219 1281 4162 
Q 984 4106 628 3988 
L 628 4550 
Q 988 4650 1302 4700 
Q 1616 4750 1894 4750 
Q 2613 4750 3031 4423 
Q 3450 4097 3450 3541 
Q 3450 3153 3228 2886 
Q 3006 2619 2597 2516 
z
" transform="scale(0.015625)"/>
       </defs>
       <use xlink:href="#DejaVuSans-32"/>
       <use xlink:href="#DejaVuSans-30" transform="translate(63.623047 0)"/>
       <use xlink:href="#DejaVuSans-32" transform="translate(127.246094 0)"/>
       <use xlink:href="#DejaVuSans-33" transform="translate(190.869141 0)"/>
      </g>
     </g>
    </g>
    <g id="xtick_6">
     <g id="line2d_6">
      <g>
       <use xlink:href="#ma78f911f2e" x="382.056448" y="299.518125" style="stroke: #000000; stroke-width: 0.8"/>
      </g>
     </g>
     <g id="text_6">
      <!-- 2024 -->
      <g transform="translate(369.331448 314.116563) scale(0.1 -0.1)">
       <defs>
        <path id="DejaVuSans-34" d="M 2419 4116 
L 825 1625 
L 2419 1625 
L 2419 4116 
z
M 2253 4666 
L 3047 4666 
L 3047 1625 
L 3713 1625 
L 3713 1100 
L 3047 1100 
L 3047 0 
L 2419 0 
L 2419 1100 
L 313 1100 
L 313 1709 
L 2253 4666 
z
" transform="scale(0.015625)"/>
       </defs>
       <use xlink:href="#DejaVuSans-32"/>
       <use xlink:href="#DejaVuSans-30" transform="translate(63.623047 0)"/>
       <use xlink:href="#DejaVuSans-32" transform="translate(127.246094 0)"/>
       <use xlink:href="#DejaVuSans-34" transform="translate(190.869141 0)"/>
      </g>
     </g>
    </g>
    <g id="xtick_7">
     <g id="line2d_7">
      <g>
       <use xlink:href="#ma78f911f2e" x="443.426108" y="299.518125" style="stroke: #000000; stroke-width: 0.8"/>
      </g>
     </g>
     <g id="text_7">
      <!-- 2025 -->
      <g transform="translate(430.701108 314.116563) scale(0.1 -0.1)">
       <defs>
        <path id="DejaVuSans-35" d="M 691 4666 
L 3169 4666 
L 3169 4134 
L 1269 4134 
L 1269 2991 
Q 1406 3038 1543 3061 
Q 1681 3084 1819 3084 
Q 2600 3084 3056 2656 
Q 3513 2228 3513 1497 
Q 3513 744 3044 326 
Q 2575 -91 1722 -91 
Q 1428 -91 1123 -41 
Q 819 9 494 109 
L 494 744 
Q 775 591 1075 516 
Q 1375 441 1709 441 
Q 2250 441 2565 725 
Q 2881 1009 2881 1497 
Q 2881 1984 2565 2268 
Q 2250 2553 1709 2553 
Q 1456 2553 1204 2497 
Q 953 2441 691 2322 
L 691 4666 
z
" transform="scale(0.015625)"/>
       </defs>
       <use xlink:href="#DejaVuSans-32"/>
       <use xlink:href="#DejaVuSans-30" transform="translate(63.623047 0)"/>
       <use xlink:href="#DejaVuSans-32" transform="translate(127.246094 0)"/>
       <use xlink:href="#DejaVuSans-35" transform="translate(190.869141 0)"/>
      </g>
     </g>
    </g>
    <g id="xtick_8">
     <g id="line2d_8">
      <g>
       <use xlink:href="#ma78f911f2e" x="504.628091" y="299.518125" style="stroke: #000000; stroke-width: 0.8"/>
      </g>
     </g>
     <g id="text_8">
      <!-- 2026 -->
      <g transform="translate(491.903091 314.116563) scale(0.1 -0.1)">
       <defs>
        <path id="DejaVuSans-36" d="M 2113 2584 
Q 1688 2584 1439 2293 
Q 1191 2003 1191 1497 
Q 1191 994 1439 701 
Q 1688 409 2113 409 
Q 2538 409 2786 701 
Q 3034 994 3034 1497 
Q 3034 2003 2786 2293 
Q 2538 2584 2113 2584 
z
M 3366 4563 
L 3366 3988 
Q 3128 4100 2886 4159 
Q 2644 4219 2406 4219 
Q 1781 4219 1451 3797 
Q 1122 3375 1075 2522 
Q 1259 2794 1537 2939 
Q 1816 3084 2150 3084 
Q 2853 3084 3261 2657 
Q 3669 2231 3669 1497 
Q 3669 778 3244 343 
Q 2819 -91 2113 -91 
Q 1303 -91 875 529 
Q 447 1150 447 2328 
Q 447 3434 972 4092 
Q 1497 4750 2381 4750 
Q 2619 4750 2861 4703 
Q 3103 4656 3366 4563 
z
" transform="scale(0.015625)"/>
       </defs>
       <use xlink:href="#DejaVuSans-32"/>
       <use xlink:href="#DejaVuSans-30" transform="translate(63.623047 0)"/>
       <use xlink:href="#DejaVuSans-32" transform="translate(127.246094 0)"/>
       <use xlink:href="#DejaVuSans-36" transform="translate(190.869141 0)"/>
      </g>
     </g>
    </g>
   </g>
   <g id="matplotlib.axis_2">
    <g id="ytick_1">
     <g id="line2d_9">
      <defs>
       <path id="ma562af20d9" d="M 0 0 
L -3.5 0 
" style="stroke: #000000; stroke-width: 0.8"/>
      </defs>
      <g>
       <use xlink:href="#ma562af20d9" x="30.103125" y="299.518125" style="stroke: #000000; stroke-width: 0.8"/>
      </g>
     </g>
     <g id="text_9">
      <!-- 0.0 -->
      <g transform="translate(7.2 303.317344) scale(0.1 -0.1)">
       <defs>
        <path id="DejaVuSans-2e" d="M 684 794 
L 1344 794 
L 1344 0 
L 684 0 
L 684 794 
z
" transform="scale(0.015625)"/>
       </defs>
       <use xlink:href="#DejaVuSans-30"/>
       <use xlink:href="#DejaVuSans-2e" transform="translate(63.623047 0)"/>
       <use xlink:href="#DejaVuSans-30" transform="translate(95.410156 0)"/>
      </g>
     </g>
    </g>
    <g id="ytick_2">
     <g id="line2d_10">
      <g>
       <use xlink:href="#ma562af20d9" x="30.103125" y="253.720685" style="stroke: #000000; stroke-width: 0.8"/>
      </g>
     </g>
     <g id="text_10">
      <!-- 0.5 -->
      <g transform="translate(7.2 257.519904) scale(0.1 -0.1)">
       <use xlink:href="#DejaVuSans-30"/>
       <use xlink:href="#DejaVuSans-2e" transform="translate(63.623047 0)"/>
       <use xlink:href="#DejaVuSans-35" transform="translate(95.410156 0)"/>
      </g>
     </g>
    </g>
    <g id="ytick_3">
     <g id="line2d_11">
      <g>
       <use xlink:href="#ma562af20d9" x="30.103125" y="207.923245" style="stroke: #000000; stroke-width: 0.8"/>
      </g>
     </g>
     <g id="text_11">
      <!-- 1.0 -->
      <g transform="translate(7.2 211.722464) scale(0.1 -0.1)">
       <use xlink:href="#DejaVuSans-31"/>
       <use xlink:href="#DejaVuSans-2e" transform="translate(63.623047 0)"/>
       <use xlink:href="#DejaVuSans-30" transform="translate(95.410156 0)"/>
      </g>
     </g>
    </g>
    <g id="ytick_4">
     <g id="line2d_12">
      <g>
       <use xlink:href="#ma562af20d9" x="30.103125" y="162.125805" style="stroke: #000000; stroke-width: 0.8"/>
      </g>
     </g>
     <g id="text_12">
      <!-- 1.5 -->
      <g transform="translate(7.2 165.925024) scale(0.1 -0.1)">
       <use xlink:href="#DejaVuSans-31"/>
       <use xlink:href="#DejaVuSans-2e" transform="translate(63.623047 0)"/>
       <use xlink:href="#DejaVuSans-35" transform="translate(95.410156 0)"/>
      </g>
     </g>
    </g>
    <g id="ytick_5">
     <g id="line2d_13">
      <g>
       <use xlink:href="#ma562af20d9" x="30.103125" y="116.328365" style="stroke: #000000; stroke-width: 0.8"/>
      </g>
     </g>
     <g id="text_13">
      <!-- 2.0 -->
      <g transform="translate(7.2 120.127584) scale(0.1 -0.1)">
       <use xlink:href="#DejaVuSans-32"/>
       <use xlink:href="#DejaVuSans-2e" transform="translate(63.623047 0)"/>
       <use xlink:href="#DejaVuSans-30" transform="translate(95.410156 0)"/>
      </g>
     </g>
    </g>
    <g id="ytick_6">
     <g id="line2d_14">
      <g>
       <use xlink:href="#ma562af20d9" x="30.103125" y="70.530925" style="stroke: #000000; stroke-width: 0.8"/>
      </g>
     </g>
     <g id="text_14">
      <!-- 2.5 -->
      <g transform="translate(7.2 74.330144) scale(0.1 -0.1)">
       <use xlink:href="#DejaVuSans-32"/>
       <use xlink:href="#DejaVuSans-2e" transform="translate(63.623047 0)"/>
       <use xlink:href="#DejaVuSans-35" transform="translate(95.410156 0)"/>
      </g>
     </g>
    </g>
    <g id="ytick_7">
     <g id="line2d_15">
      <g>
       <use xlink:href="#ma562af20d9" x="30.103125" y="24.733485" style="stroke: #000000; stroke-width: 0.8"/>
      </g>
     </g>
     <g id="text_15">
      <!-- 3.0 -->
      <g transform="translate(7.2 28.532704) scale(0.1 -0.1)">
       <use xlink:href="#DejaVuSans-33"/>
       <use xlink:href="#DejaVuSans-2e" transform="translate(63.623047 0)"/>
       <use xlink:href="#DejaVuSans-30" transform="translate(95.410156 0)"/>
      </g>
     </g>
    </g>
   </g>
   <g id="line2d_16">
    <path d="M 14.676872 299.518125 
L 14.676872 22.318125 
" clip-path="url(#p6d14471b0e)" style="fill: none; stroke: #cccccc; stroke-linecap: square"/>
   </g>
   <g id="line2d_17">
    <path d="M 75.878855 299.518125 
L 75.878855 22.318125 
" clip-path="url(#p6d14471b0e)" style="fill: none; stroke: #cccccc; stroke-linecap: square"/>
   </g>
   <g id="line2d_18">
    <path d="M 137.080838 299.518125 
L 137.080838 22.318125 
" clip-path="url(#p6d14471b0e)" style="fill: none; stroke: #cccccc; stroke-linecap: square"/>
   </g>
   <g id="line2d_19">
    <path d="M 198.450498 299.518125 
L 198.450498 22.318125 
" clip-path="url(#p6d14471b0e)" style="fill: none; stroke: #cccccc; stroke-linecap: square"/>
   </g>
   <g id="line2d_20">
    <path d="M 259.652481 299.518125 
L 259.652481 22.318125 
" clip-path="url(#p6d14471b0e)" style="fill: none; stroke: #cccccc; stroke-linecap: square"/>
   </g>
   <g id="line2d_21">
    <path d="M 320.854465 299.518125 
L 320.854465 22.318125 
" clip-path="url(#p6d14471b0e)" style="fill: none; stroke: #cccccc; stroke-linecap: square"/>
   </g>
   <g id="line2d_22">
    <path d="M 382.056448 299.518125 
L 382.056448 22.318125 
" clip-path="url(#p6d14471b0e)" style="fill: none; stroke: #cccccc; stroke-linecap: square"/>
   </g>
   <g id="line2d_23">
    <path d="M 443.426108 299.518125 
L 443.426108 22.318125 
" clip-path="url(#p6d14471b0e)" style="fill: none; stroke: #cccccc; stroke-linecap: square"/>
   </g>
   <g id="line2d_24">
    <path d="M 504.628091 299.518125 
L 504.628091 22.318125 
" clip-path="url(#p6d14471b0e)" style="fill: none; stroke: #cccccc; stroke-linecap: square"/>
   </g>
   <g id="line2d_25">
    <path d="M 30.103125 299.518125 
L 532.303125 299.518125 
" clip-path="url(#p6d14471b0e)" style="fill: none; stroke: #cccccc; stroke-linecap: square"/>
   </g>
   <g id="line2d_26">
    <path d="M 30.103125 276.619405 
L 532.303125 276.619405 
" clip-path="url(#p6d14471b0e)" style="fill: none; stroke: #cccccc; stroke-linecap: square"/>
   </g>
   <g id="line2d_27">
    <path d="M 30.103125 253.720685 
L 532.303125 253.720685 
" clip-path="url(#p6d14471b0e)" style="fill: none; stroke: #cccccc; stroke-linecap: square"/>
   </g>
   <g id="line2d_28">
    <path d="M 30.103125 230.821965 
L 532.303125 230.821965 
" clip-path="url(#p6d14471b0e)" style="fill: none; stroke: #cccccc; stroke-linecap: square"/>
   </g>
   <g id="line2d_29">
    <path d="M 30.103125 207.923245 
L 532.303125 207.923245 
" clip-path="url(#p6d14471b0e)" style="fill: none; stroke: #cccccc; stroke-linecap: square"/>
   </g>
   <g id="line2d_30">
    <path d="M 30.103125 185.024525 
L 532.303125 185.024525 
" clip-path="url(#p6d14471b0e)" style="fill: none; stroke: #cccccc; stroke-linecap: square"/>
   </g>
   <g id="line2d_31">
    <path d="M 30.103125 162.125805 
L 532.303125 162.125805 
" clip-path="url(#p6d14471b0e)" style="fill: none; stroke: #cccccc; stroke-linecap: square"/>
   </g>
   <g id="line2d_32">
    <path d="M 30.103125 139.227085 
L 532.303125 139.227085 
" clip-path="url(#p6d14471b0e)" style="fill: none; stroke: #cccccc; stroke-linecap: square"/>
   </g>
   <g id="line2d_33">
    <path d="M 30.103125 116.328365 
L 532.303125 116.328365 
" clip-path="url(#p6d14471b0e)" style="fill: none; stroke: #cccccc; stroke-linecap: square"/>
   </g>
   <g id="line2d_34">
    <path d="M 30.103125 93.429645 
L 532.303125 93.429645 
" clip-path="url(#p6d14471b0e)" style="fill: none; stroke: #cccccc; stroke-linecap: square"/>
   </g>
   <g id="line2d_35">
    <path d="M 30.103125 70.530925 
L 532.303125 70.530925 
" clip-path="url(#p6d14471b0e)" style="fill: none; stroke: #cccccc; stroke-linecap: square"/>
   </g>
   <g id="line2d_36">
    <path d="M 30.103125 223.017662 
L 32.450598 223.015128 
L 32.618275 222.690853 
L 32.785952 222.690694 
L 32.953628 222.366419 
L 33.456658 222.366419 
L 33.624335 222.204281 
L 33.792012 219.569541 
L 34.798072 219.569541 
L 34.965748 218.920989 
L 41.002108 218.836714 
L 41.169785 218.654309 
L 44.187965 218.654309 
L 44.355642 218.005758 
L 46.367762 218.003858 
L 46.535438 216.706121 
L 50.056648 216.708021 
L 50.224325 215.732503 
L 53.577858 215.719202 
L 53.745535 211.826627 
L 60.620278 211.824401 
L 60.787955 211.500125 
L 61.626338 211.474158 
L 64.476842 211.472896 
L 64.644518 210.175793 
L 65.482902 210.175793 
L 65.650578 209.365104 
L 67.327345 209.316336 
L 67.495022 209.964887 
L 70.848555 209.959128 
L 71.016232 209.472714 
L 72.525322 209.472081 
L 72.860675 208.49672 
L 73.363705 208.49672 
L 73.531382 202.984034 
L 76.046532 202.9815 
L 76.214208 202.330415 
L 80.741478 202.324715 
L 80.909155 202.162577 
L 87.616222 202.105724 
L 87.783898 201.45654 
L 90.299048 201.449256 
L 90.466725 201.287118 
L 91.305108 201.281418 
L 91.472785 201.11928 
L 93.317228 201.110413 
L 93.652582 200.461862 
L 93.820258 200.119852 
L 94.490965 200.119219 
L 94.658642 199.794943 
L 94.826318 199.794864 
L 94.993995 199.443622 
L 97.006115 199.441721 
L 97.173792 197.488467 
L 98.347528 197.4853 
L 98.515205 197.160238 
L 99.353588 197.157546 
L 99.521265 196.183452 
L 110.923278 196.085832 
L 111.090955 192.850671 
L 111.258632 192.850497 
L 111.426308 185.067881 
L 115.953578 185.020241 
L 116.121255 185.020241 
L 116.288932 183.561 
L 126.014178 183.557831 
L 126.181855 181.743921 
L 126.349532 181.419646 
L 128.529328 181.414579 
L 128.697005 180.766028 
L 131.044478 180.75717 
L 131.212155 179.460068 
L 132.385892 179.459434 
L 132.553568 178.810883 
L 138.254575 178.779369 
L 138.422252 177.791975 
L 141.775785 177.764073 
L 141.943462 177.602568 
L 149.991942 177.582939 
L 152.171738 177.539856 
L 152.339415 177.063567 
L 154.519212 177.051988 
L 154.686888 176.890484 
L 155.357595 176.88985 
L 155.525272 176.53937 
L 156.866685 176.531084 
L 157.034362 173.935612 
L 160.555572 173.931174 
L 160.723248 173.647432 
L 163.070722 173.646156 
L 163.238398 173.484018 
L 165.250518 173.522284 
L 165.418195 173.180274 
L 166.759608 173.160727 
L 171.286878 173.068342 
L 171.454555 172.90177 
L 172.292938 172.899913 
L 172.628292 172.712426 
L 173.466675 172.712426 
L 173.634352 172.063874 
L 174.305058 172.06381 
L 174.472735 161.686355 
L 174.640412 172.063098 
L 179.335358 172.050868 
L 179.503035 171.337676 
L 180.676772 171.337507 
L 180.844448 171.174766 
L 182.353538 171.165854 
L 182.521215 168.080169 
L 186.377778 168.068645 
L 186.545455 164.177277 
L 190.905048 164.084815 
L 191.072725 163.735126 
L 193.587875 163.728916 
L 193.755552 163.399099 
L 195.767672 163.39712 
L 195.935348 163.056335 
L 202.139385 163.041384 
L 202.307061 162.694308 
L 202.474738 162.694308 
L 202.642415 162.341529 
L 202.977768 162.257204 
L 203.648475 162.249752 
L 203.816151 162.006541 
L 207.169685 161.979255 
L 207.337361 162.328469 
L 207.672715 162.327449 
L 207.840391 161.654831 
L 208.343421 161.654806 
L 208.511098 160.357703 
L 208.846451 160.356434 
L 209.014128 160.192228 
L 214.212105 160.087257 
L 214.379781 159.433006 
L 218.236345 159.361331 
L 218.404021 159.19873 
L 218.739375 159.197859 
L 218.907051 158.219965 
L 219.913111 158.215213 
L 220.080788 157.865516 
L 221.254525 157.834198 
L 221.589878 157.737594 
L 224.775735 157.716568 
L 224.943411 157.359199 
L 225.949471 157.395981 
L 226.117148 155.936235 
L 230.141388 155.765473 
L 234.165628 155.741599 
L 234.333305 154.766238 
L 234.500981 154.604098 
L 234.668658 152.009888 
L 235.674718 152.00941 
L 235.842395 138.389153 
L 245.064611 138.306899 
L 245.399965 138.131461 
L 255.125211 138.089467 
L 255.292888 137.765176 
L 262.838338 137.657403 
L 263.006015 135.711595 
L 266.191871 135.650519 
L 266.359548 135.302809 
L 278.599945 135.271154 
L 278.767621 134.622128 
L 280.276711 134.621415 
L 280.444388 134.945691 
L 289.331251 134.866856 
L 289.498928 134.704085 
L 293.355491 134.659023 
L 293.523168 134.454767 
L 299.056498 134.410178 
L 299.224175 135.709962 
L 299.727205 135.709329 
L 299.894881 134.412226 
L 300.062558 134.412206 
L 300.230235 119.981938 
L 300.397911 115.588363 
L 301.403971 115.541463 
L 301.739325 114.227811 
L 302.745385 114.211215 
L 302.913061 114.041477 
L 305.092858 114.028451 
L 305.260535 126.350764 
L 306.937301 126.35215 
L 307.104978 119.542044 
L 307.440331 119.542044 
L 307.608008 124.074937 
L 316.830225 124.022292 
L 316.997901 123.37374 
L 323.201938 123.343557 
L 324.375675 123.339638 
L 324.543351 123.501776 
L 339.634251 123.455868 
L 339.969605 123.384616 
L 341.311018 123.383646 
L 341.478695 123.180697 
L 342.652431 123.178916 
L 342.820108 119.936159 
L 354.389798 119.933764 
L 354.557475 119.624938 
L 356.234241 119.613063 
L 356.401918 120.096785 
L 356.737271 120.091451 
L 356.904948 119.929313 
L 357.240301 119.929313 
L 357.407978 119.767175 
L 358.917068 119.758148 
L 359.084745 119.377424 
L 364.618075 119.364955 
L 364.785751 119.521868 
L 372.834231 119.449117 
L 373.001908 118.800565 
L 374.846351 118.800407 
L 375.014028 117.484937 
L 378.870591 117.439554 
L 379.205945 117.297683 
L 384.571598 117.310009 
L 384.739275 116.153985 
L 385.577658 116.152382 
L 385.745335 104.477823 
L 390.440281 104.469008 
L 390.607958 104.790667 
L 393.626138 104.755174 
L 393.793815 104.10642 
L 393.961491 104.754694 
L 403.351385 104.741993 
L 403.519061 104.90413 
L 404.860475 104.90508 
L 405.028151 104.327143 
L 408.884715 104.2736 
L 409.220068 103.86113 
L 409.555421 103.860813 
L 409.723098 104.996253 
L 412.741278 104.887159 
L 416.262488 104.843351 
L 416.597841 104.996332 
L 419.783698 104.993166 
L 420.119051 104.871562 
L 420.286728 105.195838 
L 420.622081 105.195838 
L 420.789758 105.682252 
L 421.795818 105.681361 
L 421.963495 105.357085 
L 425.317028 105.26234 
L 426.155411 105.140736 
L 427.161471 105.120469 
L 427.329148 103.8221 
L 427.664501 103.8221 
L 427.832178 101.789555 
L 429.508945 101.679869 
L 429.676621 101.922443 
L 431.185711 101.947143 
L 431.353388 101.612734 
L 433.700861 101.689221 
L 433.868538 101.364945 
L 434.874598 101.367269 
L 435.042275 101.204475 
L 439.737221 101.164653 
L 439.904898 96.624793 
L 441.246311 96.625427 
L 441.413988 95.976875 
L 451.809941 95.888184 
L 451.977618 95.401137 
L 452.312971 95.401137 
L 452.480648 95.238366 
L 452.816001 94.751952 
L 452.983678 94.751952 
L 453.151355 94.426806 
L 454.660445 94.426806 
L 454.828121 73.025244 
L 456.169535 72.959375 
L 457.175595 73.051844 
L 457.343271 72.714268 
L 458.181655 72.711577 
L 458.349331 72.387301 
L 460.026098 72.340116 
L 460.193775 68.773084 
L 460.696805 68.773717 
L 460.864481 65.821668 
L 463.547308 65.804568 
L 463.714985 65.63863 
L 465.894781 65.64053 
L 466.062458 64.981845 
L 468.745285 64.955877 
L 468.912961 64.458697 
L 470.422051 64.435857 
L 475.116998 64.406069 
L 475.284675 64.243298 
L 477.129118 64.222398 
L 477.296795 64.525139 
L 478.302855 64.464338 
L 478.638208 64.410463 
L 478.805885 64.085633 
L 479.476591 64.064733 
L 479.644268 63.740457 
L 479.811945 63.734124 
L 479.979621 63.207176 
L 482.830125 63.122742 
L 483.500831 63.06194 
L 491.046281 62.946235 
L 491.213958 62.461677 
L 491.549311 62.440099 
L 491.884665 62.583231 
L 492.555371 62.583825 
L 492.723048 63.232366 
L 496.411935 63.101079 
L 496.579611 63.408136 
L 504.292738 63.344316 
L 507.981625 63.241139 
L 508.149301 59.984448 
L 508.316978 51.552647 
L 508.484655 50.904096 
L 508.652331 50.904096 
L 508.820008 48.632899 
L 509.323038 48.620786 
L 509.490715 48.919728 
L 512.173541 48.915883 
L 512.341218 48.711266 
L 518.545255 48.585625 
L 519.383638 48.526724 
L 520.054345 48.496325 
L 520.054345 48.496325 
" clip-path="url(#p6d14471b0e)" style="fill: none; stroke: #1f77b4; stroke-width: 2; stroke-linecap: square"/>
   </g>
   <g id="patch_3">
    <path d="M 30.103125 299.518125 
L 30.103125 22.318125 
" style="fill: none; stroke: #000000; stroke-width: 0.8; stroke-linejoin: miter; stroke-linecap: square"/>
   </g>
   <g id="patch_4">
    <path d="M 532.303125 299.518125 
L 532.303125 22.318125 
" style="fill: none; stroke: #000000; stroke-width: 0.8; stroke-linejoin: miter; stroke-linecap: square"/>
   </g>
   <g id="patch_5">
    <path d="M 30.103125 299.518125 
L 532.303125 299.518125 
" style="fill: none; stroke: #000000; stroke-width: 0.8; stroke-linejoin: miter; stroke-linecap: square"/>
   </g>
   <g id="patch_6">
    <path d="M 30.103125 22.318125 
L 532.303125 22.318125 
" style="fill: none; stroke: #000000; stroke-width: 0.8; stroke-linejoin: miter; stroke-linecap: square"/>
   </g>
   <g id="patch_7">
    <path d="M 97.693709 181.370169 
Q 103.592759 182.958578 109.491809 184.546987 
" style="fill: none; stroke: #000000; stroke-linecap: round"/>
   </g>
   <g id="text_16">
    <g id="patch_8">
     <path d="M 44.355642 184.719517 
L 92.765957 184.719517 
Q 95.264957 184.719517 95.264957 182.220517 
L 95.264957 164.830861 
Q 95.264957 162.331861 92.765957 162.331861 
L 44.355642 162.331861 
Q 41.856642 162.331861 41.856642 164.830861 
L 41.856642 182.220517 
Q 41.856642 184.719517 44.355642 184.719517 
z
" style="fill: #cccccc; stroke: #000000; stroke-linejoin: miter"/>
    </g>
    <!-- 2019-08-01 -->
    <g transform="translate(44.355642 171.160359) scale(0.0833 -0.0833)">
     <defs>
      <path id="DejaVuSans-2d" d="M 313 2009 
L 1997 2009 
L 1997 1497 
L 313 1497 
L 313 2009 
z
" transform="scale(0.015625)"/>
      <path id="DejaVuSans-38" d="M 2034 2216 
Q 1584 2216 1326 1975 
Q 1069 1734 1069 1313 
Q 1069 891 1326 650 
Q 1584 409 2034 409 
Q 2484 409 2743 651 
Q 3003 894 3003 1313 
Q 3003 1734 2745 1975 
Q 2488 2216 2034 2216 
z
M 1403 2484 
Q 997 2584 770 2862 
Q 544 3141 544 3541 
Q 544 4100 942 4425 
Q 1341 4750 2034 4750 
Q 2731 4750 3128 4425 
Q 3525 4100 3525 3541 
Q 3525 3141 3298 2862 
Q 3072 2584 2669 2484 
Q 3125 2378 3379 2068 
Q 3634 1759 3634 1313 
Q 3634 634 3220 271 
Q 2806 -91 2034 -91 
Q 1263 -91 848 271 
Q 434 634 434 1313 
Q 434 1759 690 2068 
Q 947 2378 1403 2484 
z
M 1172 3481 
Q 1172 3119 1398 2916 
Q 1625 2713 2034 2713 
Q 2441 2713 2670 2916 
Q 2900 3119 2900 3481 
Q 2900 3844 2670 4047 
Q 2441 4250 2034 4250 
Q 1625 4250 1398 4047 
Q 1172 3844 1172 3481 
z
" transform="scale(0.015625)"/>
     </defs>
     <use xlink:href="#DejaVuSans-32"/>
     <use xlink:href="#DejaVuSans-30" transform="translate(63.623047 0)"/>
     <use xlink:href="#DejaVuSans-31" transform="translate(127.246094 0)"/>
     <use xlink:href="#DejaVuSans-39" transform="translate(190.869141 0)"/>
     <use xlink:href="#DejaVuSans-2d" transform="translate(254.492188 0)"/>
     <use xlink:href="#DejaVuSans-30" transform="translate(290.576172 0)"/>
     <use xlink:href="#DejaVuSans-38" transform="translate(354.199219 0)"/>
     <use xlink:href="#DejaVuSans-2d" transform="translate(417.822266 0)"/>
     <use xlink:href="#DejaVuSans-30" transform="translate(453.90625 0)"/>
     <use xlink:href="#DejaVuSans-31" transform="translate(517.529297 0)"/>
    </g>
    <!--  +3.15m  -->
    <g transform="translate(44.355642 180.488137) scale(0.0833 -0.0833)">
     <defs>
      <path id="DejaVuSans-20" transform="scale(0.015625)"/>
      <path id="DejaVuSans-2b" d="M 2944 4013 
L 2944 2272 
L 4684 2272 
L 4684 1741 
L 2944 1741 
L 2944 0 
L 2419 0 
L 2419 1741 
L 678 1741 
L 678 2272 
L 2419 2272 
L 2419 4013 
L 2944 4013 
z
" transform="scale(0.015625)"/>
      <path id="DejaVuSans-6d" d="M 3328 2828 
Q 3544 3216 3844 3400 
Q 4144 3584 4550 3584 
Q 5097 3584 5394 3201 
Q 5691 2819 5691 2113 
L 5691 0 
L 5113 0 
L 5113 2094 
Q 5113 2597 4934 2840 
Q 4756 3084 4391 3084 
Q 3944 3084 3684 2787 
Q 3425 2491 3425 1978 
L 3425 0 
L 2847 0 
L 2847 2094 
Q 2847 2600 2669 2842 
Q 2491 3084 2119 3084 
Q 1678 3084 1418 2786 
Q 1159 2488 1159 1978 
L 1159 0 
L 581 0 
L 581 3500 
L 1159 3500 
L 1159 2956 
Q 1356 3278 1631 3431 
Q 1906 3584 2284 3584 
Q 2666 3584 2933 3390 
Q 3200 3197 3328 2828 
z
" transform="scale(0.015625)"/>
     </defs>
     <use xlink:href="#DejaVuSans-20"/>
     <use xlink:href="#DejaVuSans-2b" transform="translate(31.787109 0)"/>
     <use xlink:href="#DejaVuSans-33" transform="translate(115.576172 0)"/>
     <use xlink:href="#DejaVuSans-2e" transform="translate(179.199219 0)"/>
     <use xlink:href="#DejaVuSans-31" transform="translate(210.986328 0)"/>
     <use xlink:href="#DejaVuSans-35" transform="translate(274.609375 0)"/>
     <use xlink:href="#DejaVuSans-6d" transform="translate(338.232422 0)"/>
     <use xlink:href="#DejaVuSans-20" transform="translate(435.644531 0)"/>
    </g>
   </g>
   <g id="patch_9">
    <path d="M 160.740135 157.988643 
Q 166.639185 159.577052 172.538235 161.165461 
" style="fill: none; stroke: #000000; stroke-linecap: round"/>
   </g>
   <g id="text_17">
    <g id="patch_10">
     <path d="M 107.402068 161.33799 
L 155.812384 161.33799 
Q 158.311384 161.33799 158.311384 158.83899 
L 158.311384 141.449334 
Q 158.311384 138.950334 155.812384 138.950334 
L 107.402068 138.950334 
Q 104.903068 138.950334 104.903068 141.449334 
L 104.903068 158.83899 
Q 104.903068 161.33799 107.402068 161.33799 
z
" style="fill: #cccccc; stroke: #000000; stroke-linejoin: miter"/>
    </g>
    <!-- 2020-08-11 -->
    <g transform="translate(107.402068 147.778833) scale(0.0833 -0.0833)">
     <use xlink:href="#DejaVuSans-32"/>
     <use xlink:href="#DejaVuSans-30" transform="translate(63.623047 0)"/>
     <use xlink:href="#DejaVuSans-32" transform="translate(127.246094 0)"/>
     <use xlink:href="#DejaVuSans-30" transform="translate(190.869141 0)"/>
     <use xlink:href="#DejaVuSans-2d" transform="translate(254.492188 0)"/>
     <use xlink:href="#DejaVuSans-30" transform="translate(290.576172 0)"/>
     <use xlink:href="#DejaVuSans-38" transform="translate(354.199219 0)"/>
     <use xlink:href="#DejaVuSans-2d" transform="translate(417.822266 0)"/>
     <use xlink:href="#DejaVuSans-31" transform="translate(453.90625 0)"/>
     <use xlink:href="#DejaVuSans-31" transform="translate(517.529297 0)"/>
    </g>
    <!--  +4.19m  -->
    <g transform="translate(107.402068 157.106611) scale(0.0833 -0.0833)">
     <use xlink:href="#DejaVuSans-20"/>
     <use xlink:href="#DejaVuSans-2b" transform="translate(31.787109 0)"/>
     <use xlink:href="#DejaVuSans-34" transform="translate(115.576172 0)"/>
     <use xlink:href="#DejaVuSans-2e" transform="translate(179.199219 0)"/>
     <use xlink:href="#DejaVuSans-31" transform="translate(210.986328 0)"/>
     <use xlink:href="#DejaVuSans-39" transform="translate(274.609375 0)"/>
     <use xlink:href="#DejaVuSans-6d" transform="translate(338.232422 0)"/>
     <use xlink:href="#DejaVuSans-20" transform="translate(435.644531 0)"/>
    </g>
   </g>
   <g id="patch_11">
    <path d="M 186.961719 179.819832 
Q 181.647854 176.474551 176.33399 173.12927 
" style="fill: none; stroke: #000000; stroke-linecap: round"/>
   </g>
   <g id="text_18">
    <g id="patch_12">
     <path d="M 183.024245 203.772941 
L 231.43456 203.772941 
Q 233.93356 203.772941 233.93356 201.273941 
L 233.93356 183.884285 
Q 233.93356 181.385285 231.43456 181.385285 
L 183.024245 181.385285 
Q 180.525245 181.385285 180.525245 183.884285 
L 180.525245 201.273941 
Q 180.525245 203.772941 183.024245 203.772941 
z
" style="fill: #cccccc; stroke: #000000; stroke-linejoin: miter"/>
    </g>
    <!-- 2020-08-12 -->
    <g transform="translate(183.024245 190.213784) scale(0.0833 -0.0833)">
     <use xlink:href="#DejaVuSans-32"/>
     <use xlink:href="#DejaVuSans-30" transform="translate(63.623047 0)"/>
     <use xlink:href="#DejaVuSans-32" transform="translate(127.246094 0)"/>
     <use xlink:href="#DejaVuSans-30" transform="translate(190.869141 0)"/>
     <use xlink:href="#DejaVuSans-2d" transform="translate(254.492188 0)"/>
     <use xlink:href="#DejaVuSans-30" transform="translate(290.576172 0)"/>
     <use xlink:href="#DejaVuSans-38" transform="translate(354.199219 0)"/>
     <use xlink:href="#DejaVuSans-2d" transform="translate(417.822266 0)"/>
     <use xlink:href="#DejaVuSans-31" transform="translate(453.90625 0)"/>
     <use xlink:href="#DejaVuSans-32" transform="translate(517.529297 0)"/>
    </g>
    <!--  -4.19m  -->
    <g transform="translate(183.024245 199.541562) scale(0.0833 -0.0833)">
     <use xlink:href="#DejaVuSans-20"/>
     <use xlink:href="#DejaVuSans-2d" transform="translate(31.787109 0)"/>
     <use xlink:href="#DejaVuSans-34" transform="translate(67.871094 0)"/>
     <use xlink:href="#DejaVuSans-2e" transform="translate(131.494141 0)"/>
     <use xlink:href="#DejaVuSans-31" transform="translate(163.28125 0)"/>
     <use xlink:href="#DejaVuSans-39" transform="translate(226.904297 0)"/>
     <use xlink:href="#DejaVuSans-6d" transform="translate(290.527344 0)"/>
     <use xlink:href="#DejaVuSans-20" transform="translate(387.939453 0)"/>
    </g>
   </g>
   <g id="patch_13">
    <path d="M 222.109795 134.691441 
Q 228.008845 136.27985 233.907895 137.86826 
" style="fill: none; stroke: #000000; stroke-linecap: round"/>
   </g>
   <g id="text_19">
    <g id="patch_14">
     <path d="M 168.771728 138.040789 
L 217.182044 138.040789 
Q 219.681044 138.040789 219.681044 135.541789 
L 219.681044 118.152133 
Q 219.681044 115.653133 217.182044 115.653133 
L 168.771728 115.653133 
Q 166.272728 115.653133 166.272728 118.152133 
L 166.272728 135.541789 
Q 166.272728 138.040789 168.771728 138.040789 
z
" style="fill: #cccccc; stroke: #000000; stroke-linejoin: miter"/>
    </g>
    <!-- 2021-08-12 -->
    <g transform="translate(168.771728 124.481631) scale(0.0833 -0.0833)">
     <use xlink:href="#DejaVuSans-32"/>
     <use xlink:href="#DejaVuSans-30" transform="translate(63.623047 0)"/>
     <use xlink:href="#DejaVuSans-32" transform="translate(127.246094 0)"/>
     <use xlink:href="#DejaVuSans-31" transform="translate(190.869141 0)"/>
     <use xlink:href="#DejaVuSans-2d" transform="translate(254.492188 0)"/>
     <use xlink:href="#DejaVuSans-30" transform="translate(290.576172 0)"/>
     <use xlink:href="#DejaVuSans-38" transform="translate(354.199219 0)"/>
     <use xlink:href="#DejaVuSans-2d" transform="translate(417.822266 0)"/>
     <use xlink:href="#DejaVuSans-31" transform="translate(453.90625 0)"/>
     <use xlink:href="#DejaVuSans-32" transform="translate(517.529297 0)"/>
    </g>
    <!--  +5.51m  -->
    <g transform="translate(168.771728 133.809409) scale(0.0833 -0.0833)">
     <use xlink:href="#DejaVuSans-20"/>
     <use xlink:href="#DejaVuSans-2b" transform="translate(31.787109 0)"/>
     <use xlink:href="#DejaVuSans-35" transform="translate(115.576172 0)"/>
     <use xlink:href="#DejaVuSans-2e" transform="translate(179.199219 0)"/>
     <use xlink:href="#DejaVuSans-35" transform="translate(210.986328 0)"/>
     <use xlink:href="#DejaVuSans-31" transform="translate(274.609375 0)"/>
     <use xlink:href="#DejaVuSans-6d" transform="translate(338.232422 0)"/>
     <use xlink:href="#DejaVuSans-20" transform="translate(435.644531 0)"/>
    </g>
   </g>
   <g id="patch_15">
    <path d="M 286.665312 111.890651 
Q 292.564362 113.47906 298.463412 115.067469 
" style="fill: none; stroke: #000000; stroke-linecap: round"/>
   </g>
   <g id="text_20">
    <g id="patch_16">
     <path d="M 233.327245 115.239998 
L 281.73756 115.239998 
Q 284.23656 115.239998 284.23656 112.740998 
L 284.23656 95.351342 
Q 284.23656 92.852342 281.73756 92.852342 
L 233.327245 92.852342 
Q 230.828245 92.852342 230.828245 95.351342 
L 230.828245 112.740998 
Q 230.828245 115.239998 233.327245 115.239998 
z
" style="fill: #cccccc; stroke: #000000; stroke-linejoin: miter"/>
    </g>
    <!-- 2022-09-01 -->
    <g transform="translate(233.327245 101.680841) scale(0.0833 -0.0833)">
     <use xlink:href="#DejaVuSans-32"/>
     <use xlink:href="#DejaVuSans-30" transform="translate(63.623047 0)"/>
     <use xlink:href="#DejaVuSans-32" transform="translate(127.246094 0)"/>
     <use xlink:href="#DejaVuSans-32" transform="translate(190.869141 0)"/>
     <use xlink:href="#DejaVuSans-2d" transform="translate(254.492188 0)"/>
     <use xlink:href="#DejaVuSans-30" transform="translate(290.576172 0)"/>
     <use xlink:href="#DejaVuSans-39" transform="translate(354.199219 0)"/>
     <use xlink:href="#DejaVuSans-2d" transform="translate(417.822266 0)"/>
     <use xlink:href="#DejaVuSans-30" transform="translate(453.90625 0)"/>
     <use xlink:href="#DejaVuSans-31" transform="translate(517.529297 0)"/>
    </g>
    <!--  +7.61m  -->
    <g transform="translate(233.327245 111.008619) scale(0.0833 -0.0833)">
     <defs>
      <path id="DejaVuSans-37" d="M 525 4666 
L 3525 4666 
L 3525 4397 
L 1831 0 
L 1172 0 
L 2766 4134 
L 525 4134 
L 525 4666 
z
" transform="scale(0.015625)"/>
     </defs>
     <use xlink:href="#DejaVuSans-20"/>
     <use xlink:href="#DejaVuSans-2b" transform="translate(31.787109 0)"/>
     <use xlink:href="#DejaVuSans-37" transform="translate(115.576172 0)"/>
     <use xlink:href="#DejaVuSans-2e" transform="translate(179.199219 0)"/>
     <use xlink:href="#DejaVuSans-36" transform="translate(210.986328 0)"/>
     <use xlink:href="#DejaVuSans-31" transform="translate(274.609375 0)"/>
     <use xlink:href="#DejaVuSans-6d" transform="translate(338.232422 0)"/>
     <use xlink:href="#DejaVuSans-20" transform="translate(435.644531 0)"/>
    </g>
   </g>
   <g id="patch_17">
    <path d="M 317.581842 134.107498 
Q 312.267977 130.762218 306.954113 127.416937 
" style="fill: none; stroke: #000000; stroke-linecap: round"/>
   </g>
   <g id="text_21">
    <g id="patch_18">
     <path d="M 313.644368 158.060608 
L 362.054684 158.060608 
Q 364.553684 158.060608 364.553684 155.561608 
L 364.553684 138.171952 
Q 364.553684 135.672952 362.054684 135.672952 
L 313.644368 135.672952 
Q 311.145368 135.672952 311.145368 138.171952 
L 311.145368 155.561608 
Q 311.145368 158.060608 313.644368 158.060608 
z
" style="fill: #cccccc; stroke: #000000; stroke-linejoin: miter"/>
    </g>
    <!-- 2022-09-30 -->
    <g transform="translate(313.644368 144.501451) scale(0.0833 -0.0833)">
     <use xlink:href="#DejaVuSans-32"/>
     <use xlink:href="#DejaVuSans-30" transform="translate(63.623047 0)"/>
     <use xlink:href="#DejaVuSans-32" transform="translate(127.246094 0)"/>
     <use xlink:href="#DejaVuSans-32" transform="translate(190.869141 0)"/>
     <use xlink:href="#DejaVuSans-2d" transform="translate(254.492188 0)"/>
     <use xlink:href="#DejaVuSans-30" transform="translate(290.576172 0)"/>
     <use xlink:href="#DejaVuSans-39" transform="translate(354.199219 0)"/>
     <use xlink:href="#DejaVuSans-2d" transform="translate(417.822266 0)"/>
     <use xlink:href="#DejaVuSans-33" transform="translate(453.90625 0)"/>
     <use xlink:href="#DejaVuSans-30" transform="translate(517.529297 0)"/>
    </g>
    <!--  -4.98m  -->
    <g transform="translate(313.644368 153.829228) scale(0.0833 -0.0833)">
     <use xlink:href="#DejaVuSans-20"/>
     <use xlink:href="#DejaVuSans-2d" transform="translate(31.787109 0)"/>
     <use xlink:href="#DejaVuSans-34" transform="translate(67.871094 0)"/>
     <use xlink:href="#DejaVuSans-2e" transform="translate(131.494141 0)"/>
     <use xlink:href="#DejaVuSans-39" transform="translate(163.28125 0)"/>
     <use xlink:href="#DejaVuSans-38" transform="translate(226.904297 0)"/>
     <use xlink:href="#DejaVuSans-6d" transform="translate(290.527344 0)"/>
     <use xlink:href="#DejaVuSans-20" transform="translate(387.939453 0)"/>
    </g>
   </g>
   <g id="patch_19">
    <path d="M 372.012735 100.780111 
Q 377.911785 102.368521 383.810835 103.95693 
" style="fill: none; stroke: #000000; stroke-linecap: round"/>
   </g>
   <g id="text_22">
    <g id="patch_20">
     <path d="M 318.674668 104.129459 
L 367.084984 104.129459 
Q 369.583984 104.129459 369.583984 101.630459 
L 369.583984 84.240803 
Q 369.583984 81.741803 367.084984 81.741803 
L 318.674668 81.741803 
Q 316.175668 81.741803 316.175668 84.240803 
L 316.175668 101.630459 
Q 316.175668 104.129459 318.674668 104.129459 
z
" style="fill: #cccccc; stroke: #000000; stroke-linejoin: miter"/>
    </g>
    <!-- 2024-01-23 -->
    <g transform="translate(318.674668 90.570302) scale(0.0833 -0.0833)">
     <use xlink:href="#DejaVuSans-32"/>
     <use xlink:href="#DejaVuSans-30" transform="translate(63.623047 0)"/>
     <use xlink:href="#DejaVuSans-32" transform="translate(127.246094 0)"/>
     <use xlink:href="#DejaVuSans-34" transform="translate(190.869141 0)"/>
     <use xlink:href="#DejaVuSans-2d" transform="translate(254.492188 0)"/>
     <use xlink:href="#DejaVuSans-30" transform="translate(290.576172 0)"/>
     <use xlink:href="#DejaVuSans-31" transform="translate(354.199219 0)"/>
     <use xlink:href="#DejaVuSans-2d" transform="translate(417.822266 0)"/>
     <use xlink:href="#DejaVuSans-32" transform="translate(453.90625 0)"/>
     <use xlink:href="#DejaVuSans-33" transform="translate(517.529297 0)"/>
    </g>
    <!--  +4.72m  -->
    <g transform="translate(318.674668 99.898079) scale(0.0833 -0.0833)">
     <use xlink:href="#DejaVuSans-20"/>
     <use xlink:href="#DejaVuSans-2b" transform="translate(31.787109 0)"/>
     <use xlink:href="#DejaVuSans-34" transform="translate(115.576172 0)"/>
     <use xlink:href="#DejaVuSans-2e" transform="translate(179.199219 0)"/>
     <use xlink:href="#DejaVuSans-37" transform="translate(210.986328 0)"/>
     <use xlink:href="#DejaVuSans-32" transform="translate(274.609375 0)"/>
     <use xlink:href="#DejaVuSans-6d" transform="translate(338.232422 0)"/>
     <use xlink:href="#DejaVuSans-20" transform="translate(435.644531 0)"/>
    </g>
   </g>
   <g id="patch_21">
    <path d="M 441.095522 69.327532 
Q 446.994572 70.915941 452.893622 72.50435 
" style="fill: none; stroke: #000000; stroke-linecap: round"/>
   </g>
   <g id="text_23">
    <g id="patch_22">
     <path d="M 387.757455 72.676879 
L 436.16777 72.676879 
Q 438.66677 72.676879 438.66677 70.177879 
L 438.66677 52.788223 
Q 438.66677 50.289223 436.16777 50.289223 
L 387.757455 50.289223 
Q 385.258455 50.289223 385.258455 52.788223 
L 385.258455 70.177879 
Q 385.258455 72.676879 387.757455 72.676879 
z
" style="fill: #cccccc; stroke: #000000; stroke-linejoin: miter"/>
    </g>
    <!-- 2025-03-10 -->
    <g transform="translate(387.757455 59.117722) scale(0.0833 -0.0833)">
     <use xlink:href="#DejaVuSans-32"/>
     <use xlink:href="#DejaVuSans-30" transform="translate(63.623047 0)"/>
     <use xlink:href="#DejaVuSans-32" transform="translate(127.246094 0)"/>
     <use xlink:href="#DejaVuSans-35" transform="translate(190.869141 0)"/>
     <use xlink:href="#DejaVuSans-2d" transform="translate(254.492188 0)"/>
     <use xlink:href="#DejaVuSans-30" transform="translate(290.576172 0)"/>
     <use xlink:href="#DejaVuSans-33" transform="translate(354.199219 0)"/>
     <use xlink:href="#DejaVuSans-2d" transform="translate(417.822266 0)"/>
     <use xlink:href="#DejaVuSans-31" transform="translate(453.90625 0)"/>
     <use xlink:href="#DejaVuSans-30" transform="translate(517.529297 0)"/>
    </g>
    <!--  +8.65m  -->
    <g transform="translate(387.757455 68.4455) scale(0.0833 -0.0833)">
     <use xlink:href="#DejaVuSans-20"/>
     <use xlink:href="#DejaVuSans-2b" transform="translate(31.787109 0)"/>
     <use xlink:href="#DejaVuSans-38" transform="translate(115.576172 0)"/>
     <use xlink:href="#DejaVuSans-2e" transform="translate(179.199219 0)"/>
     <use xlink:href="#DejaVuSans-36" transform="translate(210.986328 0)"/>
     <use xlink:href="#DejaVuSans-35" transform="translate(274.609375 0)"/>
     <use xlink:href="#DejaVuSans-6d" transform="translate(338.232422 0)"/>
     <use xlink:href="#DejaVuSans-20" transform="translate(435.644531 0)"/>
    </g>
   </g>
   <g id="patch_23">
    <path d="M 494.752055 47.206384 
Q 500.651105 48.794793 506.550155 50.383202 
" style="fill: none; stroke: #000000; stroke-linecap: round"/>
   </g>
   <g id="text_24">
    <g id="patch_24">
     <path d="M 441.413988 50.555731 
L 489.824304 50.555731 
Q 492.323304 50.555731 492.323304 48.056731 
L 492.323304 30.667075 
Q 492.323304 28.168075 489.824304 28.168075 
L 441.413988 28.168075 
Q 438.914988 28.168075 438.914988 30.667075 
L 438.914988 48.056731 
Q 438.914988 50.555731 441.413988 50.555731 
z
" style="fill: #cccccc; stroke: #000000; stroke-linejoin: miter"/>
    </g>
    <!-- 2026-01-24 -->
    <g transform="translate(441.413988 36.996574) scale(0.0833 -0.0833)">
     <use xlink:href="#DejaVuSans-32"/>
     <use xlink:href="#DejaVuSans-30" transform="translate(63.623047 0)"/>
     <use xlink:href="#DejaVuSans-32" transform="translate(127.246094 0)"/>
     <use xlink:href="#DejaVuSans-36" transform="translate(190.869141 0)"/>
     <use xlink:href="#DejaVuSans-2d" transform="translate(254.492188 0)"/>
     <use xlink:href="#DejaVuSans-30" transform="translate(290.576172 0)"/>
     <use xlink:href="#DejaVuSans-31" transform="translate(354.199219 0)"/>
     <use xlink:href="#DejaVuSans-2d" transform="translate(417.822266 0)"/>
     <use xlink:href="#DejaVuSans-32" transform="translate(453.90625 0)"/>
     <use xlink:href="#DejaVuSans-34" transform="translate(517.529297 0)"/>
    </g>
    <!--  +4.99m  -->
    <g transform="translate(441.413988 46.324352) scale(0.0833 -0.0833)">
     <use xlink:href="#DejaVuSans-20"/>
     <use xlink:href="#DejaVuSans-2b" transform="translate(31.787109 0)"/>
     <use xlink:href="#DejaVuSans-34" transform="translate(115.576172 0)"/>
     <use xlink:href="#DejaVuSans-2e" transform="translate(179.199219 0)"/>
     <use xlink:href="#DejaVuSans-39" transform="translate(210.986328 0)"/>
     <use xlink:href="#DejaVuSans-39" transform="translate(274.609375 0)"/>
     <use xlink:href="#DejaVuSans-6d" transform="translate(338.232422 0)"/>
     <use xlink:href="#DejaVuSans-20" transform="translate(435.644531 0)"/>
    </g>
   </g>
   <g id="text_25">
    <!-- History of percentage of AWS ownership of IPv4 space -->
    <g transform="translate(118.277813 16.318125) scale(0.12 -0.12)">
     <defs>
      <path id="DejaVuSans-48" d="M 628 4666 
L 1259 4666 
L 1259 2753 
L 3553 2753 
L 3553 4666 
L 4184 4666 
L 4184 0 
L 3553 0 
L 3553 2222 
L 1259 2222 
L 1259 0 
L 628 0 
L 628 4666 
z
" transform="scale(0.015625)"/>
      <path id="DejaVuSans-69" d="M 603 3500 
L 1178 3500 
L 1178 0 
L 603 0 
L 603 3500 
z
M 603 4863 
L 1178 4863 
L 1178 4134 
L 603 4134 
L 603 4863 
z
" transform="scale(0.015625)"/>
      <path id="DejaVuSans-73" d="M 2834 3397 
L 2834 2853 
Q 2591 2978 2328 3040 
Q 2066 3103 1784 3103 
Q 1356 3103 1142 2972 
Q 928 2841 928 2578 
Q 928 2378 1081 2264 
Q 1234 2150 1697 2047 
L 1894 2003 
Q 2506 1872 2764 1633 
Q 3022 1394 3022 966 
Q 3022 478 2636 193 
Q 2250 -91 1575 -91 
Q 1294 -91 989 -36 
Q 684 19 347 128 
L 347 722 
Q 666 556 975 473 
Q 1284 391 1588 391 
Q 1994 391 2212 530 
Q 2431 669 2431 922 
Q 2431 1156 2273 1281 
Q 2116 1406 1581 1522 
L 1381 1569 
Q 847 1681 609 1914 
Q 372 2147 372 2553 
Q 372 3047 722 3315 
Q 1072 3584 1716 3584 
Q 2034 3584 2315 3537 
Q 2597 3491 2834 3397 
z
" transform="scale(0.015625)"/>
      <path id="DejaVuSans-74" d="M 1172 4494 
L 1172 3500 
L 2356 3500 
L 2356 3053 
L 1172 3053 
L 1172 1153 
Q 1172 725 1289 603 
Q 1406 481 1766 481 
L 2356 481 
L 2356 0 
L 1766 0 
Q 1100 0 847 248 
Q 594 497 594 1153 
L 594 3053 
L 172 3053 
L 172 3500 
L 594 3500 
L 594 4494 
L 1172 4494 
z
" transform="scale(0.015625)"/>
      <path id="DejaVuSans-6f" d="M 1959 3097 
Q 1497 3097 1228 2736 
Q 959 2375 959 1747 
Q 959 1119 1226 758 
Q 1494 397 1959 397 
Q 2419 397 2687 759 
Q 2956 1122 2956 1747 
Q 2956 2369 2687 2733 
Q 2419 3097 1959 3097 
z
M 1959 3584 
Q 2709 3584 3137 3096 
Q 3566 2609 3566 1747 
Q 3566 888 3137 398 
Q 2709 -91 1959 -91 
Q 1206 -91 779 398 
Q 353 888 353 1747 
Q 353 2609 779 3096 
Q 1206 3584 1959 3584 
z
" transform="scale(0.015625)"/>
      <path id="DejaVuSans-72" d="M 2631 2963 
Q 2534 3019 2420 3045 
Q 2306 3072 2169 3072 
Q 1681 3072 1420 2755 
Q 1159 2438 1159 1844 
L 1159 0 
L 581 0 
L 581 3500 
L 1159 3500 
L 1159 2956 
Q 1341 3275 1631 3429 
Q 1922 3584 2338 3584 
Q 2397 3584 2469 3576 
Q 2541 3569 2628 3553 
L 2631 2963 
z
" transform="scale(0.015625)"/>
      <path id="DejaVuSans-79" d="M 2059 -325 
Q 1816 -950 1584 -1140 
Q 1353 -1331 966 -1331 
L 506 -1331 
L 506 -850 
L 844 -850 
Q 1081 -850 1212 -737 
Q 1344 -625 1503 -206 
L 1606 56 
L 191 3500 
L 800 3500 
L 1894 763 
L 2988 3500 
L 3597 3500 
L 2059 -325 
z
" transform="scale(0.015625)"/>
      <path id="DejaVuSans-66" d="M 2375 4863 
L 2375 4384 
L 1825 4384 
Q 1516 4384 1395 4259 
Q 1275 4134 1275 3809 
L 1275 3500 
L 2222 3500 
L 2222 3053 
L 1275 3053 
L 1275 0 
L 697 0 
L 697 3053 
L 147 3053 
L 147 3500 
L 697 3500 
L 697 3744 
Q 697 4328 969 4595 
Q 1241 4863 1831 4863 
L 2375 4863 
z
" transform="scale(0.015625)"/>
      <path id="DejaVuSans-70" d="M 1159 525 
L 1159 -1331 
L 581 -1331 
L 581 3500 
L 1159 3500 
L 1159 2969 
Q 1341 3281 1617 3432 
Q 1894 3584 2278 3584 
Q 2916 3584 3314 3078 
Q 3713 2572 3713 1747 
Q 3713 922 3314 415 
Q 2916 -91 2278 -91 
Q 1894 -91 1617 61 
Q 1341 213 1159 525 
z
M 3116 1747 
Q 3116 2381 2855 2742 
Q 2594 3103 2138 3103 
Q 1681 3103 1420 2742 
Q 1159 2381 1159 1747 
Q 1159 1113 1420 752 
Q 1681 391 2138 391 
Q 2594 391 2855 752 
Q 3116 1113 3116 1747 
z
" transform="scale(0.015625)"/>
      <path id="DejaVuSans-65" d="M 3597 1894 
L 3597 1613 
L 953 1613 
Q 991 1019 1311 708 
Q 1631 397 2203 397 
Q 2534 397 2845 478 
Q 3156 559 3463 722 
L 3463 178 
Q 3153 47 2828 -22 
Q 2503 -91 2169 -91 
Q 1331 -91 842 396 
Q 353 884 353 1716 
Q 353 2575 817 3079 
Q 1281 3584 2069 3584 
Q 2775 3584 3186 3129 
Q 3597 2675 3597 1894 
z
M 3022 2063 
Q 3016 2534 2758 2815 
Q 2500 3097 2075 3097 
Q 1594 3097 1305 2825 
Q 1016 2553 972 2059 
L 3022 2063 
z
" transform="scale(0.015625)"/>
      <path id="DejaVuSans-63" d="M 3122 3366 
L 3122 2828 
Q 2878 2963 2633 3030 
Q 2388 3097 2138 3097 
Q 1578 3097 1268 2742 
Q 959 2388 959 1747 
Q 959 1106 1268 751 
Q 1578 397 2138 397 
Q 2388 397 2633 464 
Q 2878 531 3122 666 
L 3122 134 
Q 2881 22 2623 -34 
Q 2366 -91 2075 -91 
Q 1284 -91 818 406 
Q 353 903 353 1747 
Q 353 2603 823 3093 
Q 1294 3584 2113 3584 
Q 2378 3584 2631 3529 
Q 2884 3475 3122 3366 
z
" transform="scale(0.015625)"/>
      <path id="DejaVuSans-6e" d="M 3513 2113 
L 3513 0 
L 2938 0 
L 2938 2094 
Q 2938 2591 2744 2837 
Q 2550 3084 2163 3084 
Q 1697 3084 1428 2787 
Q 1159 2491 1159 1978 
L 1159 0 
L 581 0 
L 581 3500 
L 1159 3500 
L 1159 2956 
Q 1366 3272 1645 3428 
Q 1925 3584 2291 3584 
Q 2894 3584 3203 3211 
Q 3513 2838 3513 2113 
z
" transform="scale(0.015625)"/>
      <path id="DejaVuSans-61" d="M 2194 1759 
Q 1497 1759 1228 1600 
Q 959 1441 959 1056 
Q 959 750 1161 570 
Q 1363 391 1709 391 
Q 2188 391 2477 730 
Q 2766 1069 2766 1631 
L 2766 1759 
L 2194 1759 
z
M 3341 1997 
L 3341 0 
L 2766 0 
L 2766 531 
Q 2569 213 2275 61 
Q 1981 -91 1556 -91 
Q 1019 -91 701 211 
Q 384 513 384 1019 
Q 384 1609 779 1909 
Q 1175 2209 1959 2209 
L 2766 2209 
L 2766 2266 
Q 2766 2663 2505 2880 
Q 2244 3097 1772 3097 
Q 1472 3097 1187 3025 
Q 903 2953 641 2809 
L 641 3341 
Q 956 3463 1253 3523 
Q 1550 3584 1831 3584 
Q 2591 3584 2966 3190 
Q 3341 2797 3341 1997 
z
" transform="scale(0.015625)"/>
      <path id="DejaVuSans-67" d="M 2906 1791 
Q 2906 2416 2648 2759 
Q 2391 3103 1925 3103 
Q 1463 3103 1205 2759 
Q 947 2416 947 1791 
Q 947 1169 1205 825 
Q 1463 481 1925 481 
Q 2391 481 2648 825 
Q 2906 1169 2906 1791 
z
M 3481 434 
Q 3481 -459 3084 -895 
Q 2688 -1331 1869 -1331 
Q 1566 -1331 1297 -1286 
Q 1028 -1241 775 -1147 
L 775 -588 
Q 1028 -725 1275 -790 
Q 1522 -856 1778 -856 
Q 2344 -856 2625 -561 
Q 2906 -266 2906 331 
L 2906 616 
Q 2728 306 2450 153 
Q 2172 0 1784 0 
Q 1141 0 747 490 
Q 353 981 353 1791 
Q 353 2603 747 3093 
Q 1141 3584 1784 3584 
Q 2172 3584 2450 3431 
Q 2728 3278 2906 2969 
L 2906 3500 
L 3481 3500 
L 3481 434 
z
" transform="scale(0.015625)"/>
      <path id="DejaVuSans-41" d="M 2188 4044 
L 1331 1722 
L 3047 1722 
L 2188 4044 
z
M 1831 4666 
L 2547 4666 
L 4325 0 
L 3669 0 
L 3244 1197 
L 1141 1197 
L 716 0 
L 50 0 
L 1831 4666 
z
" transform="scale(0.015625)"/>
      <path id="DejaVuSans-57" d="M 213 4666 
L 850 4666 
L 1831 722 
L 2809 4666 
L 3519 4666 
L 4500 722 
L 5478 4666 
L 6119 4666 
L 4947 0 
L 4153 0 
L 3169 4050 
L 2175 0 
L 1381 0 
L 213 4666 
z
" transform="scale(0.015625)"/>
      <path id="DejaVuSans-53" d="M 3425 4513 
L 3425 3897 
Q 3066 4069 2747 4153 
Q 2428 4238 2131 4238 
Q 1616 4238 1336 4038 
Q 1056 3838 1056 3469 
Q 1056 3159 1242 3001 
Q 1428 2844 1947 2747 
L 2328 2669 
Q 3034 2534 3370 2195 
Q 3706 1856 3706 1288 
Q 3706 609 3251 259 
Q 2797 -91 1919 -91 
Q 1588 -91 1214 -16 
Q 841 59 441 206 
L 441 856 
Q 825 641 1194 531 
Q 1563 422 1919 422 
Q 2459 422 2753 634 
Q 3047 847 3047 1241 
Q 3047 1584 2836 1778 
Q 2625 1972 2144 2069 
L 1759 2144 
Q 1053 2284 737 2584 
Q 422 2884 422 3419 
Q 422 4038 858 4394 
Q 1294 4750 2059 4750 
Q 2388 4750 2728 4690 
Q 3069 4631 3425 4513 
z
" transform="scale(0.015625)"/>
      <path id="DejaVuSans-77" d="M 269 3500 
L 844 3500 
L 1563 769 
L 2278 3500 
L 2956 3500 
L 3675 769 
L 4391 3500 
L 4966 3500 
L 4050 0 
L 3372 0 
L 2619 2869 
L 1863 0 
L 1184 0 
L 269 3500 
z
" transform="scale(0.015625)"/>
      <path id="DejaVuSans-68" d="M 3513 2113 
L 3513 0 
L 2938 0 
L 2938 2094 
Q 2938 2591 2744 2837 
Q 2550 3084 2163 3084 
Q 1697 3084 1428 2787 
Q 1159 2491 1159 1978 
L 1159 0 
L 581 0 
L 581 4863 
L 1159 4863 
L 1159 2956 
Q 1366 3272 1645 3428 
Q 1925 3584 2291 3584 
Q 2894 3584 3203 3211 
Q 3513 2838 3513 2113 
z
" transform="scale(0.015625)"/>
      <path id="DejaVuSans-49" d="M 628 4666 
L 1259 4666 
L 1259 0 
L 628 0 
L 628 4666 
z
" transform="scale(0.015625)"/>
      <path id="DejaVuSans-50" d="M 1259 4147 
L 1259 2394 
L 2053 2394 
Q 2494 2394 2734 2622 
Q 2975 2850 2975 3272 
Q 2975 3691 2734 3919 
Q 2494 4147 2053 4147 
L 1259 4147 
z
M 628 4666 
L 2053 4666 
Q 2838 4666 3239 4311 
Q 3641 3956 3641 3272 
Q 3641 2581 3239 2228 
Q 2838 1875 2053 1875 
L 1259 1875 
L 1259 0 
L 628 0 
L 628 4666 
z
" transform="scale(0.015625)"/>
      <path id="DejaVuSans-76" d="M 191 3500 
L 800 3500 
L 1894 563 
L 2988 3500 
L 3597 3500 
L 2284 0 
L 1503 0 
L 191 3500 
z
" transform="scale(0.015625)"/>
     </defs>
     <use xlink:href="#DejaVuSans-48"/>
     <use xlink:href="#DejaVuSans-69" transform="translate(75.195312 0)"/>
     <use xlink:href="#DejaVuSans-73" transform="translate(102.978516 0)"/>
     <use xlink:href="#DejaVuSans-74" transform="translate(155.078125 0)"/>
     <use xlink:href="#DejaVuSans-6f" transform="translate(194.287109 0)"/>
     <use xlink:href="#DejaVuSans-72" transform="translate(255.46875 0)"/>
     <use xlink:href="#DejaVuSans-79" transform="translate(296.582031 0)"/>
     <use xlink:href="#DejaVuSans-20" transform="translate(355.761719 0)"/>
     <use xlink:href="#DejaVuSans-6f" transform="translate(387.548828 0)"/>
     <use xlink:href="#DejaVuSans-66" transform="translate(448.730469 0)"/>
     <use xlink:href="#DejaVuSans-20" transform="translate(483.935547 0)"/>
     <use xlink:href="#DejaVuSans-70" transform="translate(515.722656 0)"/>
     <use xlink:href="#DejaVuSans-65" transform="translate(579.199219 0)"/>
     <use xlink:href="#DejaVuSans-72" transform="translate(640.722656 0)"/>
     <use xlink:href="#DejaVuSans-63" transform="translate(679.585938 0)"/>
     <use xlink:href="#DejaVuSans-65" transform="translate(734.566406 0)"/>
     <use xlink:href="#DejaVuSans-6e" transform="translate(796.089844 0)"/>
     <use xlink:href="#DejaVuSans-74" transform="translate(859.46875 0)"/>
     <use xlink:href="#DejaVuSans-61" transform="translate(898.677734 0)"/>
     <use xlink:href="#DejaVuSans-67" transform="translate(959.957031 0)"/>
     <use xlink:href="#DejaVuSans-65" transform="translate(1023.433594 0)"/>
     <use xlink:href="#DejaVuSans-20" transform="translate(1084.957031 0)"/>
     <use xlink:href="#DejaVuSans-6f" transform="translate(1116.744141 0)"/>
     <use xlink:href="#DejaVuSans-66" transform="translate(1177.925781 0)"/>
     <use xlink:href="#DejaVuSans-20" transform="translate(1213.130859 0)"/>
     <use xlink:href="#DejaVuSans-41" transform="translate(1244.917969 0)"/>
     <use xlink:href="#DejaVuSans-57" transform="translate(1307.826172 0)"/>
     <use xlink:href="#DejaVuSans-53" transform="translate(1406.703125 0)"/>
     <use xlink:href="#DejaVuSans-20" transform="translate(1470.179688 0)"/>
     <use xlink:href="#DejaVuSans-6f" transform="translate(1501.966797 0)"/>
     <use xlink:href="#DejaVuSans-77" transform="translate(1563.148438 0)"/>
     <use xlink:href="#DejaVuSans-6e" transform="translate(1644.935547 0)"/>
     <use xlink:href="#DejaVuSans-65" transform="translate(1708.314453 0)"/>
     <use xlink:href="#DejaVuSans-72" transform="translate(1769.837891 0)"/>
     <use xlink:href="#DejaVuSans-73" transform="translate(1810.951172 0)"/>
     <use xlink:href="#DejaVuSans-68" transform="translate(1863.050781 0)"/>
     <use xlink:href="#DejaVuSans-69" transform="translate(1926.429688 0)"/>
     <use xlink:href="#DejaVuSans-70" transform="translate(1954.212891 0)"/>
     <use xlink:href="#DejaVuSans-20" transform="translate(2017.689453 0)"/>
     <use xlink:href="#DejaVuSans-6f" transform="translate(2049.476562 0)"/>
     <use xlink:href="#DejaVuSans-66" transform="translate(2110.658203 0)"/>
     <use xlink:href="#DejaVuSans-20" transform="translate(2145.863281 0)"/>
     <use xlink:href="#DejaVuSans-49" transform="translate(2177.650391 0)"/>
     <use xlink:href="#DejaVuSans-50" transform="translate(2207.142578 0)"/>
     <use xlink:href="#DejaVuSans-76" transform="translate(2267.445312 0)"/>
     <use xlink:href="#DejaVuSans-34" transform="translate(2326.625 0)"/>
     <use xlink:href="#DejaVuSans-20" transform="translate(2390.248047 0)"/>
     <use xlink:href="#DejaVuSans-73" transform="translate(2422.035156 0)"/>
     <use xlink:href="#DejaVuSans-70" transform="translate(2474.134766 0)"/>
     <use xlink:href="#DejaVuSans-61" transform="translate(2537.611328 0)"/>
     <use xlink:href="#DejaVuSans-63" transform="translate(2598.890625 0)"/>
     <use xlink:href="#DejaVuSans-65" transform="translate(2653.871094 0)"/>
    </g>
   </g>
  </g>
 </g>
 <defs>
  <clipPath id="p6d14471b0e">
   <rect x="30.103125" y="22.318125" width="502.2" height="277.2"/>
  </clipPath>
 </defs>
</svg>
