<?xml version="1.0" encoding="utf-8" standalone="no"?>
<!DOCTYPE svg PUBLIC "-//W3C//DTD SVG 1.1//EN"
  "http://www.w3.org/Graphics/SVG/1.1/DTD/svg11.dtd">
<svg xmlns:xlink="http://www.w3.org/1999/xlink" width="539.503125pt" height="323.39625pt" viewBox="0 0 539.503125 323.39625" xmlns="http://www.w3.org/2000/svg" version="1.1">
 
 <defs>
  <style type="text/css">*{stroke-linejoin: round; stroke-linecap: butt}</style>
 </defs>
 <g id="figure_1">
  <g id="patch_1">
   <path d="M 0 323.39625 
L 539.503125 323.39625 
L 539.503125 0 
L 0 0 
z
" style="fill: #b2b2b2"/>
  </g>
  <g id="axes_1">
   <g id="patch_2">
    <path d="M 30.103125 299.518125 
L 532.303125 299.518125 
L 532.303125 22.318125 
L 30.103125 22.318125 
z
" style="fill: #e6e6e6"/>
   </g>
   <g id="matplotlib.axis_1">
    <g id="xtick_1">
     <g id="line2d_1">
      <defs>
       <path id="ma78f911f2e" d="M 0 0 
L 0 3.5 
" style="stroke: #000000; stroke-width: 0.8"/>
      </defs>
      <g>
       <use xlink:href="#ma78f911f2e" x="57.602098" y="299.518125" style="stroke: #000000; stroke-width: 0.8"/>
      </g>
     </g>
     <g id="text_1">
      <!-- 2019 -->
      <g transform="translate(44.877098 314.116563) scale(0.1 -0.1)">
       <defs>
        <path id="DejaVuSans-32" d="M 1228 531 
L 3431 531 
L 3431 0 
L 469 0 
L 469 531 
Q 828 903 1448 1529 
Q 2069 2156 2228 2338 
Q 2531 2678 2651 2914 
Q 2772 3150 2772 3378 
Q 2772 3750 2511 3984 
Q 2250 4219 1831 4219 
Q 1534 4219 1204 4116 
Q 875 4013 500 3803 
L 500 4441 
Q 881 4594 1212 4672 
Q 1544 4750 1819 4750 
Q 2544 4750 2975 4387 
Q 3406 4025 3406 3419 
Q 3406 3131 3298 2873 
Q 3191 2616 2906 2266 
Q 2828 2175 2409 1742 
Q 1991 1309 1228 531 
z
" transform="scale(0.015625)"/>
        <path id="DejaVuSans-30" d="M 2034 4250 
Q 1547 4250 1301 3770 
Q 1056 3291 1056 2328 
Q 1056 1369 1301 889 
Q 1547 409 2034 409 
Q 2525 409 2770 889 
Q 3016 1369 3016 2328 
Q 3016 3291 2770 3770 
Q 2525 4250 2034 4250 
z
M 2034 4750 
Q 2819 4750 3233 4129 
Q 3647 3509 3647 2328 
Q 3647 1150 3233 529 
Q 2819 -91 2034 -91 
Q 1250 -91 836 529 
Q 422 1150 422 2328 
Q 422 3509 836 4129 
Q 1250 4750 2034 4750 
z
" transform="scale(0.015625)"/>
        <path id="DejaVuSans-31" d="M 794 531 
L 1825 531 
L 1825 4091 
L 703 3866 
L 703 4441 
L 1819 4666 
L 2450 4666 
L 2450 531 
L 3481 531 
L 3481 0 
L 794 0 
L 794 531 
z
" transform="scale(0.015625)"/>
        <path id="DejaVuSans-39" d="M 703 97 
L 703 672 
Q 941 559 1184 500 
Q 1428 441 1663 441 
Q 2288 441 2617 861 
Q 2947 1281 2994 2138 
Q 2813 1869 2534 1725 
Q 2256 1581 1919 1581 
Q 1219 1581 811 2004 
Q 403 2428 403 3163 
Q 403 3881 828 4315 
Q 1253 4750 1959 4750 
Q 2769 4750 3195 4129 
Q 3622 3509 3622 2328 
Q 3622 1225 3098 567 
Q 2575 -91 1691 -91 
Q 1453 -91 1209 -44 
Q 966 3 703 97 
z
M 1959 2075 
Q 2384 2075 2632 2365 
Q 2881 2656 2881 3163 
Q 2881 3666 2632 3958 
Q 2384 4250 1959 4250 
Q 1534 4250 1286 3958 
Q 1038 3666 1038 3163 
Q 1038 2656 1286 2365 
Q 1534 2075 1959 2075 
z
" transform="scale(0.015625)"/>
       </defs>
       <use xlink:href="#DejaVuSans-32"/>
       <use xlink:href="#DejaVuSans-30" transform="translate(63.623047 0)"/>
       <use xlink:href="#DejaVuSans-31" transform="translate(127.246094 0)"/>
       <use xlink:href="#DejaVuSans-39" transform="translate(190.869141 0)"/>
      </g>
     </g>
    </g>
    <g id="xtick_2">
     <g id="line2d_2">
      <g>
       <use xlink:href="#ma78f911f2e" x="118.804082" y="299.518125" style="stroke: #000000; stroke-width: 0.8"/>
      </g>
     </g>
     <g id="text_2">
      <!-- 2020 -->
      <g transform="translate(106.079082 314.116563) scale(0.1 -0.1)">
       <use xlink:href="#DejaVuSans-32"/>
       <use xlink:href="#DejaVuSans-30" transform="translate(63.623047 0)"/>
       <use xlink:href="#DejaVuSans-32" transform="translate(127.246094 0)"/>
       <use xlink:href="#DejaVuSans-30" transform="translate(190.869141 0)"/>
      </g>
     </g>
    </g>
    <g id="xtick_3">
     <g id="line2d_3">
      <g>
       <use xlink:href="#ma78f911f2e" x="180.173742" y="299.518125" style="stroke: #000000; stroke-width: 0.8"/>
      </g>
     </g>
     <g id="text_3">
      <!-- 2021 -->
      <g transform="translate(167.448742 314.116563) scale(0.1 -0.1)">
       <use xlink:href="#DejaVuSans-32"/>
       <use xlink:href="#DejaVuSans-30" transform="translate(63.623047 0)"/>
       <use xlink:href="#DejaVuSans-32" transform="translate(127.246094 0)"/>
       <use xlink:href="#DejaVuSans-31" transform="translate(190.869141 0)"/>
      </g>
     </g>
    </g>
    <g id="xtick_4">
     <g id="line2d_4">
      <g>
       <use xlink:href="#ma78f911f2e" x="241.375725" y="299.518125" style="stroke: #000000; stroke-width: 0.8"/>
      </g>
     </g>
     <g id="text_4">
      <!-- 2022 -->
      <g transform="translate(228.650725 314.116563) scale(0.1 -0.1)">
       <use xlink:href="#DejaVuSans-32"/>
       <use xlink:href="#DejaVuSans-30" transform="translate(63.623047 0)"/>
       <use xlink:href="#DejaVuSans-32" transform="translate(127.246094 0)"/>
       <use xlink:href="#DejaVuSans-32" transform="translate(190.869141 0)"/>
      </g>
     </g>
    </g>
    <g id="xtick_5">
     <g id="line2d_5">
      <g>
       <use xlink:href="#ma78f911f2e" x="302.577708" y="299.518125" style="stroke: #000000; stroke-width: 0.8"/>
      </g>
     </g>
     <g id="text_5">
      <!-- 2023 -->
      <g transform="translate(289.852708 314.116563) scale(0.1 -0.1)">
       <defs>
        <path id="DejaVuSans-33" d="M 2597 2516 
Q 3050 2419 3304 2112 
Q 3559 1806 3559 1356 
Q 3559 666 3084 287 
Q 2609 -91 1734 -91 
Q 1441 -91 1130 -33 
Q 819 25 488 141 
L 488 750 
Q 750 597 1062 519 
Q 1375 441 1716 441 
Q 2309 441 2620 675 
Q 2931 909 2931 1356 
Q 2931 1769 2642 2001 
Q 2353 2234 1838 2234 
L 1294 2234 
L 1294 2753 
L 1863 2753 
Q 2328 2753 2575 2939 
Q 2822 3125 2822 3475 
Q 2822 3834 2567 4026 
Q 2313 4219 1838 4219 
Q 1578 4219 1281 4162 
Q 984 4106 628 3988 
L 628 4550 
Q 988 4650 1302 4700 
Q 1616 4750 1894 4750 
Q 2613 4750 3031 4423 
Q 3450 4097 3450 3541 
Q 3450 3153 3228 2886 
Q 3006 2619 2597 2516 
z
" transform="scale(0.015625)"/>
       </defs>
       <use xlink:href="#DejaVuSans-32"/>
       <use xlink:href="#DejaVuSans-30" transform="translate(63.623047 0)"/>
       <use xlink:href="#DejaVuSans-32" transform="translate(127.246094 0)"/>
       <use xlink:href="#DejaVuSans-33" transform="translate(190.869141 0)"/>
      </g>
     </g>
    </g>
    <g id="xtick_6">
     <g id="line2d_6">
      <g>
       <use xlink:href="#ma78f911f2e" x="363.779691" y="299.518125" style="stroke: #000000; stroke-width: 0.8"/>
      </g>
     </g>
     <g id="text_6">
      <!-- 2024 -->
      <g transform="translate(351.054691 314.116563) scale(0.1 -0.1)">
       <defs>
        <path id="DejaVuSans-34" d="M 2419 4116 
L 825 1625 
L 2419 1625 
L 2419 4116 
z
M 2253 4666 
L 3047 4666 
L 3047 1625 
L 3713 1625 
L 3713 1100 
L 3047 1100 
L 3047 0 
L 2419 0 
L 2419 1100 
L 313 1100 
L 313 1709 
L 2253 4666 
z
" transform="scale(0.015625)"/>
       </defs>
       <use xlink:href="#DejaVuSans-32"/>
       <use xlink:href="#DejaVuSans-30" transform="translate(63.623047 0)"/>
       <use xlink:href="#DejaVuSans-32" transform="translate(127.246094 0)"/>
       <use xlink:href="#DejaVuSans-34" transform="translate(190.869141 0)"/>
      </g>
     </g>
    </g>
    <g id="xtick_7">
     <g id="line2d_7">
      <g>
       <use xlink:href="#ma78f911f2e" x="425.149351" y="299.518125" style="stroke: #000000; stroke-width: 0.8"/>
      </g>
     </g>
     <g id="text_7">
      <!-- 2025 -->
      <g transform="translate(412.424351 314.116563) scale(0.1 -0.1)">
       <defs>
        <path id="DejaVuSans-35" d="M 691 4666 
L 3169 4666 
L 3169 4134 
L 1269 4134 
L 1269 2991 
Q 1406 3038 1543 3061 
Q 1681 3084 1819 3084 
Q 2600 3084 3056 2656 
Q 3513 2228 3513 1497 
Q 3513 744 3044 326 
Q 2575 -91 1722 -91 
Q 1428 -91 1123 -41 
Q 819 9 494 109 
L 494 744 
Q 775 591 1075 516 
Q 1375 441 1709 441 
Q 2250 441 2565 725 
Q 2881 1009 2881 1497 
Q 2881 1984 2565 2268 
Q 2250 2553 1709 2553 
Q 1456 2553 1204 2497 
Q 953 2441 691 2322 
L 691 4666 
z
" transform="scale(0.015625)"/>
       </defs>
       <use xlink:href="#DejaVuSans-32"/>
       <use xlink:href="#DejaVuSans-30" transform="translate(63.623047 0)"/>
       <use xlink:href="#DejaVuSans-32" transform="translate(127.246094 0)"/>
       <use xlink:href="#DejaVuSans-35" transform="translate(190.869141 0)"/>
      </g>
     </g>
    </g>
    <g id="xtick_8">
     <g id="line2d_8">
      <g>
       <use xlink:href="#ma78f911f2e" x="486.351335" y="299.518125" style="stroke: #000000; stroke-width: 0.8"/>
      </g>
     </g>
     <g id="text_8">
      <!-- 2026 -->
      <g transform="translate(473.626335 314.116563) scale(0.1 -0.1)">
       <defs>
        <path id="DejaVuSans-36" d="M 2113 2584 
Q 1688 2584 1439 2293 
Q 1191 2003 1191 1497 
Q 1191 994 1439 701 
Q 1688 409 2113 409 
Q 2538 409 2786 701 
Q 3034 994 3034 1497 
Q 3034 2003 2786 2293 
Q 2538 2584 2113 2584 
z
M 3366 4563 
L 3366 3988 
Q 3128 4100 2886 4159 
Q 2644 4219 2406 4219 
Q 1781 4219 1451 3797 
Q 1122 3375 1075 2522 
Q 1259 2794 1537 2939 
Q 1816 3084 2150 3084 
Q 2853 3084 3261 2657 
Q 3669 2231 3669 1497 
Q 3669 778 3244 343 
Q 2819 -91 2113 -91 
Q 1303 -91 875 529 
Q 447 1150 447 2328 
Q 447 3434 972 4092 
Q 1497 4750 2381 4750 
Q 2619 4750 2861 4703 
Q 3103 4656 3366 4563 
z
" transform="scale(0.015625)"/>
       </defs>
       <use xlink:href="#DejaVuSans-32"/>
       <use xlink:href="#DejaVuSans-30" transform="translate(63.623047 0)"/>
       <use xlink:href="#DejaVuSans-32" transform="translate(127.246094 0)"/>
       <use xlink:href="#DejaVuSans-36" transform="translate(190.869141 0)"/>
      </g>
     </g>
    </g>
   </g>
   <g id="matplotlib.axis_2">
    <g id="ytick_1">
     <g id="line2d_9">
      <defs>
       <path id="ma562af20d9" d="M 0 0 
L -3.5 0 
" style="stroke: #000000; stroke-width: 0.8"/>
      </defs>
      <g>
       <use xlink:href="#ma562af20d9" x="30.103125" y="299.518125" style="stroke: #000000; stroke-width: 0.8"/>
      </g>
     </g>
     <g id="text_9">
      <!-- 0.0 -->
      <g transform="translate(7.2 303.317344) scale(0.1 -0.1)">
       <defs>
        <path id="DejaVuSans-2e" d="M 684 794 
L 1344 794 
L 1344 0 
L 684 0 
L 684 794 
z
" transform="scale(0.015625)"/>
       </defs>
       <use xlink:href="#DejaVuSans-30"/>
       <use xlink:href="#DejaVuSans-2e" transform="translate(63.623047 0)"/>
       <use xlink:href="#DejaVuSans-30" transform="translate(95.410156 0)"/>
      </g>
     </g>
    </g>
    <g id="ytick_2">
     <g id="line2d_10">
      <g>
       <use xlink:href="#ma562af20d9" x="30.103125" y="253.776405" style="stroke: #000000; stroke-width: 0.8"/>
      </g>
     </g>
     <g id="text_10">
      <!-- 0.5 -->
      <g transform="translate(7.2 257.575624) scale(0.1 -0.1)">
       <use xlink:href="#DejaVuSans-30"/>
       <use xlink:href="#DejaVuSans-2e" transform="translate(63.623047 0)"/>
       <use xlink:href="#DejaVuSans-35" transform="translate(95.410156 0)"/>
      </g>
     </g>
    </g>
    <g id="ytick_3">
     <g id="line2d_11">
      <g>
       <use xlink:href="#ma562af20d9" x="30.103125" y="208.034685" style="stroke: #000000; stroke-width: 0.8"/>
      </g>
     </g>
     <g id="text_11">
      <!-- 1.0 -->
      <g transform="translate(7.2 211.833904) scale(0.1 -0.1)">
       <use xlink:href="#DejaVuSans-31"/>
       <use xlink:href="#DejaVuSans-2e" transform="translate(63.623047 0)"/>
       <use xlink:href="#DejaVuSans-30" transform="translate(95.410156 0)"/>
      </g>
     </g>
    </g>
    <g id="ytick_4">
     <g id="line2d_12">
      <g>
       <use xlink:href="#ma562af20d9" x="30.103125" y="162.292965" style="stroke: #000000; stroke-width: 0.8"/>
      </g>
     </g>
     <g id="text_12">
      <!-- 1.5 -->
      <g transform="translate(7.2 166.092184) scale(0.1 -0.1)">
       <use xlink:href="#DejaVuSans-31"/>
       <use xlink:href="#DejaVuSans-2e" transform="translate(63.623047 0)"/>
       <use xlink:href="#DejaVuSans-35" transform="translate(95.410156 0)"/>
      </g>
     </g>
    </g>
    <g id="ytick_5">
     <g id="line2d_13">
      <g>
       <use xlink:href="#ma562af20d9" x="30.103125" y="116.551245" style="stroke: #000000; stroke-width: 0.8"/>
      </g>
     </g>
     <g id="text_13">
      <!-- 2.0 -->
      <g transform="translate(7.2 120.350464) scale(0.1 -0.1)">
       <use xlink:href="#DejaVuSans-32"/>
       <use xlink:href="#DejaVuSans-2e" transform="translate(63.623047 0)"/>
       <use xlink:href="#DejaVuSans-30" transform="translate(95.410156 0)"/>
      </g>
     </g>
    </g>
    <g id="ytick_6">
     <g id="line2d_14">
      <g>
       <use xlink:href="#ma562af20d9" x="30.103125" y="70.809525" style="stroke: #000000; stroke-width: 0.8"/>
      </g>
     </g>
     <g id="text_14">
      <!-- 2.5 -->
      <g transform="translate(7.2 74.608744) scale(0.1 -0.1)">
       <use xlink:href="#DejaVuSans-32"/>
       <use xlink:href="#DejaVuSans-2e" transform="translate(63.623047 0)"/>
       <use xlink:href="#DejaVuSans-35" transform="translate(95.410156 0)"/>
      </g>
     </g>
    </g>
    <g id="ytick_7">
     <g id="line2d_15">
      <g>
       <use xlink:href="#ma562af20d9" x="30.103125" y="25.067805" style="stroke: #000000; stroke-width: 0.8"/>
      </g>
     </g>
     <g id="text_15">
      <!-- 3.0 -->
      <g transform="translate(7.2 28.867024) scale(0.1 -0.1)">
       <use xlink:href="#DejaVuSans-33"/>
       <use xlink:href="#DejaVuSans-2e" transform="translate(63.623047 0)"/>
       <use xlink:href="#DejaVuSans-30" transform="translate(95.410156 0)"/>
      </g>
     </g>
    </g>
   </g>
   <g id="line2d_16">
    <path clip-path="url(#p6d14471b0e)" style="fill: none; stroke: #cccccc; stroke-linecap: square"/>
   </g>
   <g id="line2d_17">
    <path d="M 57.602098 299.518125 
L 57.602098 22.318125 
" clip-path="url(#p6d14471b0e)" style="fill: none; stroke: #cccccc; stroke-linecap: square"/>
   </g>
   <g id="line2d_18">
    <path d="M 118.804082 299.518125 
L 118.804082 22.318125 
" clip-path="url(#p6d14471b0e)" style="fill: none; stroke: #cccccc; stroke-linecap: square"/>
   </g>
   <g id="line2d_19">
    <path d="M 180.173742 299.518125 
L 180.173742 22.318125 
" clip-path="url(#p6d14471b0e)" style="fill: none; stroke: #cccccc; stroke-linecap: square"/>
   </g>
   <g id="line2d_20">
    <path d="M 241.375725 299.518125 
L 241.375725 22.318125 
" clip-path="url(#p6d14471b0e)" style="fill: none; stroke: #cccccc; stroke-linecap: square"/>
   </g>
   <g id="line2d_21">
    <path d="M 302.577708 299.518125 
L 302.577708 22.318125 
" clip-path="url(#p6d14471b0e)" style="fill: none; stroke: #cccccc; stroke-linecap: square"/>
   </g>
   <g id="line2d_22">
    <path d="M 363.779691 299.518125 
L 363.779691 22.318125 
" clip-path="url(#p6d14471b0e)" style="fill: none; stroke: #cccccc; stroke-linecap: square"/>
   </g>
   <g id="line2d_23">
    <path d="M 425.149351 299.518125 
L 425.149351 22.318125 
" clip-path="url(#p6d14471b0e)" style="fill: none; stroke: #cccccc; stroke-linecap: square"/>
   </g>
   <g id="line2d_24">
    <path d="M 486.351335 299.518125 
L 486.351335 22.318125 
" clip-path="url(#p6d14471b0e)" style="fill: none; stroke: #cccccc; stroke-linecap: square"/>
   </g>
   <g id="line2d_25">
    <path d="M 30.103125 299.518125 
L 532.303125 299.518125 
" clip-path="url(#p6d14471b0e)" style="fill: none; stroke: #cccccc; stroke-linecap: square"/>
   </g>
   <g id="line2d_26">
    <path d="M 30.103125 276.647265 
L 532.303125 276.647265 
" clip-path="url(#p6d14471b0e)" style="fill: none; stroke: #cccccc; stroke-linecap: square"/>
   </g>
   <g id="line2d_27">
    <path d="M 30.103125 253.776405 
L 532.303125 253.776405 
" clip-path="url(#p6d14471b0e)" style="fill: none; stroke: #cccccc; stroke-linecap: square"/>
   </g>
   <g id="line2d_28">
    <path d="M 30.103125 230.905545 
L 532.303125 230.905545 
" clip-path="url(#p6d14471b0e)" style="fill: none; stroke: #cccccc; stroke-linecap: square"/>
   </g>
   <g id="line2d_29">
    <path d="M 30.103125 208.034685 
L 532.303125 208.034685 
" clip-path="url(#p6d14471b0e)" style="fill: none; stroke: #cccccc; stroke-linecap: square"/>
   </g>
   <g id="line2d_30">
    <path d="M 30.103125 185.163825 
L 532.303125 185.163825 
" clip-path="url(#p6d14471b0e)" style="fill: none; stroke: #cccccc; stroke-linecap: square"/>
   </g>
   <g id="line2d_31">
    <path d="M 30.103125 162.292965 
L 532.303125 162.292965 
" clip-path="url(#p6d14471b0e)" style="fill: none; stroke: #cccccc; stroke-linecap: square"/>
   </g>
   <g id="line2d_32">
    <path d="M 30.103125 139.422105 
L 532.303125 139.422105 
" clip-path="url(#p6d14471b0e)" style="fill: none; stroke: #cccccc; stroke-linecap: square"/>
   </g>
   <g id="line2d_33">
    <path d="M 30.103125 116.551245 
L 532.303125 116.551245 
" clip-path="url(#p6d14471b0e)" style="fill: none; stroke: #cccccc; stroke-linecap: square"/>
   </g>
   <g id="line2d_34">
    <path d="M 30.103125 93.680385 
L 532.303125 93.680385 
" clip-path="url(#p6d14471b0e)" style="fill: none; stroke: #cccccc; stroke-linecap: square"/>
   </g>
   <g id="line2d_35">
    <path d="M 30.103125 70.809525 
L 532.303125 70.809525 
" clip-path="url(#p6d14471b0e)" style="fill: none; stroke: #cccccc; stroke-linecap: square"/>
   </g>
   <g id="line2d_36">
    <path d="M 30.103125 47.938665 
L 532.303125 47.938665 
" clip-path="url(#p6d14471b0e)" style="fill: none; stroke: #cccccc; stroke-linecap: square"/>
   </g>
   <g id="line2d_37">
    <path d="M 30.103125 216.803713 
L 31.779892 216.808773 
L 31.947568 215.834442 
L 35.301102 215.821157 
L 35.468778 211.933318 
L 42.343522 211.931094 
L 42.511198 211.607213 
L 43.349582 211.581277 
L 46.200085 211.580017 
L 46.367762 210.284493 
L 47.206145 210.284493 
L 47.373822 209.47479 
L 49.050588 209.426081 
L 49.218265 210.073843 
L 52.571798 210.068091 
L 52.739475 209.582269 
L 54.248565 209.581636 
L 54.583918 208.607463 
L 55.086948 208.607463 
L 55.254625 203.101483 
L 57.769775 203.098953 
L 57.937452 202.44866 
L 62.464722 202.442967 
L 62.632398 202.281026 
L 69.339465 202.224242 
L 69.507142 201.575847 
L 72.022292 201.568573 
L 72.189968 201.406632 
L 73.028352 201.400939 
L 73.196028 201.238998 
L 75.040472 201.230142 
L 75.375825 200.58238 
L 75.543502 200.240787 
L 76.214208 200.240154 
L 76.381885 199.916273 
L 76.549562 199.916194 
L 76.717238 199.565378 
L 78.729358 199.563481 
L 78.897035 197.612603 
L 80.070772 197.60944 
L 80.238448 197.284773 
L 81.076832 197.282085 
L 81.244508 196.309176 
L 92.646522 196.211674 
L 92.814198 192.980449 
L 92.981875 192.980276 
L 93.149552 185.207128 
L 97.676822 185.159546 
L 97.844498 185.159546 
L 98.012175 183.702081 
L 107.737422 183.698916 
L 107.905098 181.887213 
L 108.072775 181.563332 
L 110.252572 181.558271 
L 110.420248 180.910509 
L 112.767722 180.901663 
L 112.935398 179.606138 
L 114.109135 179.605505 
L 114.276812 178.957743 
L 119.977818 178.926267 
L 120.145495 177.940074 
L 123.499028 177.912206 
L 123.666705 177.750898 
L 131.715185 177.731293 
L 133.894982 177.688263 
L 134.062658 177.212553 
L 136.242455 177.200988 
L 136.410132 177.03968 
L 137.080838 177.039048 
L 137.248515 176.688993 
L 138.589928 176.680718 
L 138.757605 174.088404 
L 142.278815 174.083971 
L 142.446492 173.800575 
L 144.793965 173.7993 
L 144.961642 173.637359 
L 146.973762 173.675578 
L 147.141438 173.333985 
L 148.482852 173.314461 
L 153.010122 173.222189 
L 153.177798 173.05582 
L 154.016182 173.053964 
L 154.351535 172.866706 
L 155.189918 172.866706 
L 155.357595 172.218943 
L 156.028302 172.218879 
L 156.195978 161.854049 
L 156.363655 172.218167 
L 161.058602 172.205953 
L 161.226278 171.493628 
L 162.400015 171.49346 
L 162.567692 171.330917 
L 164.076782 171.322016 
L 164.244458 168.240084 
L 168.101022 168.228574 
L 168.268698 164.341941 
L 172.628292 164.249592 
L 172.795968 163.900328 
L 175.311118 163.894126 
L 175.478795 163.56471 
L 177.490915 163.562733 
L 177.658592 163.222363 
L 183.862628 163.20743 
L 184.030305 162.860776 
L 184.197982 162.860776 
L 184.365658 162.508427 
L 184.701012 162.424205 
L 185.371718 162.416762 
L 185.539395 162.173846 
L 188.892928 162.146593 
L 189.060605 162.495382 
L 189.395958 162.494364 
L 189.563635 161.822564 
L 190.066665 161.822539 
L 190.234342 160.527014 
L 190.569695 160.525747 
L 190.737372 160.36174 
L 195.935348 160.256898 
L 196.103025 159.603442 
L 199.959588 159.531854 
L 200.127265 159.369452 
L 200.462618 159.368582 
L 200.630295 158.391878 
L 201.636355 158.387131 
L 201.804031 158.03786 
L 202.977768 158.006579 
L 203.313121 157.910094 
L 206.498978 157.889092 
L 206.666655 157.532159 
L 207.672715 157.568896 
L 207.840391 156.110926 
L 211.864631 155.940372 
L 215.888871 155.916526 
L 216.056548 154.942353 
L 216.224225 154.78041 
L 216.391901 152.189355 
L 217.397961 152.188878 
L 217.565638 138.585193 
L 226.787855 138.503039 
L 227.123208 138.327814 
L 236.848455 138.285871 
L 237.016131 137.961975 
L 244.561581 137.854333 
L 244.729258 135.910893 
L 247.915115 135.849891 
L 248.082791 135.502604 
L 260.323188 135.470987 
L 260.490865 134.82275 
L 261.999955 134.822039 
L 262.167631 135.14592 
L 271.054495 135.067181 
L 271.222171 134.904608 
L 275.078735 134.859601 
L 275.246411 134.655594 
L 280.779741 134.611058 
L 280.947418 135.909262 
L 281.450448 135.908629 
L 281.618125 134.613104 
L 281.785801 134.613085 
L 281.953478 120.200373 
L 282.121155 115.812143 
L 283.127215 115.7653 
L 283.462568 114.453247 
L 284.468628 114.436671 
L 284.636305 114.26714 
L 286.816101 114.25413 
L 286.983778 126.561451 
L 288.660545 126.562835 
L 288.828221 119.761014 
L 289.163575 119.761014 
L 289.331251 124.288392 
L 298.553468 124.235811 
L 298.721145 123.588049 
L 304.925181 123.557902 
L 306.098918 123.553988 
L 306.266595 123.715929 
L 321.357495 123.670077 
L 321.692848 123.598911 
L 323.034261 123.597943 
L 323.201938 123.39524 
L 324.375675 123.393461 
L 324.543351 120.154649 
L 336.113041 120.152258 
L 336.280718 119.843808 
L 337.957485 119.831947 
L 338.125161 120.31508 
L 338.460515 120.309753 
L 338.628191 120.147812 
L 338.963545 120.147812 
L 339.131221 119.985872 
L 340.640311 119.976855 
L 340.807988 119.596595 
L 346.341318 119.584141 
L 346.508995 119.740863 
L 354.557475 119.6682 
L 354.725151 119.020438 
L 356.569595 119.02028 
L 356.737271 117.70641 
L 360.593835 117.661082 
L 360.929188 117.519384 
L 366.294841 117.531694 
L 366.462518 116.377077 
L 367.300901 116.375476 
L 367.468578 104.715122 
L 372.163525 104.706317 
L 372.331201 105.027584 
L 375.349381 104.992135 
L 375.517058 104.34417 
L 375.684735 104.991656 
L 385.074628 104.978969 
L 385.242305 105.14091 
L 386.583718 105.141859 
L 386.751395 104.564624 
L 390.607958 104.511147 
L 390.943311 104.099179 
L 391.278665 104.098862 
L 391.446341 105.232921 
L 394.464521 105.123959 
L 397.985731 105.080205 
L 398.321085 105.233 
L 401.506941 105.229837 
L 401.842295 105.108382 
L 402.009971 105.432263 
L 402.345325 105.432263 
L 402.513001 105.918084 
L 403.519061 105.917195 
L 403.686738 105.593314 
L 407.040271 105.498684 
L 407.878655 105.377228 
L 408.884715 105.356986 
L 409.052391 104.060196 
L 409.387745 104.060196 
L 409.555421 102.030124 
L 411.232188 101.920572 
L 411.399865 102.16285 
L 412.908955 102.187521 
L 413.076631 101.853518 
L 415.424105 101.929912 
L 415.591781 101.606031 
L 416.597841 101.608351 
L 416.765518 101.445756 
L 421.460465 101.405982 
L 421.628141 96.871646 
L 422.969555 96.872279 
L 423.137231 96.224517 
L 433.533185 96.135933 
L 433.700861 95.649479 
L 434.036215 95.649479 
L 434.203891 95.486906 
L 434.539245 95.001084 
L 434.706921 95.001084 
L 434.874598 94.676333 
L 436.383688 94.676333 
L 436.551365 73.300809 
L 437.892778 73.235021 
L 438.898838 73.327378 
L 439.066515 72.990212 
L 439.904898 72.987524 
L 440.072575 72.663643 
L 441.749341 72.616515 
L 441.917018 69.053823 
L 442.420048 69.054455 
L 442.587725 66.105998 
L 445.270551 66.088918 
L 445.438228 65.923182 
L 447.618025 65.92508 
L 447.785701 65.267196 
L 450.468528 65.241261 
L 450.636205 64.744685 
L 452.145295 64.721873 
L 456.840241 64.692122 
L 457.007918 64.529548 
L 458.852361 64.508673 
L 459.020038 64.811047 
L 460.026098 64.750319 
L 460.361451 64.69651 
L 460.529128 64.372075 
L 461.199835 64.3512 
L 461.367511 64.027319 
L 461.535188 64.020993 
L 461.702865 63.494686 
L 464.553368 63.410356 
L 465.224075 63.349628 
L 472.769525 63.234063 
L 472.937201 62.750095 
L 473.272555 62.728543 
L 473.607908 62.871501 
L 474.278615 62.872094 
L 474.446291 63.519846 
L 478.135178 63.388719 
L 478.302855 63.695402 
L 486.015981 63.63166 
L 489.704868 63.528609 
L 489.872545 60.27588 
L 490.040221 51.854338 
L 490.207898 51.206575 
L 490.375575 51.206575 
L 490.543251 48.938142 
L 491.046281 48.926044 
L 491.213958 49.224622 
L 493.896785 49.220782 
L 494.064461 49.016414 
L 500.268498 48.890926 
L 501.106881 48.832096 
L 503.454355 48.732071 
L 506.807888 48.597208 
L 507.478595 48.544249 
L 507.646271 48.202023 
L 512.173541 48.127814 
L 512.508895 48.042875 
L 515.694751 47.953657 
L 516.030105 47.766413 
L 518.042225 47.68647 
L 518.209901 48.001495 
L 520.054345 47.955712 
L 520.054345 47.955712 
" clip-path="url(#p6d14471b0e)" style="fill: none; stroke: #1f77b4; stroke-width: 2; stroke-linecap: square"/>
   </g>
   <g id="patch_3">
    <path d="M 30.103125 299.518125 
L 30.103125 22.318125 
" style="fill: none; stroke: #000000; stroke-width: 0.8; stroke-linejoin: miter; stroke-linecap: square"/>
   </g>
   <g id="patch_4">
    <path d="M 532.303125 299.518125 
L 532.303125 22.318125 
" style="fill: none; stroke: #000000; stroke-width: 0.8; stroke-linejoin: miter; stroke-linecap: square"/>
   </g>
   <g id="patch_5">
    <path d="M 30.103125 299.518125 
L 532.303125 299.518125 
" style="fill: none; stroke: #000000; stroke-width: 0.8; stroke-linejoin: miter; stroke-linecap: square"/>
   </g>
   <g id="patch_6">
    <path d="M 30.103125 22.318125 
L 532.303125 22.318125 
" style="fill: none; stroke: #000000; stroke-width: 0.8; stroke-linejoin: miter; stroke-linecap: square"/>
   </g>
   <g id="patch_7">
    <path d="M 79.416952 181.511201 
Q 85.316002 183.098844 91.215052 184.686486 
" style="fill: none; stroke: #000000; stroke-linecap: round"/>
   </g>
   <g id="text_16">
    <g id="patch_8">
     <path d="M 26.078885 184.864336 
L 74.489201 184.864336 
Q 76.988201 184.864336 76.988201 182.365336 
L 76.988201 164.97568 
Q 76.988201 162.47668 74.489201 162.47668 
L 26.078885 162.47668 
Q 23.579885 162.47668 23.579885 164.97568 
L 23.579885 182.365336 
Q 23.579885 184.864336 26.078885 184.864336 
z
" style="fill: #cccccc; stroke: #000000; stroke-linejoin: miter"/>
    </g>
    <!-- 2019-08-01 -->
    <g transform="translate(26.078885 171.305178) scale(0.0833 -0.0833)">
     <defs>
      <path id="DejaVuSans-2d" d="M 313 2009 
L 1997 2009 
L 1997 1497 
L 313 1497 
L 313 2009 
z
" transform="scale(0.015625)"/>
      <path id="DejaVuSans-38" d="M 2034 2216 
Q 1584 2216 1326 1975 
Q 1069 1734 1069 1313 
Q 1069 891 1326 650 
Q 1584 409 2034 409 
Q 2484 409 2743 651 
Q 3003 894 3003 1313 
Q 3003 1734 2745 1975 
Q 2488 2216 2034 2216 
z
M 1403 2484 
Q 997 2584 770 2862 
Q 544 3141 544 3541 
Q 544 4100 942 4425 
Q 1341 4750 2034 4750 
Q 2731 4750 3128 4425 
Q 3525 4100 3525 3541 
Q 3525 3141 3298 2862 
Q 3072 2584 2669 2484 
Q 3125 2378 3379 2068 
Q 3634 1759 3634 1313 
Q 3634 634 3220 271 
Q 2806 -91 2034 -91 
Q 1263 -91 848 271 
Q 434 634 434 1313 
Q 434 1759 690 2068 
Q 947 2378 1403 2484 
z
M 1172 3481 
Q 1172 3119 1398 2916 
Q 1625 2713 2034 2713 
Q 2441 2713 2670 2916 
Q 2900 3119 2900 3481 
Q 2900 3844 2670 4047 
Q 2441 4250 2034 4250 
Q 1625 4250 1398 4047 
Q 1172 3844 1172 3481 
z
" transform="scale(0.015625)"/>
     </defs>
     <use xlink:href="#DejaVuSans-32"/>
     <use xlink:href="#DejaVuSans-30" transform="translate(63.623047 0)"/>
     <use xlink:href="#DejaVuSans-31" transform="translate(127.246094 0)"/>
     <use xlink:href="#DejaVuSans-39" transform="translate(190.869141 0)"/>
     <use xlink:href="#DejaVuSans-2d" transform="translate(254.492188 0)"/>
     <use xlink:href="#DejaVuSans-30" transform="translate(290.576172 0)"/>
     <use xlink:href="#DejaVuSans-38" transform="translate(354.199219 0)"/>
     <use xlink:href="#DejaVuSans-2d" transform="translate(417.822266 0)"/>
     <use xlink:href="#DejaVuSans-30" transform="translate(453.90625 0)"/>
     <use xlink:href="#DejaVuSans-31" transform="translate(517.529297 0)"/>
    </g>
    <!--  +3.15m  -->
    <g transform="translate(26.078885 180.632956) scale(0.0833 -0.0833)">
     <defs>
      <path id="DejaVuSans-20" transform="scale(0.015625)"/>
      <path id="DejaVuSans-2b" d="M 2944 4013 
L 2944 2272 
L 4684 2272 
L 4684 1741 
L 2944 1741 
L 2944 0 
L 2419 0 
L 2419 1741 
L 678 1741 
L 678 2272 
L 2419 2272 
L 2419 4013 
L 2944 4013 
z
" transform="scale(0.015625)"/>
      <path id="DejaVuSans-6d" d="M 3328 2828 
Q 3544 3216 3844 3400 
Q 4144 3584 4550 3584 
Q 5097 3584 5394 3201 
Q 5691 2819 5691 2113 
L 5691 0 
L 5113 0 
L 5113 2094 
Q 5113 2597 4934 2840 
Q 4756 3084 4391 3084 
Q 3944 3084 3684 2787 
Q 3425 2491 3425 1978 
L 3425 0 
L 2847 0 
L 2847 2094 
Q 2847 2600 2669 2842 
Q 2491 3084 2119 3084 
Q 1678 3084 1418 2786 
Q 1159 2488 1159 1978 
L 1159 0 
L 581 0 
L 581 3500 
L 1159 3500 
L 1159 2956 
Q 1356 3278 1631 3431 
Q 1906 3584 2284 3584 
Q 2666 3584 2933 3390 
Q 3200 3197 3328 2828 
z
" transform="scale(0.015625)"/>
     </defs>
     <use xlink:href="#DejaVuSans-20"/>
     <use xlink:href="#DejaVuSans-2b" transform="translate(31.787109 0)"/>
     <use xlink:href="#DejaVuSans-33" transform="translate(115.576172 0)"/>
     <use xlink:href="#DejaVuSans-2e" transform="translate(179.199219 0)"/>
     <use xlink:href="#DejaVuSans-31" transform="translate(210.986328 0)"/>
     <use xlink:href="#DejaVuSans-35" transform="translate(274.609375 0)"/>
     <use xlink:href="#DejaVuSans-6d" transform="translate(338.232422 0)"/>
     <use xlink:href="#DejaVuSans-20" transform="translate(435.644531 0)"/>
    </g>
   </g>
   <g id="patch_9">
    <path d="M 142.463379 158.158123 
Q 148.362429 159.745765 154.261479 161.333407 
" style="fill: none; stroke: #000000; stroke-linecap: round"/>
   </g>
   <g id="text_17">
    <g id="patch_10">
     <path d="M 89.125312 161.511257 
L 137.535627 161.511257 
Q 140.034627 161.511257 140.034627 159.012257 
L 140.034627 141.622601 
Q 140.034627 139.123601 137.535627 139.123601 
L 89.125312 139.123601 
Q 86.626312 139.123601 86.626312 141.622601 
L 86.626312 159.012257 
Q 86.626312 161.511257 89.125312 161.511257 
z
" style="fill: #cccccc; stroke: #000000; stroke-linejoin: miter"/>
    </g>
    <!-- 2020-08-11 -->
    <g transform="translate(89.125312 147.9521) scale(0.0833 -0.0833)">
     <use xlink:href="#DejaVuSans-32"/>
     <use xlink:href="#DejaVuSans-30" transform="translate(63.623047 0)"/>
     <use xlink:href="#DejaVuSans-32" transform="translate(127.246094 0)"/>
     <use xlink:href="#DejaVuSans-30" transform="translate(190.869141 0)"/>
     <use xlink:href="#DejaVuSans-2d" transform="translate(254.492188 0)"/>
     <use xlink:href="#DejaVuSans-30" transform="translate(290.576172 0)"/>
     <use xlink:href="#DejaVuSans-38" transform="translate(354.199219 0)"/>
     <use xlink:href="#DejaVuSans-2d" transform="translate(417.822266 0)"/>
     <use xlink:href="#DejaVuSans-31" transform="translate(453.90625 0)"/>
     <use xlink:href="#DejaVuSans-31" transform="translate(517.529297 0)"/>
    </g>
    <!--  +4.19m  -->
    <g transform="translate(89.125312 157.279877) scale(0.0833 -0.0833)">
     <use xlink:href="#DejaVuSans-20"/>
     <use xlink:href="#DejaVuSans-2b" transform="translate(31.787109 0)"/>
     <use xlink:href="#DejaVuSans-34" transform="translate(115.576172 0)"/>
     <use xlink:href="#DejaVuSans-2e" transform="translate(179.199219 0)"/>
     <use xlink:href="#DejaVuSans-31" transform="translate(210.986328 0)"/>
     <use xlink:href="#DejaVuSans-39" transform="translate(274.609375 0)"/>
     <use xlink:href="#DejaVuSans-6d" transform="translate(338.232422 0)"/>
     <use xlink:href="#DejaVuSans-20" transform="translate(435.644531 0)"/>
    </g>
   </g>
   <g id="patch_11">
    <path d="M 168.650155 179.940385 
Q 163.354302 176.611875 158.058448 173.283366 
" style="fill: none; stroke: #000000; stroke-linecap: round"/>
   </g>
   <g id="text_18">
    <g id="patch_12">
     <path d="M 164.747488 203.894579 
L 213.157804 203.894579 
Q 215.656804 203.894579 215.656804 201.395579 
L 215.656804 184.005923 
Q 215.656804 181.506923 213.157804 181.506923 
L 164.747488 181.506923 
Q 162.248488 181.506923 162.248488 184.005923 
L 162.248488 201.395579 
Q 162.248488 203.894579 164.747488 203.894579 
z
" style="fill: #cccccc; stroke: #000000; stroke-linejoin: miter"/>
    </g>
    <!-- 2020-08-12 -->
    <g transform="translate(164.747488 190.335422) scale(0.0833 -0.0833)">
     <use xlink:href="#DejaVuSans-32"/>
     <use xlink:href="#DejaVuSans-30" transform="translate(63.623047 0)"/>
     <use xlink:href="#DejaVuSans-32" transform="translate(127.246094 0)"/>
     <use xlink:href="#DejaVuSans-30" transform="translate(190.869141 0)"/>
     <use xlink:href="#DejaVuSans-2d" transform="translate(254.492188 0)"/>
     <use xlink:href="#DejaVuSans-30" transform="translate(290.576172 0)"/>
     <use xlink:href="#DejaVuSans-38" transform="translate(354.199219 0)"/>
     <use xlink:href="#DejaVuSans-2d" transform="translate(417.822266 0)"/>
     <use xlink:href="#DejaVuSans-31" transform="translate(453.90625 0)"/>
     <use xlink:href="#DejaVuSans-32" transform="translate(517.529297 0)"/>
    </g>
    <!--  -4.19m  -->
    <g transform="translate(164.747488 199.663199) scale(0.0833 -0.0833)">
     <use xlink:href="#DejaVuSans-20"/>
     <use xlink:href="#DejaVuSans-2d" transform="translate(31.787109 0)"/>
     <use xlink:href="#DejaVuSans-34" transform="translate(67.871094 0)"/>
     <use xlink:href="#DejaVuSans-2e" transform="translate(131.494141 0)"/>
     <use xlink:href="#DejaVuSans-31" transform="translate(163.28125 0)"/>
     <use xlink:href="#DejaVuSans-39" transform="translate(226.904297 0)"/>
     <use xlink:href="#DejaVuSans-6d" transform="translate(290.527344 0)"/>
     <use xlink:href="#DejaVuSans-20" transform="translate(387.939453 0)"/>
    </g>
   </g>
   <g id="patch_13">
    <path d="M 203.833039 134.889266 
Q 209.732089 136.476908 215.631139 138.064551 
" style="fill: none; stroke: #000000; stroke-linecap: round"/>
   </g>
   <g id="text_19">
    <g id="patch_14">
     <path d="M 150.494972 138.2424 
L 198.905287 138.2424 
Q 201.404287 138.2424 201.404287 135.7434 
L 201.404287 118.353745 
Q 201.404287 115.854745 198.905287 115.854745 
L 150.494972 115.854745 
Q 147.995972 115.854745 147.995972 118.353745 
L 147.995972 135.7434 
Q 147.995972 138.2424 150.494972 138.2424 
z
" style="fill: #cccccc; stroke: #000000; stroke-linejoin: miter"/>
    </g>
    <!-- 2021-08-12 -->
    <g transform="translate(150.494972 124.683243) scale(0.0833 -0.0833)">
     <use xlink:href="#DejaVuSans-32"/>
     <use xlink:href="#DejaVuSans-30" transform="translate(63.623047 0)"/>
     <use xlink:href="#DejaVuSans-32" transform="translate(127.246094 0)"/>
     <use xlink:href="#DejaVuSans-31" transform="translate(190.869141 0)"/>
     <use xlink:href="#DejaVuSans-2d" transform="translate(254.492188 0)"/>
     <use xlink:href="#DejaVuSans-30" transform="translate(290.576172 0)"/>
     <use xlink:href="#DejaVuSans-38" transform="translate(354.199219 0)"/>
     <use xlink:href="#DejaVuSans-2d" transform="translate(417.822266 0)"/>
     <use xlink:href="#DejaVuSans-31" transform="translate(453.90625 0)"/>
     <use xlink:href="#DejaVuSans-32" transform="translate(517.529297 0)"/>
    </g>
    <!--  +5.51m  -->
    <g transform="translate(150.494972 134.011021) scale(0.0833 -0.0833)">
     <use xlink:href="#DejaVuSans-20"/>
     <use xlink:href="#DejaVuSans-2b" transform="translate(31.787109 0)"/>
     <use xlink:href="#DejaVuSans-35" transform="translate(115.576172 0)"/>
     <use xlink:href="#DejaVuSans-2e" transform="translate(179.199219 0)"/>
     <use xlink:href="#DejaVuSans-35" transform="translate(210.986328 0)"/>
     <use xlink:href="#DejaVuSans-31" transform="translate(274.609375 0)"/>
     <use xlink:href="#DejaVuSans-6d" transform="translate(338.232422 0)"/>
     <use xlink:href="#DejaVuSans-20" transform="translate(435.644531 0)"/>
    </g>
   </g>
   <g id="patch_15">
    <path d="M 268.388555 112.116216 
Q 274.287605 113.703859 280.186655 115.291501 
" style="fill: none; stroke: #000000; stroke-linecap: round"/>
   </g>
   <g id="text_20">
    <g id="patch_16">
     <path d="M 215.050488 115.469351 
L 263.460804 115.469351 
Q 265.959804 115.469351 265.959804 112.970351 
L 265.959804 95.580695 
Q 265.959804 93.081695 263.460804 93.081695 
L 215.050488 93.081695 
Q 212.551488 93.081695 212.551488 95.580695 
L 212.551488 112.970351 
Q 212.551488 115.469351 215.050488 115.469351 
z
" style="fill: #cccccc; stroke: #000000; stroke-linejoin: miter"/>
    </g>
    <!-- 2022-09-01 -->
    <g transform="translate(215.050488 101.910193) scale(0.0833 -0.0833)">
     <use xlink:href="#DejaVuSans-32"/>
     <use xlink:href="#DejaVuSans-30" transform="translate(63.623047 0)"/>
     <use xlink:href="#DejaVuSans-32" transform="translate(127.246094 0)"/>
     <use xlink:href="#DejaVuSans-32" transform="translate(190.869141 0)"/>
     <use xlink:href="#DejaVuSans-2d" transform="translate(254.492188 0)"/>
     <use xlink:href="#DejaVuSans-30" transform="translate(290.576172 0)"/>
     <use xlink:href="#DejaVuSans-39" transform="translate(354.199219 0)"/>
     <use xlink:href="#DejaVuSans-2d" transform="translate(417.822266 0)"/>
     <use xlink:href="#DejaVuSans-30" transform="translate(453.90625 0)"/>
     <use xlink:href="#DejaVuSans-31" transform="translate(517.529297 0)"/>
    </g>
    <!--  +7.61m  -->
    <g transform="translate(215.050488 111.237971) scale(0.0833 -0.0833)">
     <defs>
      <path id="DejaVuSans-37" d="M 525 4666 
L 3525 4666 
L 3525 4397 
L 1831 0 
L 1172 0 
L 2766 4134 
L 525 4134 
L 525 4666 
z
" transform="scale(0.015625)"/>
     </defs>
     <use xlink:href="#DejaVuSans-20"/>
     <use xlink:href="#DejaVuSans-2b" transform="translate(31.787109 0)"/>
     <use xlink:href="#DejaVuSans-37" transform="translate(115.576172 0)"/>
     <use xlink:href="#DejaVuSans-2e" transform="translate(179.199219 0)"/>
     <use xlink:href="#DejaVuSans-36" transform="translate(210.986328 0)"/>
     <use xlink:href="#DejaVuSans-31" transform="translate(274.609375 0)"/>
     <use xlink:href="#DejaVuSans-6d" transform="translate(338.232422 0)"/>
     <use xlink:href="#DejaVuSans-20" transform="translate(435.644531 0)"/>
    </g>
   </g>
   <g id="patch_17">
    <path d="M 299.270279 134.283668 
Q 293.974425 130.955159 288.678571 127.626649 
" style="fill: none; stroke: #000000; stroke-linecap: round"/>
   </g>
   <g id="text_21">
    <g id="patch_18">
     <path d="M 295.367611 158.237862 
L 343.777927 158.237862 
Q 346.276927 158.237862 346.276927 155.738862 
L 346.276927 138.349207 
Q 346.276927 135.850207 343.777927 135.850207 
L 295.367611 135.850207 
Q 292.868611 135.850207 292.868611 138.349207 
L 292.868611 155.738862 
Q 292.868611 158.237862 295.367611 158.237862 
z
" style="fill: #cccccc; stroke: #000000; stroke-linejoin: miter"/>
    </g>
    <!-- 2022-09-30 -->
    <g transform="translate(295.367611 144.678705) scale(0.0833 -0.0833)">
     <use xlink:href="#DejaVuSans-32"/>
     <use xlink:href="#DejaVuSans-30" transform="translate(63.623047 0)"/>
     <use xlink:href="#DejaVuSans-32" transform="translate(127.246094 0)"/>
     <use xlink:href="#DejaVuSans-32" transform="translate(190.869141 0)"/>
     <use xlink:href="#DejaVuSans-2d" transform="translate(254.492188 0)"/>
     <use xlink:href="#DejaVuSans-30" transform="translate(290.576172 0)"/>
     <use xlink:href="#DejaVuSans-39" transform="translate(354.199219 0)"/>
     <use xlink:href="#DejaVuSans-2d" transform="translate(417.822266 0)"/>
     <use xlink:href="#DejaVuSans-33" transform="translate(453.90625 0)"/>
     <use xlink:href="#DejaVuSans-30" transform="translate(517.529297 0)"/>
    </g>
    <!--  -4.98m  -->
    <g transform="translate(295.367611 154.006483) scale(0.0833 -0.0833)">
     <use xlink:href="#DejaVuSans-20"/>
     <use xlink:href="#DejaVuSans-2d" transform="translate(31.787109 0)"/>
     <use xlink:href="#DejaVuSans-34" transform="translate(67.871094 0)"/>
     <use xlink:href="#DejaVuSans-2e" transform="translate(131.494141 0)"/>
     <use xlink:href="#DejaVuSans-39" transform="translate(163.28125 0)"/>
     <use xlink:href="#DejaVuSans-38" transform="translate(226.904297 0)"/>
     <use xlink:href="#DejaVuSans-6d" transform="translate(290.527344 0)"/>
     <use xlink:href="#DejaVuSans-20" transform="translate(387.939453 0)"/>
    </g>
   </g>
   <g id="patch_19">
    <path d="M 353.735978 101.019195 
Q 359.635028 102.606837 365.534078 104.19448 
" style="fill: none; stroke: #000000; stroke-linecap: round"/>
   </g>
   <g id="text_22">
    <g id="patch_20">
     <path d="M 300.397911 104.372329 
L 348.808227 104.372329 
Q 351.307227 104.372329 351.307227 101.873329 
L 351.307227 84.483673 
Q 351.307227 81.984673 348.808227 81.984673 
L 300.397911 81.984673 
Q 297.898911 81.984673 297.898911 84.483673 
L 297.898911 101.873329 
Q 297.898911 104.372329 300.397911 104.372329 
z
" style="fill: #cccccc; stroke: #000000; stroke-linejoin: miter"/>
    </g>
    <!-- 2024-01-23 -->
    <g transform="translate(300.397911 90.813172) scale(0.0833 -0.0833)">
     <use xlink:href="#DejaVuSans-32"/>
     <use xlink:href="#DejaVuSans-30" transform="translate(63.623047 0)"/>
     <use xlink:href="#DejaVuSans-32" transform="translate(127.246094 0)"/>
     <use xlink:href="#DejaVuSans-34" transform="translate(190.869141 0)"/>
     <use xlink:href="#DejaVuSans-2d" transform="translate(254.492188 0)"/>
     <use xlink:href="#DejaVuSans-30" transform="translate(290.576172 0)"/>
     <use xlink:href="#DejaVuSans-31" transform="translate(354.199219 0)"/>
     <use xlink:href="#DejaVuSans-2d" transform="translate(417.822266 0)"/>
     <use xlink:href="#DejaVuSans-32" transform="translate(453.90625 0)"/>
     <use xlink:href="#DejaVuSans-33" transform="translate(517.529297 0)"/>
    </g>
    <!--  +4.72m  -->
    <g transform="translate(300.397911 100.14095) scale(0.0833 -0.0833)">
     <use xlink:href="#DejaVuSans-20"/>
     <use xlink:href="#DejaVuSans-2b" transform="translate(31.787109 0)"/>
     <use xlink:href="#DejaVuSans-34" transform="translate(115.576172 0)"/>
     <use xlink:href="#DejaVuSans-2e" transform="translate(179.199219 0)"/>
     <use xlink:href="#DejaVuSans-37" transform="translate(210.986328 0)"/>
     <use xlink:href="#DejaVuSans-32" transform="translate(274.609375 0)"/>
     <use xlink:href="#DejaVuSans-6d" transform="translate(338.232422 0)"/>
     <use xlink:href="#DejaVuSans-20" transform="translate(435.644531 0)"/>
    </g>
   </g>
   <g id="patch_21">
    <path d="M 422.818765 69.604882 
Q 428.717815 71.192525 434.616865 72.780167 
" style="fill: none; stroke: #000000; stroke-linecap: round"/>
   </g>
   <g id="text_23">
    <g id="patch_22">
     <path d="M 369.480698 72.958017 
L 417.891014 72.958017 
Q 420.390014 72.958017 420.390014 70.459017 
L 420.390014 53.069361 
Q 420.390014 50.570361 417.891014 50.570361 
L 369.480698 50.570361 
Q 366.981698 50.570361 366.981698 53.069361 
L 366.981698 70.459017 
Q 366.981698 72.958017 369.480698 72.958017 
z
" style="fill: #cccccc; stroke: #000000; stroke-linejoin: miter"/>
    </g>
    <!-- 2025-03-10 -->
    <g transform="translate(369.480698 59.398859) scale(0.0833 -0.0833)">
     <use xlink:href="#DejaVuSans-32"/>
     <use xlink:href="#DejaVuSans-30" transform="translate(63.623047 0)"/>
     <use xlink:href="#DejaVuSans-32" transform="translate(127.246094 0)"/>
     <use xlink:href="#DejaVuSans-35" transform="translate(190.869141 0)"/>
     <use xlink:href="#DejaVuSans-2d" transform="translate(254.492188 0)"/>
     <use xlink:href="#DejaVuSans-30" transform="translate(290.576172 0)"/>
     <use xlink:href="#DejaVuSans-33" transform="translate(354.199219 0)"/>
     <use xlink:href="#DejaVuSans-2d" transform="translate(417.822266 0)"/>
     <use xlink:href="#DejaVuSans-31" transform="translate(453.90625 0)"/>
     <use xlink:href="#DejaVuSans-30" transform="translate(517.529297 0)"/>
    </g>
    <!--  +8.65m  -->
    <g transform="translate(369.480698 68.726637) scale(0.0833 -0.0833)">
     <use xlink:href="#DejaVuSans-20"/>
     <use xlink:href="#DejaVuSans-2b" transform="translate(31.787109 0)"/>
     <use xlink:href="#DejaVuSans-38" transform="translate(115.576172 0)"/>
     <use xlink:href="#DejaVuSans-2e" transform="translate(179.199219 0)"/>
     <use xlink:href="#DejaVuSans-36" transform="translate(210.986328 0)"/>
     <use xlink:href="#DejaVuSans-35" transform="translate(274.609375 0)"/>
     <use xlink:href="#DejaVuSans-6d" transform="translate(338.232422 0)"/>
     <use xlink:href="#DejaVuSans-20" transform="translate(435.644531 0)"/>
    </g>
   </g>
   <g id="patch_23">
    <path d="M 476.475298 47.510648 
Q 482.374348 49.098291 488.273398 50.685933 
" style="fill: none; stroke: #000000; stroke-linecap: round"/>
   </g>
   <g id="text_24">
    <g id="patch_24">
     <path d="M 423.137231 50.863783 
L 471.547547 50.863783 
Q 474.046547 50.863783 474.046547 48.364783 
L 474.046547 30.975127 
Q 474.046547 28.476127 471.547547 28.476127 
L 423.137231 28.476127 
Q 420.638231 28.476127 420.638231 30.975127 
L 420.638231 48.364783 
Q 420.638231 50.863783 423.137231 50.863783 
z
" style="fill: #cccccc; stroke: #000000; stroke-linejoin: miter"/>
    </g>
    <!-- 2026-01-24 -->
    <g transform="translate(423.137231 37.304625) scale(0.0833 -0.0833)">
     <use xlink:href="#DejaVuSans-32"/>
     <use xlink:href="#DejaVuSans-30" transform="translate(63.623047 0)"/>
     <use xlink:href="#DejaVuSans-32" transform="translate(127.246094 0)"/>
     <use xlink:href="#DejaVuSans-36" transform="translate(190.869141 0)"/>
     <use xlink:href="#DejaVuSans-2d" transform="translate(254.492188 0)"/>
     <use xlink:href="#DejaVuSans-30" transform="translate(290.576172 0)"/>
     <use xlink:href="#DejaVuSans-31" transform="translate(354.199219 0)"/>
     <use xlink:href="#DejaVuSans-2d" transform="translate(417.822266 0)"/>
     <use xlink:href="#DejaVuSans-32" transform="translate(453.90625 0)"/>
     <use xlink:href="#DejaVuSans-34" transform="translate(517.529297 0)"/>
    </g>
    <!--  +4.99m  -->
    <g transform="translate(423.137231 46.632403) scale(0.0833 -0.0833)">
     <use xlink:href="#DejaVuSans-20"/>
     <use xlink:href="#DejaVuSans-2b" transform="translate(31.787109 0)"/>
     <use xlink:href="#DejaVuSans-34" transform="translate(115.576172 0)"/>
     <use xlink:href="#DejaVuSans-2e" transform="translate(179.199219 0)"/>
     <use xlink:href="#DejaVuSans-39" transform="translate(210.986328 0)"/>
     <use xlink:href="#DejaVuSans-39" transform="translate(274.609375 0)"/>
     <use xlink:href="#DejaVuSans-6d" transform="translate(338.232422 0)"/>
     <use xlink:href="#DejaVuSans-20" transform="translate(435.644531 0)"/>
    </g>
   </g>
   <g id="text_25">
    <!-- History of percentage of AWS ownership of IPv4 space -->
    <g transform="translate(118.277813 16.318125) scale(0.12 -0.12)">
     <defs>
      <path id="DejaVuSans-48" d="M 628 4666 
L 1259 4666 
L 1259 2753 
L 3553 2753 
L 3553 4666 
L 4184 4666 
L 4184 0 
L 3553 0 
L 3553 2222 
L 1259 2222 
L 1259 0 
L 628 0 
L 628 4666 
z
" transform="scale(0.015625)"/>
      <path id="DejaVuSans-69" d="M 603 3500 
L 1178 3500 
L 1178 0 
L 603 0 
L 603 3500 
z
M 603 4863 
L 1178 4863 
L 1178 4134 
L 603 4134 
L 603 4863 
z
" transform="scale(0.015625)"/>
      <path id="DejaVuSans-73" d="M 2834 3397 
L 2834 2853 
Q 2591 2978 2328 3040 
Q 2066 3103 1784 3103 
Q 1356 3103 1142 2972 
Q 928 2841 928 2578 
Q 928 2378 1081 2264 
Q 1234 2150 1697 2047 
L 1894 2003 
Q 2506 1872 2764 1633 
Q 3022 1394 3022 966 
Q 3022 478 2636 193 
Q 2250 -91 1575 -91 
Q 1294 -91 989 -36 
Q 684 19 347 128 
L 347 722 
Q 666 556 975 473 
Q 1284 391 1588 391 
Q 1994 391 2212 530 
Q 2431 669 2431 922 
Q 2431 1156 2273 1281 
Q 2116 1406 1581 1522 
L 1381 1569 
Q 847 1681 609 1914 
Q 372 2147 372 2553 
Q 372 3047 722 3315 
Q 1072 3584 1716 3584 
Q 2034 3584 2315 3537 
Q 2597 3491 2834 3397 
z
" transform="scale(0.015625)"/>
      <path id="DejaVuSans-74" d="M 1172 4494 
L 1172 3500 
L 2356 3500 
L 2356 3053 
L 1172 3053 
L 1172 1153 
Q 1172 725 1289 603 
Q 1406 481 1766 481 
L 2356 481 
L 2356 0 
L 1766 0 
Q 1100 0 847 248 
Q 594 497 594 1153 
L 594 3053 
L 172 3053 
L 172 3500 
L 594 3500 
L 594 4494 
L 1172 4494 
z
" transform="scale(0.015625)"/>
      <path id="DejaVuSans-6f" d="M 1959 3097 
Q 1497 3097 1228 2736 
Q 959 2375 959 1747 
Q 959 1119 1226 758 
Q 1494 397 1959 397 
Q 2419 397 2687 759 
Q 2956 1122 2956 1747 
Q 2956 2369 2687 2733 
Q 2419 3097 1959 3097 
z
M 1959 3584 
Q 2709 3584 3137 3096 
Q 3566 2609 3566 1747 
Q 3566 888 3137 398 
Q 2709 -91 1959 -91 
Q 1206 -91 779 398 
Q 353 888 353 1747 
Q 353 2609 779 3096 
Q 1206 3584 1959 3584 
z
" transform="scale(0.015625)"/>
      <path id="DejaVuSans-72" d="M 2631 2963 
Q 2534 3019 2420 3045 
Q 2306 3072 2169 3072 
Q 1681 3072 1420 2755 
Q 1159 2438 1159 1844 
L 1159 0 
L 581 0 
L 581 3500 
L 1159 3500 
L 1159 2956 
Q 1341 3275 1631 3429 
Q 1922 3584 2338 3584 
Q 2397 3584 2469 3576 
Q 2541 3569 2628 3553 
L 2631 2963 
z
" transform="scale(0.015625)"/>
      <path id="DejaVuSans-79" d="M 2059 -325 
Q 1816 -950 1584 -1140 
Q 1353 -1331 966 -1331 
L 506 -1331 
L 506 -850 
L 844 -850 
Q 1081 -850 1212 -737 
Q 1344 -625 1503 -206 
L 1606 56 
L 191 3500 
L 800 3500 
L 1894 763 
L 2988 3500 
L 3597 3500 
L 2059 -325 
z
" transform="scale(0.015625)"/>
      <path id="DejaVuSans-66" d="M 2375 4863 
L 2375 4384 
L 1825 4384 
Q 1516 4384 1395 4259 
Q 1275 4134 1275 3809 
L 1275 3500 
L 2222 3500 
L 2222 3053 
L 1275 3053 
L 1275 0 
L 697 0 
L 697 3053 
L 147 3053 
L 147 3500 
L 697 3500 
L 697 3744 
Q 697 4328 969 4595 
Q 1241 4863 1831 4863 
L 2375 4863 
z
" transform="scale(0.015625)"/>
      <path id="DejaVuSans-70" d="M 1159 525 
L 1159 -1331 
L 581 -1331 
L 581 3500 
L 1159 3500 
L 1159 2969 
Q 1341 3281 1617 3432 
Q 1894 3584 2278 3584 
Q 2916 3584 3314 3078 
Q 3713 2572 3713 1747 
Q 3713 922 3314 415 
Q 2916 -91 2278 -91 
Q 1894 -91 1617 61 
Q 1341 213 1159 525 
z
M 3116 1747 
Q 3116 2381 2855 2742 
Q 2594 3103 2138 3103 
Q 1681 3103 1420 2742 
Q 1159 2381 1159 1747 
Q 1159 1113 1420 752 
Q 1681 391 2138 391 
Q 2594 391 2855 752 
Q 3116 1113 3116 1747 
z
" transform="scale(0.015625)"/>
      <path id="DejaVuSans-65" d="M 3597 1894 
L 3597 1613 
L 953 1613 
Q 991 1019 1311 708 
Q 1631 397 2203 397 
Q 2534 397 2845 478 
Q 3156 559 3463 722 
L 3463 178 
Q 3153 47 2828 -22 
Q 2503 -91 2169 -91 
Q 1331 -91 842 396 
Q 353 884 353 1716 
Q 353 2575 817 3079 
Q 1281 3584 2069 3584 
Q 2775 3584 3186 3129 
Q 3597 2675 3597 1894 
z
M 3022 2063 
Q 3016 2534 2758 2815 
Q 2500 3097 2075 3097 
Q 1594 3097 1305 2825 
Q 1016 2553 972 2059 
L 3022 2063 
z
" transform="scale(0.015625)"/>
      <path id="DejaVuSans-63" d="M 3122 3366 
L 3122 2828 
Q 2878 2963 2633 3030 
Q 2388 3097 2138 3097 
Q 1578 3097 1268 2742 
Q 959 2388 959 1747 
Q 959 1106 1268 751 
Q 1578 397 2138 397 
Q 2388 397 2633 464 
Q 2878 531 3122 666 
L 3122 134 
Q 2881 22 2623 -34 
Q 2366 -91 2075 -91 
Q 1284 -91 818 406 
Q 353 903 353 1747 
Q 353 2603 823 3093 
Q 1294 3584 2113 3584 
Q 2378 3584 2631 3529 
Q 2884 3475 3122 3366 
z
" transform="scale(0.015625)"/>
      <path id="DejaVuSans-6e" d="M 3513 2113 
L 3513 0 
L 2938 0 
L 2938 2094 
Q 2938 2591 2744 2837 
Q 2550 3084 2163 3084 
Q 1697 3084 1428 2787 
Q 1159 2491 1159 1978 
L 1159 0 
L 581 0 
L 581 3500 
L 1159 3500 
L 1159 2956 
Q 1366 3272 1645 3428 
Q 1925 3584 2291 3584 
Q 2894 3584 3203 3211 
Q 3513 2838 3513 2113 
z
" transform="scale(0.015625)"/>
      <path id="DejaVuSans-61" d="M 2194 1759 
Q 1497 1759 1228 1600 
Q 959 1441 959 1056 
Q 959 750 1161 570 
Q 1363 391 1709 391 
Q 2188 391 2477 730 
Q 2766 1069 2766 1631 
L 2766 1759 
L 2194 1759 
z
M 3341 1997 
L 3341 0 
L 2766 0 
L 2766 531 
Q 2569 213 2275 61 
Q 1981 -91 1556 -91 
Q 1019 -91 701 211 
Q 384 513 384 1019 
Q 384 1609 779 1909 
Q 1175 2209 1959 2209 
L 2766 2209 
L 2766 2266 
Q 2766 2663 2505 2880 
Q 2244 3097 1772 3097 
Q 1472 3097 1187 3025 
Q 903 2953 641 2809 
L 641 3341 
Q 956 3463 1253 3523 
Q 1550 3584 1831 3584 
Q 2591 3584 2966 3190 
Q 3341 2797 3341 1997 
z
" transform="scale(0.015625)"/>
      <path id="DejaVuSans-67" d="M 2906 1791 
Q 2906 2416 2648 2759 
Q 2391 3103 1925 3103 
Q 1463 3103 1205 2759 
Q 947 2416 947 1791 
Q 947 1169 1205 825 
Q 1463 481 1925 481 
Q 2391 481 2648 825 
Q 2906 1169 2906 1791 
z
M 3481 434 
Q 3481 -459 3084 -895 
Q 2688 -1331 1869 -1331 
Q 1566 -1331 1297 -1286 
Q 1028 -1241 775 -1147 
L 775 -588 
Q 1028 -725 1275 -790 
Q 1522 -856 1778 -856 
Q 2344 -856 2625 -561 
Q 2906 -266 2906 331 
L 2906 616 
Q 2728 306 2450 153 
Q 2172 0 1784 0 
Q 1141 0 747 490 
Q 353 981 353 1791 
Q 353 2603 747 3093 
Q 1141 3584 1784 3584 
Q 2172 3584 2450 3431 
Q 2728 3278 2906 2969 
L 2906 3500 
L 3481 3500 
L 3481 434 
z
" transform="scale(0.015625)"/>
      <path id="DejaVuSans-41" d="M 2188 4044 
L 1331 1722 
L 3047 1722 
L 2188 4044 
z
M 1831 4666 
L 2547 4666 
L 4325 0 
L 3669 0 
L 3244 1197 
L 1141 1197 
L 716 0 
L 50 0 
L 1831 4666 
z
" transform="scale(0.015625)"/>
      <path id="DejaVuSans-57" d="M 213 4666 
L 850 4666 
L 1831 722 
L 2809 4666 
L 3519 4666 
L 4500 722 
L 5478 4666 
L 6119 4666 
L 4947 0 
L 4153 0 
L 3169 4050 
L 2175 0 
L 1381 0 
L 213 4666 
z
" transform="scale(0.015625)"/>
      <path id="DejaVuSans-53" d="M 3425 4513 
L 3425 3897 
Q 3066 4069 2747 4153 
Q 2428 4238 2131 4238 
Q 1616 4238 1336 4038 
Q 1056 3838 1056 3469 
Q 1056 3159 1242 3001 
Q 1428 2844 1947 2747 
L 2328 2669 
Q 3034 2534 3370 2195 
Q 3706 1856 3706 1288 
Q 3706 609 3251 259 
Q 2797 -91 1919 -91 
Q 1588 -91 1214 -16 
Q 841 59 441 206 
L 441 856 
Q 825 641 1194 531 
Q 1563 422 1919 422 
Q 2459 422 2753 634 
Q 3047 847 3047 1241 
Q 3047 1584 2836 1778 
Q 2625 1972 2144 2069 
L 1759 2144 
Q 1053 2284 737 2584 
Q 422 2884 422 3419 
Q 422 4038 858 4394 
Q 1294 4750 2059 4750 
Q 2388 4750 2728 4690 
Q 3069 4631 3425 4513 
z
" transform="scale(0.015625)"/>
      <path id="DejaVuSans-77" d="M 269 3500 
L 844 3500 
L 1563 769 
L 2278 3500 
L 2956 3500 
L 3675 769 
L 4391 3500 
L 4966 3500 
L 4050 0 
L 3372 0 
L 2619 2869 
L 1863 0 
L 1184 0 
L 269 3500 
z
" transform="scale(0.015625)"/>
      <path id="DejaVuSans-68" d="M 3513 2113 
L 3513 0 
L 2938 0 
L 2938 2094 
Q 2938 2591 2744 2837 
Q 2550 3084 2163 3084 
Q 1697 3084 1428 2787 
Q 1159 2491 1159 1978 
L 1159 0 
L 581 0 
L 581 4863 
L 1159 4863 
L 1159 2956 
Q 1366 3272 1645 3428 
Q 1925 3584 2291 3584 
Q 2894 3584 3203 3211 
Q 3513 2838 3513 2113 
z
" transform="scale(0.015625)"/>
      <path id="DejaVuSans-49" d="M 628 4666 
L 1259 4666 
L 1259 0 
L 628 0 
L 628 4666 
z
" transform="scale(0.015625)"/>
      <path id="DejaVuSans-50" d="M 1259 4147 
L 1259 2394 
L 2053 2394 
Q 2494 2394 2734 2622 
Q 2975 2850 2975 3272 
Q 2975 3691 2734 3919 
Q 2494 4147 2053 4147 
L 1259 4147 
z
M 628 4666 
L 2053 4666 
Q 2838 4666 3239 4311 
Q 3641 3956 3641 3272 
Q 3641 2581 3239 2228 
Q 2838 1875 2053 1875 
L 1259 1875 
L 1259 0 
L 628 0 
L 628 4666 
z
" transform="scale(0.015625)"/>
      <path id="DejaVuSans-76" d="M 191 3500 
L 800 3500 
L 1894 563 
L 2988 3500 
L 3597 3500 
L 2284 0 
L 1503 0 
L 191 3500 
z
" transform="scale(0.015625)"/>
     </defs>
     <use xlink:href="#DejaVuSans-48"/>
     <use xlink:href="#DejaVuSans-69" transform="translate(75.195312 0)"/>
     <use xlink:href="#DejaVuSans-73" transform="translate(102.978516 0)"/>
     <use xlink:href="#DejaVuSans-74" transform="translate(155.078125 0)"/>
     <use xlink:href="#DejaVuSans-6f" transform="translate(194.287109 0)"/>
     <use xlink:href="#DejaVuSans-72" transform="translate(255.46875 0)"/>
     <use xlink:href="#DejaVuSans-79" transform="translate(296.582031 0)"/>
     <use xlink:href="#DejaVuSans-20" transform="translate(355.761719 0)"/>
     <use xlink:href="#DejaVuSans-6f" transform="translate(387.548828 0)"/>
     <use xlink:href="#DejaVuSans-66" transform="translate(448.730469 0)"/>
     <use xlink:href="#DejaVuSans-20" transform="translate(483.935547 0)"/>
     <use xlink:href="#DejaVuSans-70" transform="translate(515.722656 0)"/>
     <use xlink:href="#DejaVuSans-65" transform="translate(579.199219 0)"/>
     <use xlink:href="#DejaVuSans-72" transform="translate(640.722656 0)"/>
     <use xlink:href="#DejaVuSans-63" transform="translate(679.585938 0)"/>
     <use xlink:href="#DejaVuSans-65" transform="translate(734.566406 0)"/>
     <use xlink:href="#DejaVuSans-6e" transform="translate(796.089844 0)"/>
     <use xlink:href="#DejaVuSans-74" transform="translate(859.46875 0)"/>
     <use xlink:href="#DejaVuSans-61" transform="translate(898.677734 0)"/>
     <use xlink:href="#DejaVuSans-67" transform="translate(959.957031 0)"/>
     <use xlink:href="#DejaVuSans-65" transform="translate(1023.433594 0)"/>
     <use xlink:href="#DejaVuSans-20" transform="translate(1084.957031 0)"/>
     <use xlink:href="#DejaVuSans-6f" transform="translate(1116.744141 0)"/>
     <use xlink:href="#DejaVuSans-66" transform="translate(1177.925781 0)"/>
     <use xlink:href="#DejaVuSans-20" transform="translate(1213.130859 0)"/>
     <use xlink:href="#DejaVuSans-41" transform="translate(1244.917969 0)"/>
     <use xlink:href="#DejaVuSans-57" transform="translate(1307.826172 0)"/>
     <use xlink:href="#DejaVuSans-53" transform="translate(1406.703125 0)"/>
     <use xlink:href="#DejaVuSans-20" transform="translate(1470.179688 0)"/>
     <use xlink:href="#DejaVuSans-6f" transform="translate(1501.966797 0)"/>
     <use xlink:href="#DejaVuSans-77" transform="translate(1563.148438 0)"/>
     <use xlink:href="#DejaVuSans-6e" transform="translate(1644.935547 0)"/>
     <use xlink:href="#DejaVuSans-65" transform="translate(1708.314453 0)"/>
     <use xlink:href="#DejaVuSans-72" transform="translate(1769.837891 0)"/>
     <use xlink:href="#DejaVuSans-73" transform="translate(1810.951172 0)"/>
     <use xlink:href="#DejaVuSans-68" transform="translate(1863.050781 0)"/>
     <use xlink:href="#DejaVuSans-69" transform="translate(1926.429688 0)"/>
     <use xlink:href="#DejaVuSans-70" transform="translate(1954.212891 0)"/>
     <use xlink:href="#DejaVuSans-20" transform="translate(2017.689453 0)"/>
     <use xlink:href="#DejaVuSans-6f" transform="translate(2049.476562 0)"/>
     <use xlink:href="#DejaVuSans-66" transform="translate(2110.658203 0)"/>
     <use xlink:href="#DejaVuSans-20" transform="translate(2145.863281 0)"/>
     <use xlink:href="#DejaVuSans-49" transform="translate(2177.650391 0)"/>
     <use xlink:href="#DejaVuSans-50" transform="translate(2207.142578 0)"/>
     <use xlink:href="#DejaVuSans-76" transform="translate(2267.445312 0)"/>
     <use xlink:href="#DejaVuSans-34" transform="translate(2326.625 0)"/>
     <use xlink:href="#DejaVuSans-20" transform="translate(2390.248047 0)"/>
     <use xlink:href="#DejaVuSans-73" transform="translate(2422.035156 0)"/>
     <use xlink:href="#DejaVuSans-70" transform="translate(2474.134766 0)"/>
     <use xlink:href="#DejaVuSans-61" transform="translate(2537.611328 0)"/>
     <use xlink:href="#DejaVuSans-63" transform="translate(2598.890625 0)"/>
     <use xlink:href="#DejaVuSans-65" transform="translate(2653.871094 0)"/>
    </g>
   </g>
  </g>
 </g>
 <defs>
  <clipPath id="p6d14471b0e">
   <rect x="30.103125" y="22.318125" width="502.2" height="277.2"/>
  </clipPath>
 </defs>
</svg>
