<?xml version="1.0" encoding="utf-8" standalone="no"?>
<!DOCTYPE svg PUBLIC "-//W3C//DTD SVG 1.1//EN"
  "http://www.w3.org/Graphics/SVG/1.1/DTD/svg11.dtd">
<svg xmlns:xlink="http://www.w3.org/1999/xlink" width="539.503125pt" height="323.39625pt" viewBox="0 0 539.503125 323.39625" xmlns="http://www.w3.org/2000/svg" version="1.1">
 
 <defs>
  <style type="text/css">*{stroke-linejoin: round; stroke-linecap: butt}</style>
 </defs>
 <g id="figure_1">
  <g id="patch_1">
   <path d="M 0 323.39625 
L 539.503125 323.39625 
L 539.503125 0 
L 0 0 
z
" style="fill: #b2b2b2"/>
  </g>
  <g id="axes_1">
   <g id="patch_2">
    <path d="M 30.103125 299.518125 
L 532.303125 299.518125 
L 532.303125 22.318125 
L 30.103125 22.318125 
z
" style="fill: #e6e6e6"/>
   </g>
   <g id="matplotlib.axis_1">
    <g id="xtick_1">
     <g id="line2d_1">
      <defs>
       <path id="ma78f911f2e" d="M 0 0 
L 0 3.5 
" style="stroke: #000000; stroke-width: 0.8"/>
      </defs>
      <g>
       <use xlink:href="#ma78f911f2e" x="71.183908" y="299.518125" style="stroke: #000000; stroke-width: 0.8"/>
      </g>
     </g>
     <g id="text_1">
      <!-- 2019 -->
      <g transform="translate(58.458908 314.116563) scale(0.1 -0.1)">
       <defs>
        <path id="DejaVuSans-32" d="M 1228 531 
L 3431 531 
L 3431 0 
L 469 0 
L 469 531 
Q 828 903 1448 1529 
Q 2069 2156 2228 2338 
Q 2531 2678 2651 2914 
Q 2772 3150 2772 3378 
Q 2772 3750 2511 3984 
Q 2250 4219 1831 4219 
Q 1534 4219 1204 4116 
Q 875 4013 500 3803 
L 500 4441 
Q 881 4594 1212 4672 
Q 1544 4750 1819 4750 
Q 2544 4750 2975 4387 
Q 3406 4025 3406 3419 
Q 3406 3131 3298 2873 
Q 3191 2616 2906 2266 
Q 2828 2175 2409 1742 
Q 1991 1309 1228 531 
z
" transform="scale(0.015625)"/>
        <path id="DejaVuSans-30" d="M 2034 4250 
Q 1547 4250 1301 3770 
Q 1056 3291 1056 2328 
Q 1056 1369 1301 889 
Q 1547 409 2034 409 
Q 2525 409 2770 889 
Q 3016 1369 3016 2328 
Q 3016 3291 2770 3770 
Q 2525 4250 2034 4250 
z
M 2034 4750 
Q 2819 4750 3233 4129 
Q 3647 3509 3647 2328 
Q 3647 1150 3233 529 
Q 2819 -91 2034 -91 
Q 1250 -91 836 529 
Q 422 1150 422 2328 
Q 422 3509 836 4129 
Q 1250 4750 2034 4750 
z
" transform="scale(0.015625)"/>
        <path id="DejaVuSans-31" d="M 794 531 
L 1825 531 
L 1825 4091 
L 703 3866 
L 703 4441 
L 1819 4666 
L 2450 4666 
L 2450 531 
L 3481 531 
L 3481 0 
L 794 0 
L 794 531 
z
" transform="scale(0.015625)"/>
        <path id="DejaVuSans-39" d="M 703 97 
L 703 672 
Q 941 559 1184 500 
Q 1428 441 1663 441 
Q 2288 441 2617 861 
Q 2947 1281 2994 2138 
Q 2813 1869 2534 1725 
Q 2256 1581 1919 1581 
Q 1219 1581 811 2004 
Q 403 2428 403 3163 
Q 403 3881 828 4315 
Q 1253 4750 1959 4750 
Q 2769 4750 3195 4129 
Q 3622 3509 3622 2328 
Q 3622 1225 3098 567 
Q 2575 -91 1691 -91 
Q 1453 -91 1209 -44 
Q 966 3 703 97 
z
M 1959 2075 
Q 2384 2075 2632 2365 
Q 2881 2656 2881 3163 
Q 2881 3666 2632 3958 
Q 2384 4250 1959 4250 
Q 1534 4250 1286 3958 
Q 1038 3666 1038 3163 
Q 1038 2656 1286 2365 
Q 1534 2075 1959 2075 
z
" transform="scale(0.015625)"/>
       </defs>
       <use xlink:href="#DejaVuSans-32"/>
       <use xlink:href="#DejaVuSans-30" transform="translate(63.623047 0)"/>
       <use xlink:href="#DejaVuSans-31" transform="translate(127.246094 0)"/>
       <use xlink:href="#DejaVuSans-39" transform="translate(190.869141 0)"/>
      </g>
     </g>
    </g>
    <g id="xtick_2">
     <g id="line2d_2">
      <g>
       <use xlink:href="#ma78f911f2e" x="132.385892" y="299.518125" style="stroke: #000000; stroke-width: 0.8"/>
      </g>
     </g>
     <g id="text_2">
      <!-- 2020 -->
      <g transform="translate(119.660892 314.116563) scale(0.1 -0.1)">
       <use xlink:href="#DejaVuSans-32"/>
       <use xlink:href="#DejaVuSans-30" transform="translate(63.623047 0)"/>
       <use xlink:href="#DejaVuSans-32" transform="translate(127.246094 0)"/>
       <use xlink:href="#DejaVuSans-30" transform="translate(190.869141 0)"/>
      </g>
     </g>
    </g>
    <g id="xtick_3">
     <g id="line2d_3">
      <g>
       <use xlink:href="#ma78f911f2e" x="193.755552" y="299.518125" style="stroke: #000000; stroke-width: 0.8"/>
      </g>
     </g>
     <g id="text_3">
      <!-- 2021 -->
      <g transform="translate(181.030552 314.116563) scale(0.1 -0.1)">
       <use xlink:href="#DejaVuSans-32"/>
       <use xlink:href="#DejaVuSans-30" transform="translate(63.623047 0)"/>
       <use xlink:href="#DejaVuSans-32" transform="translate(127.246094 0)"/>
       <use xlink:href="#DejaVuSans-31" transform="translate(190.869141 0)"/>
      </g>
     </g>
    </g>
    <g id="xtick_4">
     <g id="line2d_4">
      <g>
       <use xlink:href="#ma78f911f2e" x="254.957535" y="299.518125" style="stroke: #000000; stroke-width: 0.8"/>
      </g>
     </g>
     <g id="text_4">
      <!-- 2022 -->
      <g transform="translate(242.232535 314.116563) scale(0.1 -0.1)">
       <use xlink:href="#DejaVuSans-32"/>
       <use xlink:href="#DejaVuSans-30" transform="translate(63.623047 0)"/>
       <use xlink:href="#DejaVuSans-32" transform="translate(127.246094 0)"/>
       <use xlink:href="#DejaVuSans-32" transform="translate(190.869141 0)"/>
      </g>
     </g>
    </g>
    <g id="xtick_5">
     <g id="line2d_5">
      <g>
       <use xlink:href="#ma78f911f2e" x="316.159518" y="299.518125" style="stroke: #000000; stroke-width: 0.8"/>
      </g>
     </g>
     <g id="text_5">
      <!-- 2023 -->
      <g transform="translate(303.434518 314.116563) scale(0.1 -0.1)">
       <defs>
        <path id="DejaVuSans-33" d="M 2597 2516 
Q 3050 2419 3304 2112 
Q 3559 1806 3559 1356 
Q 3559 666 3084 287 
Q 2609 -91 1734 -91 
Q 1441 -91 1130 -33 
Q 819 25 488 141 
L 488 750 
Q 750 597 1062 519 
Q 1375 441 1716 441 
Q 2309 441 2620 675 
Q 2931 909 2931 1356 
Q 2931 1769 2642 2001 
Q 2353 2234 1838 2234 
L 1294 2234 
L 1294 2753 
L 1863 2753 
Q 2328 2753 2575 2939 
Q 2822 3125 2822 3475 
Q 2822 3834 2567 4026 
Q 2313 4219 1838 4219 
Q 1578 4219 1281 4162 
Q 984 4106 628 3988 
L 628 4550 
Q 988 4650 1302 4700 
Q 1616 4750 1894 4750 
Q 2613 4750 3031 4423 
Q 3450 4097 3450 3541 
Q 3450 3153 3228 2886 
Q 3006 2619 2597 2516 
z
" transform="scale(0.015625)"/>
       </defs>
       <use xlink:href="#DejaVuSans-32"/>
       <use xlink:href="#DejaVuSans-30" transform="translate(63.623047 0)"/>
       <use xlink:href="#DejaVuSans-32" transform="translate(127.246094 0)"/>
       <use xlink:href="#DejaVuSans-33" transform="translate(190.869141 0)"/>
      </g>
     </g>
    </g>
    <g id="xtick_6">
     <g id="line2d_6">
      <g>
       <use xlink:href="#ma78f911f2e" x="377.361501" y="299.518125" style="stroke: #000000; stroke-width: 0.8"/>
      </g>
     </g>
     <g id="text_6">
      <!-- 2024 -->
      <g transform="translate(364.636501 314.116563) scale(0.1 -0.1)">
       <defs>
        <path id="DejaVuSans-34" d="M 2419 4116 
L 825 1625 
L 2419 1625 
L 2419 4116 
z
M 2253 4666 
L 3047 4666 
L 3047 1625 
L 3713 1625 
L 3713 1100 
L 3047 1100 
L 3047 0 
L 2419 0 
L 2419 1100 
L 313 1100 
L 313 1709 
L 2253 4666 
z
" transform="scale(0.015625)"/>
       </defs>
       <use xlink:href="#DejaVuSans-32"/>
       <use xlink:href="#DejaVuSans-30" transform="translate(63.623047 0)"/>
       <use xlink:href="#DejaVuSans-32" transform="translate(127.246094 0)"/>
       <use xlink:href="#DejaVuSans-34" transform="translate(190.869141 0)"/>
      </g>
     </g>
    </g>
    <g id="xtick_7">
     <g id="line2d_7">
      <g>
       <use xlink:href="#ma78f911f2e" x="438.731161" y="299.518125" style="stroke: #000000; stroke-width: 0.8"/>
      </g>
     </g>
     <g id="text_7">
      <!-- 2025 -->
      <g transform="translate(426.006161 314.116563) scale(0.1 -0.1)">
       <defs>
        <path id="DejaVuSans-35" d="M 691 4666 
L 3169 4666 
L 3169 4134 
L 1269 4134 
L 1269 2991 
Q 1406 3038 1543 3061 
Q 1681 3084 1819 3084 
Q 2600 3084 3056 2656 
Q 3513 2228 3513 1497 
Q 3513 744 3044 326 
Q 2575 -91 1722 -91 
Q 1428 -91 1123 -41 
Q 819 9 494 109 
L 494 744 
Q 775 591 1075 516 
Q 1375 441 1709 441 
Q 2250 441 2565 725 
Q 2881 1009 2881 1497 
Q 2881 1984 2565 2268 
Q 2250 2553 1709 2553 
Q 1456 2553 1204 2497 
Q 953 2441 691 2322 
L 691 4666 
z
" transform="scale(0.015625)"/>
       </defs>
       <use xlink:href="#DejaVuSans-32"/>
       <use xlink:href="#DejaVuSans-30" transform="translate(63.623047 0)"/>
       <use xlink:href="#DejaVuSans-32" transform="translate(127.246094 0)"/>
       <use xlink:href="#DejaVuSans-35" transform="translate(190.869141 0)"/>
      </g>
     </g>
    </g>
    <g id="xtick_8">
     <g id="line2d_8">
      <g>
       <use xlink:href="#ma78f911f2e" x="499.933145" y="299.518125" style="stroke: #000000; stroke-width: 0.8"/>
      </g>
     </g>
     <g id="text_8">
      <!-- 2026 -->
      <g transform="translate(487.208145 314.116563) scale(0.1 -0.1)">
       <defs>
        <path id="DejaVuSans-36" d="M 2113 2584 
Q 1688 2584 1439 2293 
Q 1191 2003 1191 1497 
Q 1191 994 1439 701 
Q 1688 409 2113 409 
Q 2538 409 2786 701 
Q 3034 994 3034 1497 
Q 3034 2003 2786 2293 
Q 2538 2584 2113 2584 
z
M 3366 4563 
L 3366 3988 
Q 3128 4100 2886 4159 
Q 2644 4219 2406 4219 
Q 1781 4219 1451 3797 
Q 1122 3375 1075 2522 
Q 1259 2794 1537 2939 
Q 1816 3084 2150 3084 
Q 2853 3084 3261 2657 
Q 3669 2231 3669 1497 
Q 3669 778 3244 343 
Q 2819 -91 2113 -91 
Q 1303 -91 875 529 
Q 447 1150 447 2328 
Q 447 3434 972 4092 
Q 1497 4750 2381 4750 
Q 2619 4750 2861 4703 
Q 3103 4656 3366 4563 
z
" transform="scale(0.015625)"/>
       </defs>
       <use xlink:href="#DejaVuSans-32"/>
       <use xlink:href="#DejaVuSans-30" transform="translate(63.623047 0)"/>
       <use xlink:href="#DejaVuSans-32" transform="translate(127.246094 0)"/>
       <use xlink:href="#DejaVuSans-36" transform="translate(190.869141 0)"/>
      </g>
     </g>
    </g>
   </g>
   <g id="matplotlib.axis_2">
    <g id="ytick_1">
     <g id="line2d_9">
      <defs>
       <path id="ma562af20d9" d="M 0 0 
L -3.5 0 
" style="stroke: #000000; stroke-width: 0.8"/>
      </defs>
      <g>
       <use xlink:href="#ma562af20d9" x="30.103125" y="299.518125" style="stroke: #000000; stroke-width: 0.8"/>
      </g>
     </g>
     <g id="text_9">
      <!-- 0.0 -->
      <g transform="translate(7.2 303.317344) scale(0.1 -0.1)">
       <defs>
        <path id="DejaVuSans-2e" d="M 684 794 
L 1344 794 
L 1344 0 
L 684 0 
L 684 794 
z
" transform="scale(0.015625)"/>
       </defs>
       <use xlink:href="#DejaVuSans-30"/>
       <use xlink:href="#DejaVuSans-2e" transform="translate(63.623047 0)"/>
       <use xlink:href="#DejaVuSans-30" transform="translate(95.410156 0)"/>
      </g>
     </g>
    </g>
    <g id="ytick_2">
     <g id="line2d_10">
      <g>
       <use xlink:href="#ma562af20d9" x="30.103125" y="253.674092" style="stroke: #000000; stroke-width: 0.8"/>
      </g>
     </g>
     <g id="text_10">
      <!-- 0.5 -->
      <g transform="translate(7.2 257.473311) scale(0.1 -0.1)">
       <use xlink:href="#DejaVuSans-30"/>
       <use xlink:href="#DejaVuSans-2e" transform="translate(63.623047 0)"/>
       <use xlink:href="#DejaVuSans-35" transform="translate(95.410156 0)"/>
      </g>
     </g>
    </g>
    <g id="ytick_3">
     <g id="line2d_11">
      <g>
       <use xlink:href="#ma562af20d9" x="30.103125" y="207.83006" style="stroke: #000000; stroke-width: 0.8"/>
      </g>
     </g>
     <g id="text_11">
      <!-- 1.0 -->
      <g transform="translate(7.2 211.629278) scale(0.1 -0.1)">
       <use xlink:href="#DejaVuSans-31"/>
       <use xlink:href="#DejaVuSans-2e" transform="translate(63.623047 0)"/>
       <use xlink:href="#DejaVuSans-30" transform="translate(95.410156 0)"/>
      </g>
     </g>
    </g>
    <g id="ytick_4">
     <g id="line2d_12">
      <g>
       <use xlink:href="#ma562af20d9" x="30.103125" y="161.986027" style="stroke: #000000; stroke-width: 0.8"/>
      </g>
     </g>
     <g id="text_12">
      <!-- 1.5 -->
      <g transform="translate(7.2 165.785246) scale(0.1 -0.1)">
       <use xlink:href="#DejaVuSans-31"/>
       <use xlink:href="#DejaVuSans-2e" transform="translate(63.623047 0)"/>
       <use xlink:href="#DejaVuSans-35" transform="translate(95.410156 0)"/>
      </g>
     </g>
    </g>
    <g id="ytick_5">
     <g id="line2d_13">
      <g>
       <use xlink:href="#ma562af20d9" x="30.103125" y="116.141994" style="stroke: #000000; stroke-width: 0.8"/>
      </g>
     </g>
     <g id="text_13">
      <!-- 2.0 -->
      <g transform="translate(7.2 119.941213) scale(0.1 -0.1)">
       <use xlink:href="#DejaVuSans-32"/>
       <use xlink:href="#DejaVuSans-2e" transform="translate(63.623047 0)"/>
       <use xlink:href="#DejaVuSans-30" transform="translate(95.410156 0)"/>
      </g>
     </g>
    </g>
    <g id="ytick_6">
     <g id="line2d_14">
      <g>
       <use xlink:href="#ma562af20d9" x="30.103125" y="70.297962" style="stroke: #000000; stroke-width: 0.8"/>
      </g>
     </g>
     <g id="text_14">
      <!-- 2.5 -->
      <g transform="translate(7.2 74.09718) scale(0.1 -0.1)">
       <use xlink:href="#DejaVuSans-32"/>
       <use xlink:href="#DejaVuSans-2e" transform="translate(63.623047 0)"/>
       <use xlink:href="#DejaVuSans-35" transform="translate(95.410156 0)"/>
      </g>
     </g>
    </g>
    <g id="ytick_7">
     <g id="line2d_15">
      <g>
       <use xlink:href="#ma562af20d9" x="30.103125" y="24.453929" style="stroke: #000000; stroke-width: 0.8"/>
      </g>
     </g>
     <g id="text_15">
      <!-- 3.0 -->
      <g transform="translate(7.2 28.253148) scale(0.1 -0.1)">
       <use xlink:href="#DejaVuSans-33"/>
       <use xlink:href="#DejaVuSans-2e" transform="translate(63.623047 0)"/>
       <use xlink:href="#DejaVuSans-30" transform="translate(95.410156 0)"/>
      </g>
     </g>
    </g>
   </g>
   <g id="line2d_16">
    <path d="M 9.981925 299.518125 
L 9.981925 22.318125 
" clip-path="url(#p6d14471b0e)" style="fill: none; stroke: #cccccc; stroke-linecap: square"/>
   </g>
   <g id="line2d_17">
    <path d="M 71.183908 299.518125 
L 71.183908 22.318125 
" clip-path="url(#p6d14471b0e)" style="fill: none; stroke: #cccccc; stroke-linecap: square"/>
   </g>
   <g id="line2d_18">
    <path d="M 132.385892 299.518125 
L 132.385892 22.318125 
" clip-path="url(#p6d14471b0e)" style="fill: none; stroke: #cccccc; stroke-linecap: square"/>
   </g>
   <g id="line2d_19">
    <path d="M 193.755552 299.518125 
L 193.755552 22.318125 
" clip-path="url(#p6d14471b0e)" style="fill: none; stroke: #cccccc; stroke-linecap: square"/>
   </g>
   <g id="line2d_20">
    <path d="M 254.957535 299.518125 
L 254.957535 22.318125 
" clip-path="url(#p6d14471b0e)" style="fill: none; stroke: #cccccc; stroke-linecap: square"/>
   </g>
   <g id="line2d_21">
    <path d="M 316.159518 299.518125 
L 316.159518 22.318125 
" clip-path="url(#p6d14471b0e)" style="fill: none; stroke: #cccccc; stroke-linecap: square"/>
   </g>
   <g id="line2d_22">
    <path d="M 377.361501 299.518125 
L 377.361501 22.318125 
" clip-path="url(#p6d14471b0e)" style="fill: none; stroke: #cccccc; stroke-linecap: square"/>
   </g>
   <g id="line2d_23">
    <path d="M 438.731161 299.518125 
L 438.731161 22.318125 
" clip-path="url(#p6d14471b0e)" style="fill: none; stroke: #cccccc; stroke-linecap: square"/>
   </g>
   <g id="line2d_24">
    <path d="M 499.933145 299.518125 
L 499.933145 22.318125 
" clip-path="url(#p6d14471b0e)" style="fill: none; stroke: #cccccc; stroke-linecap: square"/>
   </g>
   <g id="line2d_25">
    <path d="M 30.103125 299.518125 
L 532.303125 299.518125 
" clip-path="url(#p6d14471b0e)" style="fill: none; stroke: #cccccc; stroke-linecap: square"/>
   </g>
   <g id="line2d_26">
    <path d="M 30.103125 276.596109 
L 532.303125 276.596109 
" clip-path="url(#p6d14471b0e)" style="fill: none; stroke: #cccccc; stroke-linecap: square"/>
   </g>
   <g id="line2d_27">
    <path d="M 30.103125 253.674092 
L 532.303125 253.674092 
" clip-path="url(#p6d14471b0e)" style="fill: none; stroke: #cccccc; stroke-linecap: square"/>
   </g>
   <g id="line2d_28">
    <path d="M 30.103125 230.752076 
L 532.303125 230.752076 
" clip-path="url(#p6d14471b0e)" style="fill: none; stroke: #cccccc; stroke-linecap: square"/>
   </g>
   <g id="line2d_29">
    <path d="M 30.103125 207.83006 
L 532.303125 207.83006 
" clip-path="url(#p6d14471b0e)" style="fill: none; stroke: #cccccc; stroke-linecap: square"/>
   </g>
   <g id="line2d_30">
    <path d="M 30.103125 184.908043 
L 532.303125 184.908043 
" clip-path="url(#p6d14471b0e)" style="fill: none; stroke: #cccccc; stroke-linecap: square"/>
   </g>
   <g id="line2d_31">
    <path d="M 30.103125 161.986027 
L 532.303125 161.986027 
" clip-path="url(#p6d14471b0e)" style="fill: none; stroke: #cccccc; stroke-linecap: square"/>
   </g>
   <g id="line2d_32">
    <path d="M 30.103125 139.064011 
L 532.303125 139.064011 
" clip-path="url(#p6d14471b0e)" style="fill: none; stroke: #cccccc; stroke-linecap: square"/>
   </g>
   <g id="line2d_33">
    <path d="M 30.103125 116.141994 
L 532.303125 116.141994 
" clip-path="url(#p6d14471b0e)" style="fill: none; stroke: #cccccc; stroke-linecap: square"/>
   </g>
   <g id="line2d_34">
    <path d="M 30.103125 93.219978 
L 532.303125 93.219978 
" clip-path="url(#p6d14471b0e)" style="fill: none; stroke: #cccccc; stroke-linecap: square"/>
   </g>
   <g id="line2d_35">
    <path d="M 30.103125 70.297962 
L 532.303125 70.297962 
" clip-path="url(#p6d14471b0e)" style="fill: none; stroke: #cccccc; stroke-linecap: square"/>
   </g>
   <g id="line2d_36">
    <path d="M 30.103125 219.488204 
L 30.270802 218.838993 
L 36.307162 218.754632 
L 36.474838 218.572041 
L 39.493018 218.572041 
L 39.660695 217.92283 
L 41.672815 217.920928 
L 41.840492 216.621872 
L 45.361702 216.623773 
L 45.529378 215.647262 
L 48.882912 215.633948 
L 49.050588 211.737413 
L 55.925332 211.735184 
L 56.093008 211.410579 
L 56.931392 211.384585 
L 59.781895 211.383322 
L 59.949572 210.084899 
L 60.787955 210.084899 
L 60.955632 209.273385 
L 62.632398 209.224568 
L 62.800075 209.873779 
L 66.153608 209.868014 
L 66.321285 209.381105 
L 67.830375 209.380471 
L 68.165728 208.404118 
L 68.668758 208.404118 
L 68.836435 202.885823 
L 71.351585 202.883287 
L 71.519262 202.23154 
L 76.046532 202.225834 
L 76.214208 202.063531 
L 82.921275 202.00662 
L 83.088952 201.356775 
L 85.604102 201.349484 
L 85.771778 201.187181 
L 86.610162 201.181475 
L 86.777838 201.019173 
L 88.622282 201.010297 
L 88.957635 200.361086 
L 89.125312 200.018728 
L 89.796018 200.018094 
L 89.963695 199.693489 
L 90.131372 199.693409 
L 90.299048 199.341809 
L 92.311168 199.339907 
L 92.478845 197.384666 
L 93.652582 197.381496 
L 93.820258 197.056103 
L 94.658642 197.053408 
L 94.826318 196.078323 
L 106.228332 195.980604 
L 106.396008 192.742151 
L 106.563685 192.741978 
L 106.731362 184.951443 
L 111.258632 184.903755 
L 111.426308 184.903755 
L 111.593985 183.44303 
L 121.319232 183.439857 
L 121.486908 181.624102 
L 121.654585 181.299497 
L 123.834382 181.294425 
L 124.002058 180.645213 
L 126.349532 180.636347 
L 126.517208 179.337925 
L 127.690945 179.337291 
L 127.858622 178.68808 
L 133.559628 178.656534 
L 133.727305 177.668135 
L 137.080838 177.640204 
L 137.248515 177.478536 
L 145.296995 177.458887 
L 147.476792 177.41576 
L 147.644468 176.938986 
L 149.824265 176.927396 
L 149.991942 176.765727 
L 150.662648 176.765093 
L 150.830325 176.414256 
L 152.171738 176.405962 
L 152.339415 173.807849 
L 155.860625 173.803406 
L 156.028302 173.519376 
L 158.375775 173.518098 
L 158.543452 173.355795 
L 160.555572 173.3941 
L 160.723248 173.051743 
L 162.064662 173.032175 
L 166.591932 172.939696 
L 166.759608 172.772956 
L 167.597992 172.771096 
L 167.933345 172.583418 
L 168.771728 172.583418 
L 168.939405 171.934207 
L 169.610112 171.934143 
L 169.777788 161.54613 
L 169.945465 171.933429 
L 174.640412 171.921188 
L 174.808088 171.20727 
L 175.981825 171.207101 
L 176.149502 171.044194 
L 177.658592 171.035274 
L 177.826268 167.946448 
L 181.682832 167.934913 
L 181.850508 164.039586 
L 186.210102 163.94703 
L 186.377778 163.596985 
L 188.892928 163.590769 
L 189.060605 163.260616 
L 191.072725 163.258635 
L 191.240402 162.917503 
L 197.444438 162.902538 
L 197.612115 162.555108 
L 197.779791 162.555108 
L 197.947468 162.20197 
L 198.282821 162.11756 
L 198.953528 162.110101 
L 199.121205 161.866641 
L 202.474738 161.839328 
L 202.642415 162.188897 
L 202.977768 162.187876 
L 203.145445 161.514573 
L 203.648475 161.514549 
L 203.816151 160.216126 
L 204.151505 160.214856 
L 204.319181 160.050483 
L 209.517158 159.945405 
L 209.684835 159.290488 
L 213.541398 159.21874 
L 213.709075 159.055974 
L 214.044428 159.055103 
L 214.212105 158.076214 
L 215.218165 158.071456 
L 215.385841 157.721404 
L 216.559578 157.690054 
L 216.894931 157.593352 
L 220.080788 157.572304 
L 220.248465 157.214572 
L 221.254525 157.251391 
L 221.422201 155.79016 
L 225.446441 155.619224 
L 229.470681 155.595326 
L 229.638358 154.618973 
L 229.806035 154.456668 
L 229.973711 151.859818 
L 230.979771 151.85934 
L 231.147448 138.225226 
L 240.369665 138.142889 
L 240.705018 137.967272 
L 250.430265 137.925235 
L 250.597941 137.600615 
L 258.143391 137.492731 
L 258.311068 135.544944 
L 261.496925 135.483806 
L 261.664601 135.135742 
L 273.904998 135.104055 
L 274.072675 134.454368 
L 275.581765 134.453655 
L 275.749441 134.778261 
L 284.636305 134.699346 
L 284.803981 134.536409 
L 288.660545 134.491301 
L 288.828221 134.286838 
L 294.361551 134.242203 
L 294.529228 135.54331 
L 295.032258 135.542676 
L 295.199935 134.244253 
L 295.367611 134.244234 
L 295.535288 119.799285 
L 295.702965 115.401239 
L 296.709025 115.354291 
L 297.044378 114.039303 
L 298.050438 114.022691 
L 298.218115 113.85278 
L 300.397911 113.839741 
L 300.565588 126.17459 
L 302.242355 126.175977 
L 302.410031 119.358943 
L 302.745385 119.358943 
L 302.913061 123.896447 
L 312.135278 123.843749 
L 312.302955 123.194537 
L 318.506991 123.164324 
L 319.680728 123.160401 
L 319.848405 123.322704 
L 334.939305 123.276749 
L 335.274658 123.205424 
L 336.616071 123.204454 
L 336.783748 123.001298 
L 337.957485 122.999515 
L 338.125161 119.753459 
L 349.694851 119.751061 
L 349.862528 119.441922 
L 351.539295 119.430034 
L 351.706971 119.914248 
L 352.042325 119.908909 
L 352.210001 119.746606 
L 352.545355 119.746606 
L 352.713031 119.584303 
L 354.222121 119.575266 
L 354.389798 119.194156 
L 359.923128 119.181674 
L 360.090805 119.338746 
L 368.139285 119.265921 
L 368.306961 118.61671 
L 370.151405 118.616551 
L 370.319081 117.299743 
L 374.175645 117.254313 
L 374.510998 117.112298 
L 379.876651 117.124637 
L 380.044328 115.967437 
L 380.882711 115.965832 
L 381.050388 104.279396 
L 385.745335 104.270572 
L 385.913011 104.592558 
L 388.931191 104.557029 
L 389.098868 103.907615 
L 389.266545 104.556549 
L 398.656438 104.543834 
L 398.824115 104.706137 
L 400.165528 104.707088 
L 400.333205 104.128562 
L 404.189768 104.074965 
L 404.525121 103.662076 
L 404.860475 103.661759 
L 405.028151 104.798354 
L 408.046331 104.689148 
L 411.567541 104.645296 
L 411.902895 104.798433 
L 415.088751 104.795263 
L 415.424105 104.673536 
L 415.591781 104.998142 
L 415.927135 104.998142 
L 416.094811 105.48505 
L 417.100871 105.484158 
L 417.268548 105.159553 
L 420.622081 105.064711 
L 421.460465 104.942984 
L 422.466525 104.922696 
L 422.634201 103.623006 
L 422.969555 103.623006 
L 423.137231 101.588393 
L 424.813998 101.478596 
L 424.981675 101.721416 
L 426.490765 101.746142 
L 426.658441 101.411392 
L 429.005915 101.487957 
L 429.173591 101.163352 
L 430.179651 101.165677 
L 430.347328 101.002718 
L 435.042275 100.962855 
L 435.209951 96.418377 
L 436.551365 96.419011 
L 436.719041 95.7698 
L 447.114995 95.681018 
L 447.282671 95.193476 
L 447.618025 95.193476 
L 447.785701 95.030539 
L 448.121055 94.543631 
L 448.288731 94.543631 
L 448.456408 94.218153 
L 449.965498 94.218153 
L 450.133175 72.794818 
L 451.474588 72.728882 
L 452.480648 72.821446 
L 452.648325 72.483526 
L 453.486708 72.480832 
L 453.654385 72.156226 
L 455.331151 72.108994 
L 455.498828 68.538332 
L 456.001858 68.538966 
L 456.169535 65.583914 
L 458.852361 65.566796 
L 459.020038 65.400689 
L 461.199835 65.402591 
L 461.367511 64.743236 
L 464.050338 64.717242 
L 464.218015 64.219556 
L 465.727105 64.196692 
L 470.422051 64.166875 
L 470.589728 64.003938 
L 472.434171 63.983016 
L 472.601848 64.286066 
L 473.607908 64.225202 
L 473.943261 64.171273 
L 474.110938 63.846113 
L 474.781645 63.825191 
L 474.949321 63.500585 
L 475.116998 63.494245 
L 475.284675 62.966761 
L 478.135178 62.882242 
L 478.805885 62.821378 
L 486.351335 62.705555 
L 486.519011 62.220504 
L 486.854365 62.198904 
L 487.189718 62.342182 
L 487.860425 62.342776 
L 488.028101 62.991978 
L 491.716988 62.860557 
L 491.884665 63.167926 
L 499.597791 63.104041 
L 503.286678 63.000759 
L 503.454355 59.740756 
L 503.622031 51.300376 
L 503.789708 50.651165 
L 503.957385 50.651165 
L 504.125061 48.377658 
L 504.628091 48.365532 
L 504.795768 48.664778 
L 507.478595 48.66093 
L 507.646271 48.456105 
L 513.850308 48.330336 
L 514.688691 48.271374 
L 517.036165 48.171126 
L 520.054345 48.035961 
L 520.054345 48.035961 
" clip-path="url(#p6d14471b0e)" style="fill: none; stroke: #1f77b4; stroke-width: 2; stroke-linecap: square"/>
   </g>
   <g id="patch_3">
    <path d="M 30.103125 299.518125 
L 30.103125 22.318125 
" style="fill: none; stroke: #000000; stroke-width: 0.8; stroke-linejoin: miter; stroke-linecap: square"/>
   </g>
   <g id="patch_4">
    <path d="M 532.303125 299.518125 
L 532.303125 22.318125 
" style="fill: none; stroke: #000000; stroke-width: 0.8; stroke-linejoin: miter; stroke-linecap: square"/>
   </g>
   <g id="patch_5">
    <path d="M 30.103125 299.518125 
L 532.303125 299.518125 
" style="fill: none; stroke: #000000; stroke-width: 0.8; stroke-linejoin: miter; stroke-linecap: square"/>
   </g>
   <g id="patch_6">
    <path d="M 30.103125 22.318125 
L 532.303125 22.318125 
" style="fill: none; stroke: #000000; stroke-width: 0.8; stroke-linejoin: miter; stroke-linecap: square"/>
   </g>
   <g id="patch_7">
    <path d="M 92.998762 181.252239 
Q 98.897812 182.841289 104.796862 184.430339 
" style="fill: none; stroke: #000000; stroke-linecap: round"/>
   </g>
   <g id="text_16">
    <g id="patch_8">
     <path d="M 39.660695 184.59842 
L 88.071011 184.59842 
Q 90.570011 184.59842 90.570011 182.09942 
L 90.570011 164.709764 
Q 90.570011 162.210764 88.071011 162.210764 
L 39.660695 162.210764 
Q 37.161695 162.210764 37.161695 164.709764 
L 37.161695 182.09942 
Q 37.161695 184.59842 39.660695 184.59842 
z
" style="fill: #cccccc; stroke: #000000; stroke-linejoin: miter"/>
    </g>
    <!-- 2019-08-01 -->
    <g transform="translate(39.660695 171.039262) scale(0.0833 -0.0833)">
     <defs>
      <path id="DejaVuSans-2d" d="M 313 2009 
L 1997 2009 
L 1997 1497 
L 313 1497 
L 313 2009 
z
" transform="scale(0.015625)"/>
      <path id="DejaVuSans-38" d="M 2034 2216 
Q 1584 2216 1326 1975 
Q 1069 1734 1069 1313 
Q 1069 891 1326 650 
Q 1584 409 2034 409 
Q 2484 409 2743 651 
Q 3003 894 3003 1313 
Q 3003 1734 2745 1975 
Q 2488 2216 2034 2216 
z
M 1403 2484 
Q 997 2584 770 2862 
Q 544 3141 544 3541 
Q 544 4100 942 4425 
Q 1341 4750 2034 4750 
Q 2731 4750 3128 4425 
Q 3525 4100 3525 3541 
Q 3525 3141 3298 2862 
Q 3072 2584 2669 2484 
Q 3125 2378 3379 2068 
Q 3634 1759 3634 1313 
Q 3634 634 3220 271 
Q 2806 -91 2034 -91 
Q 1263 -91 848 271 
Q 434 634 434 1313 
Q 434 1759 690 2068 
Q 947 2378 1403 2484 
z
M 1172 3481 
Q 1172 3119 1398 2916 
Q 1625 2713 2034 2713 
Q 2441 2713 2670 2916 
Q 2900 3119 2900 3481 
Q 2900 3844 2670 4047 
Q 2441 4250 2034 4250 
Q 1625 4250 1398 4047 
Q 1172 3844 1172 3481 
z
" transform="scale(0.015625)"/>
     </defs>
     <use xlink:href="#DejaVuSans-32"/>
     <use xlink:href="#DejaVuSans-30" transform="translate(63.623047 0)"/>
     <use xlink:href="#DejaVuSans-31" transform="translate(127.246094 0)"/>
     <use xlink:href="#DejaVuSans-39" transform="translate(190.869141 0)"/>
     <use xlink:href="#DejaVuSans-2d" transform="translate(254.492188 0)"/>
     <use xlink:href="#DejaVuSans-30" transform="translate(290.576172 0)"/>
     <use xlink:href="#DejaVuSans-38" transform="translate(354.199219 0)"/>
     <use xlink:href="#DejaVuSans-2d" transform="translate(417.822266 0)"/>
     <use xlink:href="#DejaVuSans-30" transform="translate(453.90625 0)"/>
     <use xlink:href="#DejaVuSans-31" transform="translate(517.529297 0)"/>
    </g>
    <!--  +3.15m  -->
    <g transform="translate(39.660695 180.36704) scale(0.0833 -0.0833)">
     <defs>
      <path id="DejaVuSans-20" transform="scale(0.015625)"/>
      <path id="DejaVuSans-2b" d="M 2944 4013 
L 2944 2272 
L 4684 2272 
L 4684 1741 
L 2944 1741 
L 2944 0 
L 2419 0 
L 2419 1741 
L 678 1741 
L 678 2272 
L 2419 2272 
L 2419 4013 
L 2944 4013 
z
" transform="scale(0.015625)"/>
      <path id="DejaVuSans-6d" d="M 3328 2828 
Q 3544 3216 3844 3400 
Q 4144 3584 4550 3584 
Q 5097 3584 5394 3201 
Q 5691 2819 5691 2113 
L 5691 0 
L 5113 0 
L 5113 2094 
Q 5113 2597 4934 2840 
Q 4756 3084 4391 3084 
Q 3944 3084 3684 2787 
Q 3425 2491 3425 1978 
L 3425 0 
L 2847 0 
L 2847 2094 
Q 2847 2600 2669 2842 
Q 2491 3084 2119 3084 
Q 1678 3084 1418 2786 
Q 1159 2488 1159 1978 
L 1159 0 
L 581 0 
L 581 3500 
L 1159 3500 
L 1159 2956 
Q 1356 3278 1631 3431 
Q 1906 3584 2284 3584 
Q 2666 3584 2933 3390 
Q 3200 3197 3328 2828 
z
" transform="scale(0.015625)"/>
     </defs>
     <use xlink:href="#DejaVuSans-20"/>
     <use xlink:href="#DejaVuSans-2b" transform="translate(31.787109 0)"/>
     <use xlink:href="#DejaVuSans-33" transform="translate(115.576172 0)"/>
     <use xlink:href="#DejaVuSans-2e" transform="translate(179.199219 0)"/>
     <use xlink:href="#DejaVuSans-31" transform="translate(210.986328 0)"/>
     <use xlink:href="#DejaVuSans-35" transform="translate(274.609375 0)"/>
     <use xlink:href="#DejaVuSans-6d" transform="translate(338.232422 0)"/>
     <use xlink:href="#DejaVuSans-20" transform="translate(435.644531 0)"/>
    </g>
   </g>
   <g id="patch_9">
    <path d="M 156.045189 157.846925 
Q 161.944239 159.435975 167.843289 161.025026 
" style="fill: none; stroke: #000000; stroke-linecap: round"/>
   </g>
   <g id="text_17">
    <g id="patch_10">
     <path d="M 102.707122 161.193106 
L 151.117437 161.193106 
Q 153.616437 161.193106 153.616437 158.694106 
L 153.616437 141.30445 
Q 153.616437 138.80545 151.117437 138.80545 
L 102.707122 138.80545 
Q 100.208122 138.80545 100.208122 141.30445 
L 100.208122 158.694106 
Q 100.208122 161.193106 102.707122 161.193106 
z
" style="fill: #cccccc; stroke: #000000; stroke-linejoin: miter"/>
    </g>
    <!-- 2020-08-11 -->
    <g transform="translate(102.707122 147.633948) scale(0.0833 -0.0833)">
     <use xlink:href="#DejaVuSans-32"/>
     <use xlink:href="#DejaVuSans-30" transform="translate(63.623047 0)"/>
     <use xlink:href="#DejaVuSans-32" transform="translate(127.246094 0)"/>
     <use xlink:href="#DejaVuSans-30" transform="translate(190.869141 0)"/>
     <use xlink:href="#DejaVuSans-2d" transform="translate(254.492188 0)"/>
     <use xlink:href="#DejaVuSans-30" transform="translate(290.576172 0)"/>
     <use xlink:href="#DejaVuSans-38" transform="translate(354.199219 0)"/>
     <use xlink:href="#DejaVuSans-2d" transform="translate(417.822266 0)"/>
     <use xlink:href="#DejaVuSans-31" transform="translate(453.90625 0)"/>
     <use xlink:href="#DejaVuSans-31" transform="translate(517.529297 0)"/>
    </g>
    <!--  +4.19m  -->
    <g transform="translate(102.707122 156.961726) scale(0.0833 -0.0833)">
     <use xlink:href="#DejaVuSans-20"/>
     <use xlink:href="#DejaVuSans-2b" transform="translate(31.787109 0)"/>
     <use xlink:href="#DejaVuSans-34" transform="translate(115.576172 0)"/>
     <use xlink:href="#DejaVuSans-2e" transform="translate(179.199219 0)"/>
     <use xlink:href="#DejaVuSans-31" transform="translate(210.986328 0)"/>
     <use xlink:href="#DejaVuSans-39" transform="translate(274.609375 0)"/>
     <use xlink:href="#DejaVuSans-6d" transform="translate(338.232422 0)"/>
     <use xlink:href="#DejaVuSans-20" transform="translate(435.644531 0)"/>
    </g>
   </g>
   <g id="patch_11">
    <path d="M 182.294611 179.718283 
Q 176.965726 176.358974 171.63684 172.999665 
" style="fill: none; stroke: #000000; stroke-linecap: round"/>
   </g>
   <g id="text_18">
    <g id="patch_12">
     <path d="M 178.329298 203.671229 
L 226.739614 203.671229 
Q 229.238614 203.671229 229.238614 201.172229 
L 229.238614 183.782573 
Q 229.238614 181.283573 226.739614 181.283573 
L 178.329298 181.283573 
Q 175.830298 181.283573 175.830298 183.782573 
L 175.830298 201.172229 
Q 175.830298 203.671229 178.329298 203.671229 
z
" style="fill: #cccccc; stroke: #000000; stroke-linejoin: miter"/>
    </g>
    <!-- 2020-08-12 -->
    <g transform="translate(178.329298 190.112071) scale(0.0833 -0.0833)">
     <use xlink:href="#DejaVuSans-32"/>
     <use xlink:href="#DejaVuSans-30" transform="translate(63.623047 0)"/>
     <use xlink:href="#DejaVuSans-32" transform="translate(127.246094 0)"/>
     <use xlink:href="#DejaVuSans-30" transform="translate(190.869141 0)"/>
     <use xlink:href="#DejaVuSans-2d" transform="translate(254.492188 0)"/>
     <use xlink:href="#DejaVuSans-30" transform="translate(290.576172 0)"/>
     <use xlink:href="#DejaVuSans-38" transform="translate(354.199219 0)"/>
     <use xlink:href="#DejaVuSans-2d" transform="translate(417.822266 0)"/>
     <use xlink:href="#DejaVuSans-31" transform="translate(453.90625 0)"/>
     <use xlink:href="#DejaVuSans-32" transform="translate(517.529297 0)"/>
    </g>
    <!--  -4.19m  -->
    <g transform="translate(178.329298 199.439849) scale(0.0833 -0.0833)">
     <use xlink:href="#DejaVuSans-20"/>
     <use xlink:href="#DejaVuSans-2d" transform="translate(31.787109 0)"/>
     <use xlink:href="#DejaVuSans-34" transform="translate(67.871094 0)"/>
     <use xlink:href="#DejaVuSans-2e" transform="translate(131.494141 0)"/>
     <use xlink:href="#DejaVuSans-31" transform="translate(163.28125 0)"/>
     <use xlink:href="#DejaVuSans-39" transform="translate(226.904297 0)"/>
     <use xlink:href="#DejaVuSans-6d" transform="translate(290.527344 0)"/>
     <use xlink:href="#DejaVuSans-20" transform="translate(387.939453 0)"/>
    </g>
   </g>
   <g id="patch_13">
    <path d="M 217.414848 134.526022 
Q 223.313899 136.115072 229.212949 137.704123 
" style="fill: none; stroke: #000000; stroke-linecap: round"/>
   </g>
   <g id="text_19">
    <g id="patch_14">
     <path d="M 164.076782 137.872203 
L 212.487097 137.872203 
Q 214.986097 137.872203 214.986097 135.373203 
L 214.986097 117.983547 
Q 214.986097 115.484547 212.487097 115.484547 
L 164.076782 115.484547 
Q 161.577782 115.484547 161.577782 117.983547 
L 161.577782 135.373203 
Q 161.577782 137.872203 164.076782 137.872203 
z
" style="fill: #cccccc; stroke: #000000; stroke-linejoin: miter"/>
    </g>
    <!-- 2021-08-12 -->
    <g transform="translate(164.076782 124.313045) scale(0.0833 -0.0833)">
     <use xlink:href="#DejaVuSans-32"/>
     <use xlink:href="#DejaVuSans-30" transform="translate(63.623047 0)"/>
     <use xlink:href="#DejaVuSans-32" transform="translate(127.246094 0)"/>
     <use xlink:href="#DejaVuSans-31" transform="translate(190.869141 0)"/>
     <use xlink:href="#DejaVuSans-2d" transform="translate(254.492188 0)"/>
     <use xlink:href="#DejaVuSans-30" transform="translate(290.576172 0)"/>
     <use xlink:href="#DejaVuSans-38" transform="translate(354.199219 0)"/>
     <use xlink:href="#DejaVuSans-2d" transform="translate(417.822266 0)"/>
     <use xlink:href="#DejaVuSans-31" transform="translate(453.90625 0)"/>
     <use xlink:href="#DejaVuSans-32" transform="translate(517.529297 0)"/>
    </g>
    <!--  +5.51m  -->
    <g transform="translate(164.076782 133.640823) scale(0.0833 -0.0833)">
     <use xlink:href="#DejaVuSans-20"/>
     <use xlink:href="#DejaVuSans-2b" transform="translate(31.787109 0)"/>
     <use xlink:href="#DejaVuSans-35" transform="translate(115.576172 0)"/>
     <use xlink:href="#DejaVuSans-2e" transform="translate(179.199219 0)"/>
     <use xlink:href="#DejaVuSans-35" transform="translate(210.986328 0)"/>
     <use xlink:href="#DejaVuSans-31" transform="translate(274.609375 0)"/>
     <use xlink:href="#DejaVuSans-6d" transform="translate(338.232422 0)"/>
     <use xlink:href="#DejaVuSans-20" transform="translate(435.644531 0)"/>
    </g>
   </g>
   <g id="patch_15">
    <path d="M 281.970365 111.702035 
Q 287.869415 113.291085 293.768465 114.880135 
" style="fill: none; stroke: #000000; stroke-linecap: round"/>
   </g>
   <g id="text_20">
    <g id="patch_16">
     <path d="M 228.632298 115.048216 
L 277.042614 115.048216 
Q 279.541614 115.048216 279.541614 112.549216 
L 279.541614 95.15956 
Q 279.541614 92.66056 277.042614 92.66056 
L 228.632298 92.66056 
Q 226.133298 92.66056 226.133298 95.15956 
L 226.133298 112.549216 
Q 226.133298 115.048216 228.632298 115.048216 
z
" style="fill: #cccccc; stroke: #000000; stroke-linejoin: miter"/>
    </g>
    <!-- 2022-09-01 -->
    <g transform="translate(228.632298 101.489058) scale(0.0833 -0.0833)">
     <use xlink:href="#DejaVuSans-32"/>
     <use xlink:href="#DejaVuSans-30" transform="translate(63.623047 0)"/>
     <use xlink:href="#DejaVuSans-32" transform="translate(127.246094 0)"/>
     <use xlink:href="#DejaVuSans-32" transform="translate(190.869141 0)"/>
     <use xlink:href="#DejaVuSans-2d" transform="translate(254.492188 0)"/>
     <use xlink:href="#DejaVuSans-30" transform="translate(290.576172 0)"/>
     <use xlink:href="#DejaVuSans-39" transform="translate(354.199219 0)"/>
     <use xlink:href="#DejaVuSans-2d" transform="translate(417.822266 0)"/>
     <use xlink:href="#DejaVuSans-30" transform="translate(453.90625 0)"/>
     <use xlink:href="#DejaVuSans-31" transform="translate(517.529297 0)"/>
    </g>
    <!--  +7.61m  -->
    <g transform="translate(228.632298 110.816836) scale(0.0833 -0.0833)">
     <defs>
      <path id="DejaVuSans-37" d="M 525 4666 
L 3525 4666 
L 3525 4397 
L 1831 0 
L 1172 0 
L 2766 4134 
L 525 4134 
L 525 4666 
z
" transform="scale(0.015625)"/>
     </defs>
     <use xlink:href="#DejaVuSans-20"/>
     <use xlink:href="#DejaVuSans-2b" transform="translate(31.787109 0)"/>
     <use xlink:href="#DejaVuSans-37" transform="translate(115.576172 0)"/>
     <use xlink:href="#DejaVuSans-2e" transform="translate(179.199219 0)"/>
     <use xlink:href="#DejaVuSans-36" transform="translate(210.986328 0)"/>
     <use xlink:href="#DejaVuSans-31" transform="translate(274.609375 0)"/>
     <use xlink:href="#DejaVuSans-6d" transform="translate(338.232422 0)"/>
     <use xlink:href="#DejaVuSans-20" transform="translate(435.644531 0)"/>
    </g>
   </g>
   <g id="patch_17">
    <path d="M 312.914735 133.959443 
Q 307.585849 130.600135 302.256963 127.240826 
" style="fill: none; stroke: #000000; stroke-linecap: round"/>
   </g>
   <g id="text_21">
    <g id="patch_18">
     <path d="M 308.949421 157.91239 
L 357.359737 157.91239 
Q 359.858737 157.91239 359.858737 155.41339 
L 359.858737 138.023734 
Q 359.858737 135.524734 357.359737 135.524734 
L 308.949421 135.524734 
Q 306.450421 135.524734 306.450421 138.023734 
L 306.450421 155.41339 
Q 306.450421 157.91239 308.949421 157.91239 
z
" style="fill: #cccccc; stroke: #000000; stroke-linejoin: miter"/>
    </g>
    <!-- 2022-09-30 -->
    <g transform="translate(308.949421 144.353232) scale(0.0833 -0.0833)">
     <use xlink:href="#DejaVuSans-32"/>
     <use xlink:href="#DejaVuSans-30" transform="translate(63.623047 0)"/>
     <use xlink:href="#DejaVuSans-32" transform="translate(127.246094 0)"/>
     <use xlink:href="#DejaVuSans-32" transform="translate(190.869141 0)"/>
     <use xlink:href="#DejaVuSans-2d" transform="translate(254.492188 0)"/>
     <use xlink:href="#DejaVuSans-30" transform="translate(290.576172 0)"/>
     <use xlink:href="#DejaVuSans-39" transform="translate(354.199219 0)"/>
     <use xlink:href="#DejaVuSans-2d" transform="translate(417.822266 0)"/>
     <use xlink:href="#DejaVuSans-33" transform="translate(453.90625 0)"/>
     <use xlink:href="#DejaVuSans-30" transform="translate(517.529297 0)"/>
    </g>
    <!--  -4.98m  -->
    <g transform="translate(308.949421 153.68101) scale(0.0833 -0.0833)">
     <use xlink:href="#DejaVuSans-20"/>
     <use xlink:href="#DejaVuSans-2d" transform="translate(31.787109 0)"/>
     <use xlink:href="#DejaVuSans-34" transform="translate(67.871094 0)"/>
     <use xlink:href="#DejaVuSans-2e" transform="translate(131.494141 0)"/>
     <use xlink:href="#DejaVuSans-39" transform="translate(163.28125 0)"/>
     <use xlink:href="#DejaVuSans-38" transform="translate(226.904297 0)"/>
     <use xlink:href="#DejaVuSans-6d" transform="translate(290.527344 0)"/>
     <use xlink:href="#DejaVuSans-20" transform="translate(387.939453 0)"/>
    </g>
   </g>
   <g id="patch_19">
    <path d="M 367.317788 100.580192 
Q 373.216838 102.169242 379.115888 103.758293 
" style="fill: none; stroke: #000000; stroke-linecap: round"/>
   </g>
   <g id="text_22">
    <g id="patch_20">
     <path d="M 313.979721 103.926373 
L 362.390037 103.926373 
Q 364.889037 103.926373 364.889037 101.427373 
L 364.889037 84.037717 
Q 364.889037 81.538717 362.390037 81.538717 
L 313.979721 81.538717 
Q 311.480721 81.538717 311.480721 84.037717 
L 311.480721 101.427373 
Q 311.480721 103.926373 313.979721 103.926373 
z
" style="fill: #cccccc; stroke: #000000; stroke-linejoin: miter"/>
    </g>
    <!-- 2024-01-23 -->
    <g transform="translate(313.979721 90.367215) scale(0.0833 -0.0833)">
     <use xlink:href="#DejaVuSans-32"/>
     <use xlink:href="#DejaVuSans-30" transform="translate(63.623047 0)"/>
     <use xlink:href="#DejaVuSans-32" transform="translate(127.246094 0)"/>
     <use xlink:href="#DejaVuSans-34" transform="translate(190.869141 0)"/>
     <use xlink:href="#DejaVuSans-2d" transform="translate(254.492188 0)"/>
     <use xlink:href="#DejaVuSans-30" transform="translate(290.576172 0)"/>
     <use xlink:href="#DejaVuSans-31" transform="translate(354.199219 0)"/>
     <use xlink:href="#DejaVuSans-2d" transform="translate(417.822266 0)"/>
     <use xlink:href="#DejaVuSans-32" transform="translate(453.90625 0)"/>
     <use xlink:href="#DejaVuSans-33" transform="translate(517.529297 0)"/>
    </g>
    <!--  +4.72m  -->
    <g transform="translate(313.979721 99.694993) scale(0.0833 -0.0833)">
     <use xlink:href="#DejaVuSans-20"/>
     <use xlink:href="#DejaVuSans-2b" transform="translate(31.787109 0)"/>
     <use xlink:href="#DejaVuSans-34" transform="translate(115.576172 0)"/>
     <use xlink:href="#DejaVuSans-2e" transform="translate(179.199219 0)"/>
     <use xlink:href="#DejaVuSans-37" transform="translate(210.986328 0)"/>
     <use xlink:href="#DejaVuSans-32" transform="translate(274.609375 0)"/>
     <use xlink:href="#DejaVuSans-6d" transform="translate(338.232422 0)"/>
     <use xlink:href="#DejaVuSans-20" transform="translate(435.644531 0)"/>
    </g>
   </g>
   <g id="patch_21">
    <path d="M 436.400575 69.095613 
Q 442.299625 70.684664 448.198675 72.273714 
" style="fill: none; stroke: #000000; stroke-linecap: round"/>
   </g>
   <g id="text_23">
    <g id="patch_22">
     <path d="M 383.062508 72.441794 
L 431.472824 72.441794 
Q 433.971824 72.441794 433.971824 69.942794 
L 433.971824 52.553138 
Q 433.971824 50.054138 431.472824 50.054138 
L 383.062508 50.054138 
Q 380.563508 50.054138 380.563508 52.553138 
L 380.563508 69.942794 
Q 380.563508 72.441794 383.062508 72.441794 
z
" style="fill: #cccccc; stroke: #000000; stroke-linejoin: miter"/>
    </g>
    <!-- 2025-03-10 -->
    <g transform="translate(383.062508 58.882637) scale(0.0833 -0.0833)">
     <use xlink:href="#DejaVuSans-32"/>
     <use xlink:href="#DejaVuSans-30" transform="translate(63.623047 0)"/>
     <use xlink:href="#DejaVuSans-32" transform="translate(127.246094 0)"/>
     <use xlink:href="#DejaVuSans-35" transform="translate(190.869141 0)"/>
     <use xlink:href="#DejaVuSans-2d" transform="translate(254.492188 0)"/>
     <use xlink:href="#DejaVuSans-30" transform="translate(290.576172 0)"/>
     <use xlink:href="#DejaVuSans-33" transform="translate(354.199219 0)"/>
     <use xlink:href="#DejaVuSans-2d" transform="translate(417.822266 0)"/>
     <use xlink:href="#DejaVuSans-31" transform="translate(453.90625 0)"/>
     <use xlink:href="#DejaVuSans-30" transform="translate(517.529297 0)"/>
    </g>
    <!--  +8.65m  -->
    <g transform="translate(383.062508 68.210415) scale(0.0833 -0.0833)">
     <use xlink:href="#DejaVuSans-20"/>
     <use xlink:href="#DejaVuSans-2b" transform="translate(31.787109 0)"/>
     <use xlink:href="#DejaVuSans-38" transform="translate(115.576172 0)"/>
     <use xlink:href="#DejaVuSans-2e" transform="translate(179.199219 0)"/>
     <use xlink:href="#DejaVuSans-36" transform="translate(210.986328 0)"/>
     <use xlink:href="#DejaVuSans-35" transform="translate(274.609375 0)"/>
     <use xlink:href="#DejaVuSans-6d" transform="translate(338.232422 0)"/>
     <use xlink:href="#DejaVuSans-20" transform="translate(435.644531 0)"/>
    </g>
   </g>
   <g id="patch_23">
    <path d="M 490.057108 46.95196 
Q 495.956158 48.541011 501.855208 50.130061 
" style="fill: none; stroke: #000000; stroke-linecap: round"/>
   </g>
   <g id="text_24">
    <g id="patch_24">
     <path d="M 436.719041 50.298141 
L 485.129357 50.298141 
Q 487.628357 50.298141 487.628357 47.799141 
L 487.628357 30.409485 
Q 487.628357 27.910485 485.129357 27.910485 
L 436.719041 27.910485 
Q 434.220041 27.910485 434.220041 30.409485 
L 434.220041 47.799141 
Q 434.220041 50.298141 436.719041 50.298141 
z
" style="fill: #cccccc; stroke: #000000; stroke-linejoin: miter"/>
    </g>
    <!-- 2026-01-24 -->
    <g transform="translate(436.719041 36.738984) scale(0.0833 -0.0833)">
     <use xlink:href="#DejaVuSans-32"/>
     <use xlink:href="#DejaVuSans-30" transform="translate(63.623047 0)"/>
     <use xlink:href="#DejaVuSans-32" transform="translate(127.246094 0)"/>
     <use xlink:href="#DejaVuSans-36" transform="translate(190.869141 0)"/>
     <use xlink:href="#DejaVuSans-2d" transform="translate(254.492188 0)"/>
     <use xlink:href="#DejaVuSans-30" transform="translate(290.576172 0)"/>
     <use xlink:href="#DejaVuSans-31" transform="translate(354.199219 0)"/>
     <use xlink:href="#DejaVuSans-2d" transform="translate(417.822266 0)"/>
     <use xlink:href="#DejaVuSans-32" transform="translate(453.90625 0)"/>
     <use xlink:href="#DejaVuSans-34" transform="translate(517.529297 0)"/>
    </g>
    <!--  +4.99m  -->
    <g transform="translate(436.719041 46.066762) scale(0.0833 -0.0833)">
     <use xlink:href="#DejaVuSans-20"/>
     <use xlink:href="#DejaVuSans-2b" transform="translate(31.787109 0)"/>
     <use xlink:href="#DejaVuSans-34" transform="translate(115.576172 0)"/>
     <use xlink:href="#DejaVuSans-2e" transform="translate(179.199219 0)"/>
     <use xlink:href="#DejaVuSans-39" transform="translate(210.986328 0)"/>
     <use xlink:href="#DejaVuSans-39" transform="translate(274.609375 0)"/>
     <use xlink:href="#DejaVuSans-6d" transform="translate(338.232422 0)"/>
     <use xlink:href="#DejaVuSans-20" transform="translate(435.644531 0)"/>
    </g>
   </g>
   <g id="text_25">
    <!-- History of percentage of AWS ownership of IPv4 space -->
    <g transform="translate(118.277813 16.318125) scale(0.12 -0.12)">
     <defs>
      <path id="DejaVuSans-48" d="M 628 4666 
L 1259 4666 
L 1259 2753 
L 3553 2753 
L 3553 4666 
L 4184 4666 
L 4184 0 
L 3553 0 
L 3553 2222 
L 1259 2222 
L 1259 0 
L 628 0 
L 628 4666 
z
" transform="scale(0.015625)"/>
      <path id="DejaVuSans-69" d="M 603 3500 
L 1178 3500 
L 1178 0 
L 603 0 
L 603 3500 
z
M 603 4863 
L 1178 4863 
L 1178 4134 
L 603 4134 
L 603 4863 
z
" transform="scale(0.015625)"/>
      <path id="DejaVuSans-73" d="M 2834 3397 
L 2834 2853 
Q 2591 2978 2328 3040 
Q 2066 3103 1784 3103 
Q 1356 3103 1142 2972 
Q 928 2841 928 2578 
Q 928 2378 1081 2264 
Q 1234 2150 1697 2047 
L 1894 2003 
Q 2506 1872 2764 1633 
Q 3022 1394 3022 966 
Q 3022 478 2636 193 
Q 2250 -91 1575 -91 
Q 1294 -91 989 -36 
Q 684 19 347 128 
L 347 722 
Q 666 556 975 473 
Q 1284 391 1588 391 
Q 1994 391 2212 530 
Q 2431 669 2431 922 
Q 2431 1156 2273 1281 
Q 2116 1406 1581 1522 
L 1381 1569 
Q 847 1681 609 1914 
Q 372 2147 372 2553 
Q 372 3047 722 3315 
Q 1072 3584 1716 3584 
Q 2034 3584 2315 3537 
Q 2597 3491 2834 3397 
z
" transform="scale(0.015625)"/>
      <path id="DejaVuSans-74" d="M 1172 4494 
L 1172 3500 
L 2356 3500 
L 2356 3053 
L 1172 3053 
L 1172 1153 
Q 1172 725 1289 603 
Q 1406 481 1766 481 
L 2356 481 
L 2356 0 
L 1766 0 
Q 1100 0 847 248 
Q 594 497 594 1153 
L 594 3053 
L 172 3053 
L 172 3500 
L 594 3500 
L 594 4494 
L 1172 4494 
z
" transform="scale(0.015625)"/>
      <path id="DejaVuSans-6f" d="M 1959 3097 
Q 1497 3097 1228 2736 
Q 959 2375 959 1747 
Q 959 1119 1226 758 
Q 1494 397 1959 397 
Q 2419 397 2687 759 
Q 2956 1122 2956 1747 
Q 2956 2369 2687 2733 
Q 2419 3097 1959 3097 
z
M 1959 3584 
Q 2709 3584 3137 3096 
Q 3566 2609 3566 1747 
Q 3566 888 3137 398 
Q 2709 -91 1959 -91 
Q 1206 -91 779 398 
Q 353 888 353 1747 
Q 353 2609 779 3096 
Q 1206 3584 1959 3584 
z
" transform="scale(0.015625)"/>
      <path id="DejaVuSans-72" d="M 2631 2963 
Q 2534 3019 2420 3045 
Q 2306 3072 2169 3072 
Q 1681 3072 1420 2755 
Q 1159 2438 1159 1844 
L 1159 0 
L 581 0 
L 581 3500 
L 1159 3500 
L 1159 2956 
Q 1341 3275 1631 3429 
Q 1922 3584 2338 3584 
Q 2397 3584 2469 3576 
Q 2541 3569 2628 3553 
L 2631 2963 
z
" transform="scale(0.015625)"/>
      <path id="DejaVuSans-79" d="M 2059 -325 
Q 1816 -950 1584 -1140 
Q 1353 -1331 966 -1331 
L 506 -1331 
L 506 -850 
L 844 -850 
Q 1081 -850 1212 -737 
Q 1344 -625 1503 -206 
L 1606 56 
L 191 3500 
L 800 3500 
L 1894 763 
L 2988 3500 
L 3597 3500 
L 2059 -325 
z
" transform="scale(0.015625)"/>
      <path id="DejaVuSans-66" d="M 2375 4863 
L 2375 4384 
L 1825 4384 
Q 1516 4384 1395 4259 
Q 1275 4134 1275 3809 
L 1275 3500 
L 2222 3500 
L 2222 3053 
L 1275 3053 
L 1275 0 
L 697 0 
L 697 3053 
L 147 3053 
L 147 3500 
L 697 3500 
L 697 3744 
Q 697 4328 969 4595 
Q 1241 4863 1831 4863 
L 2375 4863 
z
" transform="scale(0.015625)"/>
      <path id="DejaVuSans-70" d="M 1159 525 
L 1159 -1331 
L 581 -1331 
L 581 3500 
L 1159 3500 
L 1159 2969 
Q 1341 3281 1617 3432 
Q 1894 3584 2278 3584 
Q 2916 3584 3314 3078 
Q 3713 2572 3713 1747 
Q 3713 922 3314 415 
Q 2916 -91 2278 -91 
Q 1894 -91 1617 61 
Q 1341 213 1159 525 
z
M 3116 1747 
Q 3116 2381 2855 2742 
Q 2594 3103 2138 3103 
Q 1681 3103 1420 2742 
Q 1159 2381 1159 1747 
Q 1159 1113 1420 752 
Q 1681 391 2138 391 
Q 2594 391 2855 752 
Q 3116 1113 3116 1747 
z
" transform="scale(0.015625)"/>
      <path id="DejaVuSans-65" d="M 3597 1894 
L 3597 1613 
L 953 1613 
Q 991 1019 1311 708 
Q 1631 397 2203 397 
Q 2534 397 2845 478 
Q 3156 559 3463 722 
L 3463 178 
Q 3153 47 2828 -22 
Q 2503 -91 2169 -91 
Q 1331 -91 842 396 
Q 353 884 353 1716 
Q 353 2575 817 3079 
Q 1281 3584 2069 3584 
Q 2775 3584 3186 3129 
Q 3597 2675 3597 1894 
z
M 3022 2063 
Q 3016 2534 2758 2815 
Q 2500 3097 2075 3097 
Q 1594 3097 1305 2825 
Q 1016 2553 972 2059 
L 3022 2063 
z
" transform="scale(0.015625)"/>
      <path id="DejaVuSans-63" d="M 3122 3366 
L 3122 2828 
Q 2878 2963 2633 3030 
Q 2388 3097 2138 3097 
Q 1578 3097 1268 2742 
Q 959 2388 959 1747 
Q 959 1106 1268 751 
Q 1578 397 2138 397 
Q 2388 397 2633 464 
Q 2878 531 3122 666 
L 3122 134 
Q 2881 22 2623 -34 
Q 2366 -91 2075 -91 
Q 1284 -91 818 406 
Q 353 903 353 1747 
Q 353 2603 823 3093 
Q 1294 3584 2113 3584 
Q 2378 3584 2631 3529 
Q 2884 3475 3122 3366 
z
" transform="scale(0.015625)"/>
      <path id="DejaVuSans-6e" d="M 3513 2113 
L 3513 0 
L 2938 0 
L 2938 2094 
Q 2938 2591 2744 2837 
Q 2550 3084 2163 3084 
Q 1697 3084 1428 2787 
Q 1159 2491 1159 1978 
L 1159 0 
L 581 0 
L 581 3500 
L 1159 3500 
L 1159 2956 
Q 1366 3272 1645 3428 
Q 1925 3584 2291 3584 
Q 2894 3584 3203 3211 
Q 3513 2838 3513 2113 
z
" transform="scale(0.015625)"/>
      <path id="DejaVuSans-61" d="M 2194 1759 
Q 1497 1759 1228 1600 
Q 959 1441 959 1056 
Q 959 750 1161 570 
Q 1363 391 1709 391 
Q 2188 391 2477 730 
Q 2766 1069 2766 1631 
L 2766 1759 
L 2194 1759 
z
M 3341 1997 
L 3341 0 
L 2766 0 
L 2766 531 
Q 2569 213 2275 61 
Q 1981 -91 1556 -91 
Q 1019 -91 701 211 
Q 384 513 384 1019 
Q 384 1609 779 1909 
Q 1175 2209 1959 2209 
L 2766 2209 
L 2766 2266 
Q 2766 2663 2505 2880 
Q 2244 3097 1772 3097 
Q 1472 3097 1187 3025 
Q 903 2953 641 2809 
L 641 3341 
Q 956 3463 1253 3523 
Q 1550 3584 1831 3584 
Q 2591 3584 2966 3190 
Q 3341 2797 3341 1997 
z
" transform="scale(0.015625)"/>
      <path id="DejaVuSans-67" d="M 2906 1791 
Q 2906 2416 2648 2759 
Q 2391 3103 1925 3103 
Q 1463 3103 1205 2759 
Q 947 2416 947 1791 
Q 947 1169 1205 825 
Q 1463 481 1925 481 
Q 2391 481 2648 825 
Q 2906 1169 2906 1791 
z
M 3481 434 
Q 3481 -459 3084 -895 
Q 2688 -1331 1869 -1331 
Q 1566 -1331 1297 -1286 
Q 1028 -1241 775 -1147 
L 775 -588 
Q 1028 -725 1275 -790 
Q 1522 -856 1778 -856 
Q 2344 -856 2625 -561 
Q 2906 -266 2906 331 
L 2906 616 
Q 2728 306 2450 153 
Q 2172 0 1784 0 
Q 1141 0 747 490 
Q 353 981 353 1791 
Q 353 2603 747 3093 
Q 1141 3584 1784 3584 
Q 2172 3584 2450 3431 
Q 2728 3278 2906 2969 
L 2906 3500 
L 3481 3500 
L 3481 434 
z
" transform="scale(0.015625)"/>
      <path id="DejaVuSans-41" d="M 2188 4044 
L 1331 1722 
L 3047 1722 
L 2188 4044 
z
M 1831 4666 
L 2547 4666 
L 4325 0 
L 3669 0 
L 3244 1197 
L 1141 1197 
L 716 0 
L 50 0 
L 1831 4666 
z
" transform="scale(0.015625)"/>
      <path id="DejaVuSans-57" d="M 213 4666 
L 850 4666 
L 1831 722 
L 2809 4666 
L 3519 4666 
L 4500 722 
L 5478 4666 
L 6119 4666 
L 4947 0 
L 4153 0 
L 3169 4050 
L 2175 0 
L 1381 0 
L 213 4666 
z
" transform="scale(0.015625)"/>
      <path id="DejaVuSans-53" d="M 3425 4513 
L 3425 3897 
Q 3066 4069 2747 4153 
Q 2428 4238 2131 4238 
Q 1616 4238 1336 4038 
Q 1056 3838 1056 3469 
Q 1056 3159 1242 3001 
Q 1428 2844 1947 2747 
L 2328 2669 
Q 3034 2534 3370 2195 
Q 3706 1856 3706 1288 
Q 3706 609 3251 259 
Q 2797 -91 1919 -91 
Q 1588 -91 1214 -16 
Q 841 59 441 206 
L 441 856 
Q 825 641 1194 531 
Q 1563 422 1919 422 
Q 2459 422 2753 634 
Q 3047 847 3047 1241 
Q 3047 1584 2836 1778 
Q 2625 1972 2144 2069 
L 1759 2144 
Q 1053 2284 737 2584 
Q 422 2884 422 3419 
Q 422 4038 858 4394 
Q 1294 4750 2059 4750 
Q 2388 4750 2728 4690 
Q 3069 4631 3425 4513 
z
" transform="scale(0.015625)"/>
      <path id="DejaVuSans-77" d="M 269 3500 
L 844 3500 
L 1563 769 
L 2278 3500 
L 2956 3500 
L 3675 769 
L 4391 3500 
L 4966 3500 
L 4050 0 
L 3372 0 
L 2619 2869 
L 1863 0 
L 1184 0 
L 269 3500 
z
" transform="scale(0.015625)"/>
      <path id="DejaVuSans-68" d="M 3513 2113 
L 3513 0 
L 2938 0 
L 2938 2094 
Q 2938 2591 2744 2837 
Q 2550 3084 2163 3084 
Q 1697 3084 1428 2787 
Q 1159 2491 1159 1978 
L 1159 0 
L 581 0 
L 581 4863 
L 1159 4863 
L 1159 2956 
Q 1366 3272 1645 3428 
Q 1925 3584 2291 3584 
Q 2894 3584 3203 3211 
Q 3513 2838 3513 2113 
z
" transform="scale(0.015625)"/>
      <path id="DejaVuSans-49" d="M 628 4666 
L 1259 4666 
L 1259 0 
L 628 0 
L 628 4666 
z
" transform="scale(0.015625)"/>
      <path id="DejaVuSans-50" d="M 1259 4147 
L 1259 2394 
L 2053 2394 
Q 2494 2394 2734 2622 
Q 2975 2850 2975 3272 
Q 2975 3691 2734 3919 
Q 2494 4147 2053 4147 
L 1259 4147 
z
M 628 4666 
L 2053 4666 
Q 2838 4666 3239 4311 
Q 3641 3956 3641 3272 
Q 3641 2581 3239 2228 
Q 2838 1875 2053 1875 
L 1259 1875 
L 1259 0 
L 628 0 
L 628 4666 
z
" transform="scale(0.015625)"/>
      <path id="DejaVuSans-76" d="M 191 3500 
L 800 3500 
L 1894 563 
L 2988 3500 
L 3597 3500 
L 2284 0 
L 1503 0 
L 191 3500 
z
" transform="scale(0.015625)"/>
     </defs>
     <use xlink:href="#DejaVuSans-48"/>
     <use xlink:href="#DejaVuSans-69" transform="translate(75.195312 0)"/>
     <use xlink:href="#DejaVuSans-73" transform="translate(102.978516 0)"/>
     <use xlink:href="#DejaVuSans-74" transform="translate(155.078125 0)"/>
     <use xlink:href="#DejaVuSans-6f" transform="translate(194.287109 0)"/>
     <use xlink:href="#DejaVuSans-72" transform="translate(255.46875 0)"/>
     <use xlink:href="#DejaVuSans-79" transform="translate(296.582031 0)"/>
     <use xlink:href="#DejaVuSans-20" transform="translate(355.761719 0)"/>
     <use xlink:href="#DejaVuSans-6f" transform="translate(387.548828 0)"/>
     <use xlink:href="#DejaVuSans-66" transform="translate(448.730469 0)"/>
     <use xlink:href="#DejaVuSans-20" transform="translate(483.935547 0)"/>
     <use xlink:href="#DejaVuSans-70" transform="translate(515.722656 0)"/>
     <use xlink:href="#DejaVuSans-65" transform="translate(579.199219 0)"/>
     <use xlink:href="#DejaVuSans-72" transform="translate(640.722656 0)"/>
     <use xlink:href="#DejaVuSans-63" transform="translate(679.585938 0)"/>
     <use xlink:href="#DejaVuSans-65" transform="translate(734.566406 0)"/>
     <use xlink:href="#DejaVuSans-6e" transform="translate(796.089844 0)"/>
     <use xlink:href="#DejaVuSans-74" transform="translate(859.46875 0)"/>
     <use xlink:href="#DejaVuSans-61" transform="translate(898.677734 0)"/>
     <use xlink:href="#DejaVuSans-67" transform="translate(959.957031 0)"/>
     <use xlink:href="#DejaVuSans-65" transform="translate(1023.433594 0)"/>
     <use xlink:href="#DejaVuSans-20" transform="translate(1084.957031 0)"/>
     <use xlink:href="#DejaVuSans-6f" transform="translate(1116.744141 0)"/>
     <use xlink:href="#DejaVuSans-66" transform="translate(1177.925781 0)"/>
     <use xlink:href="#DejaVuSans-20" transform="translate(1213.130859 0)"/>
     <use xlink:href="#DejaVuSans-41" transform="translate(1244.917969 0)"/>
     <use xlink:href="#DejaVuSans-57" transform="translate(1307.826172 0)"/>
     <use xlink:href="#DejaVuSans-53" transform="translate(1406.703125 0)"/>
     <use xlink:href="#DejaVuSans-20" transform="translate(1470.179688 0)"/>
     <use xlink:href="#DejaVuSans-6f" transform="translate(1501.966797 0)"/>
     <use xlink:href="#DejaVuSans-77" transform="translate(1563.148438 0)"/>
     <use xlink:href="#DejaVuSans-6e" transform="translate(1644.935547 0)"/>
     <use xlink:href="#DejaVuSans-65" transform="translate(1708.314453 0)"/>
     <use xlink:href="#DejaVuSans-72" transform="translate(1769.837891 0)"/>
     <use xlink:href="#DejaVuSans-73" transform="translate(1810.951172 0)"/>
     <use xlink:href="#DejaVuSans-68" transform="translate(1863.050781 0)"/>
     <use xlink:href="#DejaVuSans-69" transform="translate(1926.429688 0)"/>
     <use xlink:href="#DejaVuSans-70" transform="translate(1954.212891 0)"/>
     <use xlink:href="#DejaVuSans-20" transform="translate(2017.689453 0)"/>
     <use xlink:href="#DejaVuSans-6f" transform="translate(2049.476562 0)"/>
     <use xlink:href="#DejaVuSans-66" transform="translate(2110.658203 0)"/>
     <use xlink:href="#DejaVuSans-20" transform="translate(2145.863281 0)"/>
     <use xlink:href="#DejaVuSans-49" transform="translate(2177.650391 0)"/>
     <use xlink:href="#DejaVuSans-50" transform="translate(2207.142578 0)"/>
     <use xlink:href="#DejaVuSans-76" transform="translate(2267.445312 0)"/>
     <use xlink:href="#DejaVuSans-34" transform="translate(2326.625 0)"/>
     <use xlink:href="#DejaVuSans-20" transform="translate(2390.248047 0)"/>
     <use xlink:href="#DejaVuSans-73" transform="translate(2422.035156 0)"/>
     <use xlink:href="#DejaVuSans-70" transform="translate(2474.134766 0)"/>
     <use xlink:href="#DejaVuSans-61" transform="translate(2537.611328 0)"/>
     <use xlink:href="#DejaVuSans-63" transform="translate(2598.890625 0)"/>
     <use xlink:href="#DejaVuSans-65" transform="translate(2653.871094 0)"/>
    </g>
   </g>
  </g>
 </g>
 <defs>
  <clipPath id="p6d14471b0e">
   <rect x="30.103125" y="22.318125" width="502.2" height="277.2"/>
  </clipPath>
 </defs>
</svg>
