<?xml version="1.0" encoding="utf-8" standalone="no"?>
<!DOCTYPE svg PUBLIC "-//W3C//DTD SVG 1.1//EN"
  "http://www.w3.org/Graphics/SVG/1.1/DTD/svg11.dtd">
<svg xmlns:xlink="http://www.w3.org/1999/xlink" width="539.503125pt" height="323.39625pt" viewBox="0 0 539.503125 323.39625" xmlns="http://www.w3.org/2000/svg" version="1.1">
 
 <defs>
  <style type="text/css">*{stroke-linejoin: round; stroke-linecap: butt}</style>
 </defs>
 <g id="figure_1">
  <g id="patch_1">
   <path d="M 0 323.39625 
L 539.503125 323.39625 
L 539.503125 0 
L 0 0 
z
" style="fill: #b2b2b2"/>
  </g>
  <g id="axes_1">
   <g id="patch_2">
    <path d="M 30.103125 299.518125 
L 532.303125 299.518125 
L 532.303125 22.318125 
L 30.103125 22.318125 
z
" style="fill: #e6e6e6"/>
   </g>
   <g id="matplotlib.axis_1">
    <g id="xtick_1">
     <g id="line2d_1">
      <defs>
       <path id="ma78f911f2e" d="M 0 0 
L 0 3.5 
" style="stroke: #000000; stroke-width: 0.8"/>
      </defs>
      <g>
       <use xlink:href="#ma78f911f2e" x="67.495022" y="299.518125" style="stroke: #000000; stroke-width: 0.8"/>
      </g>
     </g>
     <g id="text_1">
      <!-- 2019 -->
      <g transform="translate(54.770022 314.116563) scale(0.1 -0.1)">
       <defs>
        <path id="DejaVuSans-32" d="M 1228 531 
L 3431 531 
L 3431 0 
L 469 0 
L 469 531 
Q 828 903 1448 1529 
Q 2069 2156 2228 2338 
Q 2531 2678 2651 2914 
Q 2772 3150 2772 3378 
Q 2772 3750 2511 3984 
Q 2250 4219 1831 4219 
Q 1534 4219 1204 4116 
Q 875 4013 500 3803 
L 500 4441 
Q 881 4594 1212 4672 
Q 1544 4750 1819 4750 
Q 2544 4750 2975 4387 
Q 3406 4025 3406 3419 
Q 3406 3131 3298 2873 
Q 3191 2616 2906 2266 
Q 2828 2175 2409 1742 
Q 1991 1309 1228 531 
z
" transform="scale(0.015625)"/>
        <path id="DejaVuSans-30" d="M 2034 4250 
Q 1547 4250 1301 3770 
Q 1056 3291 1056 2328 
Q 1056 1369 1301 889 
Q 1547 409 2034 409 
Q 2525 409 2770 889 
Q 3016 1369 3016 2328 
Q 3016 3291 2770 3770 
Q 2525 4250 2034 4250 
z
M 2034 4750 
Q 2819 4750 3233 4129 
Q 3647 3509 3647 2328 
Q 3647 1150 3233 529 
Q 2819 -91 2034 -91 
Q 1250 -91 836 529 
Q 422 1150 422 2328 
Q 422 3509 836 4129 
Q 1250 4750 2034 4750 
z
" transform="scale(0.015625)"/>
        <path id="DejaVuSans-31" d="M 794 531 
L 1825 531 
L 1825 4091 
L 703 3866 
L 703 4441 
L 1819 4666 
L 2450 4666 
L 2450 531 
L 3481 531 
L 3481 0 
L 794 0 
L 794 531 
z
" transform="scale(0.015625)"/>
        <path id="DejaVuSans-39" d="M 703 97 
L 703 672 
Q 941 559 1184 500 
Q 1428 441 1663 441 
Q 2288 441 2617 861 
Q 2947 1281 2994 2138 
Q 2813 1869 2534 1725 
Q 2256 1581 1919 1581 
Q 1219 1581 811 2004 
Q 403 2428 403 3163 
Q 403 3881 828 4315 
Q 1253 4750 1959 4750 
Q 2769 4750 3195 4129 
Q 3622 3509 3622 2328 
Q 3622 1225 3098 567 
Q 2575 -91 1691 -91 
Q 1453 -91 1209 -44 
Q 966 3 703 97 
z
M 1959 2075 
Q 2384 2075 2632 2365 
Q 2881 2656 2881 3163 
Q 2881 3666 2632 3958 
Q 2384 4250 1959 4250 
Q 1534 4250 1286 3958 
Q 1038 3666 1038 3163 
Q 1038 2656 1286 2365 
Q 1534 2075 1959 2075 
z
" transform="scale(0.015625)"/>
       </defs>
       <use xlink:href="#DejaVuSans-32"/>
       <use xlink:href="#DejaVuSans-30" transform="translate(63.623047 0)"/>
       <use xlink:href="#DejaVuSans-31" transform="translate(127.246094 0)"/>
       <use xlink:href="#DejaVuSans-39" transform="translate(190.869141 0)"/>
      </g>
     </g>
    </g>
    <g id="xtick_2">
     <g id="line2d_2">
      <g>
       <use xlink:href="#ma78f911f2e" x="128.697005" y="299.518125" style="stroke: #000000; stroke-width: 0.8"/>
      </g>
     </g>
     <g id="text_2">
      <!-- 2020 -->
      <g transform="translate(115.972005 314.116563) scale(0.1 -0.1)">
       <use xlink:href="#DejaVuSans-32"/>
       <use xlink:href="#DejaVuSans-30" transform="translate(63.623047 0)"/>
       <use xlink:href="#DejaVuSans-32" transform="translate(127.246094 0)"/>
       <use xlink:href="#DejaVuSans-30" transform="translate(190.869141 0)"/>
      </g>
     </g>
    </g>
    <g id="xtick_3">
     <g id="line2d_3">
      <g>
       <use xlink:href="#ma78f911f2e" x="190.066665" y="299.518125" style="stroke: #000000; stroke-width: 0.8"/>
      </g>
     </g>
     <g id="text_3">
      <!-- 2021 -->
      <g transform="translate(177.341665 314.116563) scale(0.1 -0.1)">
       <use xlink:href="#DejaVuSans-32"/>
       <use xlink:href="#DejaVuSans-30" transform="translate(63.623047 0)"/>
       <use xlink:href="#DejaVuSans-32" transform="translate(127.246094 0)"/>
       <use xlink:href="#DejaVuSans-31" transform="translate(190.869141 0)"/>
      </g>
     </g>
    </g>
    <g id="xtick_4">
     <g id="line2d_4">
      <g>
       <use xlink:href="#ma78f911f2e" x="251.268648" y="299.518125" style="stroke: #000000; stroke-width: 0.8"/>
      </g>
     </g>
     <g id="text_4">
      <!-- 2022 -->
      <g transform="translate(238.543648 314.116563) scale(0.1 -0.1)">
       <use xlink:href="#DejaVuSans-32"/>
       <use xlink:href="#DejaVuSans-30" transform="translate(63.623047 0)"/>
       <use xlink:href="#DejaVuSans-32" transform="translate(127.246094 0)"/>
       <use xlink:href="#DejaVuSans-32" transform="translate(190.869141 0)"/>
      </g>
     </g>
    </g>
    <g id="xtick_5">
     <g id="line2d_5">
      <g>
       <use xlink:href="#ma78f911f2e" x="312.470631" y="299.518125" style="stroke: #000000; stroke-width: 0.8"/>
      </g>
     </g>
     <g id="text_5">
      <!-- 2023 -->
      <g transform="translate(299.745631 314.116563) scale(0.1 -0.1)">
       <defs>
        <path id="DejaVuSans-33" d="M 2597 2516 
Q 3050 2419 3304 2112 
Q 3559 1806 3559 1356 
Q 3559 666 3084 287 
Q 2609 -91 1734 -91 
Q 1441 -91 1130 -33 
Q 819 25 488 141 
L 488 750 
Q 750 597 1062 519 
Q 1375 441 1716 441 
Q 2309 441 2620 675 
Q 2931 909 2931 1356 
Q 2931 1769 2642 2001 
Q 2353 2234 1838 2234 
L 1294 2234 
L 1294 2753 
L 1863 2753 
Q 2328 2753 2575 2939 
Q 2822 3125 2822 3475 
Q 2822 3834 2567 4026 
Q 2313 4219 1838 4219 
Q 1578 4219 1281 4162 
Q 984 4106 628 3988 
L 628 4550 
Q 988 4650 1302 4700 
Q 1616 4750 1894 4750 
Q 2613 4750 3031 4423 
Q 3450 4097 3450 3541 
Q 3450 3153 3228 2886 
Q 3006 2619 2597 2516 
z
" transform="scale(0.015625)"/>
       </defs>
       <use xlink:href="#DejaVuSans-32"/>
       <use xlink:href="#DejaVuSans-30" transform="translate(63.623047 0)"/>
       <use xlink:href="#DejaVuSans-32" transform="translate(127.246094 0)"/>
       <use xlink:href="#DejaVuSans-33" transform="translate(190.869141 0)"/>
      </g>
     </g>
    </g>
    <g id="xtick_6">
     <g id="line2d_6">
      <g>
       <use xlink:href="#ma78f911f2e" x="373.672615" y="299.518125" style="stroke: #000000; stroke-width: 0.8"/>
      </g>
     </g>
     <g id="text_6">
      <!-- 2024 -->
      <g transform="translate(360.947615 314.116563) scale(0.1 -0.1)">
       <defs>
        <path id="DejaVuSans-34" d="M 2419 4116 
L 825 1625 
L 2419 1625 
L 2419 4116 
z
M 2253 4666 
L 3047 4666 
L 3047 1625 
L 3713 1625 
L 3713 1100 
L 3047 1100 
L 3047 0 
L 2419 0 
L 2419 1100 
L 313 1100 
L 313 1709 
L 2253 4666 
z
" transform="scale(0.015625)"/>
       </defs>
       <use xlink:href="#DejaVuSans-32"/>
       <use xlink:href="#DejaVuSans-30" transform="translate(63.623047 0)"/>
       <use xlink:href="#DejaVuSans-32" transform="translate(127.246094 0)"/>
       <use xlink:href="#DejaVuSans-34" transform="translate(190.869141 0)"/>
      </g>
     </g>
    </g>
    <g id="xtick_7">
     <g id="line2d_7">
      <g>
       <use xlink:href="#ma78f911f2e" x="435.042275" y="299.518125" style="stroke: #000000; stroke-width: 0.8"/>
      </g>
     </g>
     <g id="text_7">
      <!-- 2025 -->
      <g transform="translate(422.317275 314.116563) scale(0.1 -0.1)">
       <defs>
        <path id="DejaVuSans-35" d="M 691 4666 
L 3169 4666 
L 3169 4134 
L 1269 4134 
L 1269 2991 
Q 1406 3038 1543 3061 
Q 1681 3084 1819 3084 
Q 2600 3084 3056 2656 
Q 3513 2228 3513 1497 
Q 3513 744 3044 326 
Q 2575 -91 1722 -91 
Q 1428 -91 1123 -41 
Q 819 9 494 109 
L 494 744 
Q 775 591 1075 516 
Q 1375 441 1709 441 
Q 2250 441 2565 725 
Q 2881 1009 2881 1497 
Q 2881 1984 2565 2268 
Q 2250 2553 1709 2553 
Q 1456 2553 1204 2497 
Q 953 2441 691 2322 
L 691 4666 
z
" transform="scale(0.015625)"/>
       </defs>
       <use xlink:href="#DejaVuSans-32"/>
       <use xlink:href="#DejaVuSans-30" transform="translate(63.623047 0)"/>
       <use xlink:href="#DejaVuSans-32" transform="translate(127.246094 0)"/>
       <use xlink:href="#DejaVuSans-35" transform="translate(190.869141 0)"/>
      </g>
     </g>
    </g>
    <g id="xtick_8">
     <g id="line2d_8">
      <g>
       <use xlink:href="#ma78f911f2e" x="496.244258" y="299.518125" style="stroke: #000000; stroke-width: 0.8"/>
      </g>
     </g>
     <g id="text_8">
      <!-- 2026 -->
      <g transform="translate(483.519258 314.116563) scale(0.1 -0.1)">
       <defs>
        <path id="DejaVuSans-36" d="M 2113 2584 
Q 1688 2584 1439 2293 
Q 1191 2003 1191 1497 
Q 1191 994 1439 701 
Q 1688 409 2113 409 
Q 2538 409 2786 701 
Q 3034 994 3034 1497 
Q 3034 2003 2786 2293 
Q 2538 2584 2113 2584 
z
M 3366 4563 
L 3366 3988 
Q 3128 4100 2886 4159 
Q 2644 4219 2406 4219 
Q 1781 4219 1451 3797 
Q 1122 3375 1075 2522 
Q 1259 2794 1537 2939 
Q 1816 3084 2150 3084 
Q 2853 3084 3261 2657 
Q 3669 2231 3669 1497 
Q 3669 778 3244 343 
Q 2819 -91 2113 -91 
Q 1303 -91 875 529 
Q 447 1150 447 2328 
Q 447 3434 972 4092 
Q 1497 4750 2381 4750 
Q 2619 4750 2861 4703 
Q 3103 4656 3366 4563 
z
" transform="scale(0.015625)"/>
       </defs>
       <use xlink:href="#DejaVuSans-32"/>
       <use xlink:href="#DejaVuSans-30" transform="translate(63.623047 0)"/>
       <use xlink:href="#DejaVuSans-32" transform="translate(127.246094 0)"/>
       <use xlink:href="#DejaVuSans-36" transform="translate(190.869141 0)"/>
      </g>
     </g>
    </g>
   </g>
   <g id="matplotlib.axis_2">
    <g id="ytick_1">
     <g id="line2d_9">
      <defs>
       <path id="ma562af20d9" d="M 0 0 
L -3.5 0 
" style="stroke: #000000; stroke-width: 0.8"/>
      </defs>
      <g>
       <use xlink:href="#ma562af20d9" x="30.103125" y="299.518125" style="stroke: #000000; stroke-width: 0.8"/>
      </g>
     </g>
     <g id="text_9">
      <!-- 0.0 -->
      <g transform="translate(7.2 303.317344) scale(0.1 -0.1)">
       <defs>
        <path id="DejaVuSans-2e" d="M 684 794 
L 1344 794 
L 1344 0 
L 684 0 
L 684 794 
z
" transform="scale(0.015625)"/>
       </defs>
       <use xlink:href="#DejaVuSans-30"/>
       <use xlink:href="#DejaVuSans-2e" transform="translate(63.623047 0)"/>
       <use xlink:href="#DejaVuSans-30" transform="translate(95.410156 0)"/>
      </g>
     </g>
    </g>
    <g id="ytick_2">
     <g id="line2d_10">
      <g>
       <use xlink:href="#ma562af20d9" x="30.103125" y="253.742534" style="stroke: #000000; stroke-width: 0.8"/>
      </g>
     </g>
     <g id="text_10">
      <!-- 0.5 -->
      <g transform="translate(7.2 257.541752) scale(0.1 -0.1)">
       <use xlink:href="#DejaVuSans-30"/>
       <use xlink:href="#DejaVuSans-2e" transform="translate(63.623047 0)"/>
       <use xlink:href="#DejaVuSans-35" transform="translate(95.410156 0)"/>
      </g>
     </g>
    </g>
    <g id="ytick_3">
     <g id="line2d_11">
      <g>
       <use xlink:href="#ma562af20d9" x="30.103125" y="207.966942" style="stroke: #000000; stroke-width: 0.8"/>
      </g>
     </g>
     <g id="text_11">
      <!-- 1.0 -->
      <g transform="translate(7.2 211.766161) scale(0.1 -0.1)">
       <use xlink:href="#DejaVuSans-31"/>
       <use xlink:href="#DejaVuSans-2e" transform="translate(63.623047 0)"/>
       <use xlink:href="#DejaVuSans-30" transform="translate(95.410156 0)"/>
      </g>
     </g>
    </g>
    <g id="ytick_4">
     <g id="line2d_12">
      <g>
       <use xlink:href="#ma562af20d9" x="30.103125" y="162.191351" style="stroke: #000000; stroke-width: 0.8"/>
      </g>
     </g>
     <g id="text_12">
      <!-- 1.5 -->
      <g transform="translate(7.2 165.99057) scale(0.1 -0.1)">
       <use xlink:href="#DejaVuSans-31"/>
       <use xlink:href="#DejaVuSans-2e" transform="translate(63.623047 0)"/>
       <use xlink:href="#DejaVuSans-35" transform="translate(95.410156 0)"/>
      </g>
     </g>
    </g>
    <g id="ytick_5">
     <g id="line2d_13">
      <g>
       <use xlink:href="#ma562af20d9" x="30.103125" y="116.41576" style="stroke: #000000; stroke-width: 0.8"/>
      </g>
     </g>
     <g id="text_13">
      <!-- 2.0 -->
      <g transform="translate(7.2 120.214978) scale(0.1 -0.1)">
       <use xlink:href="#DejaVuSans-32"/>
       <use xlink:href="#DejaVuSans-2e" transform="translate(63.623047 0)"/>
       <use xlink:href="#DejaVuSans-30" transform="translate(95.410156 0)"/>
      </g>
     </g>
    </g>
    <g id="ytick_6">
     <g id="line2d_14">
      <g>
       <use xlink:href="#ma562af20d9" x="30.103125" y="70.640168" style="stroke: #000000; stroke-width: 0.8"/>
      </g>
     </g>
     <g id="text_14">
      <!-- 2.5 -->
      <g transform="translate(7.2 74.439387) scale(0.1 -0.1)">
       <use xlink:href="#DejaVuSans-32"/>
       <use xlink:href="#DejaVuSans-2e" transform="translate(63.623047 0)"/>
       <use xlink:href="#DejaVuSans-35" transform="translate(95.410156 0)"/>
      </g>
     </g>
    </g>
    <g id="ytick_7">
     <g id="line2d_15">
      <g>
       <use xlink:href="#ma562af20d9" x="30.103125" y="24.864577" style="stroke: #000000; stroke-width: 0.8"/>
      </g>
     </g>
     <g id="text_15">
      <!-- 3.0 -->
      <g transform="translate(7.2 28.663796) scale(0.1 -0.1)">
       <use xlink:href="#DejaVuSans-33"/>
       <use xlink:href="#DejaVuSans-2e" transform="translate(63.623047 0)"/>
       <use xlink:href="#DejaVuSans-30" transform="translate(95.410156 0)"/>
      </g>
     </g>
    </g>
   </g>
   <g id="line2d_16">
    <path d="M 6.293038 299.518125 
L 6.293038 22.318125 
" clip-path="url(#p6d14471b0e)" style="fill: none; stroke: #cccccc; stroke-linecap: square"/>
   </g>
   <g id="line2d_17">
    <path d="M 67.495022 299.518125 
L 67.495022 22.318125 
" clip-path="url(#p6d14471b0e)" style="fill: none; stroke: #cccccc; stroke-linecap: square"/>
   </g>
   <g id="line2d_18">
    <path d="M 128.697005 299.518125 
L 128.697005 22.318125 
" clip-path="url(#p6d14471b0e)" style="fill: none; stroke: #cccccc; stroke-linecap: square"/>
   </g>
   <g id="line2d_19">
    <path d="M 190.066665 299.518125 
L 190.066665 22.318125 
" clip-path="url(#p6d14471b0e)" style="fill: none; stroke: #cccccc; stroke-linecap: square"/>
   </g>
   <g id="line2d_20">
    <path d="M 251.268648 299.518125 
L 251.268648 22.318125 
" clip-path="url(#p6d14471b0e)" style="fill: none; stroke: #cccccc; stroke-linecap: square"/>
   </g>
   <g id="line2d_21">
    <path d="M 312.470631 299.518125 
L 312.470631 22.318125 
" clip-path="url(#p6d14471b0e)" style="fill: none; stroke: #cccccc; stroke-linecap: square"/>
   </g>
   <g id="line2d_22">
    <path d="M 373.672615 299.518125 
L 373.672615 22.318125 
" clip-path="url(#p6d14471b0e)" style="fill: none; stroke: #cccccc; stroke-linecap: square"/>
   </g>
   <g id="line2d_23">
    <path d="M 435.042275 299.518125 
L 435.042275 22.318125 
" clip-path="url(#p6d14471b0e)" style="fill: none; stroke: #cccccc; stroke-linecap: square"/>
   </g>
   <g id="line2d_24">
    <path d="M 496.244258 299.518125 
L 496.244258 22.318125 
" clip-path="url(#p6d14471b0e)" style="fill: none; stroke: #cccccc; stroke-linecap: square"/>
   </g>
   <g id="line2d_25">
    <path d="M 30.103125 299.518125 
L 532.303125 299.518125 
" clip-path="url(#p6d14471b0e)" style="fill: none; stroke: #cccccc; stroke-linecap: square"/>
   </g>
   <g id="line2d_26">
    <path d="M 30.103125 276.630329 
L 532.303125 276.630329 
" clip-path="url(#p6d14471b0e)" style="fill: none; stroke: #cccccc; stroke-linecap: square"/>
   </g>
   <g id="line2d_27">
    <path d="M 30.103125 253.742534 
L 532.303125 253.742534 
" clip-path="url(#p6d14471b0e)" style="fill: none; stroke: #cccccc; stroke-linecap: square"/>
   </g>
   <g id="line2d_28">
    <path d="M 30.103125 230.854738 
L 532.303125 230.854738 
" clip-path="url(#p6d14471b0e)" style="fill: none; stroke: #cccccc; stroke-linecap: square"/>
   </g>
   <g id="line2d_29">
    <path d="M 30.103125 207.966942 
L 532.303125 207.966942 
" clip-path="url(#p6d14471b0e)" style="fill: none; stroke: #cccccc; stroke-linecap: square"/>
   </g>
   <g id="line2d_30">
    <path d="M 30.103125 185.079147 
L 532.303125 185.079147 
" clip-path="url(#p6d14471b0e)" style="fill: none; stroke: #cccccc; stroke-linecap: square"/>
   </g>
   <g id="line2d_31">
    <path d="M 30.103125 162.191351 
L 532.303125 162.191351 
" clip-path="url(#p6d14471b0e)" style="fill: none; stroke: #cccccc; stroke-linecap: square"/>
   </g>
   <g id="line2d_32">
    <path d="M 30.103125 139.303555 
L 532.303125 139.303555 
" clip-path="url(#p6d14471b0e)" style="fill: none; stroke: #cccccc; stroke-linecap: square"/>
   </g>
   <g id="line2d_33">
    <path d="M 30.103125 116.41576 
L 532.303125 116.41576 
" clip-path="url(#p6d14471b0e)" style="fill: none; stroke: #cccccc; stroke-linecap: square"/>
   </g>
   <g id="line2d_34">
    <path d="M 30.103125 93.527964 
L 532.303125 93.527964 
" clip-path="url(#p6d14471b0e)" style="fill: none; stroke: #cccccc; stroke-linecap: square"/>
   </g>
   <g id="line2d_35">
    <path d="M 30.103125 70.640168 
L 532.303125 70.640168 
" clip-path="url(#p6d14471b0e)" style="fill: none; stroke: #cccccc; stroke-linecap: square"/>
   </g>
   <g id="line2d_36">
    <path d="M 30.103125 218.877114 
L 32.618275 218.875205 
L 32.785952 218.692887 
L 35.804132 218.692887 
L 35.971808 218.044645 
L 37.983928 218.042746 
L 38.151605 216.745629 
L 41.672815 216.747528 
L 41.840492 215.772474 
L 45.194025 215.75918 
L 45.361702 211.868462 
L 52.236445 211.866237 
L 52.404122 211.542116 
L 53.242505 211.516161 
L 56.093008 211.5149 
L 56.260685 210.218416 
L 57.099068 210.218416 
L 57.266745 209.408113 
L 58.943512 209.359369 
L 59.111188 210.007611 
L 62.464722 210.001854 
L 62.632398 209.515672 
L 64.141488 209.515039 
L 64.476842 208.540144 
L 64.979872 208.540144 
L 65.147548 203.030087 
L 67.662698 203.027555 
L 67.830375 202.376781 
L 72.357645 202.371083 
L 72.525322 202.209023 
L 79.232388 202.152197 
L 79.400065 201.503322 
L 81.915215 201.496042 
L 82.082892 201.333981 
L 82.921275 201.328284 
L 83.088952 201.166223 
L 84.933395 201.157361 
L 85.268748 200.509119 
L 85.436425 200.167272 
L 86.107132 200.166639 
L 86.274808 199.842518 
L 86.442485 199.842439 
L 86.610162 199.491364 
L 88.622282 199.489465 
L 88.789958 197.537143 
L 89.963695 197.533977 
L 90.131372 197.20907 
L 90.969755 197.20638 
L 91.137432 196.23275 
L 102.539445 196.135177 
L 102.707122 192.901559 
L 102.874798 192.901386 
L 103.042475 185.122482 
L 107.569745 185.074865 
L 107.737422 185.074865 
L 107.905098 183.61632 
L 117.630345 183.613153 
L 117.798022 181.800108 
L 117.965698 181.475987 
L 120.145495 181.470923 
L 120.313172 180.822681 
L 122.660645 180.813828 
L 122.828322 179.517344 
L 124.002058 179.516711 
L 124.169735 178.868469 
L 129.870742 178.83697 
L 130.038418 177.850047 
L 133.391952 177.822158 
L 133.559628 177.660731 
L 141.608108 177.641111 
L 143.787905 177.598049 
L 143.955582 177.121986 
L 146.135378 177.110413 
L 146.303055 176.948986 
L 146.973762 176.948353 
L 147.141438 176.59804 
L 148.482852 176.589758 
L 148.650528 173.995524 
L 152.171738 173.991088 
L 152.339415 173.707482 
L 154.686888 173.706206 
L 154.854565 173.544145 
L 156.866685 173.582393 
L 157.034362 173.240546 
L 158.375775 173.221009 
L 162.903045 173.128667 
L 163.070722 172.962176 
L 163.909105 172.960319 
L 164.244458 172.772921 
L 165.082842 172.772921 
L 165.250518 172.124679 
L 165.921225 172.124615 
L 166.088902 161.75211 
L 166.256578 172.123903 
L 170.951525 172.11168 
L 171.119202 171.398827 
L 172.292938 171.398659 
L 172.460615 171.235995 
L 173.969705 171.227088 
L 174.137382 168.142874 
L 177.993945 168.131355 
L 178.161622 164.241844 
L 182.521215 164.149427 
L 182.688892 163.799904 
L 185.204042 163.793698 
L 185.371718 163.464037 
L 187.383838 163.462059 
L 187.551515 163.121437 
L 193.755552 163.106493 
L 193.923228 162.759583 
L 194.090905 162.759583 
L 194.258582 162.406972 
L 194.593935 162.322688 
L 195.264642 162.315239 
L 195.432318 162.072144 
L 198.785851 162.044871 
L 198.953528 162.393918 
L 199.288881 162.392899 
L 199.456558 161.720601 
L 199.959588 161.720577 
L 200.127265 160.424093 
L 200.462618 160.422824 
L 200.630295 160.258696 
L 205.828271 160.153776 
L 205.995948 159.499836 
L 209.852511 159.428196 
L 210.020188 159.265673 
L 210.355541 159.264802 
L 210.523218 158.287375 
L 211.529278 158.282624 
L 211.696955 157.933095 
L 212.870691 157.901791 
L 213.206045 157.805234 
L 216.391901 157.784217 
L 216.559578 157.427019 
L 217.565638 157.463783 
L 217.733315 156.004734 
L 221.757555 155.834054 
L 225.781795 155.810191 
L 225.949471 154.835295 
L 226.117148 154.673232 
L 226.284825 152.08026 
L 227.290885 152.079782 
L 227.458561 138.466023 
L 236.680778 138.383809 
L 237.016131 138.208454 
L 246.741378 138.16648 
L 246.909055 137.842344 
L 254.454505 137.734622 
L 254.622181 135.789743 
L 257.808038 135.728696 
L 257.975715 135.381152 
L 270.216111 135.349512 
L 270.383788 134.700795 
L 271.892878 134.700083 
L 272.060555 135.024204 
L 280.947418 134.945406 
L 281.115095 134.782713 
L 284.971658 134.737672 
L 285.139335 134.533514 
L 290.672665 134.488946 
L 290.840341 135.788111 
L 291.343371 135.787478 
L 291.511048 134.490994 
L 291.678725 134.490974 
L 291.846401 120.06759 
L 292.014078 115.676111 
L 293.020138 115.629233 
L 293.355491 114.316208 
L 294.361551 114.29962 
L 294.529228 114.129963 
L 296.709025 114.116943 
L 296.876701 126.433378 
L 298.553468 126.434763 
L 298.721145 119.627905 
L 299.056498 119.627905 
L 299.224175 124.158636 
L 308.446391 124.106016 
L 308.614068 123.457774 
L 314.818105 123.427605 
L 315.991841 123.423688 
L 316.159518 123.585749 
L 331.250418 123.539863 
L 331.585771 123.468645 
L 332.927185 123.467675 
L 333.094861 123.264823 
L 334.268598 123.263042 
L 334.436275 120.021832 
L 346.005965 120.019439 
L 346.173641 119.710761 
L 347.850408 119.698891 
L 348.018085 120.182382 
L 348.353438 120.17705 
L 348.521115 120.01499 
L 348.856468 120.01499 
L 349.024145 119.852929 
L 350.533235 119.843906 
L 350.700911 119.463365 
L 356.234241 119.450901 
L 356.401918 119.607739 
L 364.450398 119.535023 
L 364.618075 118.886781 
L 366.462518 118.886622 
L 366.630195 117.57178 
L 370.486758 117.526418 
L 370.822111 117.384615 
L 376.187765 117.396935 
L 376.355441 116.241463 
L 377.193825 116.23986 
L 377.361501 104.570872 
L 382.056448 104.562061 
L 382.224125 104.883566 
L 385.242305 104.84809 
L 385.409981 104.199645 
L 385.577658 104.84761 
L 394.967551 104.834915 
L 395.135228 104.996975 
L 396.476641 104.997925 
L 396.644318 104.420263 
L 400.500881 104.366746 
L 400.836235 103.954472 
L 401.171588 103.954156 
L 401.339265 105.089054 
L 404.357445 104.980012 
L 407.878655 104.936225 
L 408.214008 105.089133 
L 411.399865 105.085968 
L 411.735218 104.964423 
L 411.902895 105.288544 
L 412.238248 105.288544 
L 412.405925 105.774725 
L 413.411985 105.773835 
L 413.579661 105.449714 
L 416.933195 105.355014 
L 417.771578 105.233468 
L 418.777638 105.213211 
L 418.945315 103.915461 
L 419.280668 103.915461 
L 419.448345 101.883886 
L 421.125111 101.774252 
L 421.292788 102.01671 
L 422.801878 102.041399 
L 422.969555 101.707149 
L 425.317028 101.7836 
L 425.484705 101.459479 
L 426.490765 101.461801 
L 426.658441 101.299085 
L 431.353388 101.259282 
L 431.521065 96.721588 
L 432.862478 96.722221 
L 433.030155 96.073979 
L 443.426108 95.98533 
L 443.593785 95.498516 
L 443.929138 95.498516 
L 444.096815 95.335822 
L 444.432168 94.849641 
L 444.599845 94.849641 
L 444.767521 94.524649 
L 446.276611 94.524649 
L 446.444288 73.133297 
L 447.785701 73.06746 
L 448.791761 73.159885 
L 448.959438 72.82247 
L 449.797821 72.81978 
L 449.965498 72.495659 
L 451.642265 72.448496 
L 451.809941 68.883166 
L 452.312971 68.883799 
L 452.480648 65.933158 
L 455.163475 65.916066 
L 455.331151 65.750207 
L 457.510948 65.752106 
L 457.678625 65.093735 
L 460.361451 65.06778 
L 460.529128 64.570837 
L 462.038218 64.548008 
L 466.733165 64.518235 
L 466.900841 64.355541 
L 468.745285 64.334651 
L 468.912961 64.637248 
L 469.919021 64.576475 
L 470.254375 64.522627 
L 470.422051 64.197952 
L 471.092758 64.177061 
L 471.260435 63.85294 
L 471.428111 63.84661 
L 471.595788 63.319913 
L 474.446291 63.23552 
L 475.116998 63.174747 
L 482.662448 63.059097 
L 482.830125 62.57477 
L 483.165478 62.553202 
L 483.500831 62.696266 
L 484.171538 62.696859 
L 484.339215 63.345091 
L 488.028101 63.213867 
L 488.195778 63.520777 
L 495.908905 63.456988 
L 499.597791 63.35386 
L 499.765468 60.098723 
L 499.933145 51.670944 
L 500.100821 51.022703 
L 500.268498 51.022703 
L 500.436175 48.75259 
L 500.939205 48.740482 
L 501.106881 49.039281 
L 503.789708 49.035439 
L 503.957385 48.830919 
L 510.161421 48.705338 
L 510.999805 48.646465 
L 513.347278 48.546366 
L 516.700811 48.411403 
L 517.371518 48.358405 
L 517.539195 48.015926 
L 520.054345 47.961345 
L 520.054345 47.961345 
" clip-path="url(#p6d14471b0e)" style="fill: none; stroke: #1f77b4; stroke-width: 2; stroke-linecap: square"/>
   </g>
   <g id="patch_3">
    <path d="M 30.103125 299.518125 
L 30.103125 22.318125 
" style="fill: none; stroke: #000000; stroke-width: 0.8; stroke-linejoin: miter; stroke-linecap: square"/>
   </g>
   <g id="patch_4">
    <path d="M 532.303125 299.518125 
L 532.303125 22.318125 
" style="fill: none; stroke: #000000; stroke-width: 0.8; stroke-linejoin: miter; stroke-linecap: square"/>
   </g>
   <g id="patch_5">
    <path d="M 30.103125 299.518125 
L 532.303125 299.518125 
" style="fill: none; stroke: #000000; stroke-width: 0.8; stroke-linejoin: miter; stroke-linecap: square"/>
   </g>
   <g id="patch_6">
    <path d="M 30.103125 22.318125 
L 532.303125 22.318125 
" style="fill: none; stroke: #000000; stroke-width: 0.8; stroke-linejoin: miter; stroke-linecap: square"/>
   </g>
   <g id="patch_7">
    <path d="M 89.309875 181.42547 
Q 95.208925 183.013578 101.107975 184.601687 
" style="fill: none; stroke: #000000; stroke-linecap: round"/>
   </g>
   <g id="text_16">
    <g id="patch_8">
     <path d="M 35.971808 184.776302 
L 84.382124 184.776302 
Q 86.881124 184.776302 86.881124 182.277302 
L 86.881124 164.887646 
Q 86.881124 162.388646 84.382124 162.388646 
L 35.971808 162.388646 
Q 33.472808 162.388646 33.472808 164.887646 
L 33.472808 182.277302 
Q 33.472808 184.776302 35.971808 184.776302 
z
" style="fill: #cccccc; stroke: #000000; stroke-linejoin: miter"/>
    </g>
    <!-- 2019-08-01 -->
    <g transform="translate(35.971808 171.217145) scale(0.0833 -0.0833)">
     <defs>
      <path id="DejaVuSans-2d" d="M 313 2009 
L 1997 2009 
L 1997 1497 
L 313 1497 
L 313 2009 
z
" transform="scale(0.015625)"/>
      <path id="DejaVuSans-38" d="M 2034 2216 
Q 1584 2216 1326 1975 
Q 1069 1734 1069 1313 
Q 1069 891 1326 650 
Q 1584 409 2034 409 
Q 2484 409 2743 651 
Q 3003 894 3003 1313 
Q 3003 1734 2745 1975 
Q 2488 2216 2034 2216 
z
M 1403 2484 
Q 997 2584 770 2862 
Q 544 3141 544 3541 
Q 544 4100 942 4425 
Q 1341 4750 2034 4750 
Q 2731 4750 3128 4425 
Q 3525 4100 3525 3541 
Q 3525 3141 3298 2862 
Q 3072 2584 2669 2484 
Q 3125 2378 3379 2068 
Q 3634 1759 3634 1313 
Q 3634 634 3220 271 
Q 2806 -91 2034 -91 
Q 1263 -91 848 271 
Q 434 634 434 1313 
Q 434 1759 690 2068 
Q 947 2378 1403 2484 
z
M 1172 3481 
Q 1172 3119 1398 2916 
Q 1625 2713 2034 2713 
Q 2441 2713 2670 2916 
Q 2900 3119 2900 3481 
Q 2900 3844 2670 4047 
Q 2441 4250 2034 4250 
Q 1625 4250 1398 4047 
Q 1172 3844 1172 3481 
z
" transform="scale(0.015625)"/>
     </defs>
     <use xlink:href="#DejaVuSans-32"/>
     <use xlink:href="#DejaVuSans-30" transform="translate(63.623047 0)"/>
     <use xlink:href="#DejaVuSans-31" transform="translate(127.246094 0)"/>
     <use xlink:href="#DejaVuSans-39" transform="translate(190.869141 0)"/>
     <use xlink:href="#DejaVuSans-2d" transform="translate(254.492188 0)"/>
     <use xlink:href="#DejaVuSans-30" transform="translate(290.576172 0)"/>
     <use xlink:href="#DejaVuSans-38" transform="translate(354.199219 0)"/>
     <use xlink:href="#DejaVuSans-2d" transform="translate(417.822266 0)"/>
     <use xlink:href="#DejaVuSans-30" transform="translate(453.90625 0)"/>
     <use xlink:href="#DejaVuSans-31" transform="translate(517.529297 0)"/>
    </g>
    <!--  +3.15m  -->
    <g transform="translate(35.971808 180.544923) scale(0.0833 -0.0833)">
     <defs>
      <path id="DejaVuSans-20" transform="scale(0.015625)"/>
      <path id="DejaVuSans-2b" d="M 2944 4013 
L 2944 2272 
L 4684 2272 
L 4684 1741 
L 2944 1741 
L 2944 0 
L 2419 0 
L 2419 1741 
L 678 1741 
L 678 2272 
L 2419 2272 
L 2419 4013 
L 2944 4013 
z
" transform="scale(0.015625)"/>
      <path id="DejaVuSans-6d" d="M 3328 2828 
Q 3544 3216 3844 3400 
Q 4144 3584 4550 3584 
Q 5097 3584 5394 3201 
Q 5691 2819 5691 2113 
L 5691 0 
L 5113 0 
L 5113 2094 
Q 5113 2597 4934 2840 
Q 4756 3084 4391 3084 
Q 3944 3084 3684 2787 
Q 3425 2491 3425 1978 
L 3425 0 
L 2847 0 
L 2847 2094 
Q 2847 2600 2669 2842 
Q 2491 3084 2119 3084 
Q 1678 3084 1418 2786 
Q 1159 2488 1159 1978 
L 1159 0 
L 581 0 
L 581 3500 
L 1159 3500 
L 1159 2956 
Q 1356 3278 1631 3431 
Q 1906 3584 2284 3584 
Q 2666 3584 2933 3390 
Q 3200 3197 3328 2828 
z
" transform="scale(0.015625)"/>
     </defs>
     <use xlink:href="#DejaVuSans-20"/>
     <use xlink:href="#DejaVuSans-2b" transform="translate(31.787109 0)"/>
     <use xlink:href="#DejaVuSans-33" transform="translate(115.576172 0)"/>
     <use xlink:href="#DejaVuSans-2e" transform="translate(179.199219 0)"/>
     <use xlink:href="#DejaVuSans-31" transform="translate(210.986328 0)"/>
     <use xlink:href="#DejaVuSans-35" transform="translate(274.609375 0)"/>
     <use xlink:href="#DejaVuSans-6d" transform="translate(338.232422 0)"/>
     <use xlink:href="#DejaVuSans-20" transform="translate(435.644531 0)"/>
    </g>
   </g>
   <g id="patch_9">
    <path d="M 152.356302 158.055098 
Q 158.255352 159.643207 164.154402 161.231315 
" style="fill: none; stroke: #000000; stroke-linecap: round"/>
   </g>
   <g id="text_17">
    <g id="patch_10">
     <path d="M 99.018235 161.405931 
L 147.428551 161.405931 
Q 149.927551 161.405931 149.927551 158.906931 
L 149.927551 141.517275 
Q 149.927551 139.018275 147.428551 139.018275 
L 99.018235 139.018275 
Q 96.519235 139.018275 96.519235 141.517275 
L 96.519235 158.906931 
Q 96.519235 161.405931 99.018235 161.405931 
z
" style="fill: #cccccc; stroke: #000000; stroke-linejoin: miter"/>
    </g>
    <!-- 2020-08-11 -->
    <g transform="translate(99.018235 147.846773) scale(0.0833 -0.0833)">
     <use xlink:href="#DejaVuSans-32"/>
     <use xlink:href="#DejaVuSans-30" transform="translate(63.623047 0)"/>
     <use xlink:href="#DejaVuSans-32" transform="translate(127.246094 0)"/>
     <use xlink:href="#DejaVuSans-30" transform="translate(190.869141 0)"/>
     <use xlink:href="#DejaVuSans-2d" transform="translate(254.492188 0)"/>
     <use xlink:href="#DejaVuSans-30" transform="translate(290.576172 0)"/>
     <use xlink:href="#DejaVuSans-38" transform="translate(354.199219 0)"/>
     <use xlink:href="#DejaVuSans-2d" transform="translate(417.822266 0)"/>
     <use xlink:href="#DejaVuSans-31" transform="translate(453.90625 0)"/>
     <use xlink:href="#DejaVuSans-31" transform="translate(517.529297 0)"/>
    </g>
    <!--  +4.19m  -->
    <g transform="translate(99.018235 157.174551) scale(0.0833 -0.0833)">
     <use xlink:href="#DejaVuSans-20"/>
     <use xlink:href="#DejaVuSans-2b" transform="translate(31.787109 0)"/>
     <use xlink:href="#DejaVuSans-34" transform="translate(115.576172 0)"/>
     <use xlink:href="#DejaVuSans-2e" transform="translate(179.199219 0)"/>
     <use xlink:href="#DejaVuSans-31" transform="translate(210.986328 0)"/>
     <use xlink:href="#DejaVuSans-39" transform="translate(274.609375 0)"/>
     <use xlink:href="#DejaVuSans-6d" transform="translate(338.232422 0)"/>
     <use xlink:href="#DejaVuSans-20" transform="translate(435.644531 0)"/>
    </g>
   </g>
   <g id="patch_11">
    <path d="M 178.563896 179.866879 
Q 173.256065 176.527532 167.948233 173.188184 
" style="fill: none; stroke: #000000; stroke-linecap: round"/>
   </g>
   <g id="text_18">
    <g id="patch_12">
     <path d="M 174.640412 203.820637 
L 223.050727 203.820637 
Q 225.549727 203.820637 225.549727 201.321637 
L 225.549727 183.931981 
Q 225.549727 181.432981 223.050727 181.432981 
L 174.640412 181.432981 
Q 172.141412 181.432981 172.141412 183.931981 
L 172.141412 201.321637 
Q 172.141412 203.820637 174.640412 203.820637 
z
" style="fill: #cccccc; stroke: #000000; stroke-linejoin: miter"/>
    </g>
    <!-- 2020-08-12 -->
    <g transform="translate(174.640412 190.26148) scale(0.0833 -0.0833)">
     <use xlink:href="#DejaVuSans-32"/>
     <use xlink:href="#DejaVuSans-30" transform="translate(63.623047 0)"/>
     <use xlink:href="#DejaVuSans-32" transform="translate(127.246094 0)"/>
     <use xlink:href="#DejaVuSans-30" transform="translate(190.869141 0)"/>
     <use xlink:href="#DejaVuSans-2d" transform="translate(254.492188 0)"/>
     <use xlink:href="#DejaVuSans-30" transform="translate(290.576172 0)"/>
     <use xlink:href="#DejaVuSans-38" transform="translate(354.199219 0)"/>
     <use xlink:href="#DejaVuSans-2d" transform="translate(417.822266 0)"/>
     <use xlink:href="#DejaVuSans-31" transform="translate(453.90625 0)"/>
     <use xlink:href="#DejaVuSans-32" transform="translate(517.529297 0)"/>
    </g>
    <!--  -4.19m  -->
    <g transform="translate(174.640412 199.589258) scale(0.0833 -0.0833)">
     <use xlink:href="#DejaVuSans-20"/>
     <use xlink:href="#DejaVuSans-2d" transform="translate(31.787109 0)"/>
     <use xlink:href="#DejaVuSans-34" transform="translate(67.871094 0)"/>
     <use xlink:href="#DejaVuSans-2e" transform="translate(131.494141 0)"/>
     <use xlink:href="#DejaVuSans-31" transform="translate(163.28125 0)"/>
     <use xlink:href="#DejaVuSans-39" transform="translate(226.904297 0)"/>
     <use xlink:href="#DejaVuSans-6d" transform="translate(290.527344 0)"/>
     <use xlink:href="#DejaVuSans-20" transform="translate(387.939453 0)"/>
    </g>
   </g>
   <g id="patch_13">
    <path d="M 213.725962 134.769011 
Q 219.625012 136.35712 225.524062 137.945228 
" style="fill: none; stroke: #000000; stroke-linecap: round"/>
   </g>
   <g id="text_19">
    <g id="patch_14">
     <path d="M 160.387895 138.119844 
L 208.79821 138.119844 
Q 211.29721 138.119844 211.29721 135.620844 
L 211.29721 118.231188 
Q 211.29721 115.732188 208.79821 115.732188 
L 160.387895 115.732188 
Q 157.888895 115.732188 157.888895 118.231188 
L 157.888895 135.620844 
Q 157.888895 138.119844 160.387895 138.119844 
z
" style="fill: #cccccc; stroke: #000000; stroke-linejoin: miter"/>
    </g>
    <!-- 2021-08-12 -->
    <g transform="translate(160.387895 124.560686) scale(0.0833 -0.0833)">
     <use xlink:href="#DejaVuSans-32"/>
     <use xlink:href="#DejaVuSans-30" transform="translate(63.623047 0)"/>
     <use xlink:href="#DejaVuSans-32" transform="translate(127.246094 0)"/>
     <use xlink:href="#DejaVuSans-31" transform="translate(190.869141 0)"/>
     <use xlink:href="#DejaVuSans-2d" transform="translate(254.492188 0)"/>
     <use xlink:href="#DejaVuSans-30" transform="translate(290.576172 0)"/>
     <use xlink:href="#DejaVuSans-38" transform="translate(354.199219 0)"/>
     <use xlink:href="#DejaVuSans-2d" transform="translate(417.822266 0)"/>
     <use xlink:href="#DejaVuSans-31" transform="translate(453.90625 0)"/>
     <use xlink:href="#DejaVuSans-32" transform="translate(517.529297 0)"/>
    </g>
    <!--  +5.51m  -->
    <g transform="translate(160.387895 133.888464) scale(0.0833 -0.0833)">
     <use xlink:href="#DejaVuSans-20"/>
     <use xlink:href="#DejaVuSans-2b" transform="translate(31.787109 0)"/>
     <use xlink:href="#DejaVuSans-35" transform="translate(115.576172 0)"/>
     <use xlink:href="#DejaVuSans-2e" transform="translate(179.199219 0)"/>
     <use xlink:href="#DejaVuSans-35" transform="translate(210.986328 0)"/>
     <use xlink:href="#DejaVuSans-31" transform="translate(274.609375 0)"/>
     <use xlink:href="#DejaVuSans-6d" transform="translate(338.232422 0)"/>
     <use xlink:href="#DejaVuSans-20" transform="translate(435.644531 0)"/>
    </g>
   </g>
   <g id="patch_15">
    <path d="M 278.281478 111.979098 
Q 284.180528 113.567207 290.079579 115.155316 
" style="fill: none; stroke: #000000; stroke-linecap: round"/>
   </g>
   <g id="text_20">
    <g id="patch_16">
     <path d="M 224.943411 115.329931 
L 273.353727 115.329931 
Q 275.852727 115.329931 275.852727 112.830931 
L 275.852727 95.441275 
Q 275.852727 92.942275 273.353727 92.942275 
L 224.943411 92.942275 
Q 222.444411 92.942275 222.444411 95.441275 
L 222.444411 112.830931 
Q 222.444411 115.329931 224.943411 115.329931 
z
" style="fill: #cccccc; stroke: #000000; stroke-linejoin: miter"/>
    </g>
    <!-- 2022-09-01 -->
    <g transform="translate(224.943411 101.770774) scale(0.0833 -0.0833)">
     <use xlink:href="#DejaVuSans-32"/>
     <use xlink:href="#DejaVuSans-30" transform="translate(63.623047 0)"/>
     <use xlink:href="#DejaVuSans-32" transform="translate(127.246094 0)"/>
     <use xlink:href="#DejaVuSans-32" transform="translate(190.869141 0)"/>
     <use xlink:href="#DejaVuSans-2d" transform="translate(254.492188 0)"/>
     <use xlink:href="#DejaVuSans-30" transform="translate(290.576172 0)"/>
     <use xlink:href="#DejaVuSans-39" transform="translate(354.199219 0)"/>
     <use xlink:href="#DejaVuSans-2d" transform="translate(417.822266 0)"/>
     <use xlink:href="#DejaVuSans-30" transform="translate(453.90625 0)"/>
     <use xlink:href="#DejaVuSans-31" transform="translate(517.529297 0)"/>
    </g>
    <!--  +7.61m  -->
    <g transform="translate(224.943411 111.098551) scale(0.0833 -0.0833)">
     <defs>
      <path id="DejaVuSans-37" d="M 525 4666 
L 3525 4666 
L 3525 4397 
L 1831 0 
L 1172 0 
L 2766 4134 
L 525 4134 
L 525 4666 
z
" transform="scale(0.015625)"/>
     </defs>
     <use xlink:href="#DejaVuSans-20"/>
     <use xlink:href="#DejaVuSans-2b" transform="translate(31.787109 0)"/>
     <use xlink:href="#DejaVuSans-37" transform="translate(115.576172 0)"/>
     <use xlink:href="#DejaVuSans-2e" transform="translate(179.199219 0)"/>
     <use xlink:href="#DejaVuSans-36" transform="translate(210.986328 0)"/>
     <use xlink:href="#DejaVuSans-31" transform="translate(274.609375 0)"/>
     <use xlink:href="#DejaVuSans-6d" transform="translate(338.232422 0)"/>
     <use xlink:href="#DejaVuSans-20" transform="translate(435.644531 0)"/>
    </g>
   </g>
   <g id="patch_17">
    <path d="M 309.184019 134.176354 
Q 303.876188 130.837006 298.568357 127.497659 
" style="fill: none; stroke: #000000; stroke-linecap: round"/>
   </g>
   <g id="text_21">
    <g id="patch_18">
     <path d="M 305.260535 158.130112 
L 353.67085 158.130112 
Q 356.16985 158.130112 356.16985 155.631112 
L 356.16985 138.241456 
Q 356.16985 135.742456 353.67085 135.742456 
L 305.260535 135.742456 
Q 302.761535 135.742456 302.761535 138.241456 
L 302.761535 155.631112 
Q 302.761535 158.130112 305.260535 158.130112 
z
" style="fill: #cccccc; stroke: #000000; stroke-linejoin: miter"/>
    </g>
    <!-- 2022-09-30 -->
    <g transform="translate(305.260535 144.570955) scale(0.0833 -0.0833)">
     <use xlink:href="#DejaVuSans-32"/>
     <use xlink:href="#DejaVuSans-30" transform="translate(63.623047 0)"/>
     <use xlink:href="#DejaVuSans-32" transform="translate(127.246094 0)"/>
     <use xlink:href="#DejaVuSans-32" transform="translate(190.869141 0)"/>
     <use xlink:href="#DejaVuSans-2d" transform="translate(254.492188 0)"/>
     <use xlink:href="#DejaVuSans-30" transform="translate(290.576172 0)"/>
     <use xlink:href="#DejaVuSans-39" transform="translate(354.199219 0)"/>
     <use xlink:href="#DejaVuSans-2d" transform="translate(417.822266 0)"/>
     <use xlink:href="#DejaVuSans-33" transform="translate(453.90625 0)"/>
     <use xlink:href="#DejaVuSans-30" transform="translate(517.529297 0)"/>
    </g>
    <!--  -4.98m  -->
    <g transform="translate(305.260535 153.898733) scale(0.0833 -0.0833)">
     <use xlink:href="#DejaVuSans-20"/>
     <use xlink:href="#DejaVuSans-2d" transform="translate(31.787109 0)"/>
     <use xlink:href="#DejaVuSans-34" transform="translate(67.871094 0)"/>
     <use xlink:href="#DejaVuSans-2e" transform="translate(131.494141 0)"/>
     <use xlink:href="#DejaVuSans-39" transform="translate(163.28125 0)"/>
     <use xlink:href="#DejaVuSans-38" transform="translate(226.904297 0)"/>
     <use xlink:href="#DejaVuSans-6d" transform="translate(290.527344 0)"/>
     <use xlink:href="#DejaVuSans-20" transform="translate(387.939453 0)"/>
    </g>
   </g>
   <g id="patch_19">
    <path d="M 363.628902 100.87386 
Q 369.527952 102.461968 375.427002 104.050077 
" style="fill: none; stroke: #000000; stroke-linecap: round"/>
   </g>
   <g id="text_22">
    <g id="patch_20">
     <path d="M 310.290835 104.224692 
L 358.70115 104.224692 
Q 361.20015 104.224692 361.20015 101.725692 
L 361.20015 84.336036 
Q 361.20015 81.837036 358.70115 81.837036 
L 310.290835 81.837036 
Q 307.791835 81.837036 307.791835 84.336036 
L 307.791835 101.725692 
Q 307.791835 104.224692 310.290835 104.224692 
z
" style="fill: #cccccc; stroke: #000000; stroke-linejoin: miter"/>
    </g>
    <!-- 2024-01-23 -->
    <g transform="translate(310.290835 90.665535) scale(0.0833 -0.0833)">
     <use xlink:href="#DejaVuSans-32"/>
     <use xlink:href="#DejaVuSans-30" transform="translate(63.623047 0)"/>
     <use xlink:href="#DejaVuSans-32" transform="translate(127.246094 0)"/>
     <use xlink:href="#DejaVuSans-34" transform="translate(190.869141 0)"/>
     <use xlink:href="#DejaVuSans-2d" transform="translate(254.492188 0)"/>
     <use xlink:href="#DejaVuSans-30" transform="translate(290.576172 0)"/>
     <use xlink:href="#DejaVuSans-31" transform="translate(354.199219 0)"/>
     <use xlink:href="#DejaVuSans-2d" transform="translate(417.822266 0)"/>
     <use xlink:href="#DejaVuSans-32" transform="translate(453.90625 0)"/>
     <use xlink:href="#DejaVuSans-33" transform="translate(517.529297 0)"/>
    </g>
    <!--  +4.72m  -->
    <g transform="translate(310.290835 99.993312) scale(0.0833 -0.0833)">
     <use xlink:href="#DejaVuSans-20"/>
     <use xlink:href="#DejaVuSans-2b" transform="translate(31.787109 0)"/>
     <use xlink:href="#DejaVuSans-34" transform="translate(115.576172 0)"/>
     <use xlink:href="#DejaVuSans-2e" transform="translate(179.199219 0)"/>
     <use xlink:href="#DejaVuSans-37" transform="translate(210.986328 0)"/>
     <use xlink:href="#DejaVuSans-32" transform="translate(274.609375 0)"/>
     <use xlink:href="#DejaVuSans-6d" transform="translate(338.232422 0)"/>
     <use xlink:href="#DejaVuSans-20" transform="translate(435.644531 0)"/>
    </g>
   </g>
   <g id="patch_21">
    <path d="M 432.711688 69.436285 
Q 438.610738 71.024394 444.509788 72.612502 
" style="fill: none; stroke: #000000; stroke-linecap: round"/>
   </g>
   <g id="text_23">
    <g id="patch_22">
     <path d="M 379.373621 72.787118 
L 427.783937 72.787118 
Q 430.282937 72.787118 430.282937 70.288118 
L 430.282937 52.898462 
Q 430.282937 50.399462 427.783937 50.399462 
L 379.373621 50.399462 
Q 376.874621 50.399462 376.874621 52.898462 
L 376.874621 70.288118 
Q 376.874621 72.787118 379.373621 72.787118 
z
" style="fill: #cccccc; stroke: #000000; stroke-linejoin: miter"/>
    </g>
    <!-- 2025-03-10 -->
    <g transform="translate(379.373621 59.22796) scale(0.0833 -0.0833)">
     <use xlink:href="#DejaVuSans-32"/>
     <use xlink:href="#DejaVuSans-30" transform="translate(63.623047 0)"/>
     <use xlink:href="#DejaVuSans-32" transform="translate(127.246094 0)"/>
     <use xlink:href="#DejaVuSans-35" transform="translate(190.869141 0)"/>
     <use xlink:href="#DejaVuSans-2d" transform="translate(254.492188 0)"/>
     <use xlink:href="#DejaVuSans-30" transform="translate(290.576172 0)"/>
     <use xlink:href="#DejaVuSans-33" transform="translate(354.199219 0)"/>
     <use xlink:href="#DejaVuSans-2d" transform="translate(417.822266 0)"/>
     <use xlink:href="#DejaVuSans-31" transform="translate(453.90625 0)"/>
     <use xlink:href="#DejaVuSans-30" transform="translate(517.529297 0)"/>
    </g>
    <!--  +8.65m  -->
    <g transform="translate(379.373621 68.555738) scale(0.0833 -0.0833)">
     <use xlink:href="#DejaVuSans-20"/>
     <use xlink:href="#DejaVuSans-2b" transform="translate(31.787109 0)"/>
     <use xlink:href="#DejaVuSans-38" transform="translate(115.576172 0)"/>
     <use xlink:href="#DejaVuSans-2e" transform="translate(179.199219 0)"/>
     <use xlink:href="#DejaVuSans-36" transform="translate(210.986328 0)"/>
     <use xlink:href="#DejaVuSans-35" transform="translate(274.609375 0)"/>
     <use xlink:href="#DejaVuSans-6d" transform="translate(338.232422 0)"/>
     <use xlink:href="#DejaVuSans-20" transform="translate(435.644531 0)"/>
    </g>
   </g>
   <g id="patch_23">
    <path d="M 486.368222 47.32569 
Q 492.267272 48.913799 498.166322 50.501908 
" style="fill: none; stroke: #000000; stroke-linecap: round"/>
   </g>
   <g id="text_24">
    <g id="patch_24">
     <path d="M 433.030155 50.676523 
L 481.44047 50.676523 
Q 483.93947 50.676523 483.93947 48.177523 
L 483.93947 30.787867 
Q 483.93947 28.288867 481.44047 28.288867 
L 433.030155 28.288867 
Q 430.531155 28.288867 430.531155 30.787867 
L 430.531155 48.177523 
Q 430.531155 50.676523 433.030155 50.676523 
z
" style="fill: #cccccc; stroke: #000000; stroke-linejoin: miter"/>
    </g>
    <!-- 2026-01-24 -->
    <g transform="translate(433.030155 37.117366) scale(0.0833 -0.0833)">
     <use xlink:href="#DejaVuSans-32"/>
     <use xlink:href="#DejaVuSans-30" transform="translate(63.623047 0)"/>
     <use xlink:href="#DejaVuSans-32" transform="translate(127.246094 0)"/>
     <use xlink:href="#DejaVuSans-36" transform="translate(190.869141 0)"/>
     <use xlink:href="#DejaVuSans-2d" transform="translate(254.492188 0)"/>
     <use xlink:href="#DejaVuSans-30" transform="translate(290.576172 0)"/>
     <use xlink:href="#DejaVuSans-31" transform="translate(354.199219 0)"/>
     <use xlink:href="#DejaVuSans-2d" transform="translate(417.822266 0)"/>
     <use xlink:href="#DejaVuSans-32" transform="translate(453.90625 0)"/>
     <use xlink:href="#DejaVuSans-34" transform="translate(517.529297 0)"/>
    </g>
    <!--  +4.99m  -->
    <g transform="translate(433.030155 46.445143) scale(0.0833 -0.0833)">
     <use xlink:href="#DejaVuSans-20"/>
     <use xlink:href="#DejaVuSans-2b" transform="translate(31.787109 0)"/>
     <use xlink:href="#DejaVuSans-34" transform="translate(115.576172 0)"/>
     <use xlink:href="#DejaVuSans-2e" transform="translate(179.199219 0)"/>
     <use xlink:href="#DejaVuSans-39" transform="translate(210.986328 0)"/>
     <use xlink:href="#DejaVuSans-39" transform="translate(274.609375 0)"/>
     <use xlink:href="#DejaVuSans-6d" transform="translate(338.232422 0)"/>
     <use xlink:href="#DejaVuSans-20" transform="translate(435.644531 0)"/>
    </g>
   </g>
   <g id="text_25">
    <!-- History of percentage of AWS ownership of IPv4 space -->
    <g transform="translate(118.277813 16.318125) scale(0.12 -0.12)">
     <defs>
      <path id="DejaVuSans-48" d="M 628 4666 
L 1259 4666 
L 1259 2753 
L 3553 2753 
L 3553 4666 
L 4184 4666 
L 4184 0 
L 3553 0 
L 3553 2222 
L 1259 2222 
L 1259 0 
L 628 0 
L 628 4666 
z
" transform="scale(0.015625)"/>
      <path id="DejaVuSans-69" d="M 603 3500 
L 1178 3500 
L 1178 0 
L 603 0 
L 603 3500 
z
M 603 4863 
L 1178 4863 
L 1178 4134 
L 603 4134 
L 603 4863 
z
" transform="scale(0.015625)"/>
      <path id="DejaVuSans-73" d="M 2834 3397 
L 2834 2853 
Q 2591 2978 2328 3040 
Q 2066 3103 1784 3103 
Q 1356 3103 1142 2972 
Q 928 2841 928 2578 
Q 928 2378 1081 2264 
Q 1234 2150 1697 2047 
L 1894 2003 
Q 2506 1872 2764 1633 
Q 3022 1394 3022 966 
Q 3022 478 2636 193 
Q 2250 -91 1575 -91 
Q 1294 -91 989 -36 
Q 684 19 347 128 
L 347 722 
Q 666 556 975 473 
Q 1284 391 1588 391 
Q 1994 391 2212 530 
Q 2431 669 2431 922 
Q 2431 1156 2273 1281 
Q 2116 1406 1581 1522 
L 1381 1569 
Q 847 1681 609 1914 
Q 372 2147 372 2553 
Q 372 3047 722 3315 
Q 1072 3584 1716 3584 
Q 2034 3584 2315 3537 
Q 2597 3491 2834 3397 
z
" transform="scale(0.015625)"/>
      <path id="DejaVuSans-74" d="M 1172 4494 
L 1172 3500 
L 2356 3500 
L 2356 3053 
L 1172 3053 
L 1172 1153 
Q 1172 725 1289 603 
Q 1406 481 1766 481 
L 2356 481 
L 2356 0 
L 1766 0 
Q 1100 0 847 248 
Q 594 497 594 1153 
L 594 3053 
L 172 3053 
L 172 3500 
L 594 3500 
L 594 4494 
L 1172 4494 
z
" transform="scale(0.015625)"/>
      <path id="DejaVuSans-6f" d="M 1959 3097 
Q 1497 3097 1228 2736 
Q 959 2375 959 1747 
Q 959 1119 1226 758 
Q 1494 397 1959 397 
Q 2419 397 2687 759 
Q 2956 1122 2956 1747 
Q 2956 2369 2687 2733 
Q 2419 3097 1959 3097 
z
M 1959 3584 
Q 2709 3584 3137 3096 
Q 3566 2609 3566 1747 
Q 3566 888 3137 398 
Q 2709 -91 1959 -91 
Q 1206 -91 779 398 
Q 353 888 353 1747 
Q 353 2609 779 3096 
Q 1206 3584 1959 3584 
z
" transform="scale(0.015625)"/>
      <path id="DejaVuSans-72" d="M 2631 2963 
Q 2534 3019 2420 3045 
Q 2306 3072 2169 3072 
Q 1681 3072 1420 2755 
Q 1159 2438 1159 1844 
L 1159 0 
L 581 0 
L 581 3500 
L 1159 3500 
L 1159 2956 
Q 1341 3275 1631 3429 
Q 1922 3584 2338 3584 
Q 2397 3584 2469 3576 
Q 2541 3569 2628 3553 
L 2631 2963 
z
" transform="scale(0.015625)"/>
      <path id="DejaVuSans-79" d="M 2059 -325 
Q 1816 -950 1584 -1140 
Q 1353 -1331 966 -1331 
L 506 -1331 
L 506 -850 
L 844 -850 
Q 1081 -850 1212 -737 
Q 1344 -625 1503 -206 
L 1606 56 
L 191 3500 
L 800 3500 
L 1894 763 
L 2988 3500 
L 3597 3500 
L 2059 -325 
z
" transform="scale(0.015625)"/>
      <path id="DejaVuSans-66" d="M 2375 4863 
L 2375 4384 
L 1825 4384 
Q 1516 4384 1395 4259 
Q 1275 4134 1275 3809 
L 1275 3500 
L 2222 3500 
L 2222 3053 
L 1275 3053 
L 1275 0 
L 697 0 
L 697 3053 
L 147 3053 
L 147 3500 
L 697 3500 
L 697 3744 
Q 697 4328 969 4595 
Q 1241 4863 1831 4863 
L 2375 4863 
z
" transform="scale(0.015625)"/>
      <path id="DejaVuSans-70" d="M 1159 525 
L 1159 -1331 
L 581 -1331 
L 581 3500 
L 1159 3500 
L 1159 2969 
Q 1341 3281 1617 3432 
Q 1894 3584 2278 3584 
Q 2916 3584 3314 3078 
Q 3713 2572 3713 1747 
Q 3713 922 3314 415 
Q 2916 -91 2278 -91 
Q 1894 -91 1617 61 
Q 1341 213 1159 525 
z
M 3116 1747 
Q 3116 2381 2855 2742 
Q 2594 3103 2138 3103 
Q 1681 3103 1420 2742 
Q 1159 2381 1159 1747 
Q 1159 1113 1420 752 
Q 1681 391 2138 391 
Q 2594 391 2855 752 
Q 3116 1113 3116 1747 
z
" transform="scale(0.015625)"/>
      <path id="DejaVuSans-65" d="M 3597 1894 
L 3597 1613 
L 953 1613 
Q 991 1019 1311 708 
Q 1631 397 2203 397 
Q 2534 397 2845 478 
Q 3156 559 3463 722 
L 3463 178 
Q 3153 47 2828 -22 
Q 2503 -91 2169 -91 
Q 1331 -91 842 396 
Q 353 884 353 1716 
Q 353 2575 817 3079 
Q 1281 3584 2069 3584 
Q 2775 3584 3186 3129 
Q 3597 2675 3597 1894 
z
M 3022 2063 
Q 3016 2534 2758 2815 
Q 2500 3097 2075 3097 
Q 1594 3097 1305 2825 
Q 1016 2553 972 2059 
L 3022 2063 
z
" transform="scale(0.015625)"/>
      <path id="DejaVuSans-63" d="M 3122 3366 
L 3122 2828 
Q 2878 2963 2633 3030 
Q 2388 3097 2138 3097 
Q 1578 3097 1268 2742 
Q 959 2388 959 1747 
Q 959 1106 1268 751 
Q 1578 397 2138 397 
Q 2388 397 2633 464 
Q 2878 531 3122 666 
L 3122 134 
Q 2881 22 2623 -34 
Q 2366 -91 2075 -91 
Q 1284 -91 818 406 
Q 353 903 353 1747 
Q 353 2603 823 3093 
Q 1294 3584 2113 3584 
Q 2378 3584 2631 3529 
Q 2884 3475 3122 3366 
z
" transform="scale(0.015625)"/>
      <path id="DejaVuSans-6e" d="M 3513 2113 
L 3513 0 
L 2938 0 
L 2938 2094 
Q 2938 2591 2744 2837 
Q 2550 3084 2163 3084 
Q 1697 3084 1428 2787 
Q 1159 2491 1159 1978 
L 1159 0 
L 581 0 
L 581 3500 
L 1159 3500 
L 1159 2956 
Q 1366 3272 1645 3428 
Q 1925 3584 2291 3584 
Q 2894 3584 3203 3211 
Q 3513 2838 3513 2113 
z
" transform="scale(0.015625)"/>
      <path id="DejaVuSans-61" d="M 2194 1759 
Q 1497 1759 1228 1600 
Q 959 1441 959 1056 
Q 959 750 1161 570 
Q 1363 391 1709 391 
Q 2188 391 2477 730 
Q 2766 1069 2766 1631 
L 2766 1759 
L 2194 1759 
z
M 3341 1997 
L 3341 0 
L 2766 0 
L 2766 531 
Q 2569 213 2275 61 
Q 1981 -91 1556 -91 
Q 1019 -91 701 211 
Q 384 513 384 1019 
Q 384 1609 779 1909 
Q 1175 2209 1959 2209 
L 2766 2209 
L 2766 2266 
Q 2766 2663 2505 2880 
Q 2244 3097 1772 3097 
Q 1472 3097 1187 3025 
Q 903 2953 641 2809 
L 641 3341 
Q 956 3463 1253 3523 
Q 1550 3584 1831 3584 
Q 2591 3584 2966 3190 
Q 3341 2797 3341 1997 
z
" transform="scale(0.015625)"/>
      <path id="DejaVuSans-67" d="M 2906 1791 
Q 2906 2416 2648 2759 
Q 2391 3103 1925 3103 
Q 1463 3103 1205 2759 
Q 947 2416 947 1791 
Q 947 1169 1205 825 
Q 1463 481 1925 481 
Q 2391 481 2648 825 
Q 2906 1169 2906 1791 
z
M 3481 434 
Q 3481 -459 3084 -895 
Q 2688 -1331 1869 -1331 
Q 1566 -1331 1297 -1286 
Q 1028 -1241 775 -1147 
L 775 -588 
Q 1028 -725 1275 -790 
Q 1522 -856 1778 -856 
Q 2344 -856 2625 -561 
Q 2906 -266 2906 331 
L 2906 616 
Q 2728 306 2450 153 
Q 2172 0 1784 0 
Q 1141 0 747 490 
Q 353 981 353 1791 
Q 353 2603 747 3093 
Q 1141 3584 1784 3584 
Q 2172 3584 2450 3431 
Q 2728 3278 2906 2969 
L 2906 3500 
L 3481 3500 
L 3481 434 
z
" transform="scale(0.015625)"/>
      <path id="DejaVuSans-41" d="M 2188 4044 
L 1331 1722 
L 3047 1722 
L 2188 4044 
z
M 1831 4666 
L 2547 4666 
L 4325 0 
L 3669 0 
L 3244 1197 
L 1141 1197 
L 716 0 
L 50 0 
L 1831 4666 
z
" transform="scale(0.015625)"/>
      <path id="DejaVuSans-57" d="M 213 4666 
L 850 4666 
L 1831 722 
L 2809 4666 
L 3519 4666 
L 4500 722 
L 5478 4666 
L 6119 4666 
L 4947 0 
L 4153 0 
L 3169 4050 
L 2175 0 
L 1381 0 
L 213 4666 
z
" transform="scale(0.015625)"/>
      <path id="DejaVuSans-53" d="M 3425 4513 
L 3425 3897 
Q 3066 4069 2747 4153 
Q 2428 4238 2131 4238 
Q 1616 4238 1336 4038 
Q 1056 3838 1056 3469 
Q 1056 3159 1242 3001 
Q 1428 2844 1947 2747 
L 2328 2669 
Q 3034 2534 3370 2195 
Q 3706 1856 3706 1288 
Q 3706 609 3251 259 
Q 2797 -91 1919 -91 
Q 1588 -91 1214 -16 
Q 841 59 441 206 
L 441 856 
Q 825 641 1194 531 
Q 1563 422 1919 422 
Q 2459 422 2753 634 
Q 3047 847 3047 1241 
Q 3047 1584 2836 1778 
Q 2625 1972 2144 2069 
L 1759 2144 
Q 1053 2284 737 2584 
Q 422 2884 422 3419 
Q 422 4038 858 4394 
Q 1294 4750 2059 4750 
Q 2388 4750 2728 4690 
Q 3069 4631 3425 4513 
z
" transform="scale(0.015625)"/>
      <path id="DejaVuSans-77" d="M 269 3500 
L 844 3500 
L 1563 769 
L 2278 3500 
L 2956 3500 
L 3675 769 
L 4391 3500 
L 4966 3500 
L 4050 0 
L 3372 0 
L 2619 2869 
L 1863 0 
L 1184 0 
L 269 3500 
z
" transform="scale(0.015625)"/>
      <path id="DejaVuSans-68" d="M 3513 2113 
L 3513 0 
L 2938 0 
L 2938 2094 
Q 2938 2591 2744 2837 
Q 2550 3084 2163 3084 
Q 1697 3084 1428 2787 
Q 1159 2491 1159 1978 
L 1159 0 
L 581 0 
L 581 4863 
L 1159 4863 
L 1159 2956 
Q 1366 3272 1645 3428 
Q 1925 3584 2291 3584 
Q 2894 3584 3203 3211 
Q 3513 2838 3513 2113 
z
" transform="scale(0.015625)"/>
      <path id="DejaVuSans-49" d="M 628 4666 
L 1259 4666 
L 1259 0 
L 628 0 
L 628 4666 
z
" transform="scale(0.015625)"/>
      <path id="DejaVuSans-50" d="M 1259 4147 
L 1259 2394 
L 2053 2394 
Q 2494 2394 2734 2622 
Q 2975 2850 2975 3272 
Q 2975 3691 2734 3919 
Q 2494 4147 2053 4147 
L 1259 4147 
z
M 628 4666 
L 2053 4666 
Q 2838 4666 3239 4311 
Q 3641 3956 3641 3272 
Q 3641 2581 3239 2228 
Q 2838 1875 2053 1875 
L 1259 1875 
L 1259 0 
L 628 0 
L 628 4666 
z
" transform="scale(0.015625)"/>
      <path id="DejaVuSans-76" d="M 191 3500 
L 800 3500 
L 1894 563 
L 2988 3500 
L 3597 3500 
L 2284 0 
L 1503 0 
L 191 3500 
z
" transform="scale(0.015625)"/>
     </defs>
     <use xlink:href="#DejaVuSans-48"/>
     <use xlink:href="#DejaVuSans-69" transform="translate(75.195312 0)"/>
     <use xlink:href="#DejaVuSans-73" transform="translate(102.978516 0)"/>
     <use xlink:href="#DejaVuSans-74" transform="translate(155.078125 0)"/>
     <use xlink:href="#DejaVuSans-6f" transform="translate(194.287109 0)"/>
     <use xlink:href="#DejaVuSans-72" transform="translate(255.46875 0)"/>
     <use xlink:href="#DejaVuSans-79" transform="translate(296.582031 0)"/>
     <use xlink:href="#DejaVuSans-20" transform="translate(355.761719 0)"/>
     <use xlink:href="#DejaVuSans-6f" transform="translate(387.548828 0)"/>
     <use xlink:href="#DejaVuSans-66" transform="translate(448.730469 0)"/>
     <use xlink:href="#DejaVuSans-20" transform="translate(483.935547 0)"/>
     <use xlink:href="#DejaVuSans-70" transform="translate(515.722656 0)"/>
     <use xlink:href="#DejaVuSans-65" transform="translate(579.199219 0)"/>
     <use xlink:href="#DejaVuSans-72" transform="translate(640.722656 0)"/>
     <use xlink:href="#DejaVuSans-63" transform="translate(679.585938 0)"/>
     <use xlink:href="#DejaVuSans-65" transform="translate(734.566406 0)"/>
     <use xlink:href="#DejaVuSans-6e" transform="translate(796.089844 0)"/>
     <use xlink:href="#DejaVuSans-74" transform="translate(859.46875 0)"/>
     <use xlink:href="#DejaVuSans-61" transform="translate(898.677734 0)"/>
     <use xlink:href="#DejaVuSans-67" transform="translate(959.957031 0)"/>
     <use xlink:href="#DejaVuSans-65" transform="translate(1023.433594 0)"/>
     <use xlink:href="#DejaVuSans-20" transform="translate(1084.957031 0)"/>
     <use xlink:href="#DejaVuSans-6f" transform="translate(1116.744141 0)"/>
     <use xlink:href="#DejaVuSans-66" transform="translate(1177.925781 0)"/>
     <use xlink:href="#DejaVuSans-20" transform="translate(1213.130859 0)"/>
     <use xlink:href="#DejaVuSans-41" transform="translate(1244.917969 0)"/>
     <use xlink:href="#DejaVuSans-57" transform="translate(1307.826172 0)"/>
     <use xlink:href="#DejaVuSans-53" transform="translate(1406.703125 0)"/>
     <use xlink:href="#DejaVuSans-20" transform="translate(1470.179688 0)"/>
     <use xlink:href="#DejaVuSans-6f" transform="translate(1501.966797 0)"/>
     <use xlink:href="#DejaVuSans-77" transform="translate(1563.148438 0)"/>
     <use xlink:href="#DejaVuSans-6e" transform="translate(1644.935547 0)"/>
     <use xlink:href="#DejaVuSans-65" transform="translate(1708.314453 0)"/>
     <use xlink:href="#DejaVuSans-72" transform="translate(1769.837891 0)"/>
     <use xlink:href="#DejaVuSans-73" transform="translate(1810.951172 0)"/>
     <use xlink:href="#DejaVuSans-68" transform="translate(1863.050781 0)"/>
     <use xlink:href="#DejaVuSans-69" transform="translate(1926.429688 0)"/>
     <use xlink:href="#DejaVuSans-70" transform="translate(1954.212891 0)"/>
     <use xlink:href="#DejaVuSans-20" transform="translate(2017.689453 0)"/>
     <use xlink:href="#DejaVuSans-6f" transform="translate(2049.476562 0)"/>
     <use xlink:href="#DejaVuSans-66" transform="translate(2110.658203 0)"/>
     <use xlink:href="#DejaVuSans-20" transform="translate(2145.863281 0)"/>
     <use xlink:href="#DejaVuSans-49" transform="translate(2177.650391 0)"/>
     <use xlink:href="#DejaVuSans-50" transform="translate(2207.142578 0)"/>
     <use xlink:href="#DejaVuSans-76" transform="translate(2267.445312 0)"/>
     <use xlink:href="#DejaVuSans-34" transform="translate(2326.625 0)"/>
     <use xlink:href="#DejaVuSans-20" transform="translate(2390.248047 0)"/>
     <use xlink:href="#DejaVuSans-73" transform="translate(2422.035156 0)"/>
     <use xlink:href="#DejaVuSans-70" transform="translate(2474.134766 0)"/>
     <use xlink:href="#DejaVuSans-61" transform="translate(2537.611328 0)"/>
     <use xlink:href="#DejaVuSans-63" transform="translate(2598.890625 0)"/>
     <use xlink:href="#DejaVuSans-65" transform="translate(2653.871094 0)"/>
    </g>
   </g>
  </g>
 </g>
 <defs>
  <clipPath id="p6d14471b0e">
   <rect x="30.103125" y="22.318125" width="502.2" height="277.2"/>
  </clipPath>
 </defs>
</svg>
