<?xml version="1.0" encoding="utf-8" standalone="no"?>
<!DOCTYPE svg PUBLIC "-//W3C//DTD SVG 1.1//EN"
  "http://www.w3.org/Graphics/SVG/1.1/DTD/svg11.dtd">
<svg xmlns:xlink="http://www.w3.org/1999/xlink" width="539.503125pt" height="323.39625pt" viewBox="0 0 539.503125 323.39625" xmlns="http://www.w3.org/2000/svg" version="1.1">
 
 <defs>
  <style type="text/css">*{stroke-linejoin: round; stroke-linecap: butt}</style>
 </defs>
 <g id="figure_1">
  <g id="patch_1">
   <path d="M 0 323.39625 
L 539.503125 323.39625 
L 539.503125 0 
L 0 0 
z
" style="fill: #b2b2b2"/>
  </g>
  <g id="axes_1">
   <g id="patch_2">
    <path d="M 30.103125 299.518125 
L 532.303125 299.518125 
L 532.303125 22.318125 
L 30.103125 22.318125 
z
" style="fill: #e6e6e6"/>
   </g>
   <g id="matplotlib.axis_1">
    <g id="xtick_1">
     <g id="line2d_1">
      <defs>
       <path id="ma78f911f2e" d="M 0 0 
L 0 3.5 
" style="stroke: #000000; stroke-width: 0.8"/>
      </defs>
      <g>
       <use xlink:href="#ma78f911f2e" x="45.361702" y="299.518125" style="stroke: #000000; stroke-width: 0.8"/>
      </g>
     </g>
     <g id="text_1">
      <!-- 2017 -->
      <g transform="translate(32.636702 314.116563) scale(0.1 -0.1)">
       <defs>
        <path id="DejaVuSans-32" d="M 1228 531 
L 3431 531 
L 3431 0 
L 469 0 
L 469 531 
Q 828 903 1448 1529 
Q 2069 2156 2228 2338 
Q 2531 2678 2651 2914 
Q 2772 3150 2772 3378 
Q 2772 3750 2511 3984 
Q 2250 4219 1831 4219 
Q 1534 4219 1204 4116 
Q 875 4013 500 3803 
L 500 4441 
Q 881 4594 1212 4672 
Q 1544 4750 1819 4750 
Q 2544 4750 2975 4387 
Q 3406 4025 3406 3419 
Q 3406 3131 3298 2873 
Q 3191 2616 2906 2266 
Q 2828 2175 2409 1742 
Q 1991 1309 1228 531 
z
" transform="scale(0.015625)"/>
        <path id="DejaVuSans-30" d="M 2034 4250 
Q 1547 4250 1301 3770 
Q 1056 3291 1056 2328 
Q 1056 1369 1301 889 
Q 1547 409 2034 409 
Q 2525 409 2770 889 
Q 3016 1369 3016 2328 
Q 3016 3291 2770 3770 
Q 2525 4250 2034 4250 
z
M 2034 4750 
Q 2819 4750 3233 4129 
Q 3647 3509 3647 2328 
Q 3647 1150 3233 529 
Q 2819 -91 2034 -91 
Q 1250 -91 836 529 
Q 422 1150 422 2328 
Q 422 3509 836 4129 
Q 1250 4750 2034 4750 
z
" transform="scale(0.015625)"/>
        <path id="DejaVuSans-31" d="M 794 531 
L 1825 531 
L 1825 4091 
L 703 3866 
L 703 4441 
L 1819 4666 
L 2450 4666 
L 2450 531 
L 3481 531 
L 3481 0 
L 794 0 
L 794 531 
z
" transform="scale(0.015625)"/>
        <path id="DejaVuSans-37" d="M 525 4666 
L 3525 4666 
L 3525 4397 
L 1831 0 
L 1172 0 
L 2766 4134 
L 525 4134 
L 525 4666 
z
" transform="scale(0.015625)"/>
       </defs>
       <use xlink:href="#DejaVuSans-32"/>
       <use xlink:href="#DejaVuSans-30" x="63.623047"/>
       <use xlink:href="#DejaVuSans-31" x="127.246094"/>
       <use xlink:href="#DejaVuSans-37" x="190.869141"/>
      </g>
     </g>
    </g>
    <g id="xtick_2">
     <g id="line2d_2">
      <g>
       <use xlink:href="#ma78f911f2e" x="106.563685" y="299.518125" style="stroke: #000000; stroke-width: 0.8"/>
      </g>
     </g>
     <g id="text_2">
      <!-- 2018 -->
      <g transform="translate(93.838685 314.116563) scale(0.1 -0.1)">
       <defs>
        <path id="DejaVuSans-38" d="M 2034 2216 
Q 1584 2216 1326 1975 
Q 1069 1734 1069 1313 
Q 1069 891 1326 650 
Q 1584 409 2034 409 
Q 2484 409 2743 651 
Q 3003 894 3003 1313 
Q 3003 1734 2745 1975 
Q 2488 2216 2034 2216 
z
M 1403 2484 
Q 997 2584 770 2862 
Q 544 3141 544 3541 
Q 544 4100 942 4425 
Q 1341 4750 2034 4750 
Q 2731 4750 3128 4425 
Q 3525 4100 3525 3541 
Q 3525 3141 3298 2862 
Q 3072 2584 2669 2484 
Q 3125 2378 3379 2068 
Q 3634 1759 3634 1313 
Q 3634 634 3220 271 
Q 2806 -91 2034 -91 
Q 1263 -91 848 271 
Q 434 634 434 1313 
Q 434 1759 690 2068 
Q 947 2378 1403 2484 
z
M 1172 3481 
Q 1172 3119 1398 2916 
Q 1625 2713 2034 2713 
Q 2441 2713 2670 2916 
Q 2900 3119 2900 3481 
Q 2900 3844 2670 4047 
Q 2441 4250 2034 4250 
Q 1625 4250 1398 4047 
Q 1172 3844 1172 3481 
z
" transform="scale(0.015625)"/>
       </defs>
       <use xlink:href="#DejaVuSans-32"/>
       <use xlink:href="#DejaVuSans-30" x="63.623047"/>
       <use xlink:href="#DejaVuSans-31" x="127.246094"/>
       <use xlink:href="#DejaVuSans-38" x="190.869141"/>
      </g>
     </g>
    </g>
    <g id="xtick_3">
     <g id="line2d_3">
      <g>
       <use xlink:href="#ma78f911f2e" x="167.765668" y="299.518125" style="stroke: #000000; stroke-width: 0.8"/>
      </g>
     </g>
     <g id="text_3">
      <!-- 2019 -->
      <g transform="translate(155.040668 314.116563) scale(0.1 -0.1)">
       <defs>
        <path id="DejaVuSans-39" d="M 703 97 
L 703 672 
Q 941 559 1184 500 
Q 1428 441 1663 441 
Q 2288 441 2617 861 
Q 2947 1281 2994 2138 
Q 2813 1869 2534 1725 
Q 2256 1581 1919 1581 
Q 1219 1581 811 2004 
Q 403 2428 403 3163 
Q 403 3881 828 4315 
Q 1253 4750 1959 4750 
Q 2769 4750 3195 4129 
Q 3622 3509 3622 2328 
Q 3622 1225 3098 567 
Q 2575 -91 1691 -91 
Q 1453 -91 1209 -44 
Q 966 3 703 97 
z
M 1959 2075 
Q 2384 2075 2632 2365 
Q 2881 2656 2881 3163 
Q 2881 3666 2632 3958 
Q 2384 4250 1959 4250 
Q 1534 4250 1286 3958 
Q 1038 3666 1038 3163 
Q 1038 2656 1286 2365 
Q 1534 2075 1959 2075 
z
" transform="scale(0.015625)"/>
       </defs>
       <use xlink:href="#DejaVuSans-32"/>
       <use xlink:href="#DejaVuSans-30" x="63.623047"/>
       <use xlink:href="#DejaVuSans-31" x="127.246094"/>
       <use xlink:href="#DejaVuSans-39" x="190.869141"/>
      </g>
     </g>
    </g>
    <g id="xtick_4">
     <g id="line2d_4">
      <g>
       <use xlink:href="#ma78f911f2e" x="228.967651" y="299.518125" style="stroke: #000000; stroke-width: 0.8"/>
      </g>
     </g>
     <g id="text_4">
      <!-- 2020 -->
      <g transform="translate(216.242651 314.116563) scale(0.1 -0.1)">
       <use xlink:href="#DejaVuSans-32"/>
       <use xlink:href="#DejaVuSans-30" x="63.623047"/>
       <use xlink:href="#DejaVuSans-32" x="127.246094"/>
       <use xlink:href="#DejaVuSans-30" x="190.869141"/>
      </g>
     </g>
    </g>
    <g id="xtick_5">
     <g id="line2d_5">
      <g>
       <use xlink:href="#ma78f911f2e" x="290.337311" y="299.518125" style="stroke: #000000; stroke-width: 0.8"/>
      </g>
     </g>
     <g id="text_5">
      <!-- 2021 -->
      <g transform="translate(277.612311 314.116563) scale(0.1 -0.1)">
       <use xlink:href="#DejaVuSans-32"/>
       <use xlink:href="#DejaVuSans-30" x="63.623047"/>
       <use xlink:href="#DejaVuSans-32" x="127.246094"/>
       <use xlink:href="#DejaVuSans-31" x="190.869141"/>
      </g>
     </g>
    </g>
    <g id="xtick_6">
     <g id="line2d_6">
      <g>
       <use xlink:href="#ma78f911f2e" x="351.539295" y="299.518125" style="stroke: #000000; stroke-width: 0.8"/>
      </g>
     </g>
     <g id="text_6">
      <!-- 2022 -->
      <g transform="translate(338.814295 314.116563) scale(0.1 -0.1)">
       <use xlink:href="#DejaVuSans-32"/>
       <use xlink:href="#DejaVuSans-30" x="63.623047"/>
       <use xlink:href="#DejaVuSans-32" x="127.246094"/>
       <use xlink:href="#DejaVuSans-32" x="190.869141"/>
      </g>
     </g>
    </g>
    <g id="xtick_7">
     <g id="line2d_7">
      <g>
       <use xlink:href="#ma78f911f2e" x="412.741278" y="299.518125" style="stroke: #000000; stroke-width: 0.8"/>
      </g>
     </g>
     <g id="text_7">
      <!-- 2023 -->
      <g transform="translate(400.016278 314.116563) scale(0.1 -0.1)">
       <defs>
        <path id="DejaVuSans-33" d="M 2597 2516 
Q 3050 2419 3304 2112 
Q 3559 1806 3559 1356 
Q 3559 666 3084 287 
Q 2609 -91 1734 -91 
Q 1441 -91 1130 -33 
Q 819 25 488 141 
L 488 750 
Q 750 597 1062 519 
Q 1375 441 1716 441 
Q 2309 441 2620 675 
Q 2931 909 2931 1356 
Q 2931 1769 2642 2001 
Q 2353 2234 1838 2234 
L 1294 2234 
L 1294 2753 
L 1863 2753 
Q 2328 2753 2575 2939 
Q 2822 3125 2822 3475 
Q 2822 3834 2567 4026 
Q 2313 4219 1838 4219 
Q 1578 4219 1281 4162 
Q 984 4106 628 3988 
L 628 4550 
Q 988 4650 1302 4700 
Q 1616 4750 1894 4750 
Q 2613 4750 3031 4423 
Q 3450 4097 3450 3541 
Q 3450 3153 3228 2886 
Q 3006 2619 2597 2516 
z
" transform="scale(0.015625)"/>
       </defs>
       <use xlink:href="#DejaVuSans-32"/>
       <use xlink:href="#DejaVuSans-30" x="63.623047"/>
       <use xlink:href="#DejaVuSans-32" x="127.246094"/>
       <use xlink:href="#DejaVuSans-33" x="190.869141"/>
      </g>
     </g>
    </g>
    <g id="xtick_8">
     <g id="line2d_8">
      <g>
       <use xlink:href="#ma78f911f2e" x="473.943261" y="299.518125" style="stroke: #000000; stroke-width: 0.8"/>
      </g>
     </g>
     <g id="text_8">
      <!-- 2024 -->
      <g transform="translate(461.218261 314.116563) scale(0.1 -0.1)">
       <defs>
        <path id="DejaVuSans-34" d="M 2419 4116 
L 825 1625 
L 2419 1625 
L 2419 4116 
z
M 2253 4666 
L 3047 4666 
L 3047 1625 
L 3713 1625 
L 3713 1100 
L 3047 1100 
L 3047 0 
L 2419 0 
L 2419 1100 
L 313 1100 
L 313 1709 
L 2253 4666 
z
" transform="scale(0.015625)"/>
       </defs>
       <use xlink:href="#DejaVuSans-32"/>
       <use xlink:href="#DejaVuSans-30" x="63.623047"/>
       <use xlink:href="#DejaVuSans-32" x="127.246094"/>
       <use xlink:href="#DejaVuSans-34" x="190.869141"/>
      </g>
     </g>
    </g>
   </g>
   <g id="matplotlib.axis_2">
    <g id="ytick_1">
     <g id="line2d_9">
      <defs>
       <path id="ma562af20d9" d="M 0 0 
L -3.5 0 
" style="stroke: #000000; stroke-width: 0.8"/>
      </defs>
      <g>
       <use xlink:href="#ma562af20d9" x="30.103125" y="299.518125" style="stroke: #000000; stroke-width: 0.8"/>
      </g>
     </g>
     <g id="text_9">
      <!-- 0.0 -->
      <g transform="translate(7.2 303.317344) scale(0.1 -0.1)">
       <defs>
        <path id="DejaVuSans-2e" d="M 684 794 
L 1344 794 
L 1344 0 
L 684 0 
L 684 794 
z
" transform="scale(0.015625)"/>
       </defs>
       <use xlink:href="#DejaVuSans-30"/>
       <use xlink:href="#DejaVuSans-2e" x="63.623047"/>
       <use xlink:href="#DejaVuSans-30" x="95.410156"/>
      </g>
     </g>
    </g>
    <g id="ytick_2">
     <g id="line2d_10">
      <g>
       <use xlink:href="#ma562af20d9" x="30.103125" y="241.809456" style="stroke: #000000; stroke-width: 0.8"/>
      </g>
     </g>
     <g id="text_10">
      <!-- 0.5 -->
      <g transform="translate(7.2 245.608675) scale(0.1 -0.1)">
       <defs>
        <path id="DejaVuSans-35" d="M 691 4666 
L 3169 4666 
L 3169 4134 
L 1269 4134 
L 1269 2991 
Q 1406 3038 1543 3061 
Q 1681 3084 1819 3084 
Q 2600 3084 3056 2656 
Q 3513 2228 3513 1497 
Q 3513 744 3044 326 
Q 2575 -91 1722 -91 
Q 1428 -91 1123 -41 
Q 819 9 494 109 
L 494 744 
Q 775 591 1075 516 
Q 1375 441 1709 441 
Q 2250 441 2565 725 
Q 2881 1009 2881 1497 
Q 2881 1984 2565 2268 
Q 2250 2553 1709 2553 
Q 1456 2553 1204 2497 
Q 953 2441 691 2322 
L 691 4666 
z
" transform="scale(0.015625)"/>
       </defs>
       <use xlink:href="#DejaVuSans-30"/>
       <use xlink:href="#DejaVuSans-2e" x="63.623047"/>
       <use xlink:href="#DejaVuSans-35" x="95.410156"/>
      </g>
     </g>
    </g>
    <g id="ytick_3">
     <g id="line2d_11">
      <g>
       <use xlink:href="#ma562af20d9" x="30.103125" y="184.100787" style="stroke: #000000; stroke-width: 0.8"/>
      </g>
     </g>
     <g id="text_11">
      <!-- 1.0 -->
      <g transform="translate(7.2 187.900005) scale(0.1 -0.1)">
       <use xlink:href="#DejaVuSans-31"/>
       <use xlink:href="#DejaVuSans-2e" x="63.623047"/>
       <use xlink:href="#DejaVuSans-30" x="95.410156"/>
      </g>
     </g>
    </g>
    <g id="ytick_4">
     <g id="line2d_12">
      <g>
       <use xlink:href="#ma562af20d9" x="30.103125" y="126.392117" style="stroke: #000000; stroke-width: 0.8"/>
      </g>
     </g>
     <g id="text_12">
      <!-- 1.5 -->
      <g transform="translate(7.2 130.191336) scale(0.1 -0.1)">
       <use xlink:href="#DejaVuSans-31"/>
       <use xlink:href="#DejaVuSans-2e" x="63.623047"/>
       <use xlink:href="#DejaVuSans-35" x="95.410156"/>
      </g>
     </g>
    </g>
    <g id="ytick_5">
     <g id="line2d_13">
      <g>
       <use xlink:href="#ma562af20d9" x="30.103125" y="68.683448" style="stroke: #000000; stroke-width: 0.8"/>
      </g>
     </g>
     <g id="text_13">
      <!-- 2.0 -->
      <g transform="translate(7.2 72.482667) scale(0.1 -0.1)">
       <use xlink:href="#DejaVuSans-32"/>
       <use xlink:href="#DejaVuSans-2e" x="63.623047"/>
       <use xlink:href="#DejaVuSans-30" x="95.410156"/>
      </g>
     </g>
    </g>
   </g>
   <g id="line2d_14">
    <path clip-path="url(#p906e395f3e)" style="fill: none; stroke: #cccccc; stroke-linecap: square"/>
   </g>
   <g id="line2d_15">
    <path d="M 45.361702 299.518125 
L 45.361702 22.318125 
" clip-path="url(#p906e395f3e)" style="fill: none; stroke: #cccccc; stroke-linecap: square"/>
   </g>
   <g id="line2d_16">
    <path d="M 106.563685 299.518125 
L 106.563685 22.318125 
" clip-path="url(#p906e395f3e)" style="fill: none; stroke: #cccccc; stroke-linecap: square"/>
   </g>
   <g id="line2d_17">
    <path d="M 167.765668 299.518125 
L 167.765668 22.318125 
" clip-path="url(#p906e395f3e)" style="fill: none; stroke: #cccccc; stroke-linecap: square"/>
   </g>
   <g id="line2d_18">
    <path d="M 228.967651 299.518125 
L 228.967651 22.318125 
" clip-path="url(#p906e395f3e)" style="fill: none; stroke: #cccccc; stroke-linecap: square"/>
   </g>
   <g id="line2d_19">
    <path d="M 290.337311 299.518125 
L 290.337311 22.318125 
" clip-path="url(#p906e395f3e)" style="fill: none; stroke: #cccccc; stroke-linecap: square"/>
   </g>
   <g id="line2d_20">
    <path d="M 351.539295 299.518125 
L 351.539295 22.318125 
" clip-path="url(#p906e395f3e)" style="fill: none; stroke: #cccccc; stroke-linecap: square"/>
   </g>
   <g id="line2d_21">
    <path d="M 412.741278 299.518125 
L 412.741278 22.318125 
" clip-path="url(#p906e395f3e)" style="fill: none; stroke: #cccccc; stroke-linecap: square"/>
   </g>
   <g id="line2d_22">
    <path d="M 473.943261 299.518125 
L 473.943261 22.318125 
" clip-path="url(#p906e395f3e)" style="fill: none; stroke: #cccccc; stroke-linecap: square"/>
   </g>
   <g id="line2d_23">
    <path d="M 30.103125 299.518125 
L 532.303125 299.518125 
" clip-path="url(#p906e395f3e)" style="fill: none; stroke: #cccccc; stroke-linecap: square"/>
   </g>
   <g id="line2d_24">
    <path d="M 30.103125 270.66379 
L 532.303125 270.66379 
" clip-path="url(#p906e395f3e)" style="fill: none; stroke: #cccccc; stroke-linecap: square"/>
   </g>
   <g id="line2d_25">
    <path d="M 30.103125 241.809456 
L 532.303125 241.809456 
" clip-path="url(#p906e395f3e)" style="fill: none; stroke: #cccccc; stroke-linecap: square"/>
   </g>
   <g id="line2d_26">
    <path d="M 30.103125 212.955121 
L 532.303125 212.955121 
" clip-path="url(#p906e395f3e)" style="fill: none; stroke: #cccccc; stroke-linecap: square"/>
   </g>
   <g id="line2d_27">
    <path d="M 30.103125 184.100787 
L 532.303125 184.100787 
" clip-path="url(#p906e395f3e)" style="fill: none; stroke: #cccccc; stroke-linecap: square"/>
   </g>
   <g id="line2d_28">
    <path d="M 30.103125 155.246452 
L 532.303125 155.246452 
" clip-path="url(#p906e395f3e)" style="fill: none; stroke: #cccccc; stroke-linecap: square"/>
   </g>
   <g id="line2d_29">
    <path d="M 30.103125 126.392117 
L 532.303125 126.392117 
" clip-path="url(#p906e395f3e)" style="fill: none; stroke: #cccccc; stroke-linecap: square"/>
   </g>
   <g id="line2d_30">
    <path d="M 30.103125 97.537783 
L 532.303125 97.537783 
" clip-path="url(#p906e395f3e)" style="fill: none; stroke: #cccccc; stroke-linecap: square"/>
   </g>
   <g id="line2d_31">
    <path d="M 30.103125 68.683448 
L 532.303125 68.683448 
" clip-path="url(#p906e395f3e)" style="fill: none; stroke: #cccccc; stroke-linecap: square"/>
   </g>
   <g id="line2d_32">
    <path d="M 30.103125 236.333894 
L 31.444538 236.293192 
L 31.612215 236.048931 
L 34.798072 236.048931 
L 35.133425 235.604353 
L 37.145545 235.588391 
L 39.493018 235.587593 
L 39.660695 233.953133 
L 39.828372 233.953133 
L 39.996048 233.135903 
L 43.014228 233.129519 
L 61.290985 233.129519 
L 61.458662 223.698654 
L 75.208148 223.698654 
L 75.375825 213.006529 
L 78.729358 213.006529 
L 78.897035 213.617057 
L 81.076832 213.621447 
L 81.244508 213.008524 
L 85.268748 212.978198 
L 85.436425 212.77389 
L 86.610162 212.769501 
L 86.777838 212.565193 
L 86.945515 212.565193 
L 87.113192 212.360886 
L 87.280868 211.952271 
L 88.119252 211.926732 
L 88.286928 211.518117 
L 94.155612 211.491781 
L 94.323288 211.261935 
L 104.551565 211.242881 
L 104.719242 205.522272 
L 107.066715 205.522272 
L 107.234392 205.726579 
L 107.737422 205.726579 
L 108.072775 205.471195 
L 111.593985 205.448051 
L 111.761662 205.202243 
L 113.941458 205.202829 
L 114.109135 204.589907 
L 114.612165 204.588311 
L 114.779842 204.383405 
L 115.115195 204.382407 
L 115.282872 203.973792 
L 116.288932 203.972994 
L 116.456608 203.739052 
L 120.816202 203.632602 
L 121.151555 203.530448 
L 121.822262 203.52965 
L 121.989938 203.121035 
L 124.337412 203.117843 
L 124.505088 202.709228 
L 124.672765 202.709029 
L 124.840442 202.300414 
L 125.343472 202.300414 
L 125.511148 202.096106 
L 125.678825 198.77611 
L 126.684885 198.77611 
L 126.852562 197.95888 
L 129.200035 197.855928 
L 130.541448 197.85508 
L 132.888922 197.852686 
L 133.056598 197.62284 
L 136.074778 197.62284 
L 136.242455 196.80561 
L 138.254575 196.803216 
L 138.422252 195.167958 
L 141.943462 195.170352 
L 142.111138 193.941115 
L 145.464672 193.924356 
L 145.632348 189.01938 
L 152.507092 189.016575 
L 152.674768 188.60796 
L 153.345475 188.576037 
L 156.363655 188.573649 
L 156.531332 186.939189 
L 157.369715 186.939189 
L 157.537392 185.917651 
L 159.214158 185.8562 
L 159.381835 186.673429 
L 162.735368 186.666172 
L 162.903045 186.05325 
L 164.412135 186.052451 
L 164.747488 184.823414 
L 165.250518 184.823414 
L 165.418195 177.87696 
L 167.933345 177.873768 
L 168.101022 177.053346 
L 172.628292 177.046163 
L 172.795968 176.841856 
L 179.503035 176.770216 
L 179.670712 175.952188 
L 182.185862 175.94301 
L 182.353538 175.738702 
L 183.191922 175.73152 
L 183.359598 175.527212 
L 185.204042 175.516039 
L 185.539395 174.698809 
L 185.707072 174.267848 
L 186.377778 174.26705 
L 186.545455 173.858435 
L 186.713132 173.858335 
L 186.880808 173.41574 
L 188.892928 173.413346 
L 189.060605 170.952079 
L 190.234342 170.948089 
L 190.402018 170.538482 
L 191.240402 170.535091 
L 191.408078 169.30765 
L 202.810091 169.18464 
L 202.977768 165.108061 
L 203.145445 165.107843 
L 203.313121 155.301084 
L 206.834331 155.260579 
L 208.008068 155.241054 
L 208.175745 153.402287 
L 217.900991 153.398293 
L 218.068668 151.112613 
L 218.236345 150.703998 
L 220.416141 150.697613 
L 220.583818 149.880383 
L 222.931291 149.869222 
L 223.098968 148.234763 
L 224.272705 148.233965 
L 224.440381 147.416735 
L 230.141388 147.377024 
L 230.309065 146.132824 
L 233.662598 146.097665 
L 233.830275 145.894155 
L 240.201988 145.876594 
L 244.058551 145.815133 
L 244.226228 145.214968 
L 246.406025 145.200378 
L 246.573701 144.996868 
L 247.244408 144.99607 
L 247.412085 144.554435 
L 248.753498 144.543994 
L 248.921175 141.273479 
L 252.442385 141.267886 
L 252.610061 140.910348 
L 254.957535 140.908739 
L 255.125211 140.704432 
L 257.137331 140.75265 
L 257.305008 140.321689 
L 258.311068 140.297856 
L 261.664601 140.286477 
L 261.999955 140.183344 
L 263.173691 140.180644 
L 263.341368 139.97075 
L 264.179751 139.968409 
L 264.515105 139.73216 
L 265.353488 139.73216 
L 265.521165 138.91493 
L 266.191871 138.914849 
L 266.359548 125.838373 
L 266.527225 138.913951 
L 271.222171 138.898541 
L 271.389848 137.999858 
L 272.563585 137.999646 
L 272.731261 137.794578 
L 274.240351 137.783349 
L 274.408028 133.895122 
L 278.264591 133.880601 
L 278.432268 128.977147 
L 281.450448 128.88948 
L 282.288831 128.862233 
L 282.791861 128.860637 
L 282.959538 128.419999 
L 285.474688 128.412174 
L 285.642365 127.996576 
L 287.654485 127.994082 
L 287.822161 127.564664 
L 294.026198 127.545825 
L 294.193875 127.10848 
L 294.361551 127.10848 
L 294.529228 126.663948 
L 294.864581 126.557692 
L 295.535288 126.548302 
L 295.702965 126.241834 
L 299.056498 126.207452 
L 299.224175 126.647491 
L 299.559528 126.646206 
L 299.727205 125.79865 
L 300.230235 125.798618 
L 300.397911 124.164159 
L 300.733265 124.162559 
L 300.900941 123.955646 
L 305.428211 123.905376 
L 305.763565 123.823773 
L 306.098918 123.823374 
L 306.266595 122.998961 
L 310.123158 122.908645 
L 310.290835 122.703754 
L 310.626188 122.702657 
L 310.793865 121.470427 
L 311.799925 121.464439 
L 311.967601 121.023792 
L 313.141338 120.984327 
L 313.476691 120.862599 
L 316.662548 120.836104 
L 316.830225 120.385789 
L 317.836285 120.432137 
L 318.003961 118.592734 
L 320.183758 118.516031 
L 320.519111 118.415467 
L 321.357495 118.388333 
L 326.052441 118.347475 
L 326.220118 117.118438 
L 326.387795 116.914127 
L 326.555471 113.645201 
L 327.561531 113.6446 
L 327.729208 96.481918 
L 336.951425 96.37827 
L 337.119101 96.173963 
L 338.292838 96.153958 
L 347.012025 96.104287 
L 347.179701 95.695654 
L 352.545355 95.590202 
L 353.383738 95.564065 
L 354.725151 95.55985 
L 354.892828 93.107967 
L 358.078685 93.031005 
L 358.246361 92.592862 
L 370.486758 92.552973 
L 370.654435 91.735145 
L 372.163525 91.734247 
L 372.331201 92.142862 
L 381.218065 92.043523 
L 381.385741 91.838418 
L 385.074628 91.833517 
L 385.242305 91.781636 
L 385.409981 91.524256 
L 390.943311 91.46807 
L 391.110988 93.105909 
L 391.614018 93.105111 
L 391.781695 91.470651 
L 391.949371 91.470626 
L 392.117048 73.287261 
L 392.284725 67.750983 
L 393.290785 67.691884 
L 393.626138 66.036572 
L 394.632198 66.01566 
L 394.799875 65.801775 
L 396.979671 65.785362 
L 397.147348 81.312524 
L 398.824115 81.31427 
L 398.991791 72.732957 
L 399.327145 72.732957 
L 399.494821 78.444787 
L 408.717038 78.37845 
L 408.884715 77.56122 
L 414.082691 77.522414 
L 416.262488 77.518249 
L 416.430165 77.722556 
L 431.521065 77.664708 
L 431.856418 77.574925 
L 433.197831 77.573703 
L 433.365508 77.317969 
L 434.539245 77.315725 
L 434.706921 73.229575 
L 446.276611 73.226558 
L 446.444288 72.837411 
L 448.121055 72.822447 
L 448.288731 73.431978 
L 448.624085 73.425257 
L 448.791761 73.220949 
L 449.127115 73.220949 
L 449.294791 73.016642 
L 450.803881 73.005266 
L 450.971558 72.525523 
L 456.504888 72.50981 
L 456.672565 72.707534 
L 464.721045 72.615861 
L 464.888721 71.798631 
L 466.733165 71.798432 
L 466.900841 70.140828 
L 470.757405 70.08364 
L 470.925081 69.904871 
L 476.458411 69.920403 
L 476.626088 68.463714 
L 477.464471 68.461694 
L 477.632148 53.750758 
L 482.327095 53.73965 
L 482.494771 54.144967 
L 485.512951 54.100244 
L 485.680628 53.282758 
L 485.848305 54.099639 
L 495.238198 54.083634 
L 495.405875 54.287941 
L 496.747288 54.289138 
L 496.914965 53.560888 
L 500.771528 53.493419 
L 501.106881 52.973672 
L 501.442235 52.973273 
L 501.609911 54.404024 
L 503.119001 54.377887 
L 503.454355 54.273139 
L 508.149301 54.211354 
L 508.484655 54.404124 
L 511.670511 54.400133 
L 511.838188 54.246903 
L 512.005865 54.246903 
L 512.173541 54.655518 
L 512.508895 54.655518 
L 512.676571 55.26844 
L 513.682631 55.267318 
L 513.850308 54.858703 
L 516.533135 54.756075 
L 519.048285 54.560546 
L 519.215961 52.924491 
L 519.551315 52.924491 
L 519.718991 50.363312 
L 519.886668 50.363312 
L 520.054345 50.233225 
L 520.054345 50.233225 
" clip-path="url(#p906e395f3e)" style="fill: none; stroke: #1f77b4; stroke-width: 2; stroke-linecap: square"/>
   </g>
   <g id="patch_3">
    <path d="M 30.103125 299.518125 
L 30.103125 22.318125 
" style="fill: none; stroke: #000000; stroke-width: 0.8; stroke-linejoin: miter; stroke-linecap: square"/>
   </g>
   <g id="patch_4">
    <path d="M 532.303125 299.518125 
L 532.303125 22.318125 
" style="fill: none; stroke: #000000; stroke-width: 0.8; stroke-linejoin: miter; stroke-linecap: square"/>
   </g>
   <g id="patch_5">
    <path d="M 30.103125 299.518125 
L 532.303125 299.518125 
" style="fill: none; stroke: #000000; stroke-width: 0.8; stroke-linejoin: miter; stroke-linecap: square"/>
   </g>
   <g id="patch_6">
    <path d="M 30.103125 22.318125 
L 532.303125 22.318125 
" style="fill: none; stroke: #000000; stroke-width: 0.8; stroke-linejoin: miter; stroke-linecap: square"/>
   </g>
   <g id="patch_7">
    <path d="M 61.627929 208.92268 
Q 67.543619 210.679951 73.459309 212.437223 
" style="fill: none; stroke: #000000; stroke-linecap: round"/>
   </g>
   <g id="text_14">
    <g id="patch_8">
     <path d="M 8.305158 211.467042 
L 56.715474 211.467042 
Q 59.214474 211.467042 59.214474 208.968042 
L 59.214474 191.578386 
Q 59.214474 189.079386 56.715474 189.079386 
L 8.305158 189.079386 
Q 5.806158 189.079386 5.806158 191.578386 
L 5.806158 208.968042 
Q 5.806158 211.467042 8.305158 211.467042 
z
" style="fill: #cccccc; stroke: #000000; stroke-linejoin: miter"/>
    </g>
    <!-- 2017-06-29 -->
    <g transform="translate(8.305158 197.907885) scale(0.0833 -0.0833)">
     <defs>
      <path id="DejaVuSans-2d" d="M 313 2009 
L 1997 2009 
L 1997 1497 
L 313 1497 
L 313 2009 
z
" transform="scale(0.015625)"/>
      <path id="DejaVuSans-36" d="M 2113 2584 
Q 1688 2584 1439 2293 
Q 1191 2003 1191 1497 
Q 1191 994 1439 701 
Q 1688 409 2113 409 
Q 2538 409 2786 701 
Q 3034 994 3034 1497 
Q 3034 2003 2786 2293 
Q 2538 2584 2113 2584 
z
M 3366 4563 
L 3366 3988 
Q 3128 4100 2886 4159 
Q 2644 4219 2406 4219 
Q 1781 4219 1451 3797 
Q 1122 3375 1075 2522 
Q 1259 2794 1537 2939 
Q 1816 3084 2150 3084 
Q 2853 3084 3261 2657 
Q 3669 2231 3669 1497 
Q 3669 778 3244 343 
Q 2819 -91 2113 -91 
Q 1303 -91 875 529 
Q 447 1150 447 2328 
Q 447 3434 972 4092 
Q 1497 4750 2381 4750 
Q 2619 4750 2861 4703 
Q 3103 4656 3366 4563 
z
" transform="scale(0.015625)"/>
     </defs>
     <use xlink:href="#DejaVuSans-32"/>
     <use xlink:href="#DejaVuSans-30" x="63.623047"/>
     <use xlink:href="#DejaVuSans-31" x="127.246094"/>
     <use xlink:href="#DejaVuSans-37" x="190.869141"/>
     <use xlink:href="#DejaVuSans-2d" x="254.492188"/>
     <use xlink:href="#DejaVuSans-30" x="290.576172"/>
     <use xlink:href="#DejaVuSans-36" x="354.199219"/>
     <use xlink:href="#DejaVuSans-2d" x="417.822266"/>
     <use xlink:href="#DejaVuSans-32" x="453.90625"/>
     <use xlink:href="#DejaVuSans-39" x="517.529297"/>
    </g>
    <!--  +3.43m  -->
    <g transform="translate(8.305158 207.235662) scale(0.0833 -0.0833)">
     <defs>
      <path id="DejaVuSans-20" transform="scale(0.015625)"/>
      <path id="DejaVuSans-2b" d="M 2944 4013 
L 2944 2272 
L 4684 2272 
L 4684 1741 
L 2944 1741 
L 2944 0 
L 2419 0 
L 2419 1741 
L 678 1741 
L 678 2272 
L 2419 2272 
L 2419 4013 
L 2944 4013 
z
" transform="scale(0.015625)"/>
      <path id="DejaVuSans-6d" d="M 3328 2828 
Q 3544 3216 3844 3400 
Q 4144 3584 4550 3584 
Q 5097 3584 5394 3201 
Q 5691 2819 5691 2113 
L 5691 0 
L 5113 0 
L 5113 2094 
Q 5113 2597 4934 2840 
Q 4756 3084 4391 3084 
Q 3944 3084 3684 2787 
Q 3425 2491 3425 1978 
L 3425 0 
L 2847 0 
L 2847 2094 
Q 2847 2600 2669 2842 
Q 2491 3084 2119 3084 
Q 1678 3084 1418 2786 
Q 1159 2488 1159 1978 
L 1159 0 
L 581 0 
L 581 3500 
L 1159 3500 
L 1159 2956 
Q 1356 3278 1631 3431 
Q 1906 3584 2284 3584 
Q 2666 3584 2933 3390 
Q 3200 3197 3328 2828 
z
" transform="scale(0.015625)"/>
     </defs>
     <use xlink:href="#DejaVuSans-20"/>
     <use xlink:href="#DejaVuSans-2b" x="31.787109"/>
     <use xlink:href="#DejaVuSans-33" x="115.576172"/>
     <use xlink:href="#DejaVuSans-2e" x="179.199219"/>
     <use xlink:href="#DejaVuSans-34" x="210.986328"/>
     <use xlink:href="#DejaVuSans-33" x="274.609375"/>
     <use xlink:href="#DejaVuSans-6d" x="338.232422"/>
     <use xlink:href="#DejaVuSans-20" x="435.644531"/>
    </g>
   </g>
   <g id="patch_9">
    <path d="M 131.884452 184.935531 
Q 137.800142 186.692802 143.715832 188.450074 
" style="fill: none; stroke: #000000; stroke-linecap: round"/>
   </g>
   <g id="text_15">
    <g id="patch_10">
     <path d="M 78.561682 187.479893 
L 126.971997 187.479893 
Q 129.470997 187.479893 129.470997 184.980893 
L 129.470997 167.591237 
Q 129.470997 165.092237 126.971997 165.092237 
L 78.561682 165.092237 
Q 76.062682 165.092237 76.062682 167.591237 
L 76.062682 184.980893 
Q 76.062682 187.479893 78.561682 187.479893 
z
" style="fill: #cccccc; stroke: #000000; stroke-linejoin: miter"/>
    </g>
    <!-- 2018-08-22 -->
    <g transform="translate(78.561682 173.920736) scale(0.0833 -0.0833)">
     <use xlink:href="#DejaVuSans-32"/>
     <use xlink:href="#DejaVuSans-30" x="63.623047"/>
     <use xlink:href="#DejaVuSans-31" x="127.246094"/>
     <use xlink:href="#DejaVuSans-38" x="190.869141"/>
     <use xlink:href="#DejaVuSans-2d" x="254.492188"/>
     <use xlink:href="#DejaVuSans-30" x="290.576172"/>
     <use xlink:href="#DejaVuSans-38" x="354.199219"/>
     <use xlink:href="#DejaVuSans-2d" x="417.822266"/>
     <use xlink:href="#DejaVuSans-32" x="453.90625"/>
     <use xlink:href="#DejaVuSans-32" x="517.529297"/>
    </g>
    <!--  +1.57m  -->
    <g transform="translate(78.561682 183.248513) scale(0.0833 -0.0833)">
     <use xlink:href="#DejaVuSans-20"/>
     <use xlink:href="#DejaVuSans-2b" x="31.787109"/>
     <use xlink:href="#DejaVuSans-31" x="115.576172"/>
     <use xlink:href="#DejaVuSans-2e" x="179.199219"/>
     <use xlink:href="#DejaVuSans-35" x="210.986328"/>
     <use xlink:href="#DejaVuSans-37" x="274.609375"/>
     <use xlink:href="#DejaVuSans-6d" x="338.232422"/>
     <use xlink:href="#DejaVuSans-20" x="435.644531"/>
    </g>
   </g>
   <g id="patch_11">
    <path d="M 189.565225 151.217234 
Q 195.480915 152.974506 201.396606 154.731778 
" style="fill: none; stroke: #000000; stroke-linecap: round"/>
   </g>
   <g id="text_16">
    <g id="patch_12">
     <path d="M 136.242455 153.761597 
L 184.652771 153.761597 
Q 187.151771 153.761597 187.151771 151.262597 
L 187.151771 133.872941 
Q 187.151771 131.373941 184.652771 131.373941 
L 136.242455 131.373941 
Q 133.743455 131.373941 133.743455 133.872941 
L 133.743455 151.262597 
Q 133.743455 153.761597 136.242455 153.761597 
z
" style="fill: #cccccc; stroke: #000000; stroke-linejoin: miter"/>
    </g>
    <!-- 2019-08-01 -->
    <g transform="translate(136.242455 140.202439) scale(0.0833 -0.0833)">
     <use xlink:href="#DejaVuSans-32"/>
     <use xlink:href="#DejaVuSans-30" x="63.623047"/>
     <use xlink:href="#DejaVuSans-31" x="127.246094"/>
     <use xlink:href="#DejaVuSans-39" x="190.869141"/>
     <use xlink:href="#DejaVuSans-2d" x="254.492188"/>
     <use xlink:href="#DejaVuSans-30" x="290.576172"/>
     <use xlink:href="#DejaVuSans-38" x="354.199219"/>
     <use xlink:href="#DejaVuSans-2d" x="417.822266"/>
     <use xlink:href="#DejaVuSans-30" x="453.90625"/>
     <use xlink:href="#DejaVuSans-31" x="517.529297"/>
    </g>
    <!--  +3.15m  -->
    <g transform="translate(136.242455 149.530217) scale(0.0833 -0.0833)">
     <use xlink:href="#DejaVuSans-20"/>
     <use xlink:href="#DejaVuSans-2b" x="31.787109"/>
     <use xlink:href="#DejaVuSans-33" x="115.576172"/>
     <use xlink:href="#DejaVuSans-2e" x="179.199219"/>
     <use xlink:href="#DejaVuSans-31" x="210.986328"/>
     <use xlink:href="#DejaVuSans-35" x="274.609375"/>
     <use xlink:href="#DejaVuSans-6d" x="338.232422"/>
     <use xlink:href="#DejaVuSans-20" x="435.644531"/>
    </g>
   </g>
   <g id="patch_13">
    <path d="M 252.611652 121.754523 
Q 258.527342 123.511795 264.443032 125.269066 
" style="fill: none; stroke: #000000; stroke-linecap: round"/>
   </g>
   <g id="text_17">
    <g id="patch_14">
     <path d="M 199.288881 124.298885 
L 247.699197 124.298885 
Q 250.198197 124.298885 250.198197 121.799885 
L 250.198197 104.410229 
Q 250.198197 101.911229 247.699197 101.911229 
L 199.288881 101.911229 
Q 196.789881 101.911229 196.789881 104.410229 
L 196.789881 121.799885 
Q 196.789881 124.298885 199.288881 124.298885 
z
" style="fill: #cccccc; stroke: #000000; stroke-linejoin: miter"/>
    </g>
    <!-- 2020-08-11 -->
    <g transform="translate(199.288881 110.739728) scale(0.0833 -0.0833)">
     <use xlink:href="#DejaVuSans-32"/>
     <use xlink:href="#DejaVuSans-30" x="63.623047"/>
     <use xlink:href="#DejaVuSans-32" x="127.246094"/>
     <use xlink:href="#DejaVuSans-30" x="190.869141"/>
     <use xlink:href="#DejaVuSans-2d" x="254.492188"/>
     <use xlink:href="#DejaVuSans-30" x="290.576172"/>
     <use xlink:href="#DejaVuSans-38" x="354.199219"/>
     <use xlink:href="#DejaVuSans-2d" x="417.822266"/>
     <use xlink:href="#DejaVuSans-31" x="453.90625"/>
     <use xlink:href="#DejaVuSans-31" x="517.529297"/>
    </g>
    <!--  +4.19m  -->
    <g transform="translate(199.288881 120.067506) scale(0.0833 -0.0833)">
     <use xlink:href="#DejaVuSans-20"/>
     <use xlink:href="#DejaVuSans-2b" x="31.787109"/>
     <use xlink:href="#DejaVuSans-34" x="115.576172"/>
     <use xlink:href="#DejaVuSans-2e" x="179.199219"/>
     <use xlink:href="#DejaVuSans-31" x="210.986328"/>
     <use xlink:href="#DejaVuSans-39" x="274.609375"/>
     <use xlink:href="#DejaVuSans-6d" x="338.232422"/>
     <use xlink:href="#DejaVuSans-20" x="435.644531"/>
    </g>
   </g>
   <g id="patch_15">
    <path d="M 283.819158 153.59199 
Q 275.936257 146.900689 268.053356 140.209389 
" style="fill: none; stroke: #000000; stroke-linecap: round"/>
   </g>
   <g id="text_18">
    <g id="patch_16">
     <path d="M 274.911058 177.770532 
L 323.321374 177.770532 
Q 325.820374 177.770532 325.820374 175.271532 
L 325.820374 157.881876 
Q 325.820374 155.382876 323.321374 155.382876 
L 274.911058 155.382876 
Q 272.412058 155.382876 272.412058 157.881876 
L 272.412058 175.271532 
Q 272.412058 177.770532 274.911058 177.770532 
z
" style="fill: #cccccc; stroke: #000000; stroke-linejoin: miter"/>
    </g>
    <!-- 2020-08-12 -->
    <g transform="translate(274.911058 164.211375) scale(0.0833 -0.0833)">
     <use xlink:href="#DejaVuSans-32"/>
     <use xlink:href="#DejaVuSans-30" x="63.623047"/>
     <use xlink:href="#DejaVuSans-32" x="127.246094"/>
     <use xlink:href="#DejaVuSans-30" x="190.869141"/>
     <use xlink:href="#DejaVuSans-2d" x="254.492188"/>
     <use xlink:href="#DejaVuSans-30" x="290.576172"/>
     <use xlink:href="#DejaVuSans-38" x="354.199219"/>
     <use xlink:href="#DejaVuSans-2d" x="417.822266"/>
     <use xlink:href="#DejaVuSans-31" x="453.90625"/>
     <use xlink:href="#DejaVuSans-32" x="517.529297"/>
    </g>
    <!--  -4.19m  -->
    <g transform="translate(274.911058 173.539153) scale(0.0833 -0.0833)">
     <use xlink:href="#DejaVuSans-20"/>
     <use xlink:href="#DejaVuSans-2d" x="31.787109"/>
     <use xlink:href="#DejaVuSans-34" x="67.871094"/>
     <use xlink:href="#DejaVuSans-2e" x="131.494141"/>
     <use xlink:href="#DejaVuSans-31" x="163.28125"/>
     <use xlink:href="#DejaVuSans-39" x="226.904297"/>
     <use xlink:href="#DejaVuSans-6d" x="290.527344"/>
     <use xlink:href="#DejaVuSans-20" x="387.939453"/>
    </g>
   </g>
   <g id="patch_17">
    <path d="M 313.981312 92.398068 
Q 319.897002 94.15534 325.812692 95.912611 
" style="fill: none; stroke: #000000; stroke-linecap: round"/>
   </g>
   <g id="text_19">
    <g id="patch_18">
     <path d="M 260.658541 94.94243 
L 309.068857 94.94243 
Q 311.567857 94.94243 311.567857 92.44343 
L 311.567857 75.053774 
Q 311.567857 72.554774 309.068857 72.554774 
L 260.658541 72.554774 
Q 258.159541 72.554774 258.159541 75.053774 
L 258.159541 92.44343 
Q 258.159541 94.94243 260.658541 94.94243 
z
" style="fill: #cccccc; stroke: #000000; stroke-linejoin: miter"/>
    </g>
    <!-- 2021-08-12 -->
    <g transform="translate(260.658541 81.383273) scale(0.0833 -0.0833)">
     <use xlink:href="#DejaVuSans-32"/>
     <use xlink:href="#DejaVuSans-30" x="63.623047"/>
     <use xlink:href="#DejaVuSans-32" x="127.246094"/>
     <use xlink:href="#DejaVuSans-31" x="190.869141"/>
     <use xlink:href="#DejaVuSans-2d" x="254.492188"/>
     <use xlink:href="#DejaVuSans-30" x="290.576172"/>
     <use xlink:href="#DejaVuSans-38" x="354.199219"/>
     <use xlink:href="#DejaVuSans-2d" x="417.822266"/>
     <use xlink:href="#DejaVuSans-31" x="453.90625"/>
     <use xlink:href="#DejaVuSans-32" x="517.529297"/>
    </g>
    <!--  +5.51m  -->
    <g transform="translate(260.658541 90.711051) scale(0.0833 -0.0833)">
     <use xlink:href="#DejaVuSans-20"/>
     <use xlink:href="#DejaVuSans-2b" x="31.787109"/>
     <use xlink:href="#DejaVuSans-35" x="115.576172"/>
     <use xlink:href="#DejaVuSans-2e" x="179.199219"/>
     <use xlink:href="#DejaVuSans-35" x="210.986328"/>
     <use xlink:href="#DejaVuSans-31" x="274.609375"/>
     <use xlink:href="#DejaVuSans-6d" x="338.232422"/>
     <use xlink:href="#DejaVuSans-20" x="435.644531"/>
    </g>
   </g>
   <g id="patch_19">
    <path d="M 378.536828 63.667133 
Q 384.452519 65.424405 390.368209 67.181676 
" style="fill: none; stroke: #000000; stroke-linecap: round"/>
   </g>
   <g id="text_20">
    <g id="patch_20">
     <path d="M 325.214058 66.211495 
L 373.624374 66.211495 
Q 376.123374 66.211495 376.123374 63.712495 
L 376.123374 46.322839 
Q 376.123374 43.823839 373.624374 43.823839 
L 325.214058 43.823839 
Q 322.715058 43.823839 322.715058 46.322839 
L 322.715058 63.712495 
Q 322.715058 66.211495 325.214058 66.211495 
z
" style="fill: #cccccc; stroke: #000000; stroke-linejoin: miter"/>
    </g>
    <!-- 2022-09-01 -->
    <g transform="translate(325.214058 52.652338) scale(0.0833 -0.0833)">
     <use xlink:href="#DejaVuSans-32"/>
     <use xlink:href="#DejaVuSans-30" x="63.623047"/>
     <use xlink:href="#DejaVuSans-32" x="127.246094"/>
     <use xlink:href="#DejaVuSans-32" x="190.869141"/>
     <use xlink:href="#DejaVuSans-2d" x="254.492188"/>
     <use xlink:href="#DejaVuSans-30" x="290.576172"/>
     <use xlink:href="#DejaVuSans-39" x="354.199219"/>
     <use xlink:href="#DejaVuSans-2d" x="417.822266"/>
     <use xlink:href="#DejaVuSans-30" x="453.90625"/>
     <use xlink:href="#DejaVuSans-31" x="517.529297"/>
    </g>
    <!--  +7.61m  -->
    <g transform="translate(325.214058 61.980116) scale(0.0833 -0.0833)">
     <use xlink:href="#DejaVuSans-20"/>
     <use xlink:href="#DejaVuSans-2b" x="31.787109"/>
     <use xlink:href="#DejaVuSans-37" x="115.576172"/>
     <use xlink:href="#DejaVuSans-2e" x="179.199219"/>
     <use xlink:href="#DejaVuSans-36" x="210.986328"/>
     <use xlink:href="#DejaVuSans-31" x="274.609375"/>
     <use xlink:href="#DejaVuSans-6d" x="338.232422"/>
     <use xlink:href="#DejaVuSans-20" x="435.644531"/>
    </g>
   </g>
   <g id="patch_21">
    <path d="M 414.439281 95.990563 
Q 406.55638 89.299262 398.673479 82.607961 
" style="fill: none; stroke: #000000; stroke-linecap: round"/>
   </g>
   <g id="text_21">
    <g id="patch_22">
     <path d="M 405.531181 120.169105 
L 453.941497 120.169105 
Q 456.440497 120.169105 456.440497 117.670105 
L 456.440497 100.280449 
Q 456.440497 97.781449 453.941497 97.781449 
L 405.531181 97.781449 
Q 403.032181 97.781449 403.032181 100.280449 
L 403.032181 117.670105 
Q 403.032181 120.169105 405.531181 120.169105 
z
" style="fill: #cccccc; stroke: #000000; stroke-linejoin: miter"/>
    </g>
    <!-- 2022-09-30 -->
    <g transform="translate(405.531181 106.609948) scale(0.0833 -0.0833)">
     <use xlink:href="#DejaVuSans-32"/>
     <use xlink:href="#DejaVuSans-30" x="63.623047"/>
     <use xlink:href="#DejaVuSans-32" x="127.246094"/>
     <use xlink:href="#DejaVuSans-32" x="190.869141"/>
     <use xlink:href="#DejaVuSans-2d" x="254.492188"/>
     <use xlink:href="#DejaVuSans-30" x="290.576172"/>
     <use xlink:href="#DejaVuSans-39" x="354.199219"/>
     <use xlink:href="#DejaVuSans-2d" x="417.822266"/>
     <use xlink:href="#DejaVuSans-33" x="453.90625"/>
     <use xlink:href="#DejaVuSans-30" x="517.529297"/>
    </g>
    <!--  -4.98m  -->
    <g transform="translate(405.531181 115.937726) scale(0.0833 -0.0833)">
     <use xlink:href="#DejaVuSans-20"/>
     <use xlink:href="#DejaVuSans-2d" x="31.787109"/>
     <use xlink:href="#DejaVuSans-34" x="67.871094"/>
     <use xlink:href="#DejaVuSans-2e" x="131.494141"/>
     <use xlink:href="#DejaVuSans-39" x="163.28125"/>
     <use xlink:href="#DejaVuSans-38" x="226.904297"/>
     <use xlink:href="#DejaVuSans-6d" x="290.527344"/>
     <use xlink:href="#DejaVuSans-20" x="387.939453"/>
    </g>
   </g>
   <g id="patch_23">
    <path d="M 463.884252 49.666908 
Q 469.799942 51.42418 475.715632 53.181452 
" style="fill: none; stroke: #000000; stroke-linecap: round"/>
   </g>
   <g id="text_22">
    <g id="patch_24">
     <path d="M 410.561481 52.211271 
L 458.971797 52.211271 
Q 461.470797 52.211271 461.470797 49.712271 
L 461.470797 32.322615 
Q 461.470797 29.823615 458.971797 29.823615 
L 410.561481 29.823615 
Q 408.062481 29.823615 408.062481 32.322615 
L 408.062481 49.712271 
Q 408.062481 52.211271 410.561481 52.211271 
z
" style="fill: #cccccc; stroke: #000000; stroke-linejoin: miter"/>
    </g>
    <!-- 2024-01-23 -->
    <g transform="translate(410.561481 38.652113) scale(0.0833 -0.0833)">
     <use xlink:href="#DejaVuSans-32"/>
     <use xlink:href="#DejaVuSans-30" x="63.623047"/>
     <use xlink:href="#DejaVuSans-32" x="127.246094"/>
     <use xlink:href="#DejaVuSans-34" x="190.869141"/>
     <use xlink:href="#DejaVuSans-2d" x="254.492188"/>
     <use xlink:href="#DejaVuSans-30" x="290.576172"/>
     <use xlink:href="#DejaVuSans-31" x="354.199219"/>
     <use xlink:href="#DejaVuSans-2d" x="417.822266"/>
     <use xlink:href="#DejaVuSans-32" x="453.90625"/>
     <use xlink:href="#DejaVuSans-33" x="517.529297"/>
    </g>
    <!--  +4.72m  -->
    <g transform="translate(410.561481 47.979891) scale(0.0833 -0.0833)">
     <use xlink:href="#DejaVuSans-20"/>
     <use xlink:href="#DejaVuSans-2b" x="31.787109"/>
     <use xlink:href="#DejaVuSans-34" x="115.576172"/>
     <use xlink:href="#DejaVuSans-2e" x="179.199219"/>
     <use xlink:href="#DejaVuSans-37" x="210.986328"/>
     <use xlink:href="#DejaVuSans-32" x="274.609375"/>
     <use xlink:href="#DejaVuSans-6d" x="338.232422"/>
     <use xlink:href="#DejaVuSans-20" x="435.644531"/>
    </g>
   </g>
   <g id="text_23">
    <!-- History of percentage of AWS ownership of IPv4 space -->
    <g transform="translate(118.277813 16.318125) scale(0.12 -0.12)">
     <defs>
      <path id="DejaVuSans-48" d="M 628 4666 
L 1259 4666 
L 1259 2753 
L 3553 2753 
L 3553 4666 
L 4184 4666 
L 4184 0 
L 3553 0 
L 3553 2222 
L 1259 2222 
L 1259 0 
L 628 0 
L 628 4666 
z
" transform="scale(0.015625)"/>
      <path id="DejaVuSans-69" d="M 603 3500 
L 1178 3500 
L 1178 0 
L 603 0 
L 603 3500 
z
M 603 4863 
L 1178 4863 
L 1178 4134 
L 603 4134 
L 603 4863 
z
" transform="scale(0.015625)"/>
      <path id="DejaVuSans-73" d="M 2834 3397 
L 2834 2853 
Q 2591 2978 2328 3040 
Q 2066 3103 1784 3103 
Q 1356 3103 1142 2972 
Q 928 2841 928 2578 
Q 928 2378 1081 2264 
Q 1234 2150 1697 2047 
L 1894 2003 
Q 2506 1872 2764 1633 
Q 3022 1394 3022 966 
Q 3022 478 2636 193 
Q 2250 -91 1575 -91 
Q 1294 -91 989 -36 
Q 684 19 347 128 
L 347 722 
Q 666 556 975 473 
Q 1284 391 1588 391 
Q 1994 391 2212 530 
Q 2431 669 2431 922 
Q 2431 1156 2273 1281 
Q 2116 1406 1581 1522 
L 1381 1569 
Q 847 1681 609 1914 
Q 372 2147 372 2553 
Q 372 3047 722 3315 
Q 1072 3584 1716 3584 
Q 2034 3584 2315 3537 
Q 2597 3491 2834 3397 
z
" transform="scale(0.015625)"/>
      <path id="DejaVuSans-74" d="M 1172 4494 
L 1172 3500 
L 2356 3500 
L 2356 3053 
L 1172 3053 
L 1172 1153 
Q 1172 725 1289 603 
Q 1406 481 1766 481 
L 2356 481 
L 2356 0 
L 1766 0 
Q 1100 0 847 248 
Q 594 497 594 1153 
L 594 3053 
L 172 3053 
L 172 3500 
L 594 3500 
L 594 4494 
L 1172 4494 
z
" transform="scale(0.015625)"/>
      <path id="DejaVuSans-6f" d="M 1959 3097 
Q 1497 3097 1228 2736 
Q 959 2375 959 1747 
Q 959 1119 1226 758 
Q 1494 397 1959 397 
Q 2419 397 2687 759 
Q 2956 1122 2956 1747 
Q 2956 2369 2687 2733 
Q 2419 3097 1959 3097 
z
M 1959 3584 
Q 2709 3584 3137 3096 
Q 3566 2609 3566 1747 
Q 3566 888 3137 398 
Q 2709 -91 1959 -91 
Q 1206 -91 779 398 
Q 353 888 353 1747 
Q 353 2609 779 3096 
Q 1206 3584 1959 3584 
z
" transform="scale(0.015625)"/>
      <path id="DejaVuSans-72" d="M 2631 2963 
Q 2534 3019 2420 3045 
Q 2306 3072 2169 3072 
Q 1681 3072 1420 2755 
Q 1159 2438 1159 1844 
L 1159 0 
L 581 0 
L 581 3500 
L 1159 3500 
L 1159 2956 
Q 1341 3275 1631 3429 
Q 1922 3584 2338 3584 
Q 2397 3584 2469 3576 
Q 2541 3569 2628 3553 
L 2631 2963 
z
" transform="scale(0.015625)"/>
      <path id="DejaVuSans-79" d="M 2059 -325 
Q 1816 -950 1584 -1140 
Q 1353 -1331 966 -1331 
L 506 -1331 
L 506 -850 
L 844 -850 
Q 1081 -850 1212 -737 
Q 1344 -625 1503 -206 
L 1606 56 
L 191 3500 
L 800 3500 
L 1894 763 
L 2988 3500 
L 3597 3500 
L 2059 -325 
z
" transform="scale(0.015625)"/>
      <path id="DejaVuSans-66" d="M 2375 4863 
L 2375 4384 
L 1825 4384 
Q 1516 4384 1395 4259 
Q 1275 4134 1275 3809 
L 1275 3500 
L 2222 3500 
L 2222 3053 
L 1275 3053 
L 1275 0 
L 697 0 
L 697 3053 
L 147 3053 
L 147 3500 
L 697 3500 
L 697 3744 
Q 697 4328 969 4595 
Q 1241 4863 1831 4863 
L 2375 4863 
z
" transform="scale(0.015625)"/>
      <path id="DejaVuSans-70" d="M 1159 525 
L 1159 -1331 
L 581 -1331 
L 581 3500 
L 1159 3500 
L 1159 2969 
Q 1341 3281 1617 3432 
Q 1894 3584 2278 3584 
Q 2916 3584 3314 3078 
Q 3713 2572 3713 1747 
Q 3713 922 3314 415 
Q 2916 -91 2278 -91 
Q 1894 -91 1617 61 
Q 1341 213 1159 525 
z
M 3116 1747 
Q 3116 2381 2855 2742 
Q 2594 3103 2138 3103 
Q 1681 3103 1420 2742 
Q 1159 2381 1159 1747 
Q 1159 1113 1420 752 
Q 1681 391 2138 391 
Q 2594 391 2855 752 
Q 3116 1113 3116 1747 
z
" transform="scale(0.015625)"/>
      <path id="DejaVuSans-65" d="M 3597 1894 
L 3597 1613 
L 953 1613 
Q 991 1019 1311 708 
Q 1631 397 2203 397 
Q 2534 397 2845 478 
Q 3156 559 3463 722 
L 3463 178 
Q 3153 47 2828 -22 
Q 2503 -91 2169 -91 
Q 1331 -91 842 396 
Q 353 884 353 1716 
Q 353 2575 817 3079 
Q 1281 3584 2069 3584 
Q 2775 3584 3186 3129 
Q 3597 2675 3597 1894 
z
M 3022 2063 
Q 3016 2534 2758 2815 
Q 2500 3097 2075 3097 
Q 1594 3097 1305 2825 
Q 1016 2553 972 2059 
L 3022 2063 
z
" transform="scale(0.015625)"/>
      <path id="DejaVuSans-63" d="M 3122 3366 
L 3122 2828 
Q 2878 2963 2633 3030 
Q 2388 3097 2138 3097 
Q 1578 3097 1268 2742 
Q 959 2388 959 1747 
Q 959 1106 1268 751 
Q 1578 397 2138 397 
Q 2388 397 2633 464 
Q 2878 531 3122 666 
L 3122 134 
Q 2881 22 2623 -34 
Q 2366 -91 2075 -91 
Q 1284 -91 818 406 
Q 353 903 353 1747 
Q 353 2603 823 3093 
Q 1294 3584 2113 3584 
Q 2378 3584 2631 3529 
Q 2884 3475 3122 3366 
z
" transform="scale(0.015625)"/>
      <path id="DejaVuSans-6e" d="M 3513 2113 
L 3513 0 
L 2938 0 
L 2938 2094 
Q 2938 2591 2744 2837 
Q 2550 3084 2163 3084 
Q 1697 3084 1428 2787 
Q 1159 2491 1159 1978 
L 1159 0 
L 581 0 
L 581 3500 
L 1159 3500 
L 1159 2956 
Q 1366 3272 1645 3428 
Q 1925 3584 2291 3584 
Q 2894 3584 3203 3211 
Q 3513 2838 3513 2113 
z
" transform="scale(0.015625)"/>
      <path id="DejaVuSans-61" d="M 2194 1759 
Q 1497 1759 1228 1600 
Q 959 1441 959 1056 
Q 959 750 1161 570 
Q 1363 391 1709 391 
Q 2188 391 2477 730 
Q 2766 1069 2766 1631 
L 2766 1759 
L 2194 1759 
z
M 3341 1997 
L 3341 0 
L 2766 0 
L 2766 531 
Q 2569 213 2275 61 
Q 1981 -91 1556 -91 
Q 1019 -91 701 211 
Q 384 513 384 1019 
Q 384 1609 779 1909 
Q 1175 2209 1959 2209 
L 2766 2209 
L 2766 2266 
Q 2766 2663 2505 2880 
Q 2244 3097 1772 3097 
Q 1472 3097 1187 3025 
Q 903 2953 641 2809 
L 641 3341 
Q 956 3463 1253 3523 
Q 1550 3584 1831 3584 
Q 2591 3584 2966 3190 
Q 3341 2797 3341 1997 
z
" transform="scale(0.015625)"/>
      <path id="DejaVuSans-67" d="M 2906 1791 
Q 2906 2416 2648 2759 
Q 2391 3103 1925 3103 
Q 1463 3103 1205 2759 
Q 947 2416 947 1791 
Q 947 1169 1205 825 
Q 1463 481 1925 481 
Q 2391 481 2648 825 
Q 2906 1169 2906 1791 
z
M 3481 434 
Q 3481 -459 3084 -895 
Q 2688 -1331 1869 -1331 
Q 1566 -1331 1297 -1286 
Q 1028 -1241 775 -1147 
L 775 -588 
Q 1028 -725 1275 -790 
Q 1522 -856 1778 -856 
Q 2344 -856 2625 -561 
Q 2906 -266 2906 331 
L 2906 616 
Q 2728 306 2450 153 
Q 2172 0 1784 0 
Q 1141 0 747 490 
Q 353 981 353 1791 
Q 353 2603 747 3093 
Q 1141 3584 1784 3584 
Q 2172 3584 2450 3431 
Q 2728 3278 2906 2969 
L 2906 3500 
L 3481 3500 
L 3481 434 
z
" transform="scale(0.015625)"/>
      <path id="DejaVuSans-41" d="M 2188 4044 
L 1331 1722 
L 3047 1722 
L 2188 4044 
z
M 1831 4666 
L 2547 4666 
L 4325 0 
L 3669 0 
L 3244 1197 
L 1141 1197 
L 716 0 
L 50 0 
L 1831 4666 
z
" transform="scale(0.015625)"/>
      <path id="DejaVuSans-57" d="M 213 4666 
L 850 4666 
L 1831 722 
L 2809 4666 
L 3519 4666 
L 4500 722 
L 5478 4666 
L 6119 4666 
L 4947 0 
L 4153 0 
L 3169 4050 
L 2175 0 
L 1381 0 
L 213 4666 
z
" transform="scale(0.015625)"/>
      <path id="DejaVuSans-53" d="M 3425 4513 
L 3425 3897 
Q 3066 4069 2747 4153 
Q 2428 4238 2131 4238 
Q 1616 4238 1336 4038 
Q 1056 3838 1056 3469 
Q 1056 3159 1242 3001 
Q 1428 2844 1947 2747 
L 2328 2669 
Q 3034 2534 3370 2195 
Q 3706 1856 3706 1288 
Q 3706 609 3251 259 
Q 2797 -91 1919 -91 
Q 1588 -91 1214 -16 
Q 841 59 441 206 
L 441 856 
Q 825 641 1194 531 
Q 1563 422 1919 422 
Q 2459 422 2753 634 
Q 3047 847 3047 1241 
Q 3047 1584 2836 1778 
Q 2625 1972 2144 2069 
L 1759 2144 
Q 1053 2284 737 2584 
Q 422 2884 422 3419 
Q 422 4038 858 4394 
Q 1294 4750 2059 4750 
Q 2388 4750 2728 4690 
Q 3069 4631 3425 4513 
z
" transform="scale(0.015625)"/>
      <path id="DejaVuSans-77" d="M 269 3500 
L 844 3500 
L 1563 769 
L 2278 3500 
L 2956 3500 
L 3675 769 
L 4391 3500 
L 4966 3500 
L 4050 0 
L 3372 0 
L 2619 2869 
L 1863 0 
L 1184 0 
L 269 3500 
z
" transform="scale(0.015625)"/>
      <path id="DejaVuSans-68" d="M 3513 2113 
L 3513 0 
L 2938 0 
L 2938 2094 
Q 2938 2591 2744 2837 
Q 2550 3084 2163 3084 
Q 1697 3084 1428 2787 
Q 1159 2491 1159 1978 
L 1159 0 
L 581 0 
L 581 4863 
L 1159 4863 
L 1159 2956 
Q 1366 3272 1645 3428 
Q 1925 3584 2291 3584 
Q 2894 3584 3203 3211 
Q 3513 2838 3513 2113 
z
" transform="scale(0.015625)"/>
      <path id="DejaVuSans-49" d="M 628 4666 
L 1259 4666 
L 1259 0 
L 628 0 
L 628 4666 
z
" transform="scale(0.015625)"/>
      <path id="DejaVuSans-50" d="M 1259 4147 
L 1259 2394 
L 2053 2394 
Q 2494 2394 2734 2622 
Q 2975 2850 2975 3272 
Q 2975 3691 2734 3919 
Q 2494 4147 2053 4147 
L 1259 4147 
z
M 628 4666 
L 2053 4666 
Q 2838 4666 3239 4311 
Q 3641 3956 3641 3272 
Q 3641 2581 3239 2228 
Q 2838 1875 2053 1875 
L 1259 1875 
L 1259 0 
L 628 0 
L 628 4666 
z
" transform="scale(0.015625)"/>
      <path id="DejaVuSans-76" d="M 191 3500 
L 800 3500 
L 1894 563 
L 2988 3500 
L 3597 3500 
L 2284 0 
L 1503 0 
L 191 3500 
z
" transform="scale(0.015625)"/>
     </defs>
     <use xlink:href="#DejaVuSans-48"/>
     <use xlink:href="#DejaVuSans-69" x="75.195312"/>
     <use xlink:href="#DejaVuSans-73" x="102.978516"/>
     <use xlink:href="#DejaVuSans-74" x="155.078125"/>
     <use xlink:href="#DejaVuSans-6f" x="194.287109"/>
     <use xlink:href="#DejaVuSans-72" x="255.46875"/>
     <use xlink:href="#DejaVuSans-79" x="296.582031"/>
     <use xlink:href="#DejaVuSans-20" x="355.761719"/>
     <use xlink:href="#DejaVuSans-6f" x="387.548828"/>
     <use xlink:href="#DejaVuSans-66" x="448.730469"/>
     <use xlink:href="#DejaVuSans-20" x="483.935547"/>
     <use xlink:href="#DejaVuSans-70" x="515.722656"/>
     <use xlink:href="#DejaVuSans-65" x="579.199219"/>
     <use xlink:href="#DejaVuSans-72" x="640.722656"/>
     <use xlink:href="#DejaVuSans-63" x="679.585938"/>
     <use xlink:href="#DejaVuSans-65" x="734.566406"/>
     <use xlink:href="#DejaVuSans-6e" x="796.089844"/>
     <use xlink:href="#DejaVuSans-74" x="859.46875"/>
     <use xlink:href="#DejaVuSans-61" x="898.677734"/>
     <use xlink:href="#DejaVuSans-67" x="959.957031"/>
     <use xlink:href="#DejaVuSans-65" x="1023.433594"/>
     <use xlink:href="#DejaVuSans-20" x="1084.957031"/>
     <use xlink:href="#DejaVuSans-6f" x="1116.744141"/>
     <use xlink:href="#DejaVuSans-66" x="1177.925781"/>
     <use xlink:href="#DejaVuSans-20" x="1213.130859"/>
     <use xlink:href="#DejaVuSans-41" x="1244.917969"/>
     <use xlink:href="#DejaVuSans-57" x="1307.826172"/>
     <use xlink:href="#DejaVuSans-53" x="1406.703125"/>
     <use xlink:href="#DejaVuSans-20" x="1470.179688"/>
     <use xlink:href="#DejaVuSans-6f" x="1501.966797"/>
     <use xlink:href="#DejaVuSans-77" x="1563.148438"/>
     <use xlink:href="#DejaVuSans-6e" x="1644.935547"/>
     <use xlink:href="#DejaVuSans-65" x="1708.314453"/>
     <use xlink:href="#DejaVuSans-72" x="1769.837891"/>
     <use xlink:href="#DejaVuSans-73" x="1810.951172"/>
     <use xlink:href="#DejaVuSans-68" x="1863.050781"/>
     <use xlink:href="#DejaVuSans-69" x="1926.429688"/>
     <use xlink:href="#DejaVuSans-70" x="1954.212891"/>
     <use xlink:href="#DejaVuSans-20" x="2017.689453"/>
     <use xlink:href="#DejaVuSans-6f" x="2049.476562"/>
     <use xlink:href="#DejaVuSans-66" x="2110.658203"/>
     <use xlink:href="#DejaVuSans-20" x="2145.863281"/>
     <use xlink:href="#DejaVuSans-49" x="2177.650391"/>
     <use xlink:href="#DejaVuSans-50" x="2207.142578"/>
     <use xlink:href="#DejaVuSans-76" x="2267.445312"/>
     <use xlink:href="#DejaVuSans-34" x="2326.625"/>
     <use xlink:href="#DejaVuSans-20" x="2390.248047"/>
     <use xlink:href="#DejaVuSans-73" x="2422.035156"/>
     <use xlink:href="#DejaVuSans-70" x="2474.134766"/>
     <use xlink:href="#DejaVuSans-61" x="2537.611328"/>
     <use xlink:href="#DejaVuSans-63" x="2598.890625"/>
     <use xlink:href="#DejaVuSans-65" x="2653.871094"/>
    </g>
   </g>
  </g>
 </g>
 <defs>
  <clipPath id="p906e395f3e">
   <rect x="30.103125" y="22.318125" width="502.2" height="277.2"/>
  </clipPath>
 </defs>
</svg>
