<?xml version="1.0" encoding="utf-8" standalone="no"?>
<!DOCTYPE svg PUBLIC "-//W3C//DTD SVG 1.1//EN"
  "http://www.w3.org/Graphics/SVG/1.1/DTD/svg11.dtd">
<svg xmlns:xlink="http://www.w3.org/1999/xlink" width="539.503125pt" height="323.39625pt" viewBox="0 0 539.503125 323.39625" xmlns="http://www.w3.org/2000/svg" version="1.1">
 
 <defs>
  <style type="text/css">*{stroke-linejoin: round; stroke-linecap: butt}</style>
 </defs>
 <g id="figure_1">
  <g id="patch_1">
   <path d="M 0 323.39625 
L 539.503125 323.39625 
L 539.503125 0 
L 0 0 
z
" style="fill: #b2b2b2"/>
  </g>
  <g id="axes_1">
   <g id="patch_2">
    <path d="M 30.103125 299.518125 
L 532.303125 299.518125 
L 532.303125 22.318125 
L 30.103125 22.318125 
z
" style="fill: #e6e6e6"/>
   </g>
   <g id="matplotlib.axis_1">
    <g id="xtick_1">
     <g id="line2d_1">
      <defs>
       <path id="ma78f911f2e" d="M 0 0 
L 0 3.5 
" style="stroke: #000000; stroke-width: 0.8"/>
      </defs>
      <g>
       <use xlink:href="#ma78f911f2e" x="64.476842" y="299.518125" style="stroke: #000000; stroke-width: 0.8"/>
      </g>
     </g>
     <g id="text_1">
      <!-- 2017 -->
      <g transform="translate(51.751842 314.116563) scale(0.1 -0.1)">
       <defs>
        <path id="DejaVuSans-32" d="M 1228 531 
L 3431 531 
L 3431 0 
L 469 0 
L 469 531 
Q 828 903 1448 1529 
Q 2069 2156 2228 2338 
Q 2531 2678 2651 2914 
Q 2772 3150 2772 3378 
Q 2772 3750 2511 3984 
Q 2250 4219 1831 4219 
Q 1534 4219 1204 4116 
Q 875 4013 500 3803 
L 500 4441 
Q 881 4594 1212 4672 
Q 1544 4750 1819 4750 
Q 2544 4750 2975 4387 
Q 3406 4025 3406 3419 
Q 3406 3131 3298 2873 
Q 3191 2616 2906 2266 
Q 2828 2175 2409 1742 
Q 1991 1309 1228 531 
z
" transform="scale(0.015625)"/>
        <path id="DejaVuSans-30" d="M 2034 4250 
Q 1547 4250 1301 3770 
Q 1056 3291 1056 2328 
Q 1056 1369 1301 889 
Q 1547 409 2034 409 
Q 2525 409 2770 889 
Q 3016 1369 3016 2328 
Q 3016 3291 2770 3770 
Q 2525 4250 2034 4250 
z
M 2034 4750 
Q 2819 4750 3233 4129 
Q 3647 3509 3647 2328 
Q 3647 1150 3233 529 
Q 2819 -91 2034 -91 
Q 1250 -91 836 529 
Q 422 1150 422 2328 
Q 422 3509 836 4129 
Q 1250 4750 2034 4750 
z
" transform="scale(0.015625)"/>
        <path id="DejaVuSans-31" d="M 794 531 
L 1825 531 
L 1825 4091 
L 703 3866 
L 703 4441 
L 1819 4666 
L 2450 4666 
L 2450 531 
L 3481 531 
L 3481 0 
L 794 0 
L 794 531 
z
" transform="scale(0.015625)"/>
        <path id="DejaVuSans-37" d="M 525 4666 
L 3525 4666 
L 3525 4397 
L 1831 0 
L 1172 0 
L 2766 4134 
L 525 4134 
L 525 4666 
z
" transform="scale(0.015625)"/>
       </defs>
       <use xlink:href="#DejaVuSans-32"/>
       <use xlink:href="#DejaVuSans-30" x="63.623047"/>
       <use xlink:href="#DejaVuSans-31" x="127.246094"/>
       <use xlink:href="#DejaVuSans-37" x="190.869141"/>
      </g>
     </g>
    </g>
    <g id="xtick_2">
     <g id="line2d_2">
      <g>
       <use xlink:href="#ma78f911f2e" x="125.678825" y="299.518125" style="stroke: #000000; stroke-width: 0.8"/>
      </g>
     </g>
     <g id="text_2">
      <!-- 2018 -->
      <g transform="translate(112.953825 314.116563) scale(0.1 -0.1)">
       <defs>
        <path id="DejaVuSans-38" d="M 2034 2216 
Q 1584 2216 1326 1975 
Q 1069 1734 1069 1313 
Q 1069 891 1326 650 
Q 1584 409 2034 409 
Q 2484 409 2743 651 
Q 3003 894 3003 1313 
Q 3003 1734 2745 1975 
Q 2488 2216 2034 2216 
z
M 1403 2484 
Q 997 2584 770 2862 
Q 544 3141 544 3541 
Q 544 4100 942 4425 
Q 1341 4750 2034 4750 
Q 2731 4750 3128 4425 
Q 3525 4100 3525 3541 
Q 3525 3141 3298 2862 
Q 3072 2584 2669 2484 
Q 3125 2378 3379 2068 
Q 3634 1759 3634 1313 
Q 3634 634 3220 271 
Q 2806 -91 2034 -91 
Q 1263 -91 848 271 
Q 434 634 434 1313 
Q 434 1759 690 2068 
Q 947 2378 1403 2484 
z
M 1172 3481 
Q 1172 3119 1398 2916 
Q 1625 2713 2034 2713 
Q 2441 2713 2670 2916 
Q 2900 3119 2900 3481 
Q 2900 3844 2670 4047 
Q 2441 4250 2034 4250 
Q 1625 4250 1398 4047 
Q 1172 3844 1172 3481 
z
" transform="scale(0.015625)"/>
       </defs>
       <use xlink:href="#DejaVuSans-32"/>
       <use xlink:href="#DejaVuSans-30" x="63.623047"/>
       <use xlink:href="#DejaVuSans-31" x="127.246094"/>
       <use xlink:href="#DejaVuSans-38" x="190.869141"/>
      </g>
     </g>
    </g>
    <g id="xtick_3">
     <g id="line2d_3">
      <g>
       <use xlink:href="#ma78f911f2e" x="186.880808" y="299.518125" style="stroke: #000000; stroke-width: 0.8"/>
      </g>
     </g>
     <g id="text_3">
      <!-- 2019 -->
      <g transform="translate(174.155808 314.116563) scale(0.1 -0.1)">
       <defs>
        <path id="DejaVuSans-39" d="M 703 97 
L 703 672 
Q 941 559 1184 500 
Q 1428 441 1663 441 
Q 2288 441 2617 861 
Q 2947 1281 2994 2138 
Q 2813 1869 2534 1725 
Q 2256 1581 1919 1581 
Q 1219 1581 811 2004 
Q 403 2428 403 3163 
Q 403 3881 828 4315 
Q 1253 4750 1959 4750 
Q 2769 4750 3195 4129 
Q 3622 3509 3622 2328 
Q 3622 1225 3098 567 
Q 2575 -91 1691 -91 
Q 1453 -91 1209 -44 
Q 966 3 703 97 
z
M 1959 2075 
Q 2384 2075 2632 2365 
Q 2881 2656 2881 3163 
Q 2881 3666 2632 3958 
Q 2384 4250 1959 4250 
Q 1534 4250 1286 3958 
Q 1038 3666 1038 3163 
Q 1038 2656 1286 2365 
Q 1534 2075 1959 2075 
z
" transform="scale(0.015625)"/>
       </defs>
       <use xlink:href="#DejaVuSans-32"/>
       <use xlink:href="#DejaVuSans-30" x="63.623047"/>
       <use xlink:href="#DejaVuSans-31" x="127.246094"/>
       <use xlink:href="#DejaVuSans-39" x="190.869141"/>
      </g>
     </g>
    </g>
    <g id="xtick_4">
     <g id="line2d_4">
      <g>
       <use xlink:href="#ma78f911f2e" x="248.082791" y="299.518125" style="stroke: #000000; stroke-width: 0.8"/>
      </g>
     </g>
     <g id="text_4">
      <!-- 2020 -->
      <g transform="translate(235.357791 314.116563) scale(0.1 -0.1)">
       <use xlink:href="#DejaVuSans-32"/>
       <use xlink:href="#DejaVuSans-30" x="63.623047"/>
       <use xlink:href="#DejaVuSans-32" x="127.246094"/>
       <use xlink:href="#DejaVuSans-30" x="190.869141"/>
      </g>
     </g>
    </g>
    <g id="xtick_5">
     <g id="line2d_5">
      <g>
       <use xlink:href="#ma78f911f2e" x="309.452451" y="299.518125" style="stroke: #000000; stroke-width: 0.8"/>
      </g>
     </g>
     <g id="text_5">
      <!-- 2021 -->
      <g transform="translate(296.727451 314.116563) scale(0.1 -0.1)">
       <use xlink:href="#DejaVuSans-32"/>
       <use xlink:href="#DejaVuSans-30" x="63.623047"/>
       <use xlink:href="#DejaVuSans-32" x="127.246094"/>
       <use xlink:href="#DejaVuSans-31" x="190.869141"/>
      </g>
     </g>
    </g>
    <g id="xtick_6">
     <g id="line2d_6">
      <g>
       <use xlink:href="#ma78f911f2e" x="370.654435" y="299.518125" style="stroke: #000000; stroke-width: 0.8"/>
      </g>
     </g>
     <g id="text_6">
      <!-- 2022 -->
      <g transform="translate(357.929435 314.116563) scale(0.1 -0.1)">
       <use xlink:href="#DejaVuSans-32"/>
       <use xlink:href="#DejaVuSans-30" x="63.623047"/>
       <use xlink:href="#DejaVuSans-32" x="127.246094"/>
       <use xlink:href="#DejaVuSans-32" x="190.869141"/>
      </g>
     </g>
    </g>
    <g id="xtick_7">
     <g id="line2d_7">
      <g>
       <use xlink:href="#ma78f911f2e" x="431.856418" y="299.518125" style="stroke: #000000; stroke-width: 0.8"/>
      </g>
     </g>
     <g id="text_7">
      <!-- 2023 -->
      <g transform="translate(419.131418 314.116563) scale(0.1 -0.1)">
       <defs>
        <path id="DejaVuSans-33" d="M 2597 2516 
Q 3050 2419 3304 2112 
Q 3559 1806 3559 1356 
Q 3559 666 3084 287 
Q 2609 -91 1734 -91 
Q 1441 -91 1130 -33 
Q 819 25 488 141 
L 488 750 
Q 750 597 1062 519 
Q 1375 441 1716 441 
Q 2309 441 2620 675 
Q 2931 909 2931 1356 
Q 2931 1769 2642 2001 
Q 2353 2234 1838 2234 
L 1294 2234 
L 1294 2753 
L 1863 2753 
Q 2328 2753 2575 2939 
Q 2822 3125 2822 3475 
Q 2822 3834 2567 4026 
Q 2313 4219 1838 4219 
Q 1578 4219 1281 4162 
Q 984 4106 628 3988 
L 628 4550 
Q 988 4650 1302 4700 
Q 1616 4750 1894 4750 
Q 2613 4750 3031 4423 
Q 3450 4097 3450 3541 
Q 3450 3153 3228 2886 
Q 3006 2619 2597 2516 
z
" transform="scale(0.015625)"/>
       </defs>
       <use xlink:href="#DejaVuSans-32"/>
       <use xlink:href="#DejaVuSans-30" x="63.623047"/>
       <use xlink:href="#DejaVuSans-32" x="127.246094"/>
       <use xlink:href="#DejaVuSans-33" x="190.869141"/>
      </g>
     </g>
    </g>
    <g id="xtick_8">
     <g id="line2d_8">
      <g>
       <use xlink:href="#ma78f911f2e" x="493.058401" y="299.518125" style="stroke: #000000; stroke-width: 0.8"/>
      </g>
     </g>
     <g id="text_8">
      <!-- 2024 -->
      <g transform="translate(480.333401 314.116563) scale(0.1 -0.1)">
       <defs>
        <path id="DejaVuSans-34" d="M 2419 4116 
L 825 1625 
L 2419 1625 
L 2419 4116 
z
M 2253 4666 
L 3047 4666 
L 3047 1625 
L 3713 1625 
L 3713 1100 
L 3047 1100 
L 3047 0 
L 2419 0 
L 2419 1100 
L 313 1100 
L 313 1709 
L 2253 4666 
z
" transform="scale(0.015625)"/>
       </defs>
       <use xlink:href="#DejaVuSans-32"/>
       <use xlink:href="#DejaVuSans-30" x="63.623047"/>
       <use xlink:href="#DejaVuSans-32" x="127.246094"/>
       <use xlink:href="#DejaVuSans-34" x="190.869141"/>
      </g>
     </g>
    </g>
   </g>
   <g id="matplotlib.axis_2">
    <g id="ytick_1">
     <g id="line2d_9">
      <defs>
       <path id="ma562af20d9" d="M 0 0 
L -3.5 0 
" style="stroke: #000000; stroke-width: 0.8"/>
      </defs>
      <g>
       <use xlink:href="#ma562af20d9" x="30.103125" y="299.518125" style="stroke: #000000; stroke-width: 0.8"/>
      </g>
     </g>
     <g id="text_9">
      <!-- 0.0 -->
      <g transform="translate(7.2 303.317344) scale(0.1 -0.1)">
       <defs>
        <path id="DejaVuSans-2e" d="M 684 794 
L 1344 794 
L 1344 0 
L 684 0 
L 684 794 
z
" transform="scale(0.015625)"/>
       </defs>
       <use xlink:href="#DejaVuSans-30"/>
       <use xlink:href="#DejaVuSans-2e" x="63.623047"/>
       <use xlink:href="#DejaVuSans-30" x="95.410156"/>
      </g>
     </g>
    </g>
    <g id="ytick_2">
     <g id="line2d_10">
      <g>
       <use xlink:href="#ma562af20d9" x="30.103125" y="241.344544" style="stroke: #000000; stroke-width: 0.8"/>
      </g>
     </g>
     <g id="text_10">
      <!-- 0.5 -->
      <g transform="translate(7.2 245.143763) scale(0.1 -0.1)">
       <defs>
        <path id="DejaVuSans-35" d="M 691 4666 
L 3169 4666 
L 3169 4134 
L 1269 4134 
L 1269 2991 
Q 1406 3038 1543 3061 
Q 1681 3084 1819 3084 
Q 2600 3084 3056 2656 
Q 3513 2228 3513 1497 
Q 3513 744 3044 326 
Q 2575 -91 1722 -91 
Q 1428 -91 1123 -41 
Q 819 9 494 109 
L 494 744 
Q 775 591 1075 516 
Q 1375 441 1709 441 
Q 2250 441 2565 725 
Q 2881 1009 2881 1497 
Q 2881 1984 2565 2268 
Q 2250 2553 1709 2553 
Q 1456 2553 1204 2497 
Q 953 2441 691 2322 
L 691 4666 
z
" transform="scale(0.015625)"/>
       </defs>
       <use xlink:href="#DejaVuSans-30"/>
       <use xlink:href="#DejaVuSans-2e" x="63.623047"/>
       <use xlink:href="#DejaVuSans-35" x="95.410156"/>
      </g>
     </g>
    </g>
    <g id="ytick_3">
     <g id="line2d_11">
      <g>
       <use xlink:href="#ma562af20d9" x="30.103125" y="183.170963" style="stroke: #000000; stroke-width: 0.8"/>
      </g>
     </g>
     <g id="text_11">
      <!-- 1.0 -->
      <g transform="translate(7.2 186.970181) scale(0.1 -0.1)">
       <use xlink:href="#DejaVuSans-31"/>
       <use xlink:href="#DejaVuSans-2e" x="63.623047"/>
       <use xlink:href="#DejaVuSans-30" x="95.410156"/>
      </g>
     </g>
    </g>
    <g id="ytick_4">
     <g id="line2d_12">
      <g>
       <use xlink:href="#ma562af20d9" x="30.103125" y="124.997381" style="stroke: #000000; stroke-width: 0.8"/>
      </g>
     </g>
     <g id="text_12">
      <!-- 1.5 -->
      <g transform="translate(7.2 128.7966) scale(0.1 -0.1)">
       <use xlink:href="#DejaVuSans-31"/>
       <use xlink:href="#DejaVuSans-2e" x="63.623047"/>
       <use xlink:href="#DejaVuSans-35" x="95.410156"/>
      </g>
     </g>
    </g>
    <g id="ytick_5">
     <g id="line2d_13">
      <g>
       <use xlink:href="#ma562af20d9" x="30.103125" y="66.8238" style="stroke: #000000; stroke-width: 0.8"/>
      </g>
     </g>
     <g id="text_13">
      <!-- 2.0 -->
      <g transform="translate(7.2 70.623019) scale(0.1 -0.1)">
       <use xlink:href="#DejaVuSans-32"/>
       <use xlink:href="#DejaVuSans-2e" x="63.623047"/>
       <use xlink:href="#DejaVuSans-30" x="95.410156"/>
      </g>
     </g>
    </g>
   </g>
   <g id="line2d_14">
    <path d="M 3.107182 299.518125 
L 3.107182 22.318125 
" clip-path="url(#p906e395f3e)" style="fill: none; stroke: #cccccc; stroke-linecap: square"/>
   </g>
   <g id="line2d_15">
    <path d="M 64.476842 299.518125 
L 64.476842 22.318125 
" clip-path="url(#p906e395f3e)" style="fill: none; stroke: #cccccc; stroke-linecap: square"/>
   </g>
   <g id="line2d_16">
    <path d="M 125.678825 299.518125 
L 125.678825 22.318125 
" clip-path="url(#p906e395f3e)" style="fill: none; stroke: #cccccc; stroke-linecap: square"/>
   </g>
   <g id="line2d_17">
    <path d="M 186.880808 299.518125 
L 186.880808 22.318125 
" clip-path="url(#p906e395f3e)" style="fill: none; stroke: #cccccc; stroke-linecap: square"/>
   </g>
   <g id="line2d_18">
    <path d="M 248.082791 299.518125 
L 248.082791 22.318125 
" clip-path="url(#p906e395f3e)" style="fill: none; stroke: #cccccc; stroke-linecap: square"/>
   </g>
   <g id="line2d_19">
    <path d="M 309.452451 299.518125 
L 309.452451 22.318125 
" clip-path="url(#p906e395f3e)" style="fill: none; stroke: #cccccc; stroke-linecap: square"/>
   </g>
   <g id="line2d_20">
    <path d="M 370.654435 299.518125 
L 370.654435 22.318125 
" clip-path="url(#p906e395f3e)" style="fill: none; stroke: #cccccc; stroke-linecap: square"/>
   </g>
   <g id="line2d_21">
    <path d="M 431.856418 299.518125 
L 431.856418 22.318125 
" clip-path="url(#p906e395f3e)" style="fill: none; stroke: #cccccc; stroke-linecap: square"/>
   </g>
   <g id="line2d_22">
    <path d="M 493.058401 299.518125 
L 493.058401 22.318125 
" clip-path="url(#p906e395f3e)" style="fill: none; stroke: #cccccc; stroke-linecap: square"/>
   </g>
   <g id="line2d_23">
    <path d="M 30.103125 299.518125 
L 532.303125 299.518125 
" clip-path="url(#p906e395f3e)" style="fill: none; stroke: #cccccc; stroke-linecap: square"/>
   </g>
   <g id="line2d_24">
    <path d="M 30.103125 270.431334 
L 532.303125 270.431334 
" clip-path="url(#p906e395f3e)" style="fill: none; stroke: #cccccc; stroke-linecap: square"/>
   </g>
   <g id="line2d_25">
    <path d="M 30.103125 241.344544 
L 532.303125 241.344544 
" clip-path="url(#p906e395f3e)" style="fill: none; stroke: #cccccc; stroke-linecap: square"/>
   </g>
   <g id="line2d_26">
    <path d="M 30.103125 212.257753 
L 532.303125 212.257753 
" clip-path="url(#p906e395f3e)" style="fill: none; stroke: #cccccc; stroke-linecap: square"/>
   </g>
   <g id="line2d_27">
    <path d="M 30.103125 183.170963 
L 532.303125 183.170963 
" clip-path="url(#p906e395f3e)" style="fill: none; stroke: #cccccc; stroke-linecap: square"/>
   </g>
   <g id="line2d_28">
    <path d="M 30.103125 154.084172 
L 532.303125 154.084172 
" clip-path="url(#p906e395f3e)" style="fill: none; stroke: #cccccc; stroke-linecap: square"/>
   </g>
   <g id="line2d_29">
    <path d="M 30.103125 124.997381 
L 532.303125 124.997381 
" clip-path="url(#p906e395f3e)" style="fill: none; stroke: #cccccc; stroke-linecap: square"/>
   </g>
   <g id="line2d_30">
    <path d="M 30.103125 95.910591 
L 532.303125 95.910591 
" clip-path="url(#p906e395f3e)" style="fill: none; stroke: #cccccc; stroke-linecap: square"/>
   </g>
   <g id="line2d_31">
    <path d="M 30.103125 66.8238 
L 532.303125 66.8238 
" clip-path="url(#p906e395f3e)" style="fill: none; stroke: #cccccc; stroke-linecap: square"/>
   </g>
   <g id="line2d_32">
    <path d="M 30.103125 244.505132 
L 32.115245 244.505132 
L 32.282922 244.266194 
L 35.133425 244.267803 
L 35.468778 243.855896 
L 35.636455 243.855896 
L 35.804132 243.028865 
L 42.175845 243.028865 
L 42.343522 242.623846 
L 45.194025 242.623846 
L 45.361702 240.563508 
L 47.206145 240.561798 
L 47.373822 236.44273 
L 47.541498 236.236776 
L 48.547558 236.236776 
L 48.715235 235.82487 
L 50.559678 235.78384 
L 50.727355 235.537611 
L 53.913212 235.537611 
L 54.248565 235.089451 
L 56.260685 235.073361 
L 58.608158 235.072556 
L 58.775835 233.424929 
L 58.943512 233.424929 
L 59.111188 232.601115 
L 62.129368 232.594679 
L 80.406125 232.594679 
L 80.573802 223.087838 
L 94.323288 223.087838 
L 94.490965 212.309575 
L 97.844498 212.309575 
L 98.012175 212.925022 
L 100.191972 212.929447 
L 100.359648 212.311587 
L 104.383888 212.281015 
L 104.551565 212.075062 
L 105.725302 212.070637 
L 105.892978 211.864684 
L 106.060655 211.864684 
L 106.228332 211.65873 
L 106.396008 211.246824 
L 107.234392 211.221079 
L 107.402068 210.809173 
L 113.270752 210.782624 
L 113.438428 210.550926 
L 123.666705 210.531719 
L 123.834382 204.765023 
L 126.181855 204.765023 
L 126.349532 204.970977 
L 126.852562 204.970977 
L 127.187915 204.713535 
L 130.709125 204.690204 
L 130.876802 204.442416 
L 133.056598 204.443007 
L 133.224275 203.825147 
L 133.727305 203.823538 
L 133.894982 203.616981 
L 134.230335 203.615976 
L 134.398012 203.204069 
L 135.404072 203.203264 
L 135.571748 202.967437 
L 139.931342 202.86013 
L 140.266695 202.757153 
L 140.937402 202.756349 
L 141.105078 202.344442 
L 143.452552 202.341224 
L 143.620228 201.929317 
L 143.787905 201.929116 
L 143.955582 201.517209 
L 144.458612 201.517209 
L 144.626288 201.311256 
L 144.793965 197.964513 
L 145.800025 197.964513 
L 145.967702 197.140699 
L 148.315175 197.036918 
L 149.656588 197.036063 
L 152.004062 197.03365 
L 152.171738 196.801952 
L 155.189918 196.801952 
L 155.357595 195.978138 
L 157.369715 195.975725 
L 157.537392 194.327293 
L 161.058602 194.329707 
L 161.226278 193.090567 
L 164.579812 193.073672 
L 164.747488 188.129181 
L 171.622232 188.126353 
L 171.789908 187.714446 
L 172.460615 187.682266 
L 175.478795 187.679859 
L 175.646472 186.032231 
L 176.484855 186.032231 
L 176.652532 185.002464 
L 178.329298 184.940517 
L 178.496975 185.764331 
L 181.850508 185.757015 
L 182.018185 185.139155 
L 183.527275 185.13835 
L 183.862628 183.899412 
L 184.365658 183.899412 
L 184.533335 176.896996 
L 187.048485 176.893778 
L 187.216162 176.066746 
L 191.743432 176.059506 
L 191.911108 175.853552 
L 198.618175 175.781335 
L 198.785851 174.956717 
L 201.301001 174.947465 
L 201.468678 174.741512 
L 202.307061 174.734271 
L 202.474738 174.528318 
L 204.319181 174.517055 
L 204.654535 173.693241 
L 204.822211 173.258808 
L 205.492918 173.258004 
L 205.660595 172.846097 
L 205.828271 172.845996 
L 205.995948 172.399835 
L 208.008068 172.397422 
L 208.175745 169.916326 
L 209.349481 169.912304 
L 209.517158 169.499398 
L 210.355541 169.495979 
L 210.523218 168.258649 
L 221.925231 168.134648 
L 222.092908 164.025228 
L 222.260585 164.025008 
L 222.428261 154.139244 
L 225.781795 154.099217 
L 227.123208 154.07873 
L 227.290885 152.225149 
L 237.016131 152.221124 
L 237.183808 149.917029 
L 237.351485 149.505123 
L 239.531281 149.498687 
L 239.698958 148.674873 
L 242.046431 148.663622 
L 242.214108 147.015995 
L 243.387845 147.015191 
L 243.555521 146.191377 
L 249.256528 146.151346 
L 249.424205 144.897122 
L 252.777738 144.86168 
L 252.945415 144.656531 
L 259.317128 144.638829 
L 263.173691 144.576873 
L 263.341368 143.971872 
L 265.521165 143.957164 
L 265.688841 143.752016 
L 266.359548 143.751211 
L 266.527225 143.306018 
L 267.868638 143.295493 
L 268.036315 139.99863 
L 271.557525 139.992992 
L 271.725201 139.632573 
L 274.072675 139.630952 
L 274.240351 139.424998 
L 276.252471 139.473605 
L 276.420148 139.039172 
L 277.426208 139.015147 
L 280.779741 139.003676 
L 281.115095 138.899713 
L 282.288831 138.896991 
L 282.456508 138.685406 
L 283.294891 138.683046 
L 283.630245 138.444894 
L 284.468628 138.444894 
L 284.636305 137.62108 
L 285.307011 137.620998 
L 285.474688 124.439175 
L 285.642365 137.620093 
L 290.337311 137.604559 
L 290.504988 136.698636 
L 291.678725 136.698422 
L 291.846401 136.491702 
L 293.355491 136.480382 
L 293.523168 132.560831 
L 297.379731 132.546193 
L 297.547408 127.603236 
L 300.565588 127.514863 
L 301.403971 127.487397 
L 301.907001 127.485788 
L 302.074678 127.0416 
L 304.589828 127.033712 
L 304.757505 126.614766 
L 306.769625 126.612252 
L 306.937301 126.179374 
L 313.141338 126.160384 
L 313.309015 125.719514 
L 313.476691 125.719514 
L 313.644368 125.271402 
L 313.979721 125.164289 
L 314.650428 125.154824 
L 314.818105 124.845887 
L 318.171638 124.811228 
L 318.339315 125.254812 
L 318.674668 125.253517 
L 318.842345 124.399132 
L 319.345375 124.399101 
L 319.513051 122.751474 
L 319.848405 122.749861 
L 320.016081 122.541281 
L 324.543351 122.490606 
L 324.878705 122.408346 
L 325.214058 122.407943 
L 325.381735 121.576889 
L 329.238298 121.485845 
L 329.405975 121.279304 
L 329.741328 121.278198 
L 329.909005 120.036041 
L 330.915065 120.030004 
L 331.082741 119.585807 
L 332.256478 119.546025 
L 332.591831 119.423316 
L 335.777688 119.396607 
L 335.945365 118.942665 
L 336.951425 118.989386 
L 337.119101 117.135164 
L 339.298898 117.057843 
L 339.634251 116.95647 
L 340.472635 116.929116 
L 345.167581 116.887929 
L 345.335258 115.648991 
L 345.502935 115.443034 
L 345.670611 112.147773 
L 346.676671 112.147167 
L 346.844348 94.846219 
L 356.066565 94.741737 
L 356.234241 94.535784 
L 357.407978 94.515618 
L 366.127165 94.465547 
L 366.294841 94.053621 
L 371.660495 93.947319 
L 372.498878 93.920972 
L 373.840291 93.916723 
L 374.007968 91.445087 
L 377.193825 91.367506 
L 377.361501 90.925832 
L 389.601898 90.885623 
L 389.769575 90.061206 
L 391.278665 90.060301 
L 391.446341 90.472207 
L 400.333205 90.372068 
L 400.500881 90.165311 
L 404.189768 90.16037 
L 404.357445 90.108071 
L 404.525121 89.848618 
L 410.058451 89.791979 
L 410.226128 91.443013 
L 410.729158 91.442208 
L 410.896835 89.794581 
L 411.064511 89.794556 
L 411.232188 71.464702 
L 411.399865 65.883822 
L 412.405925 65.824248 
L 412.741278 64.1556 
L 413.747338 64.134519 
L 413.915015 63.918912 
L 416.094811 63.902366 
L 416.262488 79.554618 
L 417.939255 79.556378 
L 418.106931 70.905932 
L 418.442285 70.905932 
L 418.609961 76.663778 
L 427.832178 76.596907 
L 427.999855 75.773093 
L 433.197831 75.733974 
L 435.377628 75.729776 
L 435.545305 75.935729 
L 450.636205 75.877415 
L 450.971558 75.786908 
L 452.312971 75.785676 
L 452.480648 75.527882 
L 453.654385 75.52562 
L 453.822061 71.406552 
L 465.391751 71.403509 
L 465.559428 71.011228 
L 467.236195 70.996144 
L 467.403871 71.610585 
L 467.739225 71.603809 
L 467.906901 71.397856 
L 468.242255 71.397856 
L 468.409931 71.191903 
L 469.919021 71.180435 
L 470.086698 70.696827 
L 475.620028 70.680988 
L 475.787705 70.880304 
L 483.836185 70.787893 
L 484.003861 69.964079 
L 485.848305 69.963878 
L 486.015981 68.29292 
L 489.872545 68.235272 
L 490.040221 68.055063 
L 495.573551 68.07072 
L 495.741228 66.602296 
L 496.579611 66.60026 
L 496.747288 51.770809 
L 501.442235 51.759612 
L 501.609911 52.168194 
L 504.628091 52.12311 
L 504.795768 51.299039 
L 504.963445 52.122501 
L 514.353338 52.106367 
L 514.521015 52.31232 
L 515.862428 52.313527 
L 516.030105 51.579409 
L 520.054345 51.511196 
L 520.054345 51.511196 
" clip-path="url(#p906e395f3e)" style="fill: none; stroke: #1f77b4; stroke-width: 2; stroke-linecap: square"/>
   </g>
   <g id="patch_3">
    <path d="M 30.103125 299.518125 
L 30.103125 22.318125 
" style="fill: none; stroke: #000000; stroke-width: 0.8; stroke-linejoin: miter; stroke-linecap: square"/>
   </g>
   <g id="patch_4">
    <path d="M 532.303125 299.518125 
L 532.303125 22.318125 
" style="fill: none; stroke: #000000; stroke-width: 0.8; stroke-linejoin: miter; stroke-linecap: square"/>
   </g>
   <g id="patch_5">
    <path d="M 30.103125 299.518125 
L 532.303125 299.518125 
" style="fill: none; stroke: #000000; stroke-width: 0.8; stroke-linejoin: miter; stroke-linecap: square"/>
   </g>
   <g id="patch_6">
    <path d="M 30.103125 22.318125 
L 532.303125 22.318125 
" style="fill: none; stroke: #000000; stroke-width: 0.8; stroke-linejoin: miter; stroke-linecap: square"/>
   </g>
   <g id="patch_7">
    <path d="M 80.743069 208.210815 
Q 86.658759 209.974503 92.574449 211.738191 
" style="fill: none; stroke: #000000; stroke-linecap: round"/>
   </g>
   <g id="text_14">
    <g id="patch_8">
     <path d="M 27.420298 210.723597 
L 75.830614 210.723597 
Q 78.329614 210.723597 78.329614 208.224597 
L 78.329614 190.834941 
Q 78.329614 188.335941 75.830614 188.335941 
L 27.420298 188.335941 
Q 24.921298 188.335941 24.921298 190.834941 
L 24.921298 208.224597 
Q 24.921298 210.723597 27.420298 210.723597 
z
" style="fill: #cccccc; stroke: #000000; stroke-linejoin: miter"/>
    </g>
    <!-- 2017-06-29 -->
    <g transform="translate(27.420298 197.164439) scale(0.0833 -0.0833)">
     <defs>
      <path id="DejaVuSans-2d" d="M 313 2009 
L 1997 2009 
L 1997 1497 
L 313 1497 
L 313 2009 
z
" transform="scale(0.015625)"/>
      <path id="DejaVuSans-36" d="M 2113 2584 
Q 1688 2584 1439 2293 
Q 1191 2003 1191 1497 
Q 1191 994 1439 701 
Q 1688 409 2113 409 
Q 2538 409 2786 701 
Q 3034 994 3034 1497 
Q 3034 2003 2786 2293 
Q 2538 2584 2113 2584 
z
M 3366 4563 
L 3366 3988 
Q 3128 4100 2886 4159 
Q 2644 4219 2406 4219 
Q 1781 4219 1451 3797 
Q 1122 3375 1075 2522 
Q 1259 2794 1537 2939 
Q 1816 3084 2150 3084 
Q 2853 3084 3261 2657 
Q 3669 2231 3669 1497 
Q 3669 778 3244 343 
Q 2819 -91 2113 -91 
Q 1303 -91 875 529 
Q 447 1150 447 2328 
Q 447 3434 972 4092 
Q 1497 4750 2381 4750 
Q 2619 4750 2861 4703 
Q 3103 4656 3366 4563 
z
" transform="scale(0.015625)"/>
     </defs>
     <use xlink:href="#DejaVuSans-32"/>
     <use xlink:href="#DejaVuSans-30" x="63.623047"/>
     <use xlink:href="#DejaVuSans-31" x="127.246094"/>
     <use xlink:href="#DejaVuSans-37" x="190.869141"/>
     <use xlink:href="#DejaVuSans-2d" x="254.492188"/>
     <use xlink:href="#DejaVuSans-30" x="290.576172"/>
     <use xlink:href="#DejaVuSans-36" x="354.199219"/>
     <use xlink:href="#DejaVuSans-2d" x="417.822266"/>
     <use xlink:href="#DejaVuSans-32" x="453.90625"/>
     <use xlink:href="#DejaVuSans-39" x="517.529297"/>
    </g>
    <!--  +3.43m  -->
    <g transform="translate(27.420298 206.492217) scale(0.0833 -0.0833)">
     <defs>
      <path id="DejaVuSans-20" transform="scale(0.015625)"/>
      <path id="DejaVuSans-2b" d="M 2944 4013 
L 2944 2272 
L 4684 2272 
L 4684 1741 
L 2944 1741 
L 2944 0 
L 2419 0 
L 2419 1741 
L 678 1741 
L 678 2272 
L 2419 2272 
L 2419 4013 
L 2944 4013 
z
" transform="scale(0.015625)"/>
      <path id="DejaVuSans-6d" d="M 3328 2828 
Q 3544 3216 3844 3400 
Q 4144 3584 4550 3584 
Q 5097 3584 5394 3201 
Q 5691 2819 5691 2113 
L 5691 0 
L 5113 0 
L 5113 2094 
Q 5113 2597 4934 2840 
Q 4756 3084 4391 3084 
Q 3944 3084 3684 2787 
Q 3425 2491 3425 1978 
L 3425 0 
L 2847 0 
L 2847 2094 
Q 2847 2600 2669 2842 
Q 2491 3084 2119 3084 
Q 1678 3084 1418 2786 
Q 1159 2488 1159 1978 
L 1159 0 
L 581 0 
L 581 3500 
L 1159 3500 
L 1159 2956 
Q 1356 3278 1631 3431 
Q 1906 3584 2284 3584 
Q 2666 3584 2933 3390 
Q 3200 3197 3328 2828 
z
" transform="scale(0.015625)"/>
     </defs>
     <use xlink:href="#DejaVuSans-20"/>
     <use xlink:href="#DejaVuSans-2b" x="31.787109"/>
     <use xlink:href="#DejaVuSans-33" x="115.576172"/>
     <use xlink:href="#DejaVuSans-2e" x="179.199219"/>
     <use xlink:href="#DejaVuSans-34" x="210.986328"/>
     <use xlink:href="#DejaVuSans-33" x="274.609375"/>
     <use xlink:href="#DejaVuSans-6d" x="338.232422"/>
     <use xlink:href="#DejaVuSans-20" x="435.644531"/>
    </g>
   </g>
   <g id="patch_9">
    <path d="M 150.999592 184.030421 
Q 156.915282 185.794109 162.830972 187.557797 
" style="fill: none; stroke: #000000; stroke-linecap: round"/>
   </g>
   <g id="text_15">
    <g id="patch_10">
     <path d="M 97.676822 186.543203 
L 146.087137 186.543203 
Q 148.586137 186.543203 148.586137 184.044203 
L 148.586137 166.654547 
Q 148.586137 164.155547 146.087137 164.155547 
L 97.676822 164.155547 
Q 95.177822 164.155547 95.177822 166.654547 
L 95.177822 184.044203 
Q 95.177822 186.543203 97.676822 186.543203 
z
" style="fill: #cccccc; stroke: #000000; stroke-linejoin: miter"/>
    </g>
    <!-- 2018-08-22 -->
    <g transform="translate(97.676822 172.984045) scale(0.0833 -0.0833)">
     <use xlink:href="#DejaVuSans-32"/>
     <use xlink:href="#DejaVuSans-30" x="63.623047"/>
     <use xlink:href="#DejaVuSans-31" x="127.246094"/>
     <use xlink:href="#DejaVuSans-38" x="190.869141"/>
     <use xlink:href="#DejaVuSans-2d" x="254.492188"/>
     <use xlink:href="#DejaVuSans-30" x="290.576172"/>
     <use xlink:href="#DejaVuSans-38" x="354.199219"/>
     <use xlink:href="#DejaVuSans-2d" x="417.822266"/>
     <use xlink:href="#DejaVuSans-32" x="453.90625"/>
     <use xlink:href="#DejaVuSans-32" x="517.529297"/>
    </g>
    <!--  +1.57m  -->
    <g transform="translate(97.676822 182.311823) scale(0.0833 -0.0833)">
     <use xlink:href="#DejaVuSans-20"/>
     <use xlink:href="#DejaVuSans-2b" x="31.787109"/>
     <use xlink:href="#DejaVuSans-31" x="115.576172"/>
     <use xlink:href="#DejaVuSans-2e" x="179.199219"/>
     <use xlink:href="#DejaVuSans-35" x="210.986328"/>
     <use xlink:href="#DejaVuSans-37" x="274.609375"/>
     <use xlink:href="#DejaVuSans-6d" x="338.232422"/>
     <use xlink:href="#DejaVuSans-20" x="435.644531"/>
    </g>
   </g>
   <g id="patch_11">
    <path d="M 208.680365 150.040484 
Q 214.596055 151.804171 220.511746 153.567859 
" style="fill: none; stroke: #000000; stroke-linecap: round"/>
   </g>
   <g id="text_16">
    <g id="patch_12">
     <path d="M 155.357595 152.553266 
L 203.767911 152.553266 
Q 206.266911 152.553266 206.266911 150.054266 
L 206.266911 132.66461 
Q 206.266911 130.16561 203.767911 130.16561 
L 155.357595 130.16561 
Q 152.858595 130.16561 152.858595 132.66461 
L 152.858595 150.054266 
Q 152.858595 152.553266 155.357595 152.553266 
z
" style="fill: #cccccc; stroke: #000000; stroke-linejoin: miter"/>
    </g>
    <!-- 2019-08-01 -->
    <g transform="translate(155.357595 138.994108) scale(0.0833 -0.0833)">
     <use xlink:href="#DejaVuSans-32"/>
     <use xlink:href="#DejaVuSans-30" x="63.623047"/>
     <use xlink:href="#DejaVuSans-31" x="127.246094"/>
     <use xlink:href="#DejaVuSans-39" x="190.869141"/>
     <use xlink:href="#DejaVuSans-2d" x="254.492188"/>
     <use xlink:href="#DejaVuSans-30" x="290.576172"/>
     <use xlink:href="#DejaVuSans-38" x="354.199219"/>
     <use xlink:href="#DejaVuSans-2d" x="417.822266"/>
     <use xlink:href="#DejaVuSans-30" x="453.90625"/>
     <use xlink:href="#DejaVuSans-31" x="517.529297"/>
    </g>
    <!--  +3.15m  -->
    <g transform="translate(155.357595 148.321886) scale(0.0833 -0.0833)">
     <use xlink:href="#DejaVuSans-20"/>
     <use xlink:href="#DejaVuSans-2b" x="31.787109"/>
     <use xlink:href="#DejaVuSans-33" x="115.576172"/>
     <use xlink:href="#DejaVuSans-2e" x="179.199219"/>
     <use xlink:href="#DejaVuSans-31" x="210.986328"/>
     <use xlink:href="#DejaVuSans-35" x="274.609375"/>
     <use xlink:href="#DejaVuSans-6d" x="338.232422"/>
     <use xlink:href="#DejaVuSans-20" x="435.644531"/>
    </g>
   </g>
   <g id="patch_13">
    <path d="M 271.726792 120.340415 
Q 277.642482 122.104103 283.558172 123.867791 
" style="fill: none; stroke: #000000; stroke-linecap: round"/>
   </g>
   <g id="text_17">
    <g id="patch_14">
     <path d="M 218.404021 122.853197 
L 266.814337 122.853197 
Q 269.313337 122.853197 269.313337 120.354197 
L 269.313337 102.964541 
Q 269.313337 100.465541 266.814337 100.465541 
L 218.404021 100.465541 
Q 215.905021 100.465541 215.905021 102.964541 
L 215.905021 120.354197 
Q 215.905021 122.853197 218.404021 122.853197 
z
" style="fill: #cccccc; stroke: #000000; stroke-linejoin: miter"/>
    </g>
    <!-- 2020-08-11 -->
    <g transform="translate(218.404021 109.294039) scale(0.0833 -0.0833)">
     <use xlink:href="#DejaVuSans-32"/>
     <use xlink:href="#DejaVuSans-30" x="63.623047"/>
     <use xlink:href="#DejaVuSans-32" x="127.246094"/>
     <use xlink:href="#DejaVuSans-30" x="190.869141"/>
     <use xlink:href="#DejaVuSans-2d" x="254.492188"/>
     <use xlink:href="#DejaVuSans-30" x="290.576172"/>
     <use xlink:href="#DejaVuSans-38" x="354.199219"/>
     <use xlink:href="#DejaVuSans-2d" x="417.822266"/>
     <use xlink:href="#DejaVuSans-31" x="453.90625"/>
     <use xlink:href="#DejaVuSans-31" x="517.529297"/>
    </g>
    <!--  +4.19m  -->
    <g transform="translate(218.404021 118.621817) scale(0.0833 -0.0833)">
     <use xlink:href="#DejaVuSans-20"/>
     <use xlink:href="#DejaVuSans-2b" x="31.787109"/>
     <use xlink:href="#DejaVuSans-34" x="115.576172"/>
     <use xlink:href="#DejaVuSans-2e" x="179.199219"/>
     <use xlink:href="#DejaVuSans-31" x="210.986328"/>
     <use xlink:href="#DejaVuSans-39" x="274.609375"/>
     <use xlink:href="#DejaVuSans-6d" x="338.232422"/>
     <use xlink:href="#DejaVuSans-20" x="435.644531"/>
    </g>
   </g>
   <g id="patch_15">
    <path d="M 303.072488 152.564627 
Q 295.115952 145.742717 287.159415 138.920808 
" style="fill: none; stroke: #000000; stroke-linecap: round"/>
   </g>
   <g id="text_18">
    <g id="patch_16">
     <path d="M 294.026198 176.755622 
L 342.436514 176.755622 
Q 344.935514 176.755622 344.935514 174.256622 
L 344.935514 156.866966 
Q 344.935514 154.367966 342.436514 154.367966 
L 294.026198 154.367966 
Q 291.527198 154.367966 291.527198 156.866966 
L 291.527198 174.256622 
Q 291.527198 176.755622 294.026198 176.755622 
z
" style="fill: #cccccc; stroke: #000000; stroke-linejoin: miter"/>
    </g>
    <!-- 2020-08-12 -->
    <g transform="translate(294.026198 163.196464) scale(0.0833 -0.0833)">
     <use xlink:href="#DejaVuSans-32"/>
     <use xlink:href="#DejaVuSans-30" x="63.623047"/>
     <use xlink:href="#DejaVuSans-32" x="127.246094"/>
     <use xlink:href="#DejaVuSans-30" x="190.869141"/>
     <use xlink:href="#DejaVuSans-2d" x="254.492188"/>
     <use xlink:href="#DejaVuSans-30" x="290.576172"/>
     <use xlink:href="#DejaVuSans-38" x="354.199219"/>
     <use xlink:href="#DejaVuSans-2d" x="417.822266"/>
     <use xlink:href="#DejaVuSans-31" x="453.90625"/>
     <use xlink:href="#DejaVuSans-32" x="517.529297"/>
    </g>
    <!--  -4.19m  -->
    <g transform="translate(294.026198 172.524242) scale(0.0833 -0.0833)">
     <use xlink:href="#DejaVuSans-20"/>
     <use xlink:href="#DejaVuSans-2d" x="31.787109"/>
     <use xlink:href="#DejaVuSans-34" x="67.871094"/>
     <use xlink:href="#DejaVuSans-2e" x="131.494141"/>
     <use xlink:href="#DejaVuSans-31" x="163.28125"/>
     <use xlink:href="#DejaVuSans-39" x="226.904297"/>
     <use xlink:href="#DejaVuSans-6d" x="290.527344"/>
     <use xlink:href="#DejaVuSans-20" x="387.939453"/>
    </g>
   </g>
   <g id="patch_17">
    <path d="M 333.096452 90.747459 
Q 339.012142 92.511146 344.927832 94.274834 
" style="fill: none; stroke: #000000; stroke-linecap: round"/>
   </g>
   <g id="text_19">
    <g id="patch_18">
     <path d="M 279.773681 93.260241 
L 328.183997 93.260241 
Q 330.682997 93.260241 330.682997 90.761241 
L 330.682997 73.371585 
Q 330.682997 70.872585 328.183997 70.872585 
L 279.773681 70.872585 
Q 277.274681 70.872585 277.274681 73.371585 
L 277.274681 90.761241 
Q 277.274681 93.260241 279.773681 93.260241 
z
" style="fill: #cccccc; stroke: #000000; stroke-linejoin: miter"/>
    </g>
    <!-- 2021-08-12 -->
    <g transform="translate(279.773681 79.701083) scale(0.0833 -0.0833)">
     <use xlink:href="#DejaVuSans-32"/>
     <use xlink:href="#DejaVuSans-30" x="63.623047"/>
     <use xlink:href="#DejaVuSans-32" x="127.246094"/>
     <use xlink:href="#DejaVuSans-31" x="190.869141"/>
     <use xlink:href="#DejaVuSans-2d" x="254.492188"/>
     <use xlink:href="#DejaVuSans-30" x="290.576172"/>
     <use xlink:href="#DejaVuSans-38" x="354.199219"/>
     <use xlink:href="#DejaVuSans-2d" x="417.822266"/>
     <use xlink:href="#DejaVuSans-31" x="453.90625"/>
     <use xlink:href="#DejaVuSans-32" x="517.529297"/>
    </g>
    <!--  +5.51m  -->
    <g transform="translate(279.773681 89.028861) scale(0.0833 -0.0833)">
     <use xlink:href="#DejaVuSans-20"/>
     <use xlink:href="#DejaVuSans-2b" x="31.787109"/>
     <use xlink:href="#DejaVuSans-35" x="115.576172"/>
     <use xlink:href="#DejaVuSans-2e" x="179.199219"/>
     <use xlink:href="#DejaVuSans-35" x="210.986328"/>
     <use xlink:href="#DejaVuSans-31" x="274.609375"/>
     <use xlink:href="#DejaVuSans-6d" x="338.232422"/>
     <use xlink:href="#DejaVuSans-20" x="435.644531"/>
    </g>
   </g>
   <g id="patch_19">
    <path d="M 397.651968 61.785062 
Q 403.567659 63.54875 409.483349 65.312437 
" style="fill: none; stroke: #000000; stroke-linecap: round"/>
   </g>
   <g id="text_20">
    <g id="patch_20">
     <path d="M 344.329198 64.297844 
L 392.739514 64.297844 
Q 395.238514 64.297844 395.238514 61.798844 
L 395.238514 44.409188 
Q 395.238514 41.910188 392.739514 41.910188 
L 344.329198 41.910188 
Q 341.830198 41.910188 341.830198 44.409188 
L 341.830198 61.798844 
Q 341.830198 64.297844 344.329198 64.297844 
z
" style="fill: #cccccc; stroke: #000000; stroke-linejoin: miter"/>
    </g>
    <!-- 2022-09-01 -->
    <g transform="translate(344.329198 50.738686) scale(0.0833 -0.0833)">
     <use xlink:href="#DejaVuSans-32"/>
     <use xlink:href="#DejaVuSans-30" x="63.623047"/>
     <use xlink:href="#DejaVuSans-32" x="127.246094"/>
     <use xlink:href="#DejaVuSans-32" x="190.869141"/>
     <use xlink:href="#DejaVuSans-2d" x="254.492188"/>
     <use xlink:href="#DejaVuSans-30" x="290.576172"/>
     <use xlink:href="#DejaVuSans-39" x="354.199219"/>
     <use xlink:href="#DejaVuSans-2d" x="417.822266"/>
     <use xlink:href="#DejaVuSans-30" x="453.90625"/>
     <use xlink:href="#DejaVuSans-31" x="517.529297"/>
    </g>
    <!--  +7.61m  -->
    <g transform="translate(344.329198 60.066464) scale(0.0833 -0.0833)">
     <use xlink:href="#DejaVuSans-20"/>
     <use xlink:href="#DejaVuSans-2b" x="31.787109"/>
     <use xlink:href="#DejaVuSans-37" x="115.576172"/>
     <use xlink:href="#DejaVuSans-2e" x="179.199219"/>
     <use xlink:href="#DejaVuSans-36" x="210.986328"/>
     <use xlink:href="#DejaVuSans-31" x="274.609375"/>
     <use xlink:href="#DejaVuSans-6d" x="338.232422"/>
     <use xlink:href="#DejaVuSans-20" x="435.644531"/>
    </g>
   </g>
   <g id="patch_21">
    <path d="M 433.692611 94.499152 
Q 425.736075 87.677242 417.779538 80.855332 
" style="fill: none; stroke: #000000; stroke-linecap: round"/>
   </g>
   <g id="text_21">
    <g id="patch_22">
     <path d="M 424.646321 118.690146 
L 473.056637 118.690146 
Q 475.555637 118.690146 475.555637 116.191146 
L 475.555637 98.801491 
Q 475.555637 96.302491 473.056637 96.302491 
L 424.646321 96.302491 
Q 422.147321 96.302491 422.147321 98.801491 
L 422.147321 116.191146 
Q 422.147321 118.690146 424.646321 118.690146 
z
" style="fill: #cccccc; stroke: #000000; stroke-linejoin: miter"/>
    </g>
    <!-- 2022-09-30 -->
    <g transform="translate(424.646321 105.130989) scale(0.0833 -0.0833)">
     <use xlink:href="#DejaVuSans-32"/>
     <use xlink:href="#DejaVuSans-30" x="63.623047"/>
     <use xlink:href="#DejaVuSans-32" x="127.246094"/>
     <use xlink:href="#DejaVuSans-32" x="190.869141"/>
     <use xlink:href="#DejaVuSans-2d" x="254.492188"/>
     <use xlink:href="#DejaVuSans-30" x="290.576172"/>
     <use xlink:href="#DejaVuSans-39" x="354.199219"/>
     <use xlink:href="#DejaVuSans-2d" x="417.822266"/>
     <use xlink:href="#DejaVuSans-33" x="453.90625"/>
     <use xlink:href="#DejaVuSans-30" x="517.529297"/>
    </g>
    <!--  -4.98m  -->
    <g transform="translate(424.646321 114.458767) scale(0.0833 -0.0833)">
     <use xlink:href="#DejaVuSans-20"/>
     <use xlink:href="#DejaVuSans-2d" x="31.787109"/>
     <use xlink:href="#DejaVuSans-34" x="67.871094"/>
     <use xlink:href="#DejaVuSans-2e" x="131.494141"/>
     <use xlink:href="#DejaVuSans-39" x="163.28125"/>
     <use xlink:href="#DejaVuSans-38" x="226.904297"/>
     <use xlink:href="#DejaVuSans-6d" x="290.527344"/>
     <use xlink:href="#DejaVuSans-20" x="387.939453"/>
    </g>
   </g>
   <g id="patch_23">
    <path d="M 482.999392 47.672049 
Q 488.915082 49.435737 494.830772 51.199424 
" style="fill: none; stroke: #000000; stroke-linecap: round"/>
   </g>
   <g id="text_22">
    <g id="patch_24">
     <path d="M 429.676621 50.184831 
L 478.086937 50.184831 
Q 480.585937 50.184831 480.585937 47.685831 
L 480.585937 30.296175 
Q 480.585937 27.797175 478.086937 27.797175 
L 429.676621 27.797175 
Q 427.177621 27.797175 427.177621 30.296175 
L 427.177621 47.685831 
Q 427.177621 50.184831 429.676621 50.184831 
z
" style="fill: #cccccc; stroke: #000000; stroke-linejoin: miter"/>
    </g>
    <!-- 2024-01-23 -->
    <g transform="translate(429.676621 36.625673) scale(0.0833 -0.0833)">
     <use xlink:href="#DejaVuSans-32"/>
     <use xlink:href="#DejaVuSans-30" x="63.623047"/>
     <use xlink:href="#DejaVuSans-32" x="127.246094"/>
     <use xlink:href="#DejaVuSans-34" x="190.869141"/>
     <use xlink:href="#DejaVuSans-2d" x="254.492188"/>
     <use xlink:href="#DejaVuSans-30" x="290.576172"/>
     <use xlink:href="#DejaVuSans-31" x="354.199219"/>
     <use xlink:href="#DejaVuSans-2d" x="417.822266"/>
     <use xlink:href="#DejaVuSans-32" x="453.90625"/>
     <use xlink:href="#DejaVuSans-33" x="517.529297"/>
    </g>
    <!--  +4.72m  -->
    <g transform="translate(429.676621 45.953451) scale(0.0833 -0.0833)">
     <use xlink:href="#DejaVuSans-20"/>
     <use xlink:href="#DejaVuSans-2b" x="31.787109"/>
     <use xlink:href="#DejaVuSans-34" x="115.576172"/>
     <use xlink:href="#DejaVuSans-2e" x="179.199219"/>
     <use xlink:href="#DejaVuSans-37" x="210.986328"/>
     <use xlink:href="#DejaVuSans-32" x="274.609375"/>
     <use xlink:href="#DejaVuSans-6d" x="338.232422"/>
     <use xlink:href="#DejaVuSans-20" x="435.644531"/>
    </g>
   </g>
   <g id="text_23">
    <!-- History of percentage of AWS ownership of IPv4 space -->
    <g transform="translate(118.277813 16.318125) scale(0.12 -0.12)">
     <defs>
      <path id="DejaVuSans-48" d="M 628 4666 
L 1259 4666 
L 1259 2753 
L 3553 2753 
L 3553 4666 
L 4184 4666 
L 4184 0 
L 3553 0 
L 3553 2222 
L 1259 2222 
L 1259 0 
L 628 0 
L 628 4666 
z
" transform="scale(0.015625)"/>
      <path id="DejaVuSans-69" d="M 603 3500 
L 1178 3500 
L 1178 0 
L 603 0 
L 603 3500 
z
M 603 4863 
L 1178 4863 
L 1178 4134 
L 603 4134 
L 603 4863 
z
" transform="scale(0.015625)"/>
      <path id="DejaVuSans-73" d="M 2834 3397 
L 2834 2853 
Q 2591 2978 2328 3040 
Q 2066 3103 1784 3103 
Q 1356 3103 1142 2972 
Q 928 2841 928 2578 
Q 928 2378 1081 2264 
Q 1234 2150 1697 2047 
L 1894 2003 
Q 2506 1872 2764 1633 
Q 3022 1394 3022 966 
Q 3022 478 2636 193 
Q 2250 -91 1575 -91 
Q 1294 -91 989 -36 
Q 684 19 347 128 
L 347 722 
Q 666 556 975 473 
Q 1284 391 1588 391 
Q 1994 391 2212 530 
Q 2431 669 2431 922 
Q 2431 1156 2273 1281 
Q 2116 1406 1581 1522 
L 1381 1569 
Q 847 1681 609 1914 
Q 372 2147 372 2553 
Q 372 3047 722 3315 
Q 1072 3584 1716 3584 
Q 2034 3584 2315 3537 
Q 2597 3491 2834 3397 
z
" transform="scale(0.015625)"/>
      <path id="DejaVuSans-74" d="M 1172 4494 
L 1172 3500 
L 2356 3500 
L 2356 3053 
L 1172 3053 
L 1172 1153 
Q 1172 725 1289 603 
Q 1406 481 1766 481 
L 2356 481 
L 2356 0 
L 1766 0 
Q 1100 0 847 248 
Q 594 497 594 1153 
L 594 3053 
L 172 3053 
L 172 3500 
L 594 3500 
L 594 4494 
L 1172 4494 
z
" transform="scale(0.015625)"/>
      <path id="DejaVuSans-6f" d="M 1959 3097 
Q 1497 3097 1228 2736 
Q 959 2375 959 1747 
Q 959 1119 1226 758 
Q 1494 397 1959 397 
Q 2419 397 2687 759 
Q 2956 1122 2956 1747 
Q 2956 2369 2687 2733 
Q 2419 3097 1959 3097 
z
M 1959 3584 
Q 2709 3584 3137 3096 
Q 3566 2609 3566 1747 
Q 3566 888 3137 398 
Q 2709 -91 1959 -91 
Q 1206 -91 779 398 
Q 353 888 353 1747 
Q 353 2609 779 3096 
Q 1206 3584 1959 3584 
z
" transform="scale(0.015625)"/>
      <path id="DejaVuSans-72" d="M 2631 2963 
Q 2534 3019 2420 3045 
Q 2306 3072 2169 3072 
Q 1681 3072 1420 2755 
Q 1159 2438 1159 1844 
L 1159 0 
L 581 0 
L 581 3500 
L 1159 3500 
L 1159 2956 
Q 1341 3275 1631 3429 
Q 1922 3584 2338 3584 
Q 2397 3584 2469 3576 
Q 2541 3569 2628 3553 
L 2631 2963 
z
" transform="scale(0.015625)"/>
      <path id="DejaVuSans-79" d="M 2059 -325 
Q 1816 -950 1584 -1140 
Q 1353 -1331 966 -1331 
L 506 -1331 
L 506 -850 
L 844 -850 
Q 1081 -850 1212 -737 
Q 1344 -625 1503 -206 
L 1606 56 
L 191 3500 
L 800 3500 
L 1894 763 
L 2988 3500 
L 3597 3500 
L 2059 -325 
z
" transform="scale(0.015625)"/>
      <path id="DejaVuSans-66" d="M 2375 4863 
L 2375 4384 
L 1825 4384 
Q 1516 4384 1395 4259 
Q 1275 4134 1275 3809 
L 1275 3500 
L 2222 3500 
L 2222 3053 
L 1275 3053 
L 1275 0 
L 697 0 
L 697 3053 
L 147 3053 
L 147 3500 
L 697 3500 
L 697 3744 
Q 697 4328 969 4595 
Q 1241 4863 1831 4863 
L 2375 4863 
z
" transform="scale(0.015625)"/>
      <path id="DejaVuSans-70" d="M 1159 525 
L 1159 -1331 
L 581 -1331 
L 581 3500 
L 1159 3500 
L 1159 2969 
Q 1341 3281 1617 3432 
Q 1894 3584 2278 3584 
Q 2916 3584 3314 3078 
Q 3713 2572 3713 1747 
Q 3713 922 3314 415 
Q 2916 -91 2278 -91 
Q 1894 -91 1617 61 
Q 1341 213 1159 525 
z
M 3116 1747 
Q 3116 2381 2855 2742 
Q 2594 3103 2138 3103 
Q 1681 3103 1420 2742 
Q 1159 2381 1159 1747 
Q 1159 1113 1420 752 
Q 1681 391 2138 391 
Q 2594 391 2855 752 
Q 3116 1113 3116 1747 
z
" transform="scale(0.015625)"/>
      <path id="DejaVuSans-65" d="M 3597 1894 
L 3597 1613 
L 953 1613 
Q 991 1019 1311 708 
Q 1631 397 2203 397 
Q 2534 397 2845 478 
Q 3156 559 3463 722 
L 3463 178 
Q 3153 47 2828 -22 
Q 2503 -91 2169 -91 
Q 1331 -91 842 396 
Q 353 884 353 1716 
Q 353 2575 817 3079 
Q 1281 3584 2069 3584 
Q 2775 3584 3186 3129 
Q 3597 2675 3597 1894 
z
M 3022 2063 
Q 3016 2534 2758 2815 
Q 2500 3097 2075 3097 
Q 1594 3097 1305 2825 
Q 1016 2553 972 2059 
L 3022 2063 
z
" transform="scale(0.015625)"/>
      <path id="DejaVuSans-63" d="M 3122 3366 
L 3122 2828 
Q 2878 2963 2633 3030 
Q 2388 3097 2138 3097 
Q 1578 3097 1268 2742 
Q 959 2388 959 1747 
Q 959 1106 1268 751 
Q 1578 397 2138 397 
Q 2388 397 2633 464 
Q 2878 531 3122 666 
L 3122 134 
Q 2881 22 2623 -34 
Q 2366 -91 2075 -91 
Q 1284 -91 818 406 
Q 353 903 353 1747 
Q 353 2603 823 3093 
Q 1294 3584 2113 3584 
Q 2378 3584 2631 3529 
Q 2884 3475 3122 3366 
z
" transform="scale(0.015625)"/>
      <path id="DejaVuSans-6e" d="M 3513 2113 
L 3513 0 
L 2938 0 
L 2938 2094 
Q 2938 2591 2744 2837 
Q 2550 3084 2163 3084 
Q 1697 3084 1428 2787 
Q 1159 2491 1159 1978 
L 1159 0 
L 581 0 
L 581 3500 
L 1159 3500 
L 1159 2956 
Q 1366 3272 1645 3428 
Q 1925 3584 2291 3584 
Q 2894 3584 3203 3211 
Q 3513 2838 3513 2113 
z
" transform="scale(0.015625)"/>
      <path id="DejaVuSans-61" d="M 2194 1759 
Q 1497 1759 1228 1600 
Q 959 1441 959 1056 
Q 959 750 1161 570 
Q 1363 391 1709 391 
Q 2188 391 2477 730 
Q 2766 1069 2766 1631 
L 2766 1759 
L 2194 1759 
z
M 3341 1997 
L 3341 0 
L 2766 0 
L 2766 531 
Q 2569 213 2275 61 
Q 1981 -91 1556 -91 
Q 1019 -91 701 211 
Q 384 513 384 1019 
Q 384 1609 779 1909 
Q 1175 2209 1959 2209 
L 2766 2209 
L 2766 2266 
Q 2766 2663 2505 2880 
Q 2244 3097 1772 3097 
Q 1472 3097 1187 3025 
Q 903 2953 641 2809 
L 641 3341 
Q 956 3463 1253 3523 
Q 1550 3584 1831 3584 
Q 2591 3584 2966 3190 
Q 3341 2797 3341 1997 
z
" transform="scale(0.015625)"/>
      <path id="DejaVuSans-67" d="M 2906 1791 
Q 2906 2416 2648 2759 
Q 2391 3103 1925 3103 
Q 1463 3103 1205 2759 
Q 947 2416 947 1791 
Q 947 1169 1205 825 
Q 1463 481 1925 481 
Q 2391 481 2648 825 
Q 2906 1169 2906 1791 
z
M 3481 434 
Q 3481 -459 3084 -895 
Q 2688 -1331 1869 -1331 
Q 1566 -1331 1297 -1286 
Q 1028 -1241 775 -1147 
L 775 -588 
Q 1028 -725 1275 -790 
Q 1522 -856 1778 -856 
Q 2344 -856 2625 -561 
Q 2906 -266 2906 331 
L 2906 616 
Q 2728 306 2450 153 
Q 2172 0 1784 0 
Q 1141 0 747 490 
Q 353 981 353 1791 
Q 353 2603 747 3093 
Q 1141 3584 1784 3584 
Q 2172 3584 2450 3431 
Q 2728 3278 2906 2969 
L 2906 3500 
L 3481 3500 
L 3481 434 
z
" transform="scale(0.015625)"/>
      <path id="DejaVuSans-41" d="M 2188 4044 
L 1331 1722 
L 3047 1722 
L 2188 4044 
z
M 1831 4666 
L 2547 4666 
L 4325 0 
L 3669 0 
L 3244 1197 
L 1141 1197 
L 716 0 
L 50 0 
L 1831 4666 
z
" transform="scale(0.015625)"/>
      <path id="DejaVuSans-57" d="M 213 4666 
L 850 4666 
L 1831 722 
L 2809 4666 
L 3519 4666 
L 4500 722 
L 5478 4666 
L 6119 4666 
L 4947 0 
L 4153 0 
L 3169 4050 
L 2175 0 
L 1381 0 
L 213 4666 
z
" transform="scale(0.015625)"/>
      <path id="DejaVuSans-53" d="M 3425 4513 
L 3425 3897 
Q 3066 4069 2747 4153 
Q 2428 4238 2131 4238 
Q 1616 4238 1336 4038 
Q 1056 3838 1056 3469 
Q 1056 3159 1242 3001 
Q 1428 2844 1947 2747 
L 2328 2669 
Q 3034 2534 3370 2195 
Q 3706 1856 3706 1288 
Q 3706 609 3251 259 
Q 2797 -91 1919 -91 
Q 1588 -91 1214 -16 
Q 841 59 441 206 
L 441 856 
Q 825 641 1194 531 
Q 1563 422 1919 422 
Q 2459 422 2753 634 
Q 3047 847 3047 1241 
Q 3047 1584 2836 1778 
Q 2625 1972 2144 2069 
L 1759 2144 
Q 1053 2284 737 2584 
Q 422 2884 422 3419 
Q 422 4038 858 4394 
Q 1294 4750 2059 4750 
Q 2388 4750 2728 4690 
Q 3069 4631 3425 4513 
z
" transform="scale(0.015625)"/>
      <path id="DejaVuSans-77" d="M 269 3500 
L 844 3500 
L 1563 769 
L 2278 3500 
L 2956 3500 
L 3675 769 
L 4391 3500 
L 4966 3500 
L 4050 0 
L 3372 0 
L 2619 2869 
L 1863 0 
L 1184 0 
L 269 3500 
z
" transform="scale(0.015625)"/>
      <path id="DejaVuSans-68" d="M 3513 2113 
L 3513 0 
L 2938 0 
L 2938 2094 
Q 2938 2591 2744 2837 
Q 2550 3084 2163 3084 
Q 1697 3084 1428 2787 
Q 1159 2491 1159 1978 
L 1159 0 
L 581 0 
L 581 4863 
L 1159 4863 
L 1159 2956 
Q 1366 3272 1645 3428 
Q 1925 3584 2291 3584 
Q 2894 3584 3203 3211 
Q 3513 2838 3513 2113 
z
" transform="scale(0.015625)"/>
      <path id="DejaVuSans-49" d="M 628 4666 
L 1259 4666 
L 1259 0 
L 628 0 
L 628 4666 
z
" transform="scale(0.015625)"/>
      <path id="DejaVuSans-50" d="M 1259 4147 
L 1259 2394 
L 2053 2394 
Q 2494 2394 2734 2622 
Q 2975 2850 2975 3272 
Q 2975 3691 2734 3919 
Q 2494 4147 2053 4147 
L 1259 4147 
z
M 628 4666 
L 2053 4666 
Q 2838 4666 3239 4311 
Q 3641 3956 3641 3272 
Q 3641 2581 3239 2228 
Q 2838 1875 2053 1875 
L 1259 1875 
L 1259 0 
L 628 0 
L 628 4666 
z
" transform="scale(0.015625)"/>
      <path id="DejaVuSans-76" d="M 191 3500 
L 800 3500 
L 1894 563 
L 2988 3500 
L 3597 3500 
L 2284 0 
L 1503 0 
L 191 3500 
z
" transform="scale(0.015625)"/>
     </defs>
     <use xlink:href="#DejaVuSans-48"/>
     <use xlink:href="#DejaVuSans-69" x="75.195312"/>
     <use xlink:href="#DejaVuSans-73" x="102.978516"/>
     <use xlink:href="#DejaVuSans-74" x="155.078125"/>
     <use xlink:href="#DejaVuSans-6f" x="194.287109"/>
     <use xlink:href="#DejaVuSans-72" x="255.46875"/>
     <use xlink:href="#DejaVuSans-79" x="296.582031"/>
     <use xlink:href="#DejaVuSans-20" x="355.761719"/>
     <use xlink:href="#DejaVuSans-6f" x="387.548828"/>
     <use xlink:href="#DejaVuSans-66" x="448.730469"/>
     <use xlink:href="#DejaVuSans-20" x="483.935547"/>
     <use xlink:href="#DejaVuSans-70" x="515.722656"/>
     <use xlink:href="#DejaVuSans-65" x="579.199219"/>
     <use xlink:href="#DejaVuSans-72" x="640.722656"/>
     <use xlink:href="#DejaVuSans-63" x="679.585938"/>
     <use xlink:href="#DejaVuSans-65" x="734.566406"/>
     <use xlink:href="#DejaVuSans-6e" x="796.089844"/>
     <use xlink:href="#DejaVuSans-74" x="859.46875"/>
     <use xlink:href="#DejaVuSans-61" x="898.677734"/>
     <use xlink:href="#DejaVuSans-67" x="959.957031"/>
     <use xlink:href="#DejaVuSans-65" x="1023.433594"/>
     <use xlink:href="#DejaVuSans-20" x="1084.957031"/>
     <use xlink:href="#DejaVuSans-6f" x="1116.744141"/>
     <use xlink:href="#DejaVuSans-66" x="1177.925781"/>
     <use xlink:href="#DejaVuSans-20" x="1213.130859"/>
     <use xlink:href="#DejaVuSans-41" x="1244.917969"/>
     <use xlink:href="#DejaVuSans-57" x="1307.826172"/>
     <use xlink:href="#DejaVuSans-53" x="1406.703125"/>
     <use xlink:href="#DejaVuSans-20" x="1470.179688"/>
     <use xlink:href="#DejaVuSans-6f" x="1501.966797"/>
     <use xlink:href="#DejaVuSans-77" x="1563.148438"/>
     <use xlink:href="#DejaVuSans-6e" x="1644.935547"/>
     <use xlink:href="#DejaVuSans-65" x="1708.314453"/>
     <use xlink:href="#DejaVuSans-72" x="1769.837891"/>
     <use xlink:href="#DejaVuSans-73" x="1810.951172"/>
     <use xlink:href="#DejaVuSans-68" x="1863.050781"/>
     <use xlink:href="#DejaVuSans-69" x="1926.429688"/>
     <use xlink:href="#DejaVuSans-70" x="1954.212891"/>
     <use xlink:href="#DejaVuSans-20" x="2017.689453"/>
     <use xlink:href="#DejaVuSans-6f" x="2049.476562"/>
     <use xlink:href="#DejaVuSans-66" x="2110.658203"/>
     <use xlink:href="#DejaVuSans-20" x="2145.863281"/>
     <use xlink:href="#DejaVuSans-49" x="2177.650391"/>
     <use xlink:href="#DejaVuSans-50" x="2207.142578"/>
     <use xlink:href="#DejaVuSans-76" x="2267.445312"/>
     <use xlink:href="#DejaVuSans-34" x="2326.625"/>
     <use xlink:href="#DejaVuSans-20" x="2390.248047"/>
     <use xlink:href="#DejaVuSans-73" x="2422.035156"/>
     <use xlink:href="#DejaVuSans-70" x="2474.134766"/>
     <use xlink:href="#DejaVuSans-61" x="2537.611328"/>
     <use xlink:href="#DejaVuSans-63" x="2598.890625"/>
     <use xlink:href="#DejaVuSans-65" x="2653.871094"/>
    </g>
   </g>
  </g>
 </g>
 <defs>
  <clipPath id="p906e395f3e">
   <rect x="30.103125" y="22.318125" width="502.2" height="277.2"/>
  </clipPath>
 </defs>
</svg>
