<?xml version="1.0" encoding="utf-8" standalone="no"?>
<!DOCTYPE svg PUBLIC "-//W3C//DTD SVG 1.1//EN"
  "http://www.w3.org/Graphics/SVG/1.1/DTD/svg11.dtd">
<svg xmlns:xlink="http://www.w3.org/1999/xlink" width="539.503125pt" height="323.39625pt" viewBox="0 0 539.503125 323.39625" xmlns="http://www.w3.org/2000/svg" version="1.1">
 
 <defs>
  <style type="text/css">*{stroke-linejoin: round; stroke-linecap: butt}</style>
 </defs>
 <g id="figure_1">
  <g id="patch_1">
   <path d="M 0 323.39625 
L 539.503125 323.39625 
L 539.503125 0 
L 0 0 
z
" style="fill: #b2b2b2"/>
  </g>
  <g id="axes_1">
   <g id="patch_2">
    <path d="M 30.103125 299.518125 
L 532.303125 299.518125 
L 532.303125 22.318125 
L 30.103125 22.318125 
z
" style="fill: #e6e6e6"/>
   </g>
   <g id="matplotlib.axis_1">
    <g id="xtick_1">
     <g id="line2d_1">
      <defs>
       <path id="ma78f911f2e" d="M 0 0 
L 0 3.5 
" style="stroke: #000000; stroke-width: 0.8"/>
      </defs>
      <g>
       <use xlink:href="#ma78f911f2e" x="88.789958" y="299.518125" style="stroke: #000000; stroke-width: 0.8"/>
      </g>
     </g>
     <g id="text_1">
      <!-- 2018 -->
      <g transform="translate(76.064958 314.116563) scale(0.1 -0.1)">
       <defs>
        <path id="DejaVuSans-32" d="M 1228 531 
L 3431 531 
L 3431 0 
L 469 0 
L 469 531 
Q 828 903 1448 1529 
Q 2069 2156 2228 2338 
Q 2531 2678 2651 2914 
Q 2772 3150 2772 3378 
Q 2772 3750 2511 3984 
Q 2250 4219 1831 4219 
Q 1534 4219 1204 4116 
Q 875 4013 500 3803 
L 500 4441 
Q 881 4594 1212 4672 
Q 1544 4750 1819 4750 
Q 2544 4750 2975 4387 
Q 3406 4025 3406 3419 
Q 3406 3131 3298 2873 
Q 3191 2616 2906 2266 
Q 2828 2175 2409 1742 
Q 1991 1309 1228 531 
z
" transform="scale(0.015625)"/>
        <path id="DejaVuSans-30" d="M 2034 4250 
Q 1547 4250 1301 3770 
Q 1056 3291 1056 2328 
Q 1056 1369 1301 889 
Q 1547 409 2034 409 
Q 2525 409 2770 889 
Q 3016 1369 3016 2328 
Q 3016 3291 2770 3770 
Q 2525 4250 2034 4250 
z
M 2034 4750 
Q 2819 4750 3233 4129 
Q 3647 3509 3647 2328 
Q 3647 1150 3233 529 
Q 2819 -91 2034 -91 
Q 1250 -91 836 529 
Q 422 1150 422 2328 
Q 422 3509 836 4129 
Q 1250 4750 2034 4750 
z
" transform="scale(0.015625)"/>
        <path id="DejaVuSans-31" d="M 794 531 
L 1825 531 
L 1825 4091 
L 703 3866 
L 703 4441 
L 1819 4666 
L 2450 4666 
L 2450 531 
L 3481 531 
L 3481 0 
L 794 0 
L 794 531 
z
" transform="scale(0.015625)"/>
        <path id="DejaVuSans-38" d="M 2034 2216 
Q 1584 2216 1326 1975 
Q 1069 1734 1069 1313 
Q 1069 891 1326 650 
Q 1584 409 2034 409 
Q 2484 409 2743 651 
Q 3003 894 3003 1313 
Q 3003 1734 2745 1975 
Q 2488 2216 2034 2216 
z
M 1403 2484 
Q 997 2584 770 2862 
Q 544 3141 544 3541 
Q 544 4100 942 4425 
Q 1341 4750 2034 4750 
Q 2731 4750 3128 4425 
Q 3525 4100 3525 3541 
Q 3525 3141 3298 2862 
Q 3072 2584 2669 2484 
Q 3125 2378 3379 2068 
Q 3634 1759 3634 1313 
Q 3634 634 3220 271 
Q 2806 -91 2034 -91 
Q 1263 -91 848 271 
Q 434 634 434 1313 
Q 434 1759 690 2068 
Q 947 2378 1403 2484 
z
M 1172 3481 
Q 1172 3119 1398 2916 
Q 1625 2713 2034 2713 
Q 2441 2713 2670 2916 
Q 2900 3119 2900 3481 
Q 2900 3844 2670 4047 
Q 2441 4250 2034 4250 
Q 1625 4250 1398 4047 
Q 1172 3844 1172 3481 
z
" transform="scale(0.015625)"/>
       </defs>
       <use xlink:href="#DejaVuSans-32"/>
       <use xlink:href="#DejaVuSans-30" x="63.623047"/>
       <use xlink:href="#DejaVuSans-31" x="127.246094"/>
       <use xlink:href="#DejaVuSans-38" x="190.869141"/>
      </g>
     </g>
    </g>
    <g id="xtick_2">
     <g id="line2d_2">
      <g>
       <use xlink:href="#ma78f911f2e" x="149.991942" y="299.518125" style="stroke: #000000; stroke-width: 0.8"/>
      </g>
     </g>
     <g id="text_2">
      <!-- 2019 -->
      <g transform="translate(137.266942 314.116563) scale(0.1 -0.1)">
       <defs>
        <path id="DejaVuSans-39" d="M 703 97 
L 703 672 
Q 941 559 1184 500 
Q 1428 441 1663 441 
Q 2288 441 2617 861 
Q 2947 1281 2994 2138 
Q 2813 1869 2534 1725 
Q 2256 1581 1919 1581 
Q 1219 1581 811 2004 
Q 403 2428 403 3163 
Q 403 3881 828 4315 
Q 1253 4750 1959 4750 
Q 2769 4750 3195 4129 
Q 3622 3509 3622 2328 
Q 3622 1225 3098 567 
Q 2575 -91 1691 -91 
Q 1453 -91 1209 -44 
Q 966 3 703 97 
z
M 1959 2075 
Q 2384 2075 2632 2365 
Q 2881 2656 2881 3163 
Q 2881 3666 2632 3958 
Q 2384 4250 1959 4250 
Q 1534 4250 1286 3958 
Q 1038 3666 1038 3163 
Q 1038 2656 1286 2365 
Q 1534 2075 1959 2075 
z
" transform="scale(0.015625)"/>
       </defs>
       <use xlink:href="#DejaVuSans-32"/>
       <use xlink:href="#DejaVuSans-30" x="63.623047"/>
       <use xlink:href="#DejaVuSans-31" x="127.246094"/>
       <use xlink:href="#DejaVuSans-39" x="190.869141"/>
      </g>
     </g>
    </g>
    <g id="xtick_3">
     <g id="line2d_3">
      <g>
       <use xlink:href="#ma78f911f2e" x="211.193925" y="299.518125" style="stroke: #000000; stroke-width: 0.8"/>
      </g>
     </g>
     <g id="text_3">
      <!-- 2020 -->
      <g transform="translate(198.468925 314.116563) scale(0.1 -0.1)">
       <use xlink:href="#DejaVuSans-32"/>
       <use xlink:href="#DejaVuSans-30" x="63.623047"/>
       <use xlink:href="#DejaVuSans-32" x="127.246094"/>
       <use xlink:href="#DejaVuSans-30" x="190.869141"/>
      </g>
     </g>
    </g>
    <g id="xtick_4">
     <g id="line2d_4">
      <g>
       <use xlink:href="#ma78f911f2e" x="272.563585" y="299.518125" style="stroke: #000000; stroke-width: 0.8"/>
      </g>
     </g>
     <g id="text_4">
      <!-- 2021 -->
      <g transform="translate(259.838585 314.116563) scale(0.1 -0.1)">
       <use xlink:href="#DejaVuSans-32"/>
       <use xlink:href="#DejaVuSans-30" x="63.623047"/>
       <use xlink:href="#DejaVuSans-32" x="127.246094"/>
       <use xlink:href="#DejaVuSans-31" x="190.869141"/>
      </g>
     </g>
    </g>
    <g id="xtick_5">
     <g id="line2d_5">
      <g>
       <use xlink:href="#ma78f911f2e" x="333.765568" y="299.518125" style="stroke: #000000; stroke-width: 0.8"/>
      </g>
     </g>
     <g id="text_5">
      <!-- 2022 -->
      <g transform="translate(321.040568 314.116563) scale(0.1 -0.1)">
       <use xlink:href="#DejaVuSans-32"/>
       <use xlink:href="#DejaVuSans-30" x="63.623047"/>
       <use xlink:href="#DejaVuSans-32" x="127.246094"/>
       <use xlink:href="#DejaVuSans-32" x="190.869141"/>
      </g>
     </g>
    </g>
    <g id="xtick_6">
     <g id="line2d_6">
      <g>
       <use xlink:href="#ma78f911f2e" x="394.967551" y="299.518125" style="stroke: #000000; stroke-width: 0.8"/>
      </g>
     </g>
     <g id="text_6">
      <!-- 2023 -->
      <g transform="translate(382.242551 314.116563) scale(0.1 -0.1)">
       <defs>
        <path id="DejaVuSans-33" d="M 2597 2516 
Q 3050 2419 3304 2112 
Q 3559 1806 3559 1356 
Q 3559 666 3084 287 
Q 2609 -91 1734 -91 
Q 1441 -91 1130 -33 
Q 819 25 488 141 
L 488 750 
Q 750 597 1062 519 
Q 1375 441 1716 441 
Q 2309 441 2620 675 
Q 2931 909 2931 1356 
Q 2931 1769 2642 2001 
Q 2353 2234 1838 2234 
L 1294 2234 
L 1294 2753 
L 1863 2753 
Q 2328 2753 2575 2939 
Q 2822 3125 2822 3475 
Q 2822 3834 2567 4026 
Q 2313 4219 1838 4219 
Q 1578 4219 1281 4162 
Q 984 4106 628 3988 
L 628 4550 
Q 988 4650 1302 4700 
Q 1616 4750 1894 4750 
Q 2613 4750 3031 4423 
Q 3450 4097 3450 3541 
Q 3450 3153 3228 2886 
Q 3006 2619 2597 2516 
z
" transform="scale(0.015625)"/>
       </defs>
       <use xlink:href="#DejaVuSans-32"/>
       <use xlink:href="#DejaVuSans-30" x="63.623047"/>
       <use xlink:href="#DejaVuSans-32" x="127.246094"/>
       <use xlink:href="#DejaVuSans-33" x="190.869141"/>
      </g>
     </g>
    </g>
    <g id="xtick_7">
     <g id="line2d_7">
      <g>
       <use xlink:href="#ma78f911f2e" x="456.169535" y="299.518125" style="stroke: #000000; stroke-width: 0.8"/>
      </g>
     </g>
     <g id="text_7">
      <!-- 2024 -->
      <g transform="translate(443.444535 314.116563) scale(0.1 -0.1)">
       <defs>
        <path id="DejaVuSans-34" d="M 2419 4116 
L 825 1625 
L 2419 1625 
L 2419 4116 
z
M 2253 4666 
L 3047 4666 
L 3047 1625 
L 3713 1625 
L 3713 1100 
L 3047 1100 
L 3047 0 
L 2419 0 
L 2419 1100 
L 313 1100 
L 313 1709 
L 2253 4666 
z
" transform="scale(0.015625)"/>
       </defs>
       <use xlink:href="#DejaVuSans-32"/>
       <use xlink:href="#DejaVuSans-30" x="63.623047"/>
       <use xlink:href="#DejaVuSans-32" x="127.246094"/>
       <use xlink:href="#DejaVuSans-34" x="190.869141"/>
      </g>
     </g>
    </g>
    <g id="xtick_8">
     <g id="line2d_8">
      <g>
       <use xlink:href="#ma78f911f2e" x="517.539195" y="299.518125" style="stroke: #000000; stroke-width: 0.8"/>
      </g>
     </g>
     <g id="text_8">
      <!-- 2025 -->
      <g transform="translate(504.814195 314.116563) scale(0.1 -0.1)">
       <defs>
        <path id="DejaVuSans-35" d="M 691 4666 
L 3169 4666 
L 3169 4134 
L 1269 4134 
L 1269 2991 
Q 1406 3038 1543 3061 
Q 1681 3084 1819 3084 
Q 2600 3084 3056 2656 
Q 3513 2228 3513 1497 
Q 3513 744 3044 326 
Q 2575 -91 1722 -91 
Q 1428 -91 1123 -41 
Q 819 9 494 109 
L 494 744 
Q 775 591 1075 516 
Q 1375 441 1709 441 
Q 2250 441 2565 725 
Q 2881 1009 2881 1497 
Q 2881 1984 2565 2268 
Q 2250 2553 1709 2553 
Q 1456 2553 1204 2497 
Q 953 2441 691 2322 
L 691 4666 
z
" transform="scale(0.015625)"/>
       </defs>
       <use xlink:href="#DejaVuSans-32"/>
       <use xlink:href="#DejaVuSans-30" x="63.623047"/>
       <use xlink:href="#DejaVuSans-32" x="127.246094"/>
       <use xlink:href="#DejaVuSans-35" x="190.869141"/>
      </g>
     </g>
    </g>
   </g>
   <g id="matplotlib.axis_2">
    <g id="ytick_1">
     <g id="line2d_9">
      <defs>
       <path id="ma562af20d9" d="M 0 0 
L -3.5 0 
" style="stroke: #000000; stroke-width: 0.8"/>
      </defs>
      <g>
       <use xlink:href="#ma562af20d9" x="30.103125" y="299.518125" style="stroke: #000000; stroke-width: 0.8"/>
      </g>
     </g>
     <g id="text_9">
      <!-- 0.0 -->
      <g transform="translate(7.2 303.317344) scale(0.1 -0.1)">
       <defs>
        <path id="DejaVuSans-2e" d="M 684 794 
L 1344 794 
L 1344 0 
L 684 0 
L 684 794 
z
" transform="scale(0.015625)"/>
       </defs>
       <use xlink:href="#DejaVuSans-30"/>
       <use xlink:href="#DejaVuSans-2e" x="63.623047"/>
       <use xlink:href="#DejaVuSans-30" x="95.410156"/>
      </g>
     </g>
    </g>
    <g id="ytick_2">
     <g id="line2d_10">
      <g>
       <use xlink:href="#ma562af20d9" x="30.103125" y="243.387815" style="stroke: #000000; stroke-width: 0.8"/>
      </g>
     </g>
     <g id="text_10">
      <!-- 0.5 -->
      <g transform="translate(7.2 247.187034) scale(0.1 -0.1)">
       <use xlink:href="#DejaVuSans-30"/>
       <use xlink:href="#DejaVuSans-2e" x="63.623047"/>
       <use xlink:href="#DejaVuSans-35" x="95.410156"/>
      </g>
     </g>
    </g>
    <g id="ytick_3">
     <g id="line2d_11">
      <g>
       <use xlink:href="#ma562af20d9" x="30.103125" y="187.257505" style="stroke: #000000; stroke-width: 0.8"/>
      </g>
     </g>
     <g id="text_11">
      <!-- 1.0 -->
      <g transform="translate(7.2 191.056724) scale(0.1 -0.1)">
       <use xlink:href="#DejaVuSans-31"/>
       <use xlink:href="#DejaVuSans-2e" x="63.623047"/>
       <use xlink:href="#DejaVuSans-30" x="95.410156"/>
      </g>
     </g>
    </g>
    <g id="ytick_4">
     <g id="line2d_12">
      <g>
       <use xlink:href="#ma562af20d9" x="30.103125" y="131.127195" style="stroke: #000000; stroke-width: 0.8"/>
      </g>
     </g>
     <g id="text_12">
      <!-- 1.5 -->
      <g transform="translate(7.2 134.926414) scale(0.1 -0.1)">
       <use xlink:href="#DejaVuSans-31"/>
       <use xlink:href="#DejaVuSans-2e" x="63.623047"/>
       <use xlink:href="#DejaVuSans-35" x="95.410156"/>
      </g>
     </g>
    </g>
    <g id="ytick_5">
     <g id="line2d_13">
      <g>
       <use xlink:href="#ma562af20d9" x="30.103125" y="74.996885" style="stroke: #000000; stroke-width: 0.8"/>
      </g>
     </g>
     <g id="text_13">
      <!-- 2.0 -->
      <g transform="translate(7.2 78.796103) scale(0.1 -0.1)">
       <use xlink:href="#DejaVuSans-32"/>
       <use xlink:href="#DejaVuSans-2e" x="63.623047"/>
       <use xlink:href="#DejaVuSans-30" x="95.410156"/>
      </g>
     </g>
    </g>
   </g>
   <g id="line2d_14">
    <path d="M 27.587975 299.518125 
L 27.587975 22.318125 
" clip-path="url(#p906e395f3e)" style="fill: none; stroke: #cccccc; stroke-linecap: square"/>
   </g>
   <g id="line2d_15">
    <path d="M 88.789958 299.518125 
L 88.789958 22.318125 
" clip-path="url(#p906e395f3e)" style="fill: none; stroke: #cccccc; stroke-linecap: square"/>
   </g>
   <g id="line2d_16">
    <path d="M 149.991942 299.518125 
L 149.991942 22.318125 
" clip-path="url(#p906e395f3e)" style="fill: none; stroke: #cccccc; stroke-linecap: square"/>
   </g>
   <g id="line2d_17">
    <path d="M 211.193925 299.518125 
L 211.193925 22.318125 
" clip-path="url(#p906e395f3e)" style="fill: none; stroke: #cccccc; stroke-linecap: square"/>
   </g>
   <g id="line2d_18">
    <path d="M 272.563585 299.518125 
L 272.563585 22.318125 
" clip-path="url(#p906e395f3e)" style="fill: none; stroke: #cccccc; stroke-linecap: square"/>
   </g>
   <g id="line2d_19">
    <path d="M 333.765568 299.518125 
L 333.765568 22.318125 
" clip-path="url(#p906e395f3e)" style="fill: none; stroke: #cccccc; stroke-linecap: square"/>
   </g>
   <g id="line2d_20">
    <path d="M 394.967551 299.518125 
L 394.967551 22.318125 
" clip-path="url(#p906e395f3e)" style="fill: none; stroke: #cccccc; stroke-linecap: square"/>
   </g>
   <g id="line2d_21">
    <path d="M 456.169535 299.518125 
L 456.169535 22.318125 
" clip-path="url(#p906e395f3e)" style="fill: none; stroke: #cccccc; stroke-linecap: square"/>
   </g>
   <g id="line2d_22">
    <path d="M 517.539195 299.518125 
L 517.539195 22.318125 
" clip-path="url(#p906e395f3e)" style="fill: none; stroke: #cccccc; stroke-linecap: square"/>
   </g>
   <g id="line2d_23">
    <path d="M 30.103125 299.518125 
L 532.303125 299.518125 
" clip-path="url(#p906e395f3e)" style="fill: none; stroke: #cccccc; stroke-linecap: square"/>
   </g>
   <g id="line2d_24">
    <path d="M 30.103125 271.45297 
L 532.303125 271.45297 
" clip-path="url(#p906e395f3e)" style="fill: none; stroke: #cccccc; stroke-linecap: square"/>
   </g>
   <g id="line2d_25">
    <path d="M 30.103125 243.387815 
L 532.303125 243.387815 
" clip-path="url(#p906e395f3e)" style="fill: none; stroke: #cccccc; stroke-linecap: square"/>
   </g>
   <g id="line2d_26">
    <path d="M 30.103125 215.32266 
L 532.303125 215.32266 
" clip-path="url(#p906e395f3e)" style="fill: none; stroke: #cccccc; stroke-linecap: square"/>
   </g>
   <g id="line2d_27">
    <path d="M 30.103125 187.257505 
L 532.303125 187.257505 
" clip-path="url(#p906e395f3e)" style="fill: none; stroke: #cccccc; stroke-linecap: square"/>
   </g>
   <g id="line2d_28">
    <path d="M 30.103125 159.19235 
L 532.303125 159.19235 
" clip-path="url(#p906e395f3e)" style="fill: none; stroke: #cccccc; stroke-linecap: square"/>
   </g>
   <g id="line2d_29">
    <path d="M 30.103125 131.127195 
L 532.303125 131.127195 
" clip-path="url(#p906e395f3e)" style="fill: none; stroke: #cccccc; stroke-linecap: square"/>
   </g>
   <g id="line2d_30">
    <path d="M 30.103125 103.06204 
L 532.303125 103.06204 
" clip-path="url(#p906e395f3e)" style="fill: none; stroke: #cccccc; stroke-linecap: square"/>
   </g>
   <g id="line2d_31">
    <path d="M 30.103125 74.996885 
L 532.303125 74.996885 
" clip-path="url(#p906e395f3e)" style="fill: none; stroke: #cccccc; stroke-linecap: square"/>
   </g>
   <g id="line2d_32">
    <path d="M 30.103125 234.945278 
L 43.517258 234.945278 
L 43.684935 225.772352 
L 57.434422 225.772352 
L 57.602098 215.372662 
L 60.955632 215.372662 
L 61.123308 215.966492 
L 63.303105 215.970761 
L 63.470782 215.374603 
L 67.495022 215.345105 
L 67.662698 215.146386 
L 68.836435 215.142116 
L 69.004112 214.943397 
L 69.171788 214.943397 
L 69.339465 214.744677 
L 69.507142 214.347238 
L 70.345525 214.322398 
L 70.513202 213.924959 
L 76.381885 213.899343 
L 76.549562 213.675783 
L 86.777838 213.65725 
L 86.945515 208.093102 
L 89.292988 208.093102 
L 89.460665 208.291822 
L 89.963695 208.291822 
L 90.299048 208.043422 
L 93.820258 208.020911 
L 93.987935 207.781827 
L 96.167732 207.782397 
L 96.335408 207.186238 
L 96.838438 207.184686 
L 97.006115 206.985384 
L 97.341468 206.984413 
L 97.509145 206.586974 
L 98.515205 206.586198 
L 98.682882 206.358654 
L 103.042475 206.255116 
L 103.377828 206.155756 
L 104.048535 206.15498 
L 104.216212 205.757541 
L 106.563685 205.754436 
L 106.731362 205.356997 
L 106.899038 205.356803 
L 107.066715 204.959364 
L 107.569745 204.959364 
L 107.737422 204.760644 
L 107.905098 201.531451 
L 108.911158 201.531451 
L 109.078835 200.736573 
L 111.426308 200.636437 
L 112.935398 200.635612 
L 115.115195 200.633283 
L 115.282872 200.409724 
L 118.301052 200.409724 
L 118.468728 199.614845 
L 120.480848 199.612517 
L 120.648525 198.021984 
L 124.169735 198.024313 
L 124.337412 196.828696 
L 127.690945 196.812395 
L 127.858622 192.041573 
L 134.733365 192.038844 
L 134.901042 191.641405 
L 135.571748 191.610355 
L 138.589928 191.608032 
L 138.757605 190.018275 
L 139.595988 190.018275 
L 139.763665 189.024678 
L 141.440432 188.964906 
L 141.608108 189.759785 
L 144.961642 189.752726 
L 145.129318 189.156567 
L 146.638408 189.155791 
L 146.973762 187.960368 
L 147.476792 187.960368 
L 147.644468 181.203903 
L 150.159618 181.200798 
L 150.327295 180.402815 
L 154.854565 180.395828 
L 155.022242 180.197109 
L 161.729308 180.127429 
L 161.896985 179.331774 
L 164.412135 179.322847 
L 164.579812 179.124128 
L 165.418195 179.117141 
L 165.585872 178.918422 
L 167.430315 178.907554 
L 167.765668 178.112676 
L 167.933345 177.693502 
L 168.604052 177.692726 
L 168.771728 177.295287 
L 168.939405 177.295189 
L 169.107082 176.864699 
L 171.119202 176.86237 
L 171.286878 174.468421 
L 172.460615 174.464539 
L 172.628292 174.066136 
L 173.466675 174.062837 
L 173.634352 172.868967 
L 185.036365 172.749322 
L 185.204042 168.784239 
L 185.371718 168.784027 
L 185.539395 159.245488 
L 189.060605 159.20609 
L 190.234342 159.187099 
L 190.402018 157.398623 
L 200.127265 157.394739 
L 200.294941 155.171573 
L 200.462618 154.774134 
L 202.642415 154.767924 
L 202.810091 153.973045 
L 205.157565 153.96219 
L 205.325241 152.372433 
L 206.498978 152.371657 
L 206.666655 151.576779 
L 212.367661 151.538154 
L 212.535338 150.327983 
L 215.888871 150.293786 
L 216.056548 150.095843 
L 222.595938 150.077986 
L 226.284825 150.018982 
L 226.452501 149.435231 
L 228.632298 149.42104 
L 228.799975 149.223097 
L 229.470681 149.222321 
L 229.638358 148.792764 
L 230.979771 148.782609 
L 231.147448 145.601544 
L 234.668658 145.596104 
L 234.836335 145.248345 
L 237.183808 145.24678 
L 237.351485 145.048061 
L 239.363605 145.09496 
L 239.531281 144.675786 
L 240.537341 144.652605 
L 244.058551 144.542177 
L 245.399965 144.538599 
L 245.567641 144.334446 
L 246.406025 144.332169 
L 246.741378 144.102381 
L 247.579761 144.102381 
L 247.747438 143.307503 
L 248.418145 143.307424 
L 248.585821 130.588595 
L 248.753498 143.306551 
L 253.448445 143.291562 
L 253.616121 142.417458 
L 254.789858 142.417252 
L 254.957535 142.217792 
L 256.466625 142.20687 
L 256.634301 138.424989 
L 260.490865 138.410865 
L 260.658541 133.641522 
L 265.018135 133.528199 
L 265.185811 133.099613 
L 267.700961 133.092002 
L 267.868638 132.687771 
L 269.880758 132.685345 
L 270.048435 132.267672 
L 276.252471 132.249348 
L 276.420148 131.823964 
L 276.587825 131.823964 
L 276.755501 131.391591 
L 277.090855 131.28824 
L 277.761561 131.279107 
L 277.929238 130.981022 
L 281.282771 130.94758 
L 281.450448 131.375584 
L 281.785801 131.374334 
L 281.953478 130.549959 
L 282.456508 130.549928 
L 282.624185 128.960172 
L 282.959538 128.958616 
L 283.127215 128.757362 
L 287.654485 128.708467 
L 287.989838 128.629096 
L 288.325191 128.628708 
L 288.492868 127.826843 
L 292.349431 127.738997 
L 292.517108 127.53971 
L 292.852461 127.538643 
L 293.020138 126.340115 
L 294.026198 126.33429 
L 294.193875 125.905695 
L 295.367611 125.86731 
L 295.702965 125.748911 
L 298.888821 125.72314 
L 299.056498 125.285142 
L 300.062558 125.330222 
L 300.230235 123.541128 
L 302.410031 123.466523 
L 302.745385 123.36871 
L 303.583768 123.342317 
L 308.278715 123.302577 
L 308.446391 122.107154 
L 308.614068 121.908432 
L 308.781745 118.728913 
L 309.787805 118.728327 
L 309.955481 102.035053 
L 319.177698 101.934241 
L 319.345375 101.735521 
L 320.686788 101.715296 
L 329.238298 101.667751 
L 329.405975 101.270294 
L 334.771628 101.167726 
L 335.610011 101.142304 
L 336.951425 101.138204 
L 337.119101 98.753381 
L 340.304958 98.678525 
L 340.472635 98.252364 
L 352.713031 98.213567 
L 352.880708 97.418107 
L 354.389798 97.417233 
L 354.557475 97.814673 
L 363.444338 97.718051 
L 363.612015 97.518555 
L 367.468578 97.463326 
L 367.636255 97.212986 
L 373.169585 97.158336 
L 373.337261 98.75138 
L 373.840291 98.750604 
L 374.007968 97.160847 
L 374.175645 97.160823 
L 374.343321 79.474781 
L 374.510998 74.089922 
L 375.517058 74.032441 
L 375.852411 72.422401 
L 376.858471 72.402061 
L 377.026148 72.194027 
L 379.205945 72.178062 
L 379.373621 87.280549 
L 381.050388 87.282247 
L 381.218065 78.935637 
L 381.553418 78.935637 
L 381.721095 84.491247 
L 390.943311 84.426724 
L 391.110988 83.631846 
L 396.308965 83.594101 
L 398.488761 83.590049 
L 398.656438 83.788769 
L 413.747338 83.732503 
L 414.082691 83.645175 
L 415.424105 83.643987 
L 415.591781 83.395248 
L 416.765518 83.393064 
L 416.933195 79.418673 
L 428.502885 79.415738 
L 428.670561 79.037235 
L 430.347328 79.02268 
L 430.515005 79.61554 
L 430.850358 79.609002 
L 431.018035 79.410283 
L 431.353388 79.410283 
L 431.521065 79.211563 
L 433.030155 79.200499 
L 433.197831 78.733876 
L 438.731161 78.718594 
L 438.898838 78.91091 
L 446.947318 78.821744 
L 447.114995 78.026866 
L 448.959438 78.026672 
L 449.127115 76.414404 
L 452.983678 76.358781 
L 453.151355 76.184901 
L 458.684685 76.200008 
L 458.852361 74.783161 
L 459.690745 74.781196 
L 459.858421 60.472611 
L 464.553368 60.461807 
L 464.721045 60.856038 
L 467.739225 60.812538 
L 467.906901 60.017411 
L 468.074578 60.811949 
L 477.464471 60.796382 
L 477.632148 60.995101 
L 478.973561 60.996266 
L 479.141238 60.287933 
L 482.997801 60.22231 
L 483.333155 59.716778 
L 483.668508 59.71639 
L 483.836185 61.108009 
L 485.345275 61.082587 
L 485.680628 60.980704 
L 490.375575 60.920609 
L 490.710928 61.108106 
L 493.896785 61.104225 
L 494.064461 60.955185 
L 494.232138 60.955185 
L 494.399815 61.352624 
L 494.735168 61.352624 
L 494.902845 61.948783 
L 495.908905 61.947692 
L 496.076581 61.550252 
L 498.759408 61.450432 
L 501.274558 61.260251 
L 501.442235 59.668942 
L 501.777588 59.668942 
L 501.945265 57.177812 
L 502.112941 57.177812 
L 502.448295 57.048118 
L 503.622031 57.043379 
L 503.789708 57.340682 
L 505.298798 57.370956 
L 505.466475 56.961097 
L 507.813948 57.054841 
L 507.981625 56.657402 
L 508.987685 56.660249 
L 509.155361 56.460726 
L 513.850308 56.411919 
L 514.017985 50.847771 
L 515.359398 50.848547 
L 515.527075 50.053669 
L 520.054345 50.064521 
L 520.054345 50.064521 
" clip-path="url(#p906e395f3e)" style="fill: none; stroke: #1f77b4; stroke-width: 2; stroke-linecap: square"/>
   </g>
   <g id="patch_3">
    <path d="M 30.103125 299.518125 
L 30.103125 22.318125 
" style="fill: none; stroke: #000000; stroke-width: 0.8; stroke-linejoin: miter; stroke-linecap: square"/>
   </g>
   <g id="patch_4">
    <path d="M 532.303125 299.518125 
L 532.303125 22.318125 
" style="fill: none; stroke: #000000; stroke-width: 0.8; stroke-linejoin: miter; stroke-linecap: square"/>
   </g>
   <g id="patch_5">
    <path d="M 30.103125 299.518125 
L 532.303125 299.518125 
" style="fill: none; stroke: #000000; stroke-width: 0.8; stroke-linejoin: miter; stroke-linecap: square"/>
   </g>
   <g id="patch_6">
    <path d="M 30.103125 22.318125 
L 532.303125 22.318125 
" style="fill: none; stroke: #000000; stroke-width: 0.8; stroke-linejoin: miter; stroke-linecap: square"/>
   </g>
   <g id="patch_7">
    <path d="M 73.197619 204.059874 
Q 79.113309 205.795363 85.028999 207.530853 
" style="fill: none; stroke: #000000; stroke-linecap: round"/>
   </g>
   <g id="text_14">
    <g id="patch_8">
     <path d="M 19.874848 206.711451 
L 68.285164 206.711451 
Q 70.784164 206.711451 70.784164 204.212451 
L 70.784164 186.822795 
Q 70.784164 184.323795 68.285164 184.323795 
L 19.874848 184.323795 
Q 17.375848 184.323795 17.375848 186.822795 
L 17.375848 204.212451 
Q 17.375848 206.711451 19.874848 206.711451 
z
" style="fill: #cccccc; stroke: #000000; stroke-linejoin: miter"/>
    </g>
    <!-- 2017-12-21 -->
    <g transform="translate(19.874848 193.152293) scale(0.0833 -0.0833)">
     <defs>
      <path id="DejaVuSans-37" d="M 525 4666 
L 3525 4666 
L 3525 4397 
L 1831 0 
L 1172 0 
L 2766 4134 
L 525 4134 
L 525 4666 
z
" transform="scale(0.015625)"/>
      <path id="DejaVuSans-2d" d="M 313 2009 
L 1997 2009 
L 1997 1497 
L 313 1497 
L 313 2009 
z
" transform="scale(0.015625)"/>
     </defs>
     <use xlink:href="#DejaVuSans-32"/>
     <use xlink:href="#DejaVuSans-30" x="63.623047"/>
     <use xlink:href="#DejaVuSans-31" x="127.246094"/>
     <use xlink:href="#DejaVuSans-37" x="190.869141"/>
     <use xlink:href="#DejaVuSans-2d" x="254.492188"/>
     <use xlink:href="#DejaVuSans-31" x="290.576172"/>
     <use xlink:href="#DejaVuSans-32" x="354.199219"/>
     <use xlink:href="#DejaVuSans-2d" x="417.822266"/>
     <use xlink:href="#DejaVuSans-32" x="453.90625"/>
     <use xlink:href="#DejaVuSans-31" x="517.529297"/>
    </g>
    <!--  +1.84m  -->
    <g transform="translate(19.874848 202.480071) scale(0.0833 -0.0833)">
     <defs>
      <path id="DejaVuSans-20" transform="scale(0.015625)"/>
      <path id="DejaVuSans-2b" d="M 2944 4013 
L 2944 2272 
L 4684 2272 
L 4684 1741 
L 2944 1741 
L 2944 0 
L 2419 0 
L 2419 1741 
L 678 1741 
L 678 2272 
L 2419 2272 
L 2419 4013 
L 2944 4013 
z
" transform="scale(0.015625)"/>
      <path id="DejaVuSans-6d" d="M 3328 2828 
Q 3544 3216 3844 3400 
Q 4144 3584 4550 3584 
Q 5097 3584 5394 3201 
Q 5691 2819 5691 2113 
L 5691 0 
L 5113 0 
L 5113 2094 
Q 5113 2597 4934 2840 
Q 4756 3084 4391 3084 
Q 3944 3084 3684 2787 
Q 3425 2491 3425 1978 
L 3425 0 
L 2847 0 
L 2847 2094 
Q 2847 2600 2669 2842 
Q 2491 3084 2119 3084 
Q 1678 3084 1418 2786 
Q 1159 2488 1159 1978 
L 1159 0 
L 581 0 
L 581 3500 
L 1159 3500 
L 1159 2956 
Q 1356 3278 1631 3431 
Q 1906 3584 2284 3584 
Q 2666 3584 2933 3390 
Q 3200 3197 3328 2828 
z
" transform="scale(0.015625)"/>
     </defs>
     <use xlink:href="#DejaVuSans-20"/>
     <use xlink:href="#DejaVuSans-2b" x="31.787109"/>
     <use xlink:href="#DejaVuSans-31" x="115.576172"/>
     <use xlink:href="#DejaVuSans-2e" x="179.199219"/>
     <use xlink:href="#DejaVuSans-38" x="210.986328"/>
     <use xlink:href="#DejaVuSans-34" x="274.609375"/>
     <use xlink:href="#DejaVuSans-6d" x="338.232422"/>
     <use xlink:href="#DejaVuSans-20" x="435.644531"/>
    </g>
   </g>
   <g id="patch_9">
    <path d="M 171.791499 155.212259 
Q 177.707189 156.947749 183.622879 158.683238 
" style="fill: none; stroke: #000000; stroke-linecap: round"/>
   </g>
   <g id="text_15">
    <g id="patch_10">
     <path d="M 118.468728 157.863836 
L 166.879044 157.863836 
Q 169.378044 157.863836 169.378044 155.364836 
L 169.378044 137.97518 
Q 169.378044 135.47618 166.879044 135.47618 
L 118.468728 135.47618 
Q 115.969728 135.47618 115.969728 137.97518 
L 115.969728 155.364836 
Q 115.969728 157.863836 118.468728 157.863836 
z
" style="fill: #cccccc; stroke: #000000; stroke-linejoin: miter"/>
    </g>
    <!-- 2019-08-01 -->
    <g transform="translate(118.468728 144.304679) scale(0.0833 -0.0833)">
     <use xlink:href="#DejaVuSans-32"/>
     <use xlink:href="#DejaVuSans-30" x="63.623047"/>
     <use xlink:href="#DejaVuSans-31" x="127.246094"/>
     <use xlink:href="#DejaVuSans-39" x="190.869141"/>
     <use xlink:href="#DejaVuSans-2d" x="254.492188"/>
     <use xlink:href="#DejaVuSans-30" x="290.576172"/>
     <use xlink:href="#DejaVuSans-38" x="354.199219"/>
     <use xlink:href="#DejaVuSans-2d" x="417.822266"/>
     <use xlink:href="#DejaVuSans-30" x="453.90625"/>
     <use xlink:href="#DejaVuSans-31" x="517.529297"/>
    </g>
    <!--  +3.15m  -->
    <g transform="translate(118.468728 153.632457) scale(0.0833 -0.0833)">
     <use xlink:href="#DejaVuSans-20"/>
     <use xlink:href="#DejaVuSans-2b" x="31.787109"/>
     <use xlink:href="#DejaVuSans-33" x="115.576172"/>
     <use xlink:href="#DejaVuSans-2e" x="179.199219"/>
     <use xlink:href="#DejaVuSans-31" x="210.986328"/>
     <use xlink:href="#DejaVuSans-35" x="274.609375"/>
     <use xlink:href="#DejaVuSans-6d" x="338.232422"/>
     <use xlink:href="#DejaVuSans-20" x="435.644531"/>
    </g>
   </g>
   <g id="patch_11">
    <path d="M 234.837925 126.555367 
Q 240.753615 128.290856 246.669306 130.026346 
" style="fill: none; stroke: #000000; stroke-linecap: round"/>
   </g>
   <g id="text_16">
    <g id="patch_12">
     <path d="M 181.515155 129.206944 
L 229.92547 129.206944 
Q 232.42447 129.206944 232.42447 126.707944 
L 232.42447 109.318288 
Q 232.42447 106.819288 229.92547 106.819288 
L 181.515155 106.819288 
Q 179.016155 106.819288 179.016155 109.318288 
L 179.016155 126.707944 
Q 179.016155 129.206944 181.515155 129.206944 
z
" style="fill: #cccccc; stroke: #000000; stroke-linejoin: miter"/>
    </g>
    <!-- 2020-08-11 -->
    <g transform="translate(181.515155 115.647786) scale(0.0833 -0.0833)">
     <use xlink:href="#DejaVuSans-32"/>
     <use xlink:href="#DejaVuSans-30" x="63.623047"/>
     <use xlink:href="#DejaVuSans-32" x="127.246094"/>
     <use xlink:href="#DejaVuSans-30" x="190.869141"/>
     <use xlink:href="#DejaVuSans-2d" x="254.492188"/>
     <use xlink:href="#DejaVuSans-30" x="290.576172"/>
     <use xlink:href="#DejaVuSans-38" x="354.199219"/>
     <use xlink:href="#DejaVuSans-2d" x="417.822266"/>
     <use xlink:href="#DejaVuSans-31" x="453.90625"/>
     <use xlink:href="#DejaVuSans-31" x="517.529297"/>
    </g>
    <!--  +4.19m  -->
    <g transform="translate(181.515155 124.975564) scale(0.0833 -0.0833)">
     <use xlink:href="#DejaVuSans-20"/>
     <use xlink:href="#DejaVuSans-2b" x="31.787109"/>
     <use xlink:href="#DejaVuSans-34" x="115.576172"/>
     <use xlink:href="#DejaVuSans-2e" x="179.199219"/>
     <use xlink:href="#DejaVuSans-31" x="210.986328"/>
     <use xlink:href="#DejaVuSans-39" x="274.609375"/>
     <use xlink:href="#DejaVuSans-6d" x="338.232422"/>
     <use xlink:href="#DejaVuSans-20" x="435.644531"/>
    </g>
   </g>
   <g id="patch_13">
    <path d="M 265.533085 157.062087 
Q 257.916521 150.818195 250.299957 144.574303 
" style="fill: none; stroke: #000000; stroke-linecap: round"/>
   </g>
   <g id="text_17">
    <g id="patch_14">
     <path d="M 257.137331 181.216116 
L 305.547647 181.216116 
Q 308.046647 181.216116 308.046647 178.717116 
L 308.046647 161.32746 
Q 308.046647 158.82846 305.547647 158.82846 
L 257.137331 158.82846 
Q 254.638331 158.82846 254.638331 161.32746 
L 254.638331 178.717116 
Q 254.638331 181.216116 257.137331 181.216116 
z
" style="fill: #cccccc; stroke: #000000; stroke-linejoin: miter"/>
    </g>
    <!-- 2020-08-12 -->
    <g transform="translate(257.137331 167.656959) scale(0.0833 -0.0833)">
     <use xlink:href="#DejaVuSans-32"/>
     <use xlink:href="#DejaVuSans-30" x="63.623047"/>
     <use xlink:href="#DejaVuSans-32" x="127.246094"/>
     <use xlink:href="#DejaVuSans-30" x="190.869141"/>
     <use xlink:href="#DejaVuSans-2d" x="254.492188"/>
     <use xlink:href="#DejaVuSans-30" x="290.576172"/>
     <use xlink:href="#DejaVuSans-38" x="354.199219"/>
     <use xlink:href="#DejaVuSans-2d" x="417.822266"/>
     <use xlink:href="#DejaVuSans-31" x="453.90625"/>
     <use xlink:href="#DejaVuSans-32" x="517.529297"/>
    </g>
    <!--  -4.19m  -->
    <g transform="translate(257.137331 176.984737) scale(0.0833 -0.0833)">
     <use xlink:href="#DejaVuSans-20"/>
     <use xlink:href="#DejaVuSans-2d" x="31.787109"/>
     <use xlink:href="#DejaVuSans-34" x="67.871094"/>
     <use xlink:href="#DejaVuSans-2e" x="131.494141"/>
     <use xlink:href="#DejaVuSans-31" x="163.28125"/>
     <use xlink:href="#DejaVuSans-39" x="226.904297"/>
     <use xlink:href="#DejaVuSans-6d" x="290.527344"/>
     <use xlink:href="#DejaVuSans-20" x="387.939453"/>
    </g>
   </g>
   <g id="patch_15">
    <path d="M 296.207585 98.001824 
Q 302.123275 99.737314 308.038966 101.472803 
" style="fill: none; stroke: #000000; stroke-linecap: round"/>
   </g>
   <g id="text_18">
    <g id="patch_16">
     <path d="M 242.884815 100.653401 
L 291.29513 100.653401 
Q 293.79413 100.653401 293.79413 98.154401 
L 293.79413 80.764746 
Q 293.79413 78.265746 291.29513 78.265746 
L 242.884815 78.265746 
Q 240.385815 78.265746 240.385815 80.764746 
L 240.385815 98.154401 
Q 240.385815 100.653401 242.884815 100.653401 
z
" style="fill: #cccccc; stroke: #000000; stroke-linejoin: miter"/>
    </g>
    <!-- 2021-08-12 -->
    <g transform="translate(242.884815 87.094244) scale(0.0833 -0.0833)">
     <use xlink:href="#DejaVuSans-32"/>
     <use xlink:href="#DejaVuSans-30" x="63.623047"/>
     <use xlink:href="#DejaVuSans-32" x="127.246094"/>
     <use xlink:href="#DejaVuSans-31" x="190.869141"/>
     <use xlink:href="#DejaVuSans-2d" x="254.492188"/>
     <use xlink:href="#DejaVuSans-30" x="290.576172"/>
     <use xlink:href="#DejaVuSans-38" x="354.199219"/>
     <use xlink:href="#DejaVuSans-2d" x="417.822266"/>
     <use xlink:href="#DejaVuSans-31" x="453.90625"/>
     <use xlink:href="#DejaVuSans-32" x="517.529297"/>
    </g>
    <!--  +5.51m  -->
    <g transform="translate(242.884815 96.422022) scale(0.0833 -0.0833)">
     <use xlink:href="#DejaVuSans-20"/>
     <use xlink:href="#DejaVuSans-2b" x="31.787109"/>
     <use xlink:href="#DejaVuSans-35" x="115.576172"/>
     <use xlink:href="#DejaVuSans-2e" x="179.199219"/>
     <use xlink:href="#DejaVuSans-35" x="210.986328"/>
     <use xlink:href="#DejaVuSans-31" x="274.609375"/>
     <use xlink:href="#DejaVuSans-6d" x="338.232422"/>
     <use xlink:href="#DejaVuSans-20" x="435.644531"/>
    </g>
   </g>
   <g id="patch_17">
    <path d="M 360.763102 70.056694 
Q 366.678792 71.792183 372.594482 73.527673 
" style="fill: none; stroke: #000000; stroke-linecap: round"/>
   </g>
   <g id="text_19">
    <g id="patch_18">
     <path d="M 307.440331 72.708271 
L 355.850647 72.708271 
Q 358.349647 72.708271 358.349647 70.209271 
L 358.349647 52.819615 
Q 358.349647 50.320615 355.850647 50.320615 
L 307.440331 50.320615 
Q 304.941331 50.320615 304.941331 52.819615 
L 304.941331 70.209271 
Q 304.941331 72.708271 307.440331 72.708271 
z
" style="fill: #cccccc; stroke: #000000; stroke-linejoin: miter"/>
    </g>
    <!-- 2022-09-01 -->
    <g transform="translate(307.440331 59.149114) scale(0.0833 -0.0833)">
     <use xlink:href="#DejaVuSans-32"/>
     <use xlink:href="#DejaVuSans-30" x="63.623047"/>
     <use xlink:href="#DejaVuSans-32" x="127.246094"/>
     <use xlink:href="#DejaVuSans-32" x="190.869141"/>
     <use xlink:href="#DejaVuSans-2d" x="254.492188"/>
     <use xlink:href="#DejaVuSans-30" x="290.576172"/>
     <use xlink:href="#DejaVuSans-39" x="354.199219"/>
     <use xlink:href="#DejaVuSans-2d" x="417.822266"/>
     <use xlink:href="#DejaVuSans-30" x="453.90625"/>
     <use xlink:href="#DejaVuSans-31" x="517.529297"/>
    </g>
    <!--  +7.61m  -->
    <g transform="translate(307.440331 68.476891) scale(0.0833 -0.0833)">
     <defs>
      <path id="DejaVuSans-36" d="M 2113 2584 
Q 1688 2584 1439 2293 
Q 1191 2003 1191 1497 
Q 1191 994 1439 701 
Q 1688 409 2113 409 
Q 2538 409 2786 701 
Q 3034 994 3034 1497 
Q 3034 2003 2786 2293 
Q 2538 2584 2113 2584 
z
M 3366 4563 
L 3366 3988 
Q 3128 4100 2886 4159 
Q 2644 4219 2406 4219 
Q 1781 4219 1451 3797 
Q 1122 3375 1075 2522 
Q 1259 2794 1537 2939 
Q 1816 3084 2150 3084 
Q 2853 3084 3261 2657 
Q 3669 2231 3669 1497 
Q 3669 778 3244 343 
Q 2819 -91 2113 -91 
Q 1303 -91 875 529 
Q 447 1150 447 2328 
Q 447 3434 972 4092 
Q 1497 4750 2381 4750 
Q 2619 4750 2861 4703 
Q 3103 4656 3366 4563 
z
" transform="scale(0.015625)"/>
     </defs>
     <use xlink:href="#DejaVuSans-20"/>
     <use xlink:href="#DejaVuSans-2b" x="31.787109"/>
     <use xlink:href="#DejaVuSans-37" x="115.576172"/>
     <use xlink:href="#DejaVuSans-2e" x="179.199219"/>
     <use xlink:href="#DejaVuSans-36" x="210.986328"/>
     <use xlink:href="#DejaVuSans-31" x="274.609375"/>
     <use xlink:href="#DejaVuSans-6d" x="338.232422"/>
     <use xlink:href="#DejaVuSans-20" x="435.644531"/>
    </g>
   </g>
   <g id="patch_19">
    <path d="M 396.153208 101.036086 
Q 388.536644 94.792194 380.92008 88.548302 
" style="fill: none; stroke: #000000; stroke-linecap: round"/>
   </g>
   <g id="text_20">
    <g id="patch_20">
     <path d="M 387.757455 125.190115 
L 436.16777 125.190115 
Q 438.66677 125.190115 438.66677 122.691115 
L 438.66677 105.301459 
Q 438.66677 102.802459 436.16777 102.802459 
L 387.757455 102.802459 
Q 385.258455 102.802459 385.258455 105.301459 
L 385.258455 122.691115 
Q 385.258455 125.190115 387.757455 125.190115 
z
" style="fill: #cccccc; stroke: #000000; stroke-linejoin: miter"/>
    </g>
    <!-- 2022-09-30 -->
    <g transform="translate(387.757455 111.630958) scale(0.0833 -0.0833)">
     <use xlink:href="#DejaVuSans-32"/>
     <use xlink:href="#DejaVuSans-30" x="63.623047"/>
     <use xlink:href="#DejaVuSans-32" x="127.246094"/>
     <use xlink:href="#DejaVuSans-32" x="190.869141"/>
     <use xlink:href="#DejaVuSans-2d" x="254.492188"/>
     <use xlink:href="#DejaVuSans-30" x="290.576172"/>
     <use xlink:href="#DejaVuSans-39" x="354.199219"/>
     <use xlink:href="#DejaVuSans-2d" x="417.822266"/>
     <use xlink:href="#DejaVuSans-33" x="453.90625"/>
     <use xlink:href="#DejaVuSans-30" x="517.529297"/>
    </g>
    <!--  -4.98m  -->
    <g transform="translate(387.757455 120.958735) scale(0.0833 -0.0833)">
     <use xlink:href="#DejaVuSans-20"/>
     <use xlink:href="#DejaVuSans-2d" x="31.787109"/>
     <use xlink:href="#DejaVuSans-34" x="67.871094"/>
     <use xlink:href="#DejaVuSans-2e" x="131.494141"/>
     <use xlink:href="#DejaVuSans-39" x="163.28125"/>
     <use xlink:href="#DejaVuSans-38" x="226.904297"/>
     <use xlink:href="#DejaVuSans-6d" x="290.527344"/>
     <use xlink:href="#DejaVuSans-20" x="387.939453"/>
    </g>
   </g>
   <g id="patch_21">
    <path d="M 446.110525 56.439382 
Q 452.026215 58.174872 457.941905 59.910361 
" style="fill: none; stroke: #000000; stroke-linecap: round"/>
   </g>
   <g id="text_21">
    <g id="patch_22">
     <path d="M 392.787755 59.090959 
L 441.19807 59.090959 
Q 443.69707 59.090959 443.69707 56.591959 
L 443.69707 39.202303 
Q 443.69707 36.703303 441.19807 36.703303 
L 392.787755 36.703303 
Q 390.288755 36.703303 390.288755 39.202303 
L 390.288755 56.591959 
Q 390.288755 59.090959 392.787755 59.090959 
z
" style="fill: #cccccc; stroke: #000000; stroke-linejoin: miter"/>
    </g>
    <!-- 2024-01-23 -->
    <g transform="translate(392.787755 45.531802) scale(0.0833 -0.0833)">
     <use xlink:href="#DejaVuSans-32"/>
     <use xlink:href="#DejaVuSans-30" x="63.623047"/>
     <use xlink:href="#DejaVuSans-32" x="127.246094"/>
     <use xlink:href="#DejaVuSans-34" x="190.869141"/>
     <use xlink:href="#DejaVuSans-2d" x="254.492188"/>
     <use xlink:href="#DejaVuSans-30" x="290.576172"/>
     <use xlink:href="#DejaVuSans-31" x="354.199219"/>
     <use xlink:href="#DejaVuSans-2d" x="417.822266"/>
     <use xlink:href="#DejaVuSans-32" x="453.90625"/>
     <use xlink:href="#DejaVuSans-33" x="517.529297"/>
    </g>
    <!--  +4.72m  -->
    <g transform="translate(392.787755 54.859579) scale(0.0833 -0.0833)">
     <use xlink:href="#DejaVuSans-20"/>
     <use xlink:href="#DejaVuSans-2b" x="31.787109"/>
     <use xlink:href="#DejaVuSans-34" x="115.576172"/>
     <use xlink:href="#DejaVuSans-2e" x="179.199219"/>
     <use xlink:href="#DejaVuSans-37" x="210.986328"/>
     <use xlink:href="#DejaVuSans-32" x="274.609375"/>
     <use xlink:href="#DejaVuSans-6d" x="338.232422"/>
     <use xlink:href="#DejaVuSans-20" x="435.644531"/>
    </g>
   </g>
   <g id="patch_23">
    <path d="M 500.270088 46.814543 
Q 506.185778 48.550032 512.101469 50.285522 
" style="fill: none; stroke: #000000; stroke-linecap: round"/>
   </g>
   <g id="text_22">
    <g id="patch_24">
     <path d="M 446.947318 49.46612 
L 495.357634 49.46612 
Q 497.856634 49.46612 497.856634 46.96712 
L 497.856634 29.577464 
Q 497.856634 27.078464 495.357634 27.078464 
L 446.947318 27.078464 
Q 444.448318 27.078464 444.448318 29.577464 
L 444.448318 46.96712 
Q 444.448318 49.46612 446.947318 49.46612 
z
" style="fill: #cccccc; stroke: #000000; stroke-linejoin: miter"/>
    </g>
    <!-- 2024-12-11 -->
    <g transform="translate(446.947318 35.906962) scale(0.0833 -0.0833)">
     <use xlink:href="#DejaVuSans-32"/>
     <use xlink:href="#DejaVuSans-30" x="63.623047"/>
     <use xlink:href="#DejaVuSans-32" x="127.246094"/>
     <use xlink:href="#DejaVuSans-34" x="190.869141"/>
     <use xlink:href="#DejaVuSans-2d" x="254.492188"/>
     <use xlink:href="#DejaVuSans-31" x="290.576172"/>
     <use xlink:href="#DejaVuSans-32" x="354.199219"/>
     <use xlink:href="#DejaVuSans-2d" x="417.822266"/>
     <use xlink:href="#DejaVuSans-31" x="453.90625"/>
     <use xlink:href="#DejaVuSans-31" x="517.529297"/>
    </g>
    <!--  +1.84m  -->
    <g transform="translate(446.947318 45.23474) scale(0.0833 -0.0833)">
     <use xlink:href="#DejaVuSans-20"/>
     <use xlink:href="#DejaVuSans-2b" x="31.787109"/>
     <use xlink:href="#DejaVuSans-31" x="115.576172"/>
     <use xlink:href="#DejaVuSans-2e" x="179.199219"/>
     <use xlink:href="#DejaVuSans-38" x="210.986328"/>
     <use xlink:href="#DejaVuSans-34" x="274.609375"/>
     <use xlink:href="#DejaVuSans-6d" x="338.232422"/>
     <use xlink:href="#DejaVuSans-20" x="435.644531"/>
    </g>
   </g>
   <g id="text_23">
    <!-- History of percentage of AWS ownership of IPv4 space -->
    <g transform="translate(118.277813 16.318125) scale(0.12 -0.12)">
     <defs>
      <path id="DejaVuSans-48" d="M 628 4666 
L 1259 4666 
L 1259 2753 
L 3553 2753 
L 3553 4666 
L 4184 4666 
L 4184 0 
L 3553 0 
L 3553 2222 
L 1259 2222 
L 1259 0 
L 628 0 
L 628 4666 
z
" transform="scale(0.015625)"/>
      <path id="DejaVuSans-69" d="M 603 3500 
L 1178 3500 
L 1178 0 
L 603 0 
L 603 3500 
z
M 603 4863 
L 1178 4863 
L 1178 4134 
L 603 4134 
L 603 4863 
z
" transform="scale(0.015625)"/>
      <path id="DejaVuSans-73" d="M 2834 3397 
L 2834 2853 
Q 2591 2978 2328 3040 
Q 2066 3103 1784 3103 
Q 1356 3103 1142 2972 
Q 928 2841 928 2578 
Q 928 2378 1081 2264 
Q 1234 2150 1697 2047 
L 1894 2003 
Q 2506 1872 2764 1633 
Q 3022 1394 3022 966 
Q 3022 478 2636 193 
Q 2250 -91 1575 -91 
Q 1294 -91 989 -36 
Q 684 19 347 128 
L 347 722 
Q 666 556 975 473 
Q 1284 391 1588 391 
Q 1994 391 2212 530 
Q 2431 669 2431 922 
Q 2431 1156 2273 1281 
Q 2116 1406 1581 1522 
L 1381 1569 
Q 847 1681 609 1914 
Q 372 2147 372 2553 
Q 372 3047 722 3315 
Q 1072 3584 1716 3584 
Q 2034 3584 2315 3537 
Q 2597 3491 2834 3397 
z
" transform="scale(0.015625)"/>
      <path id="DejaVuSans-74" d="M 1172 4494 
L 1172 3500 
L 2356 3500 
L 2356 3053 
L 1172 3053 
L 1172 1153 
Q 1172 725 1289 603 
Q 1406 481 1766 481 
L 2356 481 
L 2356 0 
L 1766 0 
Q 1100 0 847 248 
Q 594 497 594 1153 
L 594 3053 
L 172 3053 
L 172 3500 
L 594 3500 
L 594 4494 
L 1172 4494 
z
" transform="scale(0.015625)"/>
      <path id="DejaVuSans-6f" d="M 1959 3097 
Q 1497 3097 1228 2736 
Q 959 2375 959 1747 
Q 959 1119 1226 758 
Q 1494 397 1959 397 
Q 2419 397 2687 759 
Q 2956 1122 2956 1747 
Q 2956 2369 2687 2733 
Q 2419 3097 1959 3097 
z
M 1959 3584 
Q 2709 3584 3137 3096 
Q 3566 2609 3566 1747 
Q 3566 888 3137 398 
Q 2709 -91 1959 -91 
Q 1206 -91 779 398 
Q 353 888 353 1747 
Q 353 2609 779 3096 
Q 1206 3584 1959 3584 
z
" transform="scale(0.015625)"/>
      <path id="DejaVuSans-72" d="M 2631 2963 
Q 2534 3019 2420 3045 
Q 2306 3072 2169 3072 
Q 1681 3072 1420 2755 
Q 1159 2438 1159 1844 
L 1159 0 
L 581 0 
L 581 3500 
L 1159 3500 
L 1159 2956 
Q 1341 3275 1631 3429 
Q 1922 3584 2338 3584 
Q 2397 3584 2469 3576 
Q 2541 3569 2628 3553 
L 2631 2963 
z
" transform="scale(0.015625)"/>
      <path id="DejaVuSans-79" d="M 2059 -325 
Q 1816 -950 1584 -1140 
Q 1353 -1331 966 -1331 
L 506 -1331 
L 506 -850 
L 844 -850 
Q 1081 -850 1212 -737 
Q 1344 -625 1503 -206 
L 1606 56 
L 191 3500 
L 800 3500 
L 1894 763 
L 2988 3500 
L 3597 3500 
L 2059 -325 
z
" transform="scale(0.015625)"/>
      <path id="DejaVuSans-66" d="M 2375 4863 
L 2375 4384 
L 1825 4384 
Q 1516 4384 1395 4259 
Q 1275 4134 1275 3809 
L 1275 3500 
L 2222 3500 
L 2222 3053 
L 1275 3053 
L 1275 0 
L 697 0 
L 697 3053 
L 147 3053 
L 147 3500 
L 697 3500 
L 697 3744 
Q 697 4328 969 4595 
Q 1241 4863 1831 4863 
L 2375 4863 
z
" transform="scale(0.015625)"/>
      <path id="DejaVuSans-70" d="M 1159 525 
L 1159 -1331 
L 581 -1331 
L 581 3500 
L 1159 3500 
L 1159 2969 
Q 1341 3281 1617 3432 
Q 1894 3584 2278 3584 
Q 2916 3584 3314 3078 
Q 3713 2572 3713 1747 
Q 3713 922 3314 415 
Q 2916 -91 2278 -91 
Q 1894 -91 1617 61 
Q 1341 213 1159 525 
z
M 3116 1747 
Q 3116 2381 2855 2742 
Q 2594 3103 2138 3103 
Q 1681 3103 1420 2742 
Q 1159 2381 1159 1747 
Q 1159 1113 1420 752 
Q 1681 391 2138 391 
Q 2594 391 2855 752 
Q 3116 1113 3116 1747 
z
" transform="scale(0.015625)"/>
      <path id="DejaVuSans-65" d="M 3597 1894 
L 3597 1613 
L 953 1613 
Q 991 1019 1311 708 
Q 1631 397 2203 397 
Q 2534 397 2845 478 
Q 3156 559 3463 722 
L 3463 178 
Q 3153 47 2828 -22 
Q 2503 -91 2169 -91 
Q 1331 -91 842 396 
Q 353 884 353 1716 
Q 353 2575 817 3079 
Q 1281 3584 2069 3584 
Q 2775 3584 3186 3129 
Q 3597 2675 3597 1894 
z
M 3022 2063 
Q 3016 2534 2758 2815 
Q 2500 3097 2075 3097 
Q 1594 3097 1305 2825 
Q 1016 2553 972 2059 
L 3022 2063 
z
" transform="scale(0.015625)"/>
      <path id="DejaVuSans-63" d="M 3122 3366 
L 3122 2828 
Q 2878 2963 2633 3030 
Q 2388 3097 2138 3097 
Q 1578 3097 1268 2742 
Q 959 2388 959 1747 
Q 959 1106 1268 751 
Q 1578 397 2138 397 
Q 2388 397 2633 464 
Q 2878 531 3122 666 
L 3122 134 
Q 2881 22 2623 -34 
Q 2366 -91 2075 -91 
Q 1284 -91 818 406 
Q 353 903 353 1747 
Q 353 2603 823 3093 
Q 1294 3584 2113 3584 
Q 2378 3584 2631 3529 
Q 2884 3475 3122 3366 
z
" transform="scale(0.015625)"/>
      <path id="DejaVuSans-6e" d="M 3513 2113 
L 3513 0 
L 2938 0 
L 2938 2094 
Q 2938 2591 2744 2837 
Q 2550 3084 2163 3084 
Q 1697 3084 1428 2787 
Q 1159 2491 1159 1978 
L 1159 0 
L 581 0 
L 581 3500 
L 1159 3500 
L 1159 2956 
Q 1366 3272 1645 3428 
Q 1925 3584 2291 3584 
Q 2894 3584 3203 3211 
Q 3513 2838 3513 2113 
z
" transform="scale(0.015625)"/>
      <path id="DejaVuSans-61" d="M 2194 1759 
Q 1497 1759 1228 1600 
Q 959 1441 959 1056 
Q 959 750 1161 570 
Q 1363 391 1709 391 
Q 2188 391 2477 730 
Q 2766 1069 2766 1631 
L 2766 1759 
L 2194 1759 
z
M 3341 1997 
L 3341 0 
L 2766 0 
L 2766 531 
Q 2569 213 2275 61 
Q 1981 -91 1556 -91 
Q 1019 -91 701 211 
Q 384 513 384 1019 
Q 384 1609 779 1909 
Q 1175 2209 1959 2209 
L 2766 2209 
L 2766 2266 
Q 2766 2663 2505 2880 
Q 2244 3097 1772 3097 
Q 1472 3097 1187 3025 
Q 903 2953 641 2809 
L 641 3341 
Q 956 3463 1253 3523 
Q 1550 3584 1831 3584 
Q 2591 3584 2966 3190 
Q 3341 2797 3341 1997 
z
" transform="scale(0.015625)"/>
      <path id="DejaVuSans-67" d="M 2906 1791 
Q 2906 2416 2648 2759 
Q 2391 3103 1925 3103 
Q 1463 3103 1205 2759 
Q 947 2416 947 1791 
Q 947 1169 1205 825 
Q 1463 481 1925 481 
Q 2391 481 2648 825 
Q 2906 1169 2906 1791 
z
M 3481 434 
Q 3481 -459 3084 -895 
Q 2688 -1331 1869 -1331 
Q 1566 -1331 1297 -1286 
Q 1028 -1241 775 -1147 
L 775 -588 
Q 1028 -725 1275 -790 
Q 1522 -856 1778 -856 
Q 2344 -856 2625 -561 
Q 2906 -266 2906 331 
L 2906 616 
Q 2728 306 2450 153 
Q 2172 0 1784 0 
Q 1141 0 747 490 
Q 353 981 353 1791 
Q 353 2603 747 3093 
Q 1141 3584 1784 3584 
Q 2172 3584 2450 3431 
Q 2728 3278 2906 2969 
L 2906 3500 
L 3481 3500 
L 3481 434 
z
" transform="scale(0.015625)"/>
      <path id="DejaVuSans-41" d="M 2188 4044 
L 1331 1722 
L 3047 1722 
L 2188 4044 
z
M 1831 4666 
L 2547 4666 
L 4325 0 
L 3669 0 
L 3244 1197 
L 1141 1197 
L 716 0 
L 50 0 
L 1831 4666 
z
" transform="scale(0.015625)"/>
      <path id="DejaVuSans-57" d="M 213 4666 
L 850 4666 
L 1831 722 
L 2809 4666 
L 3519 4666 
L 4500 722 
L 5478 4666 
L 6119 4666 
L 4947 0 
L 4153 0 
L 3169 4050 
L 2175 0 
L 1381 0 
L 213 4666 
z
" transform="scale(0.015625)"/>
      <path id="DejaVuSans-53" d="M 3425 4513 
L 3425 3897 
Q 3066 4069 2747 4153 
Q 2428 4238 2131 4238 
Q 1616 4238 1336 4038 
Q 1056 3838 1056 3469 
Q 1056 3159 1242 3001 
Q 1428 2844 1947 2747 
L 2328 2669 
Q 3034 2534 3370 2195 
Q 3706 1856 3706 1288 
Q 3706 609 3251 259 
Q 2797 -91 1919 -91 
Q 1588 -91 1214 -16 
Q 841 59 441 206 
L 441 856 
Q 825 641 1194 531 
Q 1563 422 1919 422 
Q 2459 422 2753 634 
Q 3047 847 3047 1241 
Q 3047 1584 2836 1778 
Q 2625 1972 2144 2069 
L 1759 2144 
Q 1053 2284 737 2584 
Q 422 2884 422 3419 
Q 422 4038 858 4394 
Q 1294 4750 2059 4750 
Q 2388 4750 2728 4690 
Q 3069 4631 3425 4513 
z
" transform="scale(0.015625)"/>
      <path id="DejaVuSans-77" d="M 269 3500 
L 844 3500 
L 1563 769 
L 2278 3500 
L 2956 3500 
L 3675 769 
L 4391 3500 
L 4966 3500 
L 4050 0 
L 3372 0 
L 2619 2869 
L 1863 0 
L 1184 0 
L 269 3500 
z
" transform="scale(0.015625)"/>
      <path id="DejaVuSans-68" d="M 3513 2113 
L 3513 0 
L 2938 0 
L 2938 2094 
Q 2938 2591 2744 2837 
Q 2550 3084 2163 3084 
Q 1697 3084 1428 2787 
Q 1159 2491 1159 1978 
L 1159 0 
L 581 0 
L 581 4863 
L 1159 4863 
L 1159 2956 
Q 1366 3272 1645 3428 
Q 1925 3584 2291 3584 
Q 2894 3584 3203 3211 
Q 3513 2838 3513 2113 
z
" transform="scale(0.015625)"/>
      <path id="DejaVuSans-49" d="M 628 4666 
L 1259 4666 
L 1259 0 
L 628 0 
L 628 4666 
z
" transform="scale(0.015625)"/>
      <path id="DejaVuSans-50" d="M 1259 4147 
L 1259 2394 
L 2053 2394 
Q 2494 2394 2734 2622 
Q 2975 2850 2975 3272 
Q 2975 3691 2734 3919 
Q 2494 4147 2053 4147 
L 1259 4147 
z
M 628 4666 
L 2053 4666 
Q 2838 4666 3239 4311 
Q 3641 3956 3641 3272 
Q 3641 2581 3239 2228 
Q 2838 1875 2053 1875 
L 1259 1875 
L 1259 0 
L 628 0 
L 628 4666 
z
" transform="scale(0.015625)"/>
      <path id="DejaVuSans-76" d="M 191 3500 
L 800 3500 
L 1894 563 
L 2988 3500 
L 3597 3500 
L 2284 0 
L 1503 0 
L 191 3500 
z
" transform="scale(0.015625)"/>
     </defs>
     <use xlink:href="#DejaVuSans-48"/>
     <use xlink:href="#DejaVuSans-69" x="75.195312"/>
     <use xlink:href="#DejaVuSans-73" x="102.978516"/>
     <use xlink:href="#DejaVuSans-74" x="155.078125"/>
     <use xlink:href="#DejaVuSans-6f" x="194.287109"/>
     <use xlink:href="#DejaVuSans-72" x="255.46875"/>
     <use xlink:href="#DejaVuSans-79" x="296.582031"/>
     <use xlink:href="#DejaVuSans-20" x="355.761719"/>
     <use xlink:href="#DejaVuSans-6f" x="387.548828"/>
     <use xlink:href="#DejaVuSans-66" x="448.730469"/>
     <use xlink:href="#DejaVuSans-20" x="483.935547"/>
     <use xlink:href="#DejaVuSans-70" x="515.722656"/>
     <use xlink:href="#DejaVuSans-65" x="579.199219"/>
     <use xlink:href="#DejaVuSans-72" x="640.722656"/>
     <use xlink:href="#DejaVuSans-63" x="679.585938"/>
     <use xlink:href="#DejaVuSans-65" x="734.566406"/>
     <use xlink:href="#DejaVuSans-6e" x="796.089844"/>
     <use xlink:href="#DejaVuSans-74" x="859.46875"/>
     <use xlink:href="#DejaVuSans-61" x="898.677734"/>
     <use xlink:href="#DejaVuSans-67" x="959.957031"/>
     <use xlink:href="#DejaVuSans-65" x="1023.433594"/>
     <use xlink:href="#DejaVuSans-20" x="1084.957031"/>
     <use xlink:href="#DejaVuSans-6f" x="1116.744141"/>
     <use xlink:href="#DejaVuSans-66" x="1177.925781"/>
     <use xlink:href="#DejaVuSans-20" x="1213.130859"/>
     <use xlink:href="#DejaVuSans-41" x="1244.917969"/>
     <use xlink:href="#DejaVuSans-57" x="1307.826172"/>
     <use xlink:href="#DejaVuSans-53" x="1406.703125"/>
     <use xlink:href="#DejaVuSans-20" x="1470.179688"/>
     <use xlink:href="#DejaVuSans-6f" x="1501.966797"/>
     <use xlink:href="#DejaVuSans-77" x="1563.148438"/>
     <use xlink:href="#DejaVuSans-6e" x="1644.935547"/>
     <use xlink:href="#DejaVuSans-65" x="1708.314453"/>
     <use xlink:href="#DejaVuSans-72" x="1769.837891"/>
     <use xlink:href="#DejaVuSans-73" x="1810.951172"/>
     <use xlink:href="#DejaVuSans-68" x="1863.050781"/>
     <use xlink:href="#DejaVuSans-69" x="1926.429688"/>
     <use xlink:href="#DejaVuSans-70" x="1954.212891"/>
     <use xlink:href="#DejaVuSans-20" x="2017.689453"/>
     <use xlink:href="#DejaVuSans-6f" x="2049.476562"/>
     <use xlink:href="#DejaVuSans-66" x="2110.658203"/>
     <use xlink:href="#DejaVuSans-20" x="2145.863281"/>
     <use xlink:href="#DejaVuSans-49" x="2177.650391"/>
     <use xlink:href="#DejaVuSans-50" x="2207.142578"/>
     <use xlink:href="#DejaVuSans-76" x="2267.445312"/>
     <use xlink:href="#DejaVuSans-34" x="2326.625"/>
     <use xlink:href="#DejaVuSans-20" x="2390.248047"/>
     <use xlink:href="#DejaVuSans-73" x="2422.035156"/>
     <use xlink:href="#DejaVuSans-70" x="2474.134766"/>
     <use xlink:href="#DejaVuSans-61" x="2537.611328"/>
     <use xlink:href="#DejaVuSans-63" x="2598.890625"/>
     <use xlink:href="#DejaVuSans-65" x="2653.871094"/>
    </g>
   </g>
  </g>
 </g>
 <defs>
  <clipPath id="p906e395f3e">
   <rect x="30.103125" y="22.318125" width="502.2" height="277.2"/>
  </clipPath>
 </defs>
</svg>
