<?xml version="1.0" encoding="utf-8" standalone="no"?>
<!DOCTYPE svg PUBLIC "-//W3C//DTD SVG 1.1//EN"
  "http://www.w3.org/Graphics/SVG/1.1/DTD/svg11.dtd">
<svg xmlns:xlink="http://www.w3.org/1999/xlink" width="557.864934pt" height="323.39625pt" viewBox="0 0 557.864934 323.39625" xmlns="http://www.w3.org/2000/svg" version="1.1">
 
 <defs>
  <style type="text/css">*{stroke-linejoin: round; stroke-linecap: butt}</style>
 </defs>
 <g id="figure_1">
  <g id="patch_1">
   <path d="M 0 323.39625 
L 557.864934 323.39625 
L 557.864934 0 
L 0 0 
z
" style="fill: #b2b2b2"/>
  </g>
  <g id="axes_1">
   <g id="patch_2">
    <path d="M 30.103125 299.518125 
L 532.303125 299.518125 
L 532.303125 22.318125 
L 30.103125 22.318125 
z
" style="fill: #e6e6e6"/>
   </g>
   <g id="matplotlib.axis_1">
    <g id="xtick_1">
     <g id="line2d_1">
      <defs>
       <path id="ma78f911f2e" d="M 0 0 
L 0 3.5 
" style="stroke: #000000; stroke-width: 0.8"/>
      </defs>
      <g>
       <use xlink:href="#ma78f911f2e" x="40.929762" y="299.518125" style="stroke: #000000; stroke-width: 0.8"/>
      </g>
     </g>
     <g id="text_1">
      <!-- 2016 -->
      <g transform="translate(28.204762 314.116563) scale(0.1 -0.1)">
       <defs>
        <path id="DejaVuSans-32" d="M 1228 531 
L 3431 531 
L 3431 0 
L 469 0 
L 469 531 
Q 828 903 1448 1529 
Q 2069 2156 2228 2338 
Q 2531 2678 2651 2914 
Q 2772 3150 2772 3378 
Q 2772 3750 2511 3984 
Q 2250 4219 1831 4219 
Q 1534 4219 1204 4116 
Q 875 4013 500 3803 
L 500 4441 
Q 881 4594 1212 4672 
Q 1544 4750 1819 4750 
Q 2544 4750 2975 4387 
Q 3406 4025 3406 3419 
Q 3406 3131 3298 2873 
Q 3191 2616 2906 2266 
Q 2828 2175 2409 1742 
Q 1991 1309 1228 531 
z
" transform="scale(0.015625)"/>
        <path id="DejaVuSans-30" d="M 2034 4250 
Q 1547 4250 1301 3770 
Q 1056 3291 1056 2328 
Q 1056 1369 1301 889 
Q 1547 409 2034 409 
Q 2525 409 2770 889 
Q 3016 1369 3016 2328 
Q 3016 3291 2770 3770 
Q 2525 4250 2034 4250 
z
M 2034 4750 
Q 2819 4750 3233 4129 
Q 3647 3509 3647 2328 
Q 3647 1150 3233 529 
Q 2819 -91 2034 -91 
Q 1250 -91 836 529 
Q 422 1150 422 2328 
Q 422 3509 836 4129 
Q 1250 4750 2034 4750 
z
" transform="scale(0.015625)"/>
        <path id="DejaVuSans-31" d="M 794 531 
L 1825 531 
L 1825 4091 
L 703 3866 
L 703 4441 
L 1819 4666 
L 2450 4666 
L 2450 531 
L 3481 531 
L 3481 0 
L 794 0 
L 794 531 
z
" transform="scale(0.015625)"/>
        <path id="DejaVuSans-36" d="M 2113 2584 
Q 1688 2584 1439 2293 
Q 1191 2003 1191 1497 
Q 1191 994 1439 701 
Q 1688 409 2113 409 
Q 2538 409 2786 701 
Q 3034 994 3034 1497 
Q 3034 2003 2786 2293 
Q 2538 2584 2113 2584 
z
M 3366 4563 
L 3366 3988 
Q 3128 4100 2886 4159 
Q 2644 4219 2406 4219 
Q 1781 4219 1451 3797 
Q 1122 3375 1075 2522 
Q 1259 2794 1537 2939 
Q 1816 3084 2150 3084 
Q 2853 3084 3261 2657 
Q 3669 2231 3669 1497 
Q 3669 778 3244 343 
Q 2819 -91 2113 -91 
Q 1303 -91 875 529 
Q 447 1150 447 2328 
Q 447 3434 972 4092 
Q 1497 4750 2381 4750 
Q 2619 4750 2861 4703 
Q 3103 4656 3366 4563 
z
" transform="scale(0.015625)"/>
       </defs>
       <use xlink:href="#DejaVuSans-32"/>
       <use xlink:href="#DejaVuSans-30" x="63.623047"/>
       <use xlink:href="#DejaVuSans-31" x="127.246094"/>
       <use xlink:href="#DejaVuSans-36" x="190.869141"/>
      </g>
     </g>
    </g>
    <g id="xtick_2">
     <g id="line2d_2">
      <g>
       <use xlink:href="#ma78f911f2e" x="108.091615" y="299.518125" style="stroke: #000000; stroke-width: 0.8"/>
      </g>
     </g>
     <g id="text_2">
      <!-- 2017 -->
      <g transform="translate(95.366615 314.116563) scale(0.1 -0.1)">
       <defs>
        <path id="DejaVuSans-37" d="M 525 4666 
L 3525 4666 
L 3525 4397 
L 1831 0 
L 1172 0 
L 2766 4134 
L 525 4134 
L 525 4666 
z
" transform="scale(0.015625)"/>
       </defs>
       <use xlink:href="#DejaVuSans-32"/>
       <use xlink:href="#DejaVuSans-30" x="63.623047"/>
       <use xlink:href="#DejaVuSans-31" x="127.246094"/>
       <use xlink:href="#DejaVuSans-37" x="190.869141"/>
      </g>
     </g>
    </g>
    <g id="xtick_3">
     <g id="line2d_3">
      <g>
       <use xlink:href="#ma78f911f2e" x="175.069965" y="299.518125" style="stroke: #000000; stroke-width: 0.8"/>
      </g>
     </g>
     <g id="text_3">
      <!-- 2018 -->
      <g transform="translate(162.344965 314.116563) scale(0.1 -0.1)">
       <defs>
        <path id="DejaVuSans-38" d="M 2034 2216 
Q 1584 2216 1326 1975 
Q 1069 1734 1069 1313 
Q 1069 891 1326 650 
Q 1584 409 2034 409 
Q 2484 409 2743 651 
Q 3003 894 3003 1313 
Q 3003 1734 2745 1975 
Q 2488 2216 2034 2216 
z
M 1403 2484 
Q 997 2584 770 2862 
Q 544 3141 544 3541 
Q 544 4100 942 4425 
Q 1341 4750 2034 4750 
Q 2731 4750 3128 4425 
Q 3525 4100 3525 3541 
Q 3525 3141 3298 2862 
Q 3072 2584 2669 2484 
Q 3125 2378 3379 2068 
Q 3634 1759 3634 1313 
Q 3634 634 3220 271 
Q 2806 -91 2034 -91 
Q 1263 -91 848 271 
Q 434 634 434 1313 
Q 434 1759 690 2068 
Q 947 2378 1403 2484 
z
M 1172 3481 
Q 1172 3119 1398 2916 
Q 1625 2713 2034 2713 
Q 2441 2713 2670 2916 
Q 2900 3119 2900 3481 
Q 2900 3844 2670 4047 
Q 2441 4250 2034 4250 
Q 1625 4250 1398 4047 
Q 1172 3844 1172 3481 
z
" transform="scale(0.015625)"/>
       </defs>
       <use xlink:href="#DejaVuSans-32"/>
       <use xlink:href="#DejaVuSans-30" x="63.623047"/>
       <use xlink:href="#DejaVuSans-31" x="127.246094"/>
       <use xlink:href="#DejaVuSans-38" x="190.869141"/>
      </g>
     </g>
    </g>
    <g id="xtick_4">
     <g id="line2d_4">
      <g>
       <use xlink:href="#ma78f911f2e" x="242.048315" y="299.518125" style="stroke: #000000; stroke-width: 0.8"/>
      </g>
     </g>
     <g id="text_4">
      <!-- 2019 -->
      <g transform="translate(229.323315 314.116563) scale(0.1 -0.1)">
       <defs>
        <path id="DejaVuSans-39" d="M 703 97 
L 703 672 
Q 941 559 1184 500 
Q 1428 441 1663 441 
Q 2288 441 2617 861 
Q 2947 1281 2994 2138 
Q 2813 1869 2534 1725 
Q 2256 1581 1919 1581 
Q 1219 1581 811 2004 
Q 403 2428 403 3163 
Q 403 3881 828 4315 
Q 1253 4750 1959 4750 
Q 2769 4750 3195 4129 
Q 3622 3509 3622 2328 
Q 3622 1225 3098 567 
Q 2575 -91 1691 -91 
Q 1453 -91 1209 -44 
Q 966 3 703 97 
z
M 1959 2075 
Q 2384 2075 2632 2365 
Q 2881 2656 2881 3163 
Q 2881 3666 2632 3958 
Q 2384 4250 1959 4250 
Q 1534 4250 1286 3958 
Q 1038 3666 1038 3163 
Q 1038 2656 1286 2365 
Q 1534 2075 1959 2075 
z
" transform="scale(0.015625)"/>
       </defs>
       <use xlink:href="#DejaVuSans-32"/>
       <use xlink:href="#DejaVuSans-30" x="63.623047"/>
       <use xlink:href="#DejaVuSans-31" x="127.246094"/>
       <use xlink:href="#DejaVuSans-39" x="190.869141"/>
      </g>
     </g>
    </g>
    <g id="xtick_5">
     <g id="line2d_5">
      <g>
       <use xlink:href="#ma78f911f2e" x="309.026666" y="299.518125" style="stroke: #000000; stroke-width: 0.8"/>
      </g>
     </g>
     <g id="text_5">
      <!-- 2020 -->
      <g transform="translate(296.301666 314.116563) scale(0.1 -0.1)">
       <use xlink:href="#DejaVuSans-32"/>
       <use xlink:href="#DejaVuSans-30" x="63.623047"/>
       <use xlink:href="#DejaVuSans-32" x="127.246094"/>
       <use xlink:href="#DejaVuSans-30" x="190.869141"/>
      </g>
     </g>
    </g>
    <g id="xtick_6">
     <g id="line2d_6">
      <g>
       <use xlink:href="#ma78f911f2e" x="376.188518" y="299.518125" style="stroke: #000000; stroke-width: 0.8"/>
      </g>
     </g>
     <g id="text_6">
      <!-- 2021 -->
      <g transform="translate(363.463518 314.116563) scale(0.1 -0.1)">
       <use xlink:href="#DejaVuSans-32"/>
       <use xlink:href="#DejaVuSans-30" x="63.623047"/>
       <use xlink:href="#DejaVuSans-32" x="127.246094"/>
       <use xlink:href="#DejaVuSans-31" x="190.869141"/>
      </g>
     </g>
    </g>
    <g id="xtick_7">
     <g id="line2d_7">
      <g>
       <use xlink:href="#ma78f911f2e" x="443.166868" y="299.518125" style="stroke: #000000; stroke-width: 0.8"/>
      </g>
     </g>
     <g id="text_7">
      <!-- 2022 -->
      <g transform="translate(430.441868 314.116563) scale(0.1 -0.1)">
       <use xlink:href="#DejaVuSans-32"/>
       <use xlink:href="#DejaVuSans-30" x="63.623047"/>
       <use xlink:href="#DejaVuSans-32" x="127.246094"/>
       <use xlink:href="#DejaVuSans-32" x="190.869141"/>
      </g>
     </g>
    </g>
    <g id="xtick_8">
     <g id="line2d_8">
      <g>
       <use xlink:href="#ma78f911f2e" x="510.145219" y="299.518125" style="stroke: #000000; stroke-width: 0.8"/>
      </g>
     </g>
     <g id="text_8">
      <!-- 2023 -->
      <g transform="translate(497.420219 314.116563) scale(0.1 -0.1)">
       <defs>
        <path id="DejaVuSans-33" d="M 2597 2516 
Q 3050 2419 3304 2112 
Q 3559 1806 3559 1356 
Q 3559 666 3084 287 
Q 2609 -91 1734 -91 
Q 1441 -91 1130 -33 
Q 819 25 488 141 
L 488 750 
Q 750 597 1062 519 
Q 1375 441 1716 441 
Q 2309 441 2620 675 
Q 2931 909 2931 1356 
Q 2931 1769 2642 2001 
Q 2353 2234 1838 2234 
L 1294 2234 
L 1294 2753 
L 1863 2753 
Q 2328 2753 2575 2939 
Q 2822 3125 2822 3475 
Q 2822 3834 2567 4026 
Q 2313 4219 1838 4219 
Q 1578 4219 1281 4162 
Q 984 4106 628 3988 
L 628 4550 
Q 988 4650 1302 4700 
Q 1616 4750 1894 4750 
Q 2613 4750 3031 4423 
Q 3450 4097 3450 3541 
Q 3450 3153 3228 2886 
Q 3006 2619 2597 2516 
z
" transform="scale(0.015625)"/>
       </defs>
       <use xlink:href="#DejaVuSans-32"/>
       <use xlink:href="#DejaVuSans-30" x="63.623047"/>
       <use xlink:href="#DejaVuSans-32" x="127.246094"/>
       <use xlink:href="#DejaVuSans-33" x="190.869141"/>
      </g>
     </g>
    </g>
   </g>
   <g id="matplotlib.axis_2">
    <g id="ytick_1">
     <g id="line2d_9">
      <defs>
       <path id="ma562af20d9" d="M 0 0 
L -3.5 0 
" style="stroke: #000000; stroke-width: 0.8"/>
      </defs>
      <g>
       <use xlink:href="#ma562af20d9" x="30.103125" y="299.518125" style="stroke: #000000; stroke-width: 0.8"/>
      </g>
     </g>
     <g id="text_9">
      <!-- 0.0 -->
      <g transform="translate(7.2 303.317344) scale(0.1 -0.1)">
       <defs>
        <path id="DejaVuSans-2e" d="M 684 794 
L 1344 794 
L 1344 0 
L 684 0 
L 684 794 
z
" transform="scale(0.015625)"/>
       </defs>
       <use xlink:href="#DejaVuSans-30"/>
       <use xlink:href="#DejaVuSans-2e" x="63.623047"/>
       <use xlink:href="#DejaVuSans-30" x="95.410156"/>
      </g>
     </g>
    </g>
    <g id="ytick_2">
     <g id="line2d_10">
      <g>
       <use xlink:href="#ma562af20d9" x="30.103125" y="238.401869" style="stroke: #000000; stroke-width: 0.8"/>
      </g>
     </g>
     <g id="text_10">
      <!-- 0.5 -->
      <g transform="translate(7.2 242.201087) scale(0.1 -0.1)">
       <defs>
        <path id="DejaVuSans-35" d="M 691 4666 
L 3169 4666 
L 3169 4134 
L 1269 4134 
L 1269 2991 
Q 1406 3038 1543 3061 
Q 1681 3084 1819 3084 
Q 2600 3084 3056 2656 
Q 3513 2228 3513 1497 
Q 3513 744 3044 326 
Q 2575 -91 1722 -91 
Q 1428 -91 1123 -41 
Q 819 9 494 109 
L 494 744 
Q 775 591 1075 516 
Q 1375 441 1709 441 
Q 2250 441 2565 725 
Q 2881 1009 2881 1497 
Q 2881 1984 2565 2268 
Q 2250 2553 1709 2553 
Q 1456 2553 1204 2497 
Q 953 2441 691 2322 
L 691 4666 
z
" transform="scale(0.015625)"/>
       </defs>
       <use xlink:href="#DejaVuSans-30"/>
       <use xlink:href="#DejaVuSans-2e" x="63.623047"/>
       <use xlink:href="#DejaVuSans-35" x="95.410156"/>
      </g>
     </g>
    </g>
    <g id="ytick_3">
     <g id="line2d_11">
      <g>
       <use xlink:href="#ma562af20d9" x="30.103125" y="177.285612" style="stroke: #000000; stroke-width: 0.8"/>
      </g>
     </g>
     <g id="text_11">
      <!-- 1.0 -->
      <g transform="translate(7.2 181.084831) scale(0.1 -0.1)">
       <use xlink:href="#DejaVuSans-31"/>
       <use xlink:href="#DejaVuSans-2e" x="63.623047"/>
       <use xlink:href="#DejaVuSans-30" x="95.410156"/>
      </g>
     </g>
    </g>
    <g id="ytick_4">
     <g id="line2d_12">
      <g>
       <use xlink:href="#ma562af20d9" x="30.103125" y="116.169356" style="stroke: #000000; stroke-width: 0.8"/>
      </g>
     </g>
     <g id="text_12">
      <!-- 1.5 -->
      <g transform="translate(7.2 119.968575) scale(0.1 -0.1)">
       <use xlink:href="#DejaVuSans-31"/>
       <use xlink:href="#DejaVuSans-2e" x="63.623047"/>
       <use xlink:href="#DejaVuSans-35" x="95.410156"/>
      </g>
     </g>
    </g>
    <g id="ytick_5">
     <g id="line2d_13">
      <g>
       <use xlink:href="#ma562af20d9" x="30.103125" y="55.0531" style="stroke: #000000; stroke-width: 0.8"/>
      </g>
     </g>
     <g id="text_13">
      <!-- 2.0 -->
      <g transform="translate(7.2 58.852318) scale(0.1 -0.1)">
       <use xlink:href="#DejaVuSans-32"/>
       <use xlink:href="#DejaVuSans-2e" x="63.623047"/>
       <use xlink:href="#DejaVuSans-30" x="95.410156"/>
      </g>
     </g>
    </g>
   </g>
   <g id="line2d_14">
    <path clip-path="url(#p906e395f3e)" style="fill: none; stroke: #cccccc; stroke-linecap: square"/>
   </g>
   <g id="line2d_15">
    <path d="M 40.929762 299.518125 
L 40.929762 22.318125 
" clip-path="url(#p906e395f3e)" style="fill: none; stroke: #cccccc; stroke-linecap: square"/>
   </g>
   <g id="line2d_16">
    <path d="M 108.091615 299.518125 
L 108.091615 22.318125 
" clip-path="url(#p906e395f3e)" style="fill: none; stroke: #cccccc; stroke-linecap: square"/>
   </g>
   <g id="line2d_17">
    <path d="M 175.069965 299.518125 
L 175.069965 22.318125 
" clip-path="url(#p906e395f3e)" style="fill: none; stroke: #cccccc; stroke-linecap: square"/>
   </g>
   <g id="line2d_18">
    <path d="M 242.048315 299.518125 
L 242.048315 22.318125 
" clip-path="url(#p906e395f3e)" style="fill: none; stroke: #cccccc; stroke-linecap: square"/>
   </g>
   <g id="line2d_19">
    <path d="M 309.026666 299.518125 
L 309.026666 22.318125 
" clip-path="url(#p906e395f3e)" style="fill: none; stroke: #cccccc; stroke-linecap: square"/>
   </g>
   <g id="line2d_20">
    <path d="M 376.188518 299.518125 
L 376.188518 22.318125 
" clip-path="url(#p906e395f3e)" style="fill: none; stroke: #cccccc; stroke-linecap: square"/>
   </g>
   <g id="line2d_21">
    <path d="M 443.166868 299.518125 
L 443.166868 22.318125 
" clip-path="url(#p906e395f3e)" style="fill: none; stroke: #cccccc; stroke-linecap: square"/>
   </g>
   <g id="line2d_22">
    <path d="M 510.145219 299.518125 
L 510.145219 22.318125 
" clip-path="url(#p906e395f3e)" style="fill: none; stroke: #cccccc; stroke-linecap: square"/>
   </g>
   <g id="line2d_23">
    <path d="M 30.103125 299.518125 
L 532.303125 299.518125 
" clip-path="url(#p906e395f3e)" style="fill: none; stroke: #cccccc; stroke-linecap: square"/>
   </g>
   <g id="line2d_24">
    <path d="M 30.103125 268.959997 
L 532.303125 268.959997 
" clip-path="url(#p906e395f3e)" style="fill: none; stroke: #cccccc; stroke-linecap: square"/>
   </g>
   <g id="line2d_25">
    <path d="M 30.103125 238.401869 
L 532.303125 238.401869 
" clip-path="url(#p906e395f3e)" style="fill: none; stroke: #cccccc; stroke-linecap: square"/>
   </g>
   <g id="line2d_26">
    <path d="M 30.103125 207.84374 
L 532.303125 207.84374 
" clip-path="url(#p906e395f3e)" style="fill: none; stroke: #cccccc; stroke-linecap: square"/>
   </g>
   <g id="line2d_27">
    <path d="M 30.103125 177.285612 
L 532.303125 177.285612 
" clip-path="url(#p906e395f3e)" style="fill: none; stroke: #cccccc; stroke-linecap: square"/>
   </g>
   <g id="line2d_28">
    <path d="M 30.103125 146.727484 
L 532.303125 146.727484 
" clip-path="url(#p906e395f3e)" style="fill: none; stroke: #cccccc; stroke-linecap: square"/>
   </g>
   <g id="line2d_29">
    <path d="M 30.103125 116.169356 
L 532.303125 116.169356 
" clip-path="url(#p906e395f3e)" style="fill: none; stroke: #cccccc; stroke-linecap: square"/>
   </g>
   <g id="line2d_30">
    <path d="M 30.103125 85.611228 
L 532.303125 85.611228 
" clip-path="url(#p906e395f3e)" style="fill: none; stroke: #cccccc; stroke-linecap: square"/>
   </g>
   <g id="line2d_31">
    <path d="M 30.103125 55.0531 
L 532.303125 55.0531 
" clip-path="url(#p906e395f3e)" style="fill: none; stroke: #cccccc; stroke-linecap: square"/>
   </g>
   <g id="line2d_32">
    <path d="M 30.103125 249.755123 
L 61.298521 249.745826 
L 61.482023 242.433993 
L 66.987093 242.417934 
L 67.170596 241.991953 
L 69.92313 241.93786 
L 70.106633 241.722334 
L 72.675665 241.722334 
L 72.859168 241.471309 
L 75.978707 241.472999 
L 76.345712 241.040256 
L 76.529214 241.040256 
L 76.712717 240.17139 
L 83.685805 240.17139 
L 83.869308 239.745884 
L 86.988847 239.745884 
L 87.172349 237.581324 
L 89.190875 237.579528 
L 89.374377 233.252099 
L 89.55788 233.035728 
L 90.658894 233.035728 
L 90.842396 232.602985 
L 92.860922 232.55988 
L 93.044424 232.301196 
L 96.530968 232.301196 
L 96.897973 231.830366 
L 99.100001 231.813462 
L 101.669033 231.812617 
L 101.852536 230.081645 
L 102.036038 230.081645 
L 102.21954 229.216159 
L 105.33908 229.209398 
L 125.524336 229.209398 
L 125.707839 219.221658 
L 140.75503 219.221658 
L 140.938532 207.898184 
L 144.608579 207.898184 
L 144.792081 208.544763 
L 147.177611 208.549411 
L 147.361113 207.900297 
L 151.765169 207.868179 
L 151.948672 207.651808 
L 153.233188 207.647159 
L 153.41669 207.430788 
L 153.600193 207.430788 
L 153.783695 207.214416 
L 153.967197 206.781674 
L 154.884709 206.754627 
L 155.068211 206.321884 
L 161.490793 206.293993 
L 161.674295 206.050575 
L 172.867937 206.030396 
L 173.05144 199.971995 
L 175.620472 199.971995 
L 175.803975 200.188367 
L 176.354482 200.188367 
L 176.721486 199.917902 
L 180.575035 199.893392 
L 180.758537 199.63307 
L 183.144068 199.63369 
L 183.32757 198.984576 
L 183.878077 198.982886 
L 184.061579 198.76588 
L 184.428584 198.764824 
L 184.612086 198.332081 
L 185.7131 198.331236 
L 185.896603 198.08348 
L 190.667663 197.970744 
L 191.034668 197.862559 
L 191.768677 197.861713 
L 191.95218 197.42897 
L 194.521212 197.42559 
L 194.704714 196.992847 
L 194.888217 196.992636 
L 195.071719 196.559893 
L 195.622226 196.559893 
L 195.805728 196.343521 
L 195.989231 192.827485 
L 197.090245 192.827485 
L 197.273747 191.961999 
L 199.84278 191.852969 
L 201.310798 191.852071 
L 203.879831 191.849535 
L 204.063333 191.606117 
L 207.366375 191.606117 
L 207.549878 190.740631 
L 209.751905 190.738096 
L 209.935408 189.006279 
L 213.788957 189.008815 
L 213.972459 187.706994 
L 217.642506 187.689245 
L 217.826008 182.49464 
L 225.349603 182.491668 
L 225.533106 182.058925 
L 226.267115 182.025117 
L 229.570157 182.022588 
L 229.753659 180.291617 
L 230.671171 180.291617 
L 230.854673 179.209759 
L 232.689697 179.144679 
L 232.873199 180.010165 
L 236.543246 180.002479 
L 236.726748 179.353364 
L 238.378269 179.352519 
L 238.745274 178.05091 
L 239.295781 178.05091 
L 239.479283 170.694281 
L 242.231818 170.6909 
L 242.41532 169.822033 
L 247.369883 169.814427 
L 247.553385 169.598055 
L 254.893479 169.522185 
L 255.076981 168.655854 
L 257.829516 168.646134 
L 258.013018 168.429763 
L 258.93053 168.422156 
L 259.114032 168.205785 
L 261.132558 168.193952 
L 261.31606 167.544838 
L 261.499562 167.328466 
L 261.683065 166.872058 
L 262.417074 166.871212 
L 262.600576 166.438469 
L 262.784079 166.438364 
L 262.967581 165.969634 
L 265.169609 165.967098 
L 265.353111 163.360499 
L 266.637628 163.356273 
L 266.82113 162.92248 
L 267.738642 162.918888 
L 267.922144 161.618969 
L 280.400302 161.488695 
L 280.583805 157.171402 
L 280.767307 157.171171 
L 280.950809 146.785342 
L 284.070349 146.764843 
L 286.088875 146.721767 
L 286.272377 144.774424 
L 296.915512 144.770195 
L 297.099014 142.349549 
L 297.282517 141.916806 
L 299.668047 141.910045 
L 299.851549 141.044559 
L 302.420582 141.032739 
L 302.604084 139.301768 
L 303.8886 139.300923 
L 304.072103 138.435437 
L 310.311182 138.393381 
L 310.494684 137.075713 
L 314.164731 137.038478 
L 314.348233 136.822952 
L 320.954317 136.804354 
L 325.541875 136.739264 
L 325.725378 136.103659 
L 325.90888 136.103656 
L 326.092382 135.99029 
L 326.459387 136.096786 
L 328.110908 136.088208 
L 328.29441 135.872682 
L 329.02842 135.871837 
L 329.211922 135.404124 
L 330.679941 135.393067 
L 330.863443 131.929433 
L 334.716992 131.92351 
L 334.900494 131.54486 
L 337.469527 131.543157 
L 337.653029 131.326785 
L 339.855057 131.37785 
L 340.038559 130.921442 
L 341.139573 130.896201 
L 344.80962 130.884151 
L 345.176625 130.774928 
L 346.461141 130.772069 
L 346.644643 130.549781 
L 347.562155 130.547302 
L 347.92916 130.297103 
L 348.846671 130.297103 
L 349.030174 129.431617 
L 349.764183 129.431531 
L 349.947685 115.582913 
L 350.131187 129.43058 
L 355.269253 129.41426 
L 355.452755 128.462511 
L 356.737271 128.462287 
L 356.920774 128.24511 
L 358.572295 128.233218 
L 358.755797 124.115399 
L 362.976351 124.10002 
L 363.159853 118.907026 
L 366.462895 118.814183 
L 367.196904 118.785327 
L 367.930913 118.783637 
L 368.114416 118.31698 
L 370.866951 118.308693 
L 371.050453 117.868555 
L 373.252481 117.865913 
L 373.435983 117.411139 
L 380.22557 117.391188 
L 380.409072 116.928018 
L 380.592574 116.928018 
L 380.776076 116.457238 
L 381.143081 116.344707 
L 381.87709 116.334763 
L 382.060593 116.010199 
L 385.730639 115.973786 
L 385.914142 116.439809 
L 386.281146 116.438448 
L 386.464649 115.540845 
L 387.015156 115.540812 
L 387.198658 113.80984 
L 387.565663 113.808147 
L 387.749165 113.589015 
L 392.703728 113.535777 
L 393.070733 113.449356 
L 393.437737 113.448933 
L 393.62124 112.57584 
L 397.841793 112.480191 
L 398.025295 112.263202 
L 398.3923 112.26204 
L 398.575802 110.957049 
L 399.676816 110.950707 
L 399.860319 110.484041 
L 401.144835 110.442246 
L 401.51184 110.31333 
L 404.998384 110.28527 
L 405.181886 109.808365 
L 406.2829 109.85745 
L 406.466403 107.909433 
L 407.934421 107.88485 
L 409.035435 107.828195 
L 409.40244 107.692963 
L 415.274514 107.649692 
L 415.458017 106.348083 
L 415.641519 106.131708 
L 415.825021 102.669758 
L 416.926035 102.669121 
L 417.109538 84.493015 
L 427.202166 84.383248 
L 427.385668 84.166877 
L 428.670184 84.145691 
L 438.212306 84.093087 
L 438.395808 83.660324 
L 444.267882 83.548645 
L 445.185394 83.520965 
L 446.653413 83.516501 
L 446.836915 80.919839 
L 450.323459 80.838334 
L 450.506962 80.374318 
L 463.902632 80.332075 
L 464.086134 79.465955 
L 465.737655 79.465004 
L 465.921157 79.897747 
L 475.646781 79.792543 
L 475.830283 79.575326 
L 479.867334 79.570136 
L 480.050837 79.515191 
L 480.234339 79.242614 
L 486.289916 79.18311 
L 486.473418 80.91766 
L 487.023925 80.916815 
L 487.207428 79.185844 
L 487.39093 79.185817 
L 487.574432 59.928759 
L 487.757935 54.065573 
L 488.858949 54.002986 
L 489.225953 52.24993 
L 490.326967 52.227783 
L 490.510469 52.001269 
L 492.896 51.983886 
L 493.079502 68.427898 
L 494.914525 68.429747 
L 495.098028 59.341724 
L 495.465032 59.341724 
L 495.648535 65.390827 
L 501.704112 65.285524 
L 502.071116 65.276226 
L 502.254619 65.492598 
L 504.456647 65.430806 
L 504.823651 65.32262 
L 505.741163 65.320573 
L 505.924665 64.455087 
L 511.429735 64.412088 
L 513.998768 64.409578 
L 514.18227 64.62595 
L 520.054345 64.590385 
L 520.054345 64.590385 
" clip-path="url(#p906e395f3e)" style="fill: none; stroke: #1f77b4; stroke-width: 2; stroke-linecap: square"/>
   </g>
   <g id="patch_3">
    <path d="M 30.103125 299.518125 
L 30.103125 22.318125 
" style="fill: none; stroke: #000000; stroke-width: 0.8; stroke-linejoin: miter; stroke-linecap: square"/>
   </g>
   <g id="patch_4">
    <path d="M 532.303125 299.518125 
L 532.303125 22.318125 
" style="fill: none; stroke: #000000; stroke-width: 0.8; stroke-linejoin: miter; stroke-linecap: square"/>
   </g>
   <g id="patch_5">
    <path d="M 30.103125 299.518125 
L 532.303125 299.518125 
" style="fill: none; stroke: #000000; stroke-width: 0.8; stroke-linejoin: miter; stroke-linecap: square"/>
   </g>
   <g id="patch_6">
    <path d="M 30.103125 22.318125 
L 532.303125 22.318125 
" style="fill: none; stroke: #000000; stroke-width: 0.8; stroke-linejoin: miter; stroke-linecap: square"/>
   </g>
   <g id="patch_7">
    <path d="M 120.874393 202.566018 
Q 129.940239 204.975321 139.006085 207.384625 
" style="fill: none; stroke: #000000; stroke-linecap: round"/>
   </g>
   <g id="text_14">
    <g id="patch_8">
     <path d="M 67.5376 206.017938 
L 115.947916 206.017938 
Q 118.446916 206.017938 118.446916 203.518938 
L 118.446916 186.129282 
Q 118.446916 183.630282 115.947916 183.630282 
L 67.5376 183.630282 
Q 65.0386 183.630282 65.0386 186.129282 
L 65.0386 203.518938 
Q 65.0386 206.017938 67.5376 206.017938 
z
" style="fill: #cccccc; stroke: #000000; stroke-linejoin: miter"/>
    </g>
    <!-- 2017-06-29 -->
    <g transform="translate(67.5376 192.458781) scale(0.0833 -0.0833)">
     <defs>
      <path id="DejaVuSans-2d" d="M 313 2009 
L 1997 2009 
L 1997 1497 
L 313 1497 
L 313 2009 
z
" transform="scale(0.015625)"/>
     </defs>
     <use xlink:href="#DejaVuSans-32"/>
     <use xlink:href="#DejaVuSans-30" x="63.623047"/>
     <use xlink:href="#DejaVuSans-31" x="127.246094"/>
     <use xlink:href="#DejaVuSans-37" x="190.869141"/>
     <use xlink:href="#DejaVuSans-2d" x="254.492188"/>
     <use xlink:href="#DejaVuSans-30" x="290.576172"/>
     <use xlink:href="#DejaVuSans-36" x="354.199219"/>
     <use xlink:href="#DejaVuSans-2d" x="417.822266"/>
     <use xlink:href="#DejaVuSans-32" x="453.90625"/>
     <use xlink:href="#DejaVuSans-39" x="517.529297"/>
    </g>
    <!--  +3.43m  -->
    <g transform="translate(67.5376 201.786558) scale(0.0833 -0.0833)">
     <defs>
      <path id="DejaVuSans-20" transform="scale(0.015625)"/>
      <path id="DejaVuSans-2b" d="M 2944 4013 
L 2944 2272 
L 4684 2272 
L 4684 1741 
L 2944 1741 
L 2944 0 
L 2419 0 
L 2419 1741 
L 678 1741 
L 678 2272 
L 2419 2272 
L 2419 4013 
L 2944 4013 
z
" transform="scale(0.015625)"/>
      <path id="DejaVuSans-34" d="M 2419 4116 
L 825 1625 
L 2419 1625 
L 2419 4116 
z
M 2253 4666 
L 3047 4666 
L 3047 1625 
L 3713 1625 
L 3713 1100 
L 3047 1100 
L 3047 0 
L 2419 0 
L 2419 1100 
L 313 1100 
L 313 1709 
L 2253 4666 
z
" transform="scale(0.015625)"/>
      <path id="DejaVuSans-6d" d="M 3328 2828 
Q 3544 3216 3844 3400 
Q 4144 3584 4550 3584 
Q 5097 3584 5394 3201 
Q 5691 2819 5691 2113 
L 5691 0 
L 5113 0 
L 5113 2094 
Q 5113 2597 4934 2840 
Q 4756 3084 4391 3084 
Q 3944 3084 3684 2787 
Q 3425 2491 3425 1978 
L 3425 0 
L 2847 0 
L 2847 2094 
Q 2847 2600 2669 2842 
Q 2491 3084 2119 3084 
Q 1678 3084 1418 2786 
Q 1159 2488 1159 1978 
L 1159 0 
L 581 0 
L 581 3500 
L 1159 3500 
L 1159 2956 
Q 1356 3278 1631 3431 
Q 1906 3584 2284 3584 
Q 2666 3584 2933 3390 
Q 3200 3197 3328 2828 
z
" transform="scale(0.015625)"/>
     </defs>
     <use xlink:href="#DejaVuSans-20"/>
     <use xlink:href="#DejaVuSans-2b" x="31.787109"/>
     <use xlink:href="#DejaVuSans-33" x="115.576172"/>
     <use xlink:href="#DejaVuSans-2e" x="179.199219"/>
     <use xlink:href="#DejaVuSans-34" x="210.986328"/>
     <use xlink:href="#DejaVuSans-33" x="274.609375"/>
     <use xlink:href="#DejaVuSans-6d" x="338.232422"/>
     <use xlink:href="#DejaVuSans-20" x="435.644531"/>
    </g>
   </g>
   <g id="patch_9">
    <path d="M 197.761869 177.162474 
Q 206.827715 179.571777 215.893561 181.98108 
" style="fill: none; stroke: #000000; stroke-linecap: round"/>
   </g>
   <g id="text_15">
    <g id="patch_10">
     <path d="M 144.425076 180.614394 
L 192.835392 180.614394 
Q 195.334392 180.614394 195.334392 178.115394 
L 195.334392 160.725738 
Q 195.334392 158.226738 192.835392 158.226738 
L 144.425076 158.226738 
Q 141.926076 158.226738 141.926076 160.725738 
L 141.926076 178.115394 
Q 141.926076 180.614394 144.425076 180.614394 
z
" style="fill: #cccccc; stroke: #000000; stroke-linejoin: miter"/>
    </g>
    <!-- 2018-08-22 -->
    <g transform="translate(144.425076 167.055236) scale(0.0833 -0.0833)">
     <use xlink:href="#DejaVuSans-32"/>
     <use xlink:href="#DejaVuSans-30" x="63.623047"/>
     <use xlink:href="#DejaVuSans-31" x="127.246094"/>
     <use xlink:href="#DejaVuSans-38" x="190.869141"/>
     <use xlink:href="#DejaVuSans-2d" x="254.492188"/>
     <use xlink:href="#DejaVuSans-30" x="290.576172"/>
     <use xlink:href="#DejaVuSans-38" x="354.199219"/>
     <use xlink:href="#DejaVuSans-2d" x="417.822266"/>
     <use xlink:href="#DejaVuSans-32" x="453.90625"/>
     <use xlink:href="#DejaVuSans-32" x="517.529297"/>
    </g>
    <!--  +1.57m  -->
    <g transform="translate(144.425076 176.383014) scale(0.0833 -0.0833)">
     <use xlink:href="#DejaVuSans-20"/>
     <use xlink:href="#DejaVuSans-2b" x="31.787109"/>
     <use xlink:href="#DejaVuSans-31" x="115.576172"/>
     <use xlink:href="#DejaVuSans-2e" x="179.199219"/>
     <use xlink:href="#DejaVuSans-35" x="210.986328"/>
     <use xlink:href="#DejaVuSans-37" x="274.609375"/>
     <use xlink:href="#DejaVuSans-6d" x="338.232422"/>
     <use xlink:href="#DejaVuSans-20" x="435.644531"/>
    </g>
   </g>
   <g id="patch_11">
    <path d="M 260.88667 141.453176 
Q 269.952516 143.862479 279.018362 146.271783 
" style="fill: none; stroke: #000000; stroke-linecap: round"/>
   </g>
   <g id="text_16">
    <g id="patch_12">
     <path d="M 207.549878 144.905096 
L 255.960193 144.905096 
Q 258.459193 144.905096 258.459193 142.406096 
L 258.459193 125.01644 
Q 258.459193 122.51744 255.960193 122.51744 
L 207.549878 122.51744 
Q 205.050878 122.51744 205.050878 125.01644 
L 205.050878 142.406096 
Q 205.050878 144.905096 207.549878 144.905096 
z
" style="fill: #cccccc; stroke: #000000; stroke-linejoin: miter"/>
    </g>
    <!-- 2019-08-01 -->
    <g transform="translate(207.549878 131.345939) scale(0.0833 -0.0833)">
     <use xlink:href="#DejaVuSans-32"/>
     <use xlink:href="#DejaVuSans-30" x="63.623047"/>
     <use xlink:href="#DejaVuSans-31" x="127.246094"/>
     <use xlink:href="#DejaVuSans-39" x="190.869141"/>
     <use xlink:href="#DejaVuSans-2d" x="254.492188"/>
     <use xlink:href="#DejaVuSans-30" x="290.576172"/>
     <use xlink:href="#DejaVuSans-38" x="354.199219"/>
     <use xlink:href="#DejaVuSans-2d" x="417.822266"/>
     <use xlink:href="#DejaVuSans-30" x="453.90625"/>
     <use xlink:href="#DejaVuSans-31" x="517.529297"/>
    </g>
    <!--  +3.15m  -->
    <g transform="translate(207.549878 140.673716) scale(0.0833 -0.0833)">
     <use xlink:href="#DejaVuSans-20"/>
     <use xlink:href="#DejaVuSans-2b" x="31.787109"/>
     <use xlink:href="#DejaVuSans-33" x="115.576172"/>
     <use xlink:href="#DejaVuSans-2e" x="179.199219"/>
     <use xlink:href="#DejaVuSans-31" x="210.986328"/>
     <use xlink:href="#DejaVuSans-35" x="274.609375"/>
     <use xlink:href="#DejaVuSans-6d" x="338.232422"/>
     <use xlink:href="#DejaVuSans-20" x="435.644531"/>
    </g>
   </g>
   <g id="patch_13">
    <path d="M 329.883546 110.250747 
Q 338.949392 112.660051 348.015238 115.069354 
" style="fill: none; stroke: #000000; stroke-linecap: round"/>
   </g>
   <g id="text_17">
    <g id="patch_14">
     <path d="M 276.546753 113.702668 
L 324.957069 113.702668 
Q 327.456069 113.702668 327.456069 111.203668 
L 327.456069 93.814012 
Q 327.456069 91.315012 324.957069 91.315012 
L 276.546753 91.315012 
Q 274.047753 91.315012 274.047753 93.814012 
L 274.047753 111.203668 
Q 274.047753 113.702668 276.546753 113.702668 
z
" style="fill: #cccccc; stroke: #000000; stroke-linejoin: miter"/>
    </g>
    <!-- 2020-08-11 -->
    <g transform="translate(276.546753 100.14351) scale(0.0833 -0.0833)">
     <use xlink:href="#DejaVuSans-32"/>
     <use xlink:href="#DejaVuSans-30" x="63.623047"/>
     <use xlink:href="#DejaVuSans-32" x="127.246094"/>
     <use xlink:href="#DejaVuSans-30" x="190.869141"/>
     <use xlink:href="#DejaVuSans-2d" x="254.492188"/>
     <use xlink:href="#DejaVuSans-30" x="290.576172"/>
     <use xlink:href="#DejaVuSans-38" x="354.199219"/>
     <use xlink:href="#DejaVuSans-2d" x="417.822266"/>
     <use xlink:href="#DejaVuSans-31" x="453.90625"/>
     <use xlink:href="#DejaVuSans-31" x="517.529297"/>
    </g>
    <!--  +4.19m  -->
    <g transform="translate(276.546753 109.471288) scale(0.0833 -0.0833)">
     <use xlink:href="#DejaVuSans-20"/>
     <use xlink:href="#DejaVuSans-2b" x="31.787109"/>
     <use xlink:href="#DejaVuSans-34" x="115.576172"/>
     <use xlink:href="#DejaVuSans-2e" x="179.199219"/>
     <use xlink:href="#DejaVuSans-31" x="210.986328"/>
     <use xlink:href="#DejaVuSans-39" x="274.609375"/>
     <use xlink:href="#DejaVuSans-6d" x="338.232422"/>
     <use xlink:href="#DejaVuSans-20" x="435.644531"/>
    </g>
   </g>
   <g id="patch_15">
    <path d="M 368.877592 146.11424 
Q 360.251545 138.437353 351.625499 130.760467 
" style="fill: none; stroke: #000000; stroke-linecap: round"/>
   </g>
   <g id="text_18">
    <g id="patch_16">
     <path d="M 359.306304 170.331714 
L 407.71662 170.331714 
Q 410.21562 170.331714 410.21562 167.832714 
L 410.21562 150.443058 
Q 410.21562 147.944058 407.71662 147.944058 
L 359.306304 147.944058 
Q 356.807304 147.944058 356.807304 150.443058 
L 356.807304 167.832714 
Q 356.807304 170.331714 359.306304 170.331714 
z
" style="fill: #cccccc; stroke: #000000; stroke-linejoin: miter"/>
    </g>
    <!-- 2020-08-12 -->
    <g transform="translate(359.306304 156.772556) scale(0.0833 -0.0833)">
     <use xlink:href="#DejaVuSans-32"/>
     <use xlink:href="#DejaVuSans-30" x="63.623047"/>
     <use xlink:href="#DejaVuSans-32" x="127.246094"/>
     <use xlink:href="#DejaVuSans-30" x="190.869141"/>
     <use xlink:href="#DejaVuSans-2d" x="254.492188"/>
     <use xlink:href="#DejaVuSans-30" x="290.576172"/>
     <use xlink:href="#DejaVuSans-38" x="354.199219"/>
     <use xlink:href="#DejaVuSans-2d" x="417.822266"/>
     <use xlink:href="#DejaVuSans-31" x="453.90625"/>
     <use xlink:href="#DejaVuSans-32" x="517.529297"/>
    </g>
    <!--  -4.19m  -->
    <g transform="translate(359.306304 166.100334) scale(0.0833 -0.0833)">
     <use xlink:href="#DejaVuSans-20"/>
     <use xlink:href="#DejaVuSans-2d" x="31.787109"/>
     <use xlink:href="#DejaVuSans-34" x="67.871094"/>
     <use xlink:href="#DejaVuSans-2e" x="131.494141"/>
     <use xlink:href="#DejaVuSans-31" x="163.28125"/>
     <use xlink:href="#DejaVuSans-39" x="226.904297"/>
     <use xlink:href="#DejaVuSans-6d" x="290.527344"/>
     <use xlink:href="#DejaVuSans-20" x="387.939453"/>
    </g>
   </g>
   <g id="patch_17">
    <path d="M 397.045399 79.160849 
Q 406.111245 81.570153 415.177091 83.979456 
" style="fill: none; stroke: #000000; stroke-linecap: round"/>
   </g>
   <g id="text_19">
    <g id="patch_18">
     <path d="M 343.708606 82.61277 
L 392.118922 82.61277 
Q 394.617922 82.61277 394.617922 80.11377 
L 394.617922 62.724114 
Q 394.617922 60.225114 392.118922 60.225114 
L 343.708606 60.225114 
Q 341.209606 60.225114 341.209606 62.724114 
L 341.209606 80.11377 
Q 341.209606 82.61277 343.708606 82.61277 
z
" style="fill: #cccccc; stroke: #000000; stroke-linejoin: miter"/>
    </g>
    <!-- 2021-08-12 -->
    <g transform="translate(343.708606 69.053612) scale(0.0833 -0.0833)">
     <use xlink:href="#DejaVuSans-32"/>
     <use xlink:href="#DejaVuSans-30" x="63.623047"/>
     <use xlink:href="#DejaVuSans-32" x="127.246094"/>
     <use xlink:href="#DejaVuSans-31" x="190.869141"/>
     <use xlink:href="#DejaVuSans-2d" x="254.492188"/>
     <use xlink:href="#DejaVuSans-30" x="290.576172"/>
     <use xlink:href="#DejaVuSans-38" x="354.199219"/>
     <use xlink:href="#DejaVuSans-2d" x="417.822266"/>
     <use xlink:href="#DejaVuSans-31" x="453.90625"/>
     <use xlink:href="#DejaVuSans-32" x="517.529297"/>
    </g>
    <!--  +5.51m  -->
    <g transform="translate(343.708606 78.38139) scale(0.0833 -0.0833)">
     <use xlink:href="#DejaVuSans-20"/>
     <use xlink:href="#DejaVuSans-2b" x="31.787109"/>
     <use xlink:href="#DejaVuSans-35" x="115.576172"/>
     <use xlink:href="#DejaVuSans-2e" x="179.199219"/>
     <use xlink:href="#DejaVuSans-35" x="210.986328"/>
     <use xlink:href="#DejaVuSans-31" x="274.609375"/>
     <use xlink:href="#DejaVuSans-6d" x="338.232422"/>
     <use xlink:href="#DejaVuSans-20" x="435.644531"/>
    </g>
   </g>
   <g id="patch_19">
    <path d="M 467.693796 48.733407 
Q 476.759642 51.142711 485.825488 53.552014 
" style="fill: none; stroke: #000000; stroke-linecap: round"/>
   </g>
   <g id="text_20">
    <g id="patch_20">
     <path d="M 414.357003 52.185328 
L 462.767318 52.185328 
Q 465.266318 52.185328 465.266318 49.686328 
L 465.266318 32.296672 
Q 465.266318 29.797672 462.767318 29.797672 
L 414.357003 29.797672 
Q 411.858003 29.797672 411.858003 32.296672 
L 411.858003 49.686328 
Q 411.858003 52.185328 414.357003 52.185328 
z
" style="fill: #cccccc; stroke: #000000; stroke-linejoin: miter"/>
    </g>
    <!-- 2022-09-01 -->
    <g transform="translate(414.357003 38.62617) scale(0.0833 -0.0833)">
     <use xlink:href="#DejaVuSans-32"/>
     <use xlink:href="#DejaVuSans-30" x="63.623047"/>
     <use xlink:href="#DejaVuSans-32" x="127.246094"/>
     <use xlink:href="#DejaVuSans-32" x="190.869141"/>
     <use xlink:href="#DejaVuSans-2d" x="254.492188"/>
     <use xlink:href="#DejaVuSans-30" x="290.576172"/>
     <use xlink:href="#DejaVuSans-39" x="354.199219"/>
     <use xlink:href="#DejaVuSans-2d" x="417.822266"/>
     <use xlink:href="#DejaVuSans-30" x="453.90625"/>
     <use xlink:href="#DejaVuSans-31" x="517.529297"/>
    </g>
    <!--  +7.61m  -->
    <g transform="translate(414.357003 47.953948) scale(0.0833 -0.0833)">
     <use xlink:href="#DejaVuSans-20"/>
     <use xlink:href="#DejaVuSans-2b" x="31.787109"/>
     <use xlink:href="#DejaVuSans-37" x="115.576172"/>
     <use xlink:href="#DejaVuSans-2e" x="179.199219"/>
     <use xlink:href="#DejaVuSans-36" x="210.986328"/>
     <use xlink:href="#DejaVuSans-31" x="274.609375"/>
     <use xlink:href="#DejaVuSans-6d" x="338.232422"/>
     <use xlink:href="#DejaVuSans-20" x="435.644531"/>
    </g>
   </g>
   <g id="patch_21">
    <path d="M 511.825906 85.111558 
Q 503.19986 77.434671 494.573814 69.757785 
" style="fill: none; stroke: #000000; stroke-linecap: round"/>
   </g>
   <g id="text_21">
    <g id="patch_22">
     <path d="M 502.254619 109.329032 
L 550.664934 109.329032 
Q 553.163934 109.329032 553.163934 106.830032 
L 553.163934 89.440376 
Q 553.163934 86.941376 550.664934 86.941376 
L 502.254619 86.941376 
Q 499.755619 86.941376 499.755619 89.440376 
L 499.755619 106.830032 
Q 499.755619 109.329032 502.254619 109.329032 
z
" style="fill: #cccccc; stroke: #000000; stroke-linejoin: miter"/>
    </g>
    <!-- 2022-09-30 -->
    <g transform="translate(502.254619 95.769874) scale(0.0833 -0.0833)">
     <use xlink:href="#DejaVuSans-32"/>
     <use xlink:href="#DejaVuSans-30" x="63.623047"/>
     <use xlink:href="#DejaVuSans-32" x="127.246094"/>
     <use xlink:href="#DejaVuSans-32" x="190.869141"/>
     <use xlink:href="#DejaVuSans-2d" x="254.492188"/>
     <use xlink:href="#DejaVuSans-30" x="290.576172"/>
     <use xlink:href="#DejaVuSans-39" x="354.199219"/>
     <use xlink:href="#DejaVuSans-2d" x="417.822266"/>
     <use xlink:href="#DejaVuSans-33" x="453.90625"/>
     <use xlink:href="#DejaVuSans-30" x="517.529297"/>
    </g>
    <!--  -4.98m  -->
    <g transform="translate(502.254619 105.097652) scale(0.0833 -0.0833)">
     <use xlink:href="#DejaVuSans-20"/>
     <use xlink:href="#DejaVuSans-2d" x="31.787109"/>
     <use xlink:href="#DejaVuSans-34" x="67.871094"/>
     <use xlink:href="#DejaVuSans-2e" x="131.494141"/>
     <use xlink:href="#DejaVuSans-39" x="163.28125"/>
     <use xlink:href="#DejaVuSans-38" x="226.904297"/>
     <use xlink:href="#DejaVuSans-6d" x="290.527344"/>
     <use xlink:href="#DejaVuSans-20" x="387.939453"/>
    </g>
   </g>
   <g id="text_22">
    <!-- History of percentage of AWS ownership of IPv4 space -->
    <g transform="translate(118.277813 16.318125) scale(0.12 -0.12)">
     <defs>
      <path id="DejaVuSans-48" d="M 628 4666 
L 1259 4666 
L 1259 2753 
L 3553 2753 
L 3553 4666 
L 4184 4666 
L 4184 0 
L 3553 0 
L 3553 2222 
L 1259 2222 
L 1259 0 
L 628 0 
L 628 4666 
z
" transform="scale(0.015625)"/>
      <path id="DejaVuSans-69" d="M 603 3500 
L 1178 3500 
L 1178 0 
L 603 0 
L 603 3500 
z
M 603 4863 
L 1178 4863 
L 1178 4134 
L 603 4134 
L 603 4863 
z
" transform="scale(0.015625)"/>
      <path id="DejaVuSans-73" d="M 2834 3397 
L 2834 2853 
Q 2591 2978 2328 3040 
Q 2066 3103 1784 3103 
Q 1356 3103 1142 2972 
Q 928 2841 928 2578 
Q 928 2378 1081 2264 
Q 1234 2150 1697 2047 
L 1894 2003 
Q 2506 1872 2764 1633 
Q 3022 1394 3022 966 
Q 3022 478 2636 193 
Q 2250 -91 1575 -91 
Q 1294 -91 989 -36 
Q 684 19 347 128 
L 347 722 
Q 666 556 975 473 
Q 1284 391 1588 391 
Q 1994 391 2212 530 
Q 2431 669 2431 922 
Q 2431 1156 2273 1281 
Q 2116 1406 1581 1522 
L 1381 1569 
Q 847 1681 609 1914 
Q 372 2147 372 2553 
Q 372 3047 722 3315 
Q 1072 3584 1716 3584 
Q 2034 3584 2315 3537 
Q 2597 3491 2834 3397 
z
" transform="scale(0.015625)"/>
      <path id="DejaVuSans-74" d="M 1172 4494 
L 1172 3500 
L 2356 3500 
L 2356 3053 
L 1172 3053 
L 1172 1153 
Q 1172 725 1289 603 
Q 1406 481 1766 481 
L 2356 481 
L 2356 0 
L 1766 0 
Q 1100 0 847 248 
Q 594 497 594 1153 
L 594 3053 
L 172 3053 
L 172 3500 
L 594 3500 
L 594 4494 
L 1172 4494 
z
" transform="scale(0.015625)"/>
      <path id="DejaVuSans-6f" d="M 1959 3097 
Q 1497 3097 1228 2736 
Q 959 2375 959 1747 
Q 959 1119 1226 758 
Q 1494 397 1959 397 
Q 2419 397 2687 759 
Q 2956 1122 2956 1747 
Q 2956 2369 2687 2733 
Q 2419 3097 1959 3097 
z
M 1959 3584 
Q 2709 3584 3137 3096 
Q 3566 2609 3566 1747 
Q 3566 888 3137 398 
Q 2709 -91 1959 -91 
Q 1206 -91 779 398 
Q 353 888 353 1747 
Q 353 2609 779 3096 
Q 1206 3584 1959 3584 
z
" transform="scale(0.015625)"/>
      <path id="DejaVuSans-72" d="M 2631 2963 
Q 2534 3019 2420 3045 
Q 2306 3072 2169 3072 
Q 1681 3072 1420 2755 
Q 1159 2438 1159 1844 
L 1159 0 
L 581 0 
L 581 3500 
L 1159 3500 
L 1159 2956 
Q 1341 3275 1631 3429 
Q 1922 3584 2338 3584 
Q 2397 3584 2469 3576 
Q 2541 3569 2628 3553 
L 2631 2963 
z
" transform="scale(0.015625)"/>
      <path id="DejaVuSans-79" d="M 2059 -325 
Q 1816 -950 1584 -1140 
Q 1353 -1331 966 -1331 
L 506 -1331 
L 506 -850 
L 844 -850 
Q 1081 -850 1212 -737 
Q 1344 -625 1503 -206 
L 1606 56 
L 191 3500 
L 800 3500 
L 1894 763 
L 2988 3500 
L 3597 3500 
L 2059 -325 
z
" transform="scale(0.015625)"/>
      <path id="DejaVuSans-66" d="M 2375 4863 
L 2375 4384 
L 1825 4384 
Q 1516 4384 1395 4259 
Q 1275 4134 1275 3809 
L 1275 3500 
L 2222 3500 
L 2222 3053 
L 1275 3053 
L 1275 0 
L 697 0 
L 697 3053 
L 147 3053 
L 147 3500 
L 697 3500 
L 697 3744 
Q 697 4328 969 4595 
Q 1241 4863 1831 4863 
L 2375 4863 
z
" transform="scale(0.015625)"/>
      <path id="DejaVuSans-70" d="M 1159 525 
L 1159 -1331 
L 581 -1331 
L 581 3500 
L 1159 3500 
L 1159 2969 
Q 1341 3281 1617 3432 
Q 1894 3584 2278 3584 
Q 2916 3584 3314 3078 
Q 3713 2572 3713 1747 
Q 3713 922 3314 415 
Q 2916 -91 2278 -91 
Q 1894 -91 1617 61 
Q 1341 213 1159 525 
z
M 3116 1747 
Q 3116 2381 2855 2742 
Q 2594 3103 2138 3103 
Q 1681 3103 1420 2742 
Q 1159 2381 1159 1747 
Q 1159 1113 1420 752 
Q 1681 391 2138 391 
Q 2594 391 2855 752 
Q 3116 1113 3116 1747 
z
" transform="scale(0.015625)"/>
      <path id="DejaVuSans-65" d="M 3597 1894 
L 3597 1613 
L 953 1613 
Q 991 1019 1311 708 
Q 1631 397 2203 397 
Q 2534 397 2845 478 
Q 3156 559 3463 722 
L 3463 178 
Q 3153 47 2828 -22 
Q 2503 -91 2169 -91 
Q 1331 -91 842 396 
Q 353 884 353 1716 
Q 353 2575 817 3079 
Q 1281 3584 2069 3584 
Q 2775 3584 3186 3129 
Q 3597 2675 3597 1894 
z
M 3022 2063 
Q 3016 2534 2758 2815 
Q 2500 3097 2075 3097 
Q 1594 3097 1305 2825 
Q 1016 2553 972 2059 
L 3022 2063 
z
" transform="scale(0.015625)"/>
      <path id="DejaVuSans-63" d="M 3122 3366 
L 3122 2828 
Q 2878 2963 2633 3030 
Q 2388 3097 2138 3097 
Q 1578 3097 1268 2742 
Q 959 2388 959 1747 
Q 959 1106 1268 751 
Q 1578 397 2138 397 
Q 2388 397 2633 464 
Q 2878 531 3122 666 
L 3122 134 
Q 2881 22 2623 -34 
Q 2366 -91 2075 -91 
Q 1284 -91 818 406 
Q 353 903 353 1747 
Q 353 2603 823 3093 
Q 1294 3584 2113 3584 
Q 2378 3584 2631 3529 
Q 2884 3475 3122 3366 
z
" transform="scale(0.015625)"/>
      <path id="DejaVuSans-6e" d="M 3513 2113 
L 3513 0 
L 2938 0 
L 2938 2094 
Q 2938 2591 2744 2837 
Q 2550 3084 2163 3084 
Q 1697 3084 1428 2787 
Q 1159 2491 1159 1978 
L 1159 0 
L 581 0 
L 581 3500 
L 1159 3500 
L 1159 2956 
Q 1366 3272 1645 3428 
Q 1925 3584 2291 3584 
Q 2894 3584 3203 3211 
Q 3513 2838 3513 2113 
z
" transform="scale(0.015625)"/>
      <path id="DejaVuSans-61" d="M 2194 1759 
Q 1497 1759 1228 1600 
Q 959 1441 959 1056 
Q 959 750 1161 570 
Q 1363 391 1709 391 
Q 2188 391 2477 730 
Q 2766 1069 2766 1631 
L 2766 1759 
L 2194 1759 
z
M 3341 1997 
L 3341 0 
L 2766 0 
L 2766 531 
Q 2569 213 2275 61 
Q 1981 -91 1556 -91 
Q 1019 -91 701 211 
Q 384 513 384 1019 
Q 384 1609 779 1909 
Q 1175 2209 1959 2209 
L 2766 2209 
L 2766 2266 
Q 2766 2663 2505 2880 
Q 2244 3097 1772 3097 
Q 1472 3097 1187 3025 
Q 903 2953 641 2809 
L 641 3341 
Q 956 3463 1253 3523 
Q 1550 3584 1831 3584 
Q 2591 3584 2966 3190 
Q 3341 2797 3341 1997 
z
" transform="scale(0.015625)"/>
      <path id="DejaVuSans-67" d="M 2906 1791 
Q 2906 2416 2648 2759 
Q 2391 3103 1925 3103 
Q 1463 3103 1205 2759 
Q 947 2416 947 1791 
Q 947 1169 1205 825 
Q 1463 481 1925 481 
Q 2391 481 2648 825 
Q 2906 1169 2906 1791 
z
M 3481 434 
Q 3481 -459 3084 -895 
Q 2688 -1331 1869 -1331 
Q 1566 -1331 1297 -1286 
Q 1028 -1241 775 -1147 
L 775 -588 
Q 1028 -725 1275 -790 
Q 1522 -856 1778 -856 
Q 2344 -856 2625 -561 
Q 2906 -266 2906 331 
L 2906 616 
Q 2728 306 2450 153 
Q 2172 0 1784 0 
Q 1141 0 747 490 
Q 353 981 353 1791 
Q 353 2603 747 3093 
Q 1141 3584 1784 3584 
Q 2172 3584 2450 3431 
Q 2728 3278 2906 2969 
L 2906 3500 
L 3481 3500 
L 3481 434 
z
" transform="scale(0.015625)"/>
      <path id="DejaVuSans-41" d="M 2188 4044 
L 1331 1722 
L 3047 1722 
L 2188 4044 
z
M 1831 4666 
L 2547 4666 
L 4325 0 
L 3669 0 
L 3244 1197 
L 1141 1197 
L 716 0 
L 50 0 
L 1831 4666 
z
" transform="scale(0.015625)"/>
      <path id="DejaVuSans-57" d="M 213 4666 
L 850 4666 
L 1831 722 
L 2809 4666 
L 3519 4666 
L 4500 722 
L 5478 4666 
L 6119 4666 
L 4947 0 
L 4153 0 
L 3169 4050 
L 2175 0 
L 1381 0 
L 213 4666 
z
" transform="scale(0.015625)"/>
      <path id="DejaVuSans-53" d="M 3425 4513 
L 3425 3897 
Q 3066 4069 2747 4153 
Q 2428 4238 2131 4238 
Q 1616 4238 1336 4038 
Q 1056 3838 1056 3469 
Q 1056 3159 1242 3001 
Q 1428 2844 1947 2747 
L 2328 2669 
Q 3034 2534 3370 2195 
Q 3706 1856 3706 1288 
Q 3706 609 3251 259 
Q 2797 -91 1919 -91 
Q 1588 -91 1214 -16 
Q 841 59 441 206 
L 441 856 
Q 825 641 1194 531 
Q 1563 422 1919 422 
Q 2459 422 2753 634 
Q 3047 847 3047 1241 
Q 3047 1584 2836 1778 
Q 2625 1972 2144 2069 
L 1759 2144 
Q 1053 2284 737 2584 
Q 422 2884 422 3419 
Q 422 4038 858 4394 
Q 1294 4750 2059 4750 
Q 2388 4750 2728 4690 
Q 3069 4631 3425 4513 
z
" transform="scale(0.015625)"/>
      <path id="DejaVuSans-77" d="M 269 3500 
L 844 3500 
L 1563 769 
L 2278 3500 
L 2956 3500 
L 3675 769 
L 4391 3500 
L 4966 3500 
L 4050 0 
L 3372 0 
L 2619 2869 
L 1863 0 
L 1184 0 
L 269 3500 
z
" transform="scale(0.015625)"/>
      <path id="DejaVuSans-68" d="M 3513 2113 
L 3513 0 
L 2938 0 
L 2938 2094 
Q 2938 2591 2744 2837 
Q 2550 3084 2163 3084 
Q 1697 3084 1428 2787 
Q 1159 2491 1159 1978 
L 1159 0 
L 581 0 
L 581 4863 
L 1159 4863 
L 1159 2956 
Q 1366 3272 1645 3428 
Q 1925 3584 2291 3584 
Q 2894 3584 3203 3211 
Q 3513 2838 3513 2113 
z
" transform="scale(0.015625)"/>
      <path id="DejaVuSans-49" d="M 628 4666 
L 1259 4666 
L 1259 0 
L 628 0 
L 628 4666 
z
" transform="scale(0.015625)"/>
      <path id="DejaVuSans-50" d="M 1259 4147 
L 1259 2394 
L 2053 2394 
Q 2494 2394 2734 2622 
Q 2975 2850 2975 3272 
Q 2975 3691 2734 3919 
Q 2494 4147 2053 4147 
L 1259 4147 
z
M 628 4666 
L 2053 4666 
Q 2838 4666 3239 4311 
Q 3641 3956 3641 3272 
Q 3641 2581 3239 2228 
Q 2838 1875 2053 1875 
L 1259 1875 
L 1259 0 
L 628 0 
L 628 4666 
z
" transform="scale(0.015625)"/>
      <path id="DejaVuSans-76" d="M 191 3500 
L 800 3500 
L 1894 563 
L 2988 3500 
L 3597 3500 
L 2284 0 
L 1503 0 
L 191 3500 
z
" transform="scale(0.015625)"/>
     </defs>
     <use xlink:href="#DejaVuSans-48"/>
     <use xlink:href="#DejaVuSans-69" x="75.195312"/>
     <use xlink:href="#DejaVuSans-73" x="102.978516"/>
     <use xlink:href="#DejaVuSans-74" x="155.078125"/>
     <use xlink:href="#DejaVuSans-6f" x="194.287109"/>
     <use xlink:href="#DejaVuSans-72" x="255.46875"/>
     <use xlink:href="#DejaVuSans-79" x="296.582031"/>
     <use xlink:href="#DejaVuSans-20" x="355.761719"/>
     <use xlink:href="#DejaVuSans-6f" x="387.548828"/>
     <use xlink:href="#DejaVuSans-66" x="448.730469"/>
     <use xlink:href="#DejaVuSans-20" x="483.935547"/>
     <use xlink:href="#DejaVuSans-70" x="515.722656"/>
     <use xlink:href="#DejaVuSans-65" x="579.199219"/>
     <use xlink:href="#DejaVuSans-72" x="640.722656"/>
     <use xlink:href="#DejaVuSans-63" x="679.585938"/>
     <use xlink:href="#DejaVuSans-65" x="734.566406"/>
     <use xlink:href="#DejaVuSans-6e" x="796.089844"/>
     <use xlink:href="#DejaVuSans-74" x="859.46875"/>
     <use xlink:href="#DejaVuSans-61" x="898.677734"/>
     <use xlink:href="#DejaVuSans-67" x="959.957031"/>
     <use xlink:href="#DejaVuSans-65" x="1023.433594"/>
     <use xlink:href="#DejaVuSans-20" x="1084.957031"/>
     <use xlink:href="#DejaVuSans-6f" x="1116.744141"/>
     <use xlink:href="#DejaVuSans-66" x="1177.925781"/>
     <use xlink:href="#DejaVuSans-20" x="1213.130859"/>
     <use xlink:href="#DejaVuSans-41" x="1244.917969"/>
     <use xlink:href="#DejaVuSans-57" x="1307.826172"/>
     <use xlink:href="#DejaVuSans-53" x="1406.703125"/>
     <use xlink:href="#DejaVuSans-20" x="1470.179688"/>
     <use xlink:href="#DejaVuSans-6f" x="1501.966797"/>
     <use xlink:href="#DejaVuSans-77" x="1563.148438"/>
     <use xlink:href="#DejaVuSans-6e" x="1644.935547"/>
     <use xlink:href="#DejaVuSans-65" x="1708.314453"/>
     <use xlink:href="#DejaVuSans-72" x="1769.837891"/>
     <use xlink:href="#DejaVuSans-73" x="1810.951172"/>
     <use xlink:href="#DejaVuSans-68" x="1863.050781"/>
     <use xlink:href="#DejaVuSans-69" x="1926.429688"/>
     <use xlink:href="#DejaVuSans-70" x="1954.212891"/>
     <use xlink:href="#DejaVuSans-20" x="2017.689453"/>
     <use xlink:href="#DejaVuSans-6f" x="2049.476562"/>
     <use xlink:href="#DejaVuSans-66" x="2110.658203"/>
     <use xlink:href="#DejaVuSans-20" x="2145.863281"/>
     <use xlink:href="#DejaVuSans-49" x="2177.650391"/>
     <use xlink:href="#DejaVuSans-50" x="2207.142578"/>
     <use xlink:href="#DejaVuSans-76" x="2267.445312"/>
     <use xlink:href="#DejaVuSans-34" x="2326.625"/>
     <use xlink:href="#DejaVuSans-20" x="2390.248047"/>
     <use xlink:href="#DejaVuSans-73" x="2422.035156"/>
     <use xlink:href="#DejaVuSans-70" x="2474.134766"/>
     <use xlink:href="#DejaVuSans-61" x="2537.611328"/>
     <use xlink:href="#DejaVuSans-63" x="2598.890625"/>
     <use xlink:href="#DejaVuSans-65" x="2653.871094"/>
    </g>
   </g>
  </g>
 </g>
 <defs>
  <clipPath id="p906e395f3e">
   <rect x="30.103125" y="22.318125" width="502.2" height="277.2"/>
  </clipPath>
 </defs>
</svg>
